<svg width="76" height="76" viewBox="0 0 76 76" fill="none" xmlns="http://www.w3.org/2000/svg">
<path d="M1.11612 33.553C3.15777 16.8104 16.253 3.47926 32.8825 1.07934V12.4881C22.4712 14.6677 14.3321 23.0261 12.4762 33.553H1.11612ZM64.0796 33.553C62.1755 22.7528 53.6576 14.2349 42.8573 12.3308V0.970735C59.8729 3.04566 73.3647 16.5374 75.4397 33.553H64.0796ZM42.8573 75.2943V63.9342C53.3842 62.0783 61.7427 53.9392 63.9223 43.5279H75.3311C72.9311 60.1574 59.6 73.2526 42.8573 75.2943ZM1.22472 43.5279H12.6335C14.7565 53.6689 22.7415 61.6539 32.8825 63.7769V75.1857C16.5241 72.8249 3.58552 59.8863 1.22472 43.5279Z" stroke="white"/>
</svg>
