<svg width="71" height="91" viewBox="0 0 71 91" fill="none" xmlns="http://www.w3.org/2000/svg">
<path d="M17.5957 9.25996C8.31797 14.3432 0.550977 18.6621 0.355469 18.8576C0 19.1953 0 19.4441 0 33.2008C0 48.2904 0.0177734 48.6992 0.977539 53.498C3.83906 67.7879 13.1346 80.2826 26.0381 87.1432C28.402 88.4051 34.3205 91 34.8182 91C35.4047 90.9822 43.1184 87.5875 45.3045 86.3611C49.8189 83.8373 53.1781 81.2602 56.7861 77.5633C64.2687 69.9029 68.801 60.643 70.4006 49.7656C70.6672 48.0061 70.7205 45.7133 70.7738 33.5562L70.8449 19.4086L70.3473 18.8754C69.7252 18.2178 35.5291 0 34.907 0C34.676 0 26.8912 4.15898 17.5957 9.25996ZM51.2764 12.3348L67.3613 20.9193V34.0539C67.3436 46.7797 67.3436 47.2596 66.9525 49.7478C65.4062 59.5766 61.2828 68.0012 54.6711 74.8617C49.8189 79.8916 45.3223 82.9131 37.9285 86.0945L34.8004 87.4453L32.241 86.3078C27.6732 84.2994 24.9361 82.7709 21.9146 80.5137C12.5836 73.5643 6.11406 63.149 4.10566 51.8984C3.43027 48.0594 3.37695 46.9041 3.37695 33.8051V20.9371L19.0176 12.3525C27.6199 7.6248 34.7826 3.75019 34.9248 3.75019C35.067 3.75019 42.4252 7.60703 51.2764 12.3348Z" fill="white"/>
<path d="M48.5748 37.022C47.5617 37.8395 43.0473 41.5186 38.515 45.1977L30.2859 51.8983L26.5357 47.5083C22.0391 42.2118 21.968 42.1229 21.1326 42.1229C20.2795 42.1229 19.8352 42.3895 19.533 43.1182C19.3197 43.6337 19.3197 43.8114 19.533 44.2913C19.8529 45.0733 28.7752 55.4708 29.3795 55.7907C29.6994 55.9684 30.0016 55.9862 30.4281 55.8796C31.0324 55.7196 52.2184 38.586 52.5383 38.0173C53.0893 36.9686 52.2184 35.5468 51.0275 35.5468C50.4943 35.5468 50.0855 35.7956 48.5748 37.022Z" fill="white"/>
</svg>
