<svg width="58" height="68" viewBox="0 0 58 68" fill="none" xmlns="http://www.w3.org/2000/svg">
<path d="M27.8759 0.287994C27.6311 0.532788 27.5879 0.763183 27.5879 1.77116C27.5879 2.83673 27.6311 3.00953 27.9191 3.28312C28.3511 3.68631 28.8983 3.68631 29.2871 3.26872C29.5606 2.98073 29.6038 2.76474 29.6038 1.75676C29.6038 0.417591 29.3734 9.53674e-07 28.5959 9.53674e-07C28.3511 9.53674e-07 28.0343 0.129598 27.8759 0.287994Z" fill="white"/>
<path d="M24.8522 6.91173C22.4618 7.34372 19.3947 8.52449 17.4507 9.76286C8.24935 15.6523 5.00942 27.1864 9.81891 36.9206C11.2445 39.815 13.1452 42.0901 16.126 44.466C18.5451 46.41 19.8987 48.1956 20.6907 50.4995C20.9498 51.2483 20.9498 51.2627 20.6619 51.2627C20.1579 51.2627 19.3227 51.6947 18.7611 52.2419C17.7531 53.221 17.5515 54.8626 18.2859 56.0866C18.6315 56.6482 18.6315 56.6626 18.3723 57.0225C17.8971 57.6849 17.7387 58.6641 17.9403 59.5713C18.0843 60.2193 18.2427 60.5073 18.7899 61.0544C19.5243 61.7888 20.2587 62.0624 21.5114 62.0624H22.217L22.3034 62.7824C22.5194 64.568 23.9882 66.5119 25.7881 67.4047C26.7673 67.8799 26.8249 67.8943 28.5961 67.8943C30.3384 67.8943 30.4248 67.8799 31.3752 67.4191C33.1752 66.5263 34.4567 64.8704 34.8311 62.9552L34.9895 62.0912L36.0119 62.0336C37.0487 61.9616 37.7686 61.688 38.359 61.1408C39.367 60.2337 39.6262 58.5057 38.9494 57.2961L38.575 56.6338L38.8918 56.0866C39.5974 54.949 39.4534 53.4514 38.575 52.4147C37.999 51.7523 37.5383 51.4787 36.7607 51.3347C36.1415 51.2195 36.1415 51.2339 36.7607 49.7651C37.5671 47.8212 38.8198 46.2516 40.8214 44.682C43.5141 42.5653 45.3573 40.5205 46.7396 38.087C50.2676 31.9527 50.5123 24.5081 47.3732 18.2587C45.3429 14.2124 41.9157 10.7708 37.8982 8.75488C36.3287 7.9629 33.7223 7.12772 31.9656 6.85413C29.9928 6.53734 26.8105 6.56614 24.8522 6.91173ZM32.628 9.05728C39.1942 10.5548 44.4501 15.3067 46.5812 21.6714C47.2292 23.6153 47.4884 25.2713 47.4884 27.5752C47.474 31.5207 46.4516 34.8903 44.2197 38.231C43.1397 39.8581 41.8006 41.2549 39.9286 42.7381C36.8759 45.1572 35.3783 47.1876 34.4135 50.1827L34.0967 51.1907L33.2184 51.2339L32.34 51.2771L32.3688 40.9381L32.412 30.5992L34.7159 30.5272C36.8615 30.4552 37.0775 30.4264 37.927 30.0376C39.0934 29.5048 40.2454 28.2808 40.7062 27.1145C41.3398 25.4297 41.023 23.2985 39.9286 21.9018C38.071 19.5546 34.5863 19.1802 32.268 21.0954C30.828 22.2618 30.324 23.7017 30.324 26.5961V28.5112H28.5961H26.8681V26.5097C26.8681 24.1481 26.6089 23.0825 25.7593 21.9738C22.649 17.9131 16.1692 20.1018 16.1836 25.1993C16.198 27.316 17.3643 29.1592 19.2651 30.0376C20.1291 30.4264 20.2875 30.4552 22.5194 30.4984L24.8522 30.556V40.9093V51.2771L23.9882 51.2339L23.1242 51.1907L22.6346 49.7795C22.3754 49.0019 21.8282 47.85 21.4538 47.202C20.6475 45.8772 19.0203 44.0629 17.7387 43.0837C14.1244 40.3477 11.9789 37.439 10.6685 33.5079C9.99171 31.4775 9.73251 29.836 9.73251 27.5176C9.73251 22.2906 11.5901 17.8267 15.2764 14.1836C18.1995 11.2892 21.641 9.53247 25.7161 8.85568C27.4009 8.56769 30.972 8.68288 32.628 9.05728ZM22.9658 22.2618C24.4346 22.9961 24.8954 24.1337 24.8234 26.8697L24.7802 28.4392H22.6922C20.8346 28.4392 20.5467 28.4104 20.0283 28.1224C18.8331 27.4888 18.2283 26.4809 18.2283 25.1705C18.2427 22.7082 20.7627 21.1674 22.9658 22.2618ZM36.9191 22.1178C39.007 22.9817 39.655 25.8041 38.1286 27.4024C37.2791 28.2952 36.7895 28.4392 34.4999 28.4392H32.412L32.3688 26.8697C32.3256 24.9689 32.5128 23.9609 33.06 23.2121C33.8663 22.089 35.6375 21.585 36.9191 22.1178ZM30.324 40.8949V51.2627H28.5961H26.8681V40.8949V30.5272H28.5961H30.324V40.8949ZM36.8615 53.581C37.3511 53.9698 37.3943 54.8482 36.9191 55.2946C36.6167 55.5826 36.4583 55.5826 28.5961 55.5826C20.7339 55.5826 20.5755 55.5826 20.2731 55.2946C19.7979 54.8482 19.8411 53.9698 20.3307 53.581C20.7051 53.2786 20.8346 53.2786 28.5961 53.2786C36.3575 53.2786 36.4871 53.2786 36.8615 53.581ZM36.9767 57.9873C37.3367 58.3185 37.3223 59.2401 36.9479 59.6145C36.6599 59.9025 36.4727 59.9025 28.5961 59.9025C20.7195 59.9025 20.5323 59.9025 20.2443 59.6145C20.0715 59.4417 19.9563 59.1393 19.9563 58.8225C19.9563 58.5057 20.0715 58.2033 20.2443 58.0305C20.5323 57.7425 20.7195 57.7425 28.6249 57.7425C35.9399 57.7425 36.7319 57.7713 36.9767 57.9873ZM32.916 62.2784C32.916 62.3936 32.7864 62.84 32.6136 63.2864C31.5336 66.1807 27.5593 66.9007 25.4569 64.5824C24.809 63.8912 24.2762 62.8112 24.2762 62.2496C24.2762 62.1056 25.1113 62.0624 28.5961 62.0624C32.2968 62.0624 32.916 62.0912 32.916 62.2784Z" fill="white"/>
<path d="M8.29298 8.45216C7.87539 8.99935 8.00498 9.41694 8.91216 10.3385C9.96334 11.4041 10.6545 11.5049 11.1009 10.6553C11.3889 10.1081 11.2881 9.87773 10.3233 8.88415C9.37295 7.90497 8.81137 7.78978 8.29298 8.45216Z" fill="white"/>
<path d="M46.754 8.99964C45.9621 9.82042 45.8613 9.99321 45.9333 10.3388C45.9909 10.5548 46.1637 10.8428 46.3365 10.9724C46.8548 11.4332 47.2724 11.2892 48.2228 10.382C48.914 9.70522 49.0868 9.46043 49.0868 9.08604C49.0868 8.49565 48.6836 8.06366 48.1076 8.06366C47.7332 8.06366 47.4884 8.23646 46.754 8.99964Z" fill="white"/>
<path d="M0.401017 27.7481C-0.0597717 28.1369 -0.13177 28.6697 0.228222 29.1305C0.516215 29.5049 0.602613 29.5193 1.81218 29.5193C3.02176 29.5193 3.10815 29.5049 3.38175 29.1449C3.77054 28.6409 3.75614 28.2953 3.32415 27.8633C3.02176 27.5465 2.84896 27.5033 1.84098 27.5033C0.962604 27.5033 0.617012 27.5609 0.401017 27.7481Z" fill="white"/>
<path d="M53.8675 27.8633C53.4355 28.2953 53.4211 28.6409 53.8099 29.1449C54.0835 29.5049 54.1699 29.5193 55.3794 29.5193C56.589 29.5193 56.6754 29.5049 56.9634 29.1305C57.3234 28.6697 57.2514 28.1369 56.7906 27.7481C56.5746 27.5609 56.229 27.5033 55.3506 27.5033C54.3426 27.5033 54.1699 27.5465 53.8675 27.8633Z" fill="white"/>
<path d="M8.95473 46.7843C7.97555 47.7635 7.83156 48.3539 8.42194 48.8435C8.99793 49.2899 9.40112 49.1747 10.3515 48.2531C11.3019 47.3315 11.4747 46.7843 10.9563 46.2228C10.4667 45.6756 9.89071 45.834 8.95473 46.7843Z" fill="white"/>
<path d="M46.1628 46.3237C45.7308 46.8853 45.8748 47.3029 46.8684 48.2676C47.8044 49.1892 48.2508 49.3188 48.7548 48.8148C49.2876 48.282 49.1436 47.6916 48.222 46.7701C47.2428 45.7765 46.6812 45.6613 46.1628 46.3237Z" fill="white"/>
</svg>
