<svg width="66" height="77" viewBox="0 0 66 77" fill="none" xmlns="http://www.w3.org/2000/svg">
<mask id="path-1-inside-1_231_95" fill="white">
<path fill-rule="evenodd" clip-rule="evenodd" d="M33.2581 17.7703L15.5156 28.014V45.3586L0.515625 52.1726V19.3537L33.2581 0.449829L66.0006 19.3537V53.7706L51.0006 46.5273V28.014L33.2581 17.7703ZM44.1591 52.4512L33.2581 58.7449L21.3161 51.8502L4.52651 59.4772L33.2581 76.0654L60.4956 60.3398L44.1591 52.4512Z"/>
</mask>
<path d="M15.5156 28.014L15.0156 27.1479L14.5156 27.4366V28.014H15.5156ZM33.2581 17.7703L33.7581 16.9043L33.2581 16.6156L32.7581 16.9043L33.2581 17.7703ZM15.5156 45.3586L15.9292 46.269L16.5156 46.0026V45.3586H15.5156ZM0.515625 52.1726H-0.484375V53.7252L0.92922 53.0831L0.515625 52.1726ZM0.515625 19.3537L0.015625 18.4877L-0.484375 18.7764V19.3537H0.515625ZM33.2581 0.449829L33.7581 -0.416196L33.2581 -0.704871L32.7581 -0.416196L33.2581 0.449829ZM66.0006 19.3537H67.0006V18.7764L66.5006 18.4877L66.0006 19.3537ZM66.0006 53.7706L65.5658 54.6711L67.0006 55.3639V53.7706H66.0006ZM51.0006 46.5273H50.0006V47.1549L50.5658 47.4278L51.0006 46.5273ZM51.0006 28.014H52.0006V27.4366L51.5006 27.1479L51.0006 28.014ZM44.1591 52.4512L44.594 51.5506L44.1174 51.3205L43.6591 51.5851L44.1591 52.4512ZM33.2581 58.7449L32.7581 59.6109L33.2581 59.8996L33.7581 59.6109L33.2581 58.7449ZM21.3161 51.8502L21.8161 50.9841L21.3708 50.727L20.9025 50.9397L21.3161 51.8502ZM4.52651 59.4772L4.11292 58.5667L2.34252 59.371L4.02651 60.3432L4.52651 59.4772ZM33.2581 76.0654L32.7581 76.9314L33.2581 77.2201L33.7581 76.9314L33.2581 76.0654ZM60.4956 60.3398L60.9956 61.2058L62.6321 60.261L60.9305 59.4393L60.4956 60.3398ZM16.0156 28.88L33.7581 18.6364L32.7581 16.9043L15.0156 27.1479L16.0156 28.88ZM16.5156 45.3586V28.014H14.5156V45.3586H16.5156ZM0.92922 53.0831L15.9292 46.269L15.102 44.4481L0.10203 51.2622L0.92922 53.0831ZM-0.484375 19.3537V52.1726H1.51562V19.3537H-0.484375ZM32.7581 -0.416196L0.015625 18.4877L1.01562 20.2197L33.7581 1.31585L32.7581 -0.416196ZM66.5006 18.4877L33.7581 -0.416196L32.7581 1.31585L65.5006 20.2197L66.5006 18.4877ZM67.0006 53.7706V19.3537H65.0006V53.7706H67.0006ZM50.5658 47.4278L65.5658 54.6711L66.4354 52.8701L51.4354 45.6268L50.5658 47.4278ZM50.0006 28.014V46.5273H52.0006V28.014H50.0006ZM32.7581 18.6364L50.5006 28.88L51.5006 27.1479L33.7581 16.9043L32.7581 18.6364ZM43.6591 51.5851L32.7581 57.8788L33.7581 59.6109L44.6591 53.3172L43.6591 51.5851ZM33.7581 57.8788L21.8161 50.9841L20.8161 52.7162L32.7581 59.6109L33.7581 57.8788ZM20.9025 50.9397L4.11292 58.5667L4.94011 60.3876L21.7297 52.7606L20.9025 50.9397ZM4.02651 60.3432L32.7581 76.9314L33.7581 75.1994L5.02651 58.6111L4.02651 60.3432ZM33.7581 76.9314L60.9956 61.2058L59.9956 59.4738L32.7581 75.1994L33.7581 76.9314ZM60.9305 59.4393L44.594 51.5506L43.7243 53.3517L60.0608 61.2403L60.9305 59.4393Z" fill="white" mask="url(#path-1-inside-1_231_95)"/>
</svg>
