<svg width="60" height="68" viewBox="0 0 60 68" fill="none" xmlns="http://www.w3.org/2000/svg">
<path d="M27.957 0.0340271C26.2703 0.219963 25.075 0.419182 23.9727 0.69809C19.9219 1.70747 16.2961 3.76606 13.2812 6.79418C9.20391 10.8715 6.86641 16.0379 6.49453 21.8418C6.40156 23.17 6.38828 23.2098 6.05625 23.2762C3.42656 23.8473 1.71328 25.0559 0.796875 26.9817C0 28.6817 0 28.6551 0 36.9426C0 43.7559 0.0265625 44.5926 0.239063 45.3629C0.982813 48.059 2.84219 49.852 5.55156 50.4762C6.21563 50.6356 7.17188 50.6887 9.21719 50.6887H11.9797L12.3117 50.3567C12.4977 50.1707 12.6836 49.8387 12.7367 49.6129C12.843 49.0684 12.843 24.8168 12.7367 24.2723C12.6836 24.0465 12.4977 23.7145 12.325 23.5286C12.0195 23.2231 11.8867 23.1965 10.5055 23.17L9.03125 23.1301L9.07109 22.0676C9.23047 18.2559 10.6117 14.2981 12.9094 11.0707C14.4633 8.89262 17.2656 6.39574 19.6828 5.04106C22.4984 3.47387 26.3766 2.47778 29.6836 2.47778C32.9906 2.47778 36.8688 3.47387 39.6844 5.04106C42.1016 6.39574 44.9039 8.89262 46.4578 11.0707C48.7555 14.2981 50.1367 18.2559 50.2961 22.0676L50.3359 23.1301L48.8617 23.17C47.4672 23.1965 47.3477 23.2231 47.0422 23.5418C46.8297 23.7543 46.6703 24.0997 46.6172 24.4317C46.5773 24.7372 46.5508 30.5942 46.5773 37.4473L46.6172 49.9184L47.0555 50.3036C47.4805 50.6754 47.5203 50.6887 48.9414 50.6887H50.3891L50.3227 51.3793C49.9508 55.2176 49.0477 57.5551 47.2945 59.1622C45.568 60.7293 42.6328 61.6723 38.7016 61.9247L37.2938 62.0176L37.2141 61.1942C37.1078 60.2114 36.8953 59.7598 36.2711 59.2153C35.5406 58.5778 34.8633 58.4981 30.1086 58.5512C26.2969 58.5911 25.8586 58.6176 25.4336 58.8434C24.7828 59.1887 24.5172 59.4543 24.225 60.0122C23.9992 60.4504 23.9727 60.8223 23.9727 63.2262C23.9727 66.1083 24.0258 66.4536 24.6102 67.0778C25.407 67.9278 25.5531 67.9543 30.6133 67.9543C35.1156 67.9543 35.2219 67.9543 35.793 67.6489C36.6297 67.2372 37.1211 66.4801 37.2141 65.4575L37.2938 64.6473L37.9711 64.5809C38.343 64.5411 39.3391 64.4481 40.1758 64.3684C45.9 63.8239 49.4062 61.845 51.2656 58.1262C52.1023 56.4528 52.5539 54.7395 52.8328 52.1629L52.9922 50.6356L53.9352 50.4098C56.618 49.7458 58.3977 48.0192 59.1414 45.3497C59.3406 44.5926 59.3672 43.7293 59.3672 36.8762C59.3672 29.877 59.3406 29.1731 59.1281 28.3762C58.3313 25.5872 56.4984 23.9668 53.3109 23.2762C52.9789 23.2098 52.9656 23.17 52.8727 21.8418C52.1688 10.9114 44.1734 2.05278 33.4023 0.273087C32.2734 0.0871506 28.8203 -0.0722198 27.957 0.0340271ZM10.1602 36.8762V48.1653H8.87187C4.91406 48.152 3.12109 47.0231 2.60313 44.2473C2.40391 43.1848 2.40391 30.5676 2.60313 29.5051C2.89531 27.9114 3.73203 26.7692 5.06016 26.1582C5.91016 25.7731 6.87969 25.627 8.73906 25.6004L10.1602 25.5872V36.8762ZM53.8555 26.0387C55.2102 26.5434 56.2063 27.5661 56.6047 28.8809C56.8172 29.5715 56.8438 30.2887 56.8172 36.8762C56.7906 43.7825 56.7773 44.1543 56.5117 45.0176C56.2727 45.7747 56.1 46.0668 55.4758 46.7043C54.3734 47.82 53.6695 48.059 51.1727 48.1387L49.207 48.1918V36.9426V25.6934L51.2391 25.7598C52.6602 25.7997 53.4305 25.8793 53.8555 26.0387ZM34.5977 63.3059V65.4309H30.5469H26.4961V63.3059V61.1809H30.5469H34.5977V63.3059Z" fill="white"/>
</svg>
