<svg width="74" height="75" viewBox="0 0 74 75" fill="none" xmlns="http://www.w3.org/2000/svg">
<mask id="path-1-inside-1_231_88" fill="white">
<path fill-rule="evenodd" clip-rule="evenodd" d="M37.167 0.846069L26.5604 11.4527L10.9406 27.0725L0.333984 37.6791L10.9406 48.2857L26.5604 63.9055L37.167 74.5121L47.7736 63.9055L63.3934 48.2857L74 37.6791L63.3934 27.0725L58.5414 22.2204L48.0992 32.9915L52.7868 37.6791L37.167 53.2989L21.5472 37.6791L37.167 22.0593L42.0405 26.9328L52.4827 16.1618L47.7736 11.4527L37.167 0.846069Z"/>
</mask>
<path d="M37.167 0.846069L37.8741 0.138963L37.167 -0.568144L36.4599 0.138963L37.167 0.846069ZM0.333984 37.6791L-0.373122 36.972L-1.08023 37.6791L-0.373122 38.3862L0.333984 37.6791ZM37.167 74.5121L36.4599 75.2192L37.167 75.9263L37.8741 75.2192L37.167 74.5121ZM74 37.6791L74.7071 38.3862L75.4142 37.6791L74.7071 36.972L74 37.6791ZM58.5414 22.2204L59.2485 21.5133L58.5303 20.7952L57.8234 21.5244L58.5414 22.2204ZM48.0992 32.9915L47.3812 32.2954L46.6959 33.0024L47.3921 33.6986L48.0992 32.9915ZM52.7868 37.6791L53.4939 38.3862L54.201 37.6791L53.4939 36.972L52.7868 37.6791ZM37.167 53.2989L36.4599 54.006L37.167 54.7131L37.8741 54.006L37.167 53.2989ZM21.5472 37.6791L20.8401 36.972L20.133 37.6791L20.8401 38.3862L21.5472 37.6791ZM37.167 22.0593L37.8741 21.3522L37.167 20.6451L36.4599 21.3522L37.167 22.0593ZM42.0405 26.9328L41.3334 27.6399L42.0516 28.3581L42.7585 27.6289L42.0405 26.9328ZM52.4827 16.1618L53.2007 16.8578L53.886 16.1509L53.1898 15.4546L52.4827 16.1618ZM47.7736 11.4527L47.0665 12.1598L47.7736 11.4527ZM27.2675 12.1598L37.8741 1.55318L36.4599 0.138963L25.8533 10.7456L27.2675 12.1598ZM11.6477 27.7796L27.2675 12.1598L25.8533 10.7456L10.2335 26.3654L11.6477 27.7796ZM1.04109 38.3862L11.6477 27.7796L10.2335 26.3654L-0.373122 36.972L1.04109 38.3862ZM11.6477 47.5786L1.04109 36.972L-0.373122 38.3862L10.2335 48.9928L11.6477 47.5786ZM27.2675 63.1984L11.6477 47.5786L10.2335 48.9928L25.8533 64.6126L27.2675 63.1984ZM37.8741 73.805L27.2675 63.1984L25.8533 64.6126L36.4599 75.2192L37.8741 73.805ZM47.0665 63.1984L36.4599 73.805L37.8741 75.2192L48.4807 64.6126L47.0665 63.1984ZM62.6863 47.5786L47.0665 63.1984L48.4807 64.6126L64.1005 48.9928L62.6863 47.5786ZM73.2929 36.972L62.6863 47.5786L64.1005 48.9928L74.7071 38.3862L73.2929 36.972ZM62.6863 27.7796L73.2929 38.3862L74.7071 36.972L64.1005 26.3654L62.6863 27.7796ZM57.8343 22.9275L62.6863 27.7796L64.1005 26.3654L59.2485 21.5133L57.8343 22.9275ZM57.8234 21.5244L47.3812 32.2954L48.8172 33.6875L59.2593 22.9165L57.8234 21.5244ZM53.4939 36.972L48.8063 32.2844L47.3921 33.6986L52.0797 38.3862L53.4939 36.972ZM37.8741 54.006L53.4939 38.3862L52.0797 36.972L36.4599 52.5918L37.8741 54.006ZM20.8401 38.3862L36.4599 54.006L37.8741 52.5918L22.2543 36.972L20.8401 38.3862ZM36.4599 21.3522L20.8401 36.972L22.2543 38.3862L37.8741 22.7664L36.4599 21.3522ZM42.7476 26.2257L37.8741 21.3522L36.4599 22.7664L41.3334 27.6399L42.7476 26.2257ZM42.7585 27.6289L53.2007 16.8578L51.7647 15.4657L41.3225 26.2367L42.7585 27.6289ZM47.0665 12.1598L51.7756 16.8689L53.1898 15.4546L48.4807 10.7456L47.0665 12.1598ZM36.4599 1.55318L47.0665 12.1598L48.4807 10.7456L37.8741 0.138963L36.4599 1.55318Z" fill="white" mask="url(#path-1-inside-1_231_88)"/>
</svg>
