<svg width="65" height="93" viewBox="0 0 65 93" fill="none" xmlns="http://www.w3.org/2000/svg">
<path d="M29.5684 1.04102C26.9707 1.72754 24.6328 3.37891 23.1299 5.56836L22.4248 6.60742H20.7734C17.916 6.60742 16.042 7.83203 15.2627 10.1699L15.0215 10.875H11.4775C9.51074 10.875 7.54395 10.9678 7.09863 11.0791C4.03711 11.7842 1.43945 14.4375 0.790039 17.5176C0.493164 18.9092 0.493164 84.2959 0.790039 85.6875C1.10547 87.1533 1.79199 88.4893 2.84961 89.6396C3.94434 90.8457 4.96484 91.4951 6.54199 91.9775C7.61816 92.3115 8.69434 92.3301 32.5 92.3301C56.3057 92.3301 57.3818 92.3115 58.458 91.9775C60.0352 91.4951 61.0557 90.8457 62.1504 89.6396C63.208 88.4893 63.8945 87.1533 64.21 85.6875C64.3584 84.9824 64.4141 75.2041 64.4141 51.5469C64.4141 14.9941 64.4883 17.4062 63.2637 15.1055C62.2617 13.2129 60.0908 11.5801 57.9014 11.0791C57.4561 10.9678 55.4893 10.875 53.541 10.875H50.0156L49.5889 9.87305C49.0693 8.61133 48.123 7.62793 46.8984 7.05273C46.1191 6.68164 45.6553 6.60742 44.2637 6.60742H42.5752L41.8701 5.58691C40.5156 3.60156 38.5859 2.13574 36.2295 1.26367C34.4854 0.632812 31.4609 0.521484 29.5684 1.04102ZM34.0029 3.63867C36.415 4.10254 38.79 5.80957 39.9033 7.90625C40.2373 8.51855 40.6641 9.09375 40.8496 9.20508C41.0352 9.29785 42.0928 9.39062 43.2061 9.39062C45.5254 9.39062 46.3047 9.66895 46.8242 10.708C47.1025 11.2275 47.1582 11.8584 47.1582 14.3447V17.3691H32.5H17.8418V14.252C17.8418 11.543 17.8789 11.0791 18.1943 10.5781C18.751 9.65039 19.5674 9.39062 21.8311 9.39062C22.9072 9.39062 23.9648 9.29785 24.1504 9.20508C24.3359 9.09375 24.7627 8.51855 25.0967 7.90625C26.7666 4.78906 30.5146 2.98926 34.0029 3.63867ZM14.873 16.1445C14.873 18.7236 15.0586 19.6699 15.6152 19.9668C16.0791 20.2266 48.9209 20.2266 49.3848 19.9668C49.9414 19.6699 50.127 18.7236 50.127 16.1074V13.6211L53.708 13.6953C56.918 13.751 57.3633 13.8066 58.1982 14.1777C59.3115 14.6787 60.1836 15.4951 60.8516 16.627L61.3525 17.4619L61.4082 51.3242C61.4453 82.6631 61.4268 85.2422 61.1484 86.0029C60.7402 87.0791 59.5713 88.3408 58.3838 88.9531L57.4561 89.4541H32.5C8.82422 89.4541 7.50684 89.4355 6.82031 89.1201C5.74414 88.6191 4.38965 87.2461 3.94434 86.207L3.55469 85.2979L3.5918 51.3799C3.64746 19.0762 3.66602 17.4248 3.98145 16.8496C4.50098 15.9033 5.5957 14.79 6.39355 14.3818C7.48828 13.8066 8.36035 13.6953 11.7744 13.6768L14.873 13.6582V16.1445Z" fill="white"/>
<path d="M29.8838 8.66699C29.2901 8.88965 28.8819 9.74316 29.0489 10.4111C29.253 11.209 30.0137 11.4316 32.5001 11.4316C35.0235 11.4316 35.7471 11.209 35.9512 10.374C36.1182 9.76172 35.7286 9.01953 35.0977 8.7041C34.5411 8.42578 30.6075 8.40723 29.8838 8.66699Z" fill="white"/>
<path d="M30.4775 36.1093C25.709 36.7773 21.5342 39.5605 18.9736 43.8095C18.6211 44.3847 18.0459 45.7021 17.6933 46.7411C16.5244 50.1367 16.6543 54.2187 18.0459 57.5585C20.5693 63.6259 26.915 67.6337 33.3349 67.207C39.9033 66.7802 45.2841 62.624 47.3808 56.3339C47.956 54.6454 47.9746 54.4413 47.9931 51.6025C47.9931 48.6708 47.9931 48.6152 47.3252 46.7411C45.8593 42.6035 43.1875 39.5048 39.458 37.6679C36.6748 36.2949 33.3164 35.7197 30.4775 36.1093ZM36.6006 39.579C40.5898 40.9521 43.4843 44.0136 44.7646 48.1699C45.1172 49.2831 45.1914 49.9697 45.1914 51.6025C45.1728 55.3134 44.0781 57.9667 41.4248 60.6015C38.8271 63.1992 36.1181 64.3124 32.5185 64.3124C30.292 64.3124 28.7705 63.9599 26.7666 62.9951C23.7422 61.5292 21.0703 58.2265 20.1425 54.8495C19.7529 53.3652 19.6972 50.1738 20.0498 48.7265C20.7549 45.7763 22.9072 42.7148 25.4121 41.0634C27.8799 39.4306 29.8467 38.874 32.8711 38.9482C34.6709 39.0038 35.2646 39.0966 36.6006 39.579Z" fill="white"/>
<path d="M33.4277 49.9326L30.9414 52.4189L29.9766 51.5098C29.2715 50.8418 28.8447 50.582 28.4551 50.582C27.7314 50.582 27.1191 51.2686 27.1191 52.0664C27.1191 52.6045 27.3418 52.9199 28.6592 54.2373C30.0693 55.6475 30.2734 55.7773 30.9229 55.7773C31.6094 55.7773 31.7949 55.6289 34.7637 52.6602C37.6768 49.7471 37.8809 49.5059 37.8809 48.8564C37.8809 47.9844 37.3613 47.4277 36.5264 47.4277C36.0068 47.4277 35.6172 47.7432 33.4277 49.9326Z" fill="white"/>
</svg>
