<svg width="54" height="68" viewBox="0 0 54 68" fill="none" xmlns="http://www.w3.org/2000/svg">
<path d="M23.9533 0.14193C19.2173 0.636124 14.4676 2.53051 10.5278 5.50938C9.08644 6.59385 6.60177 9.07852 5.5173 10.5199C2.4698 14.5558 0.685224 19.0859 0.136125 24.1788C-0.618886 31.2759 1.79715 38.7711 6.62922 44.3444L7.65878 45.525L4.10337 51.6886C2.14034 55.0793 0.506767 57.9895 0.451857 58.168C0.342037 58.6347 0.616587 59.1289 1.04214 59.2387C1.27551 59.2936 3.18363 58.9779 6.27231 58.3465C8.9629 57.8111 11.173 57.3855 11.1867 57.3993C11.2005 57.4267 11.9143 59.527 12.7654 62.0941C13.6302 64.716 14.4264 66.8575 14.5637 66.9948C14.9069 67.338 15.5658 67.3242 15.8815 66.981C16.0188 66.8438 17.8446 63.7414 19.9449 60.0898L23.7611 53.4595H26.7674H29.76L33.7273 60.3232C35.8962 64.0983 37.8181 67.3242 37.9828 67.489C38.1475 67.6674 38.4358 67.8047 38.6143 67.8047C38.7927 67.8047 39.0673 67.6674 39.2183 67.489C39.3693 67.3242 40.1655 65.1965 41.0577 62.5608C42.2932 58.9093 42.6776 57.9209 42.856 57.9209C42.9796 57.9209 45.2309 58.3602 47.8528 58.8956L52.6163 59.8702L52.9732 59.5957C53.7008 59.0603 53.6733 59.0054 49.6374 52.0318L45.8761 45.525L46.9057 44.3444C50.6395 40.0203 52.8359 34.9136 53.3988 29.2442C54.0439 22.6687 52.1084 15.9011 48.045 10.5611C42.403 3.14825 33.2331 -0.818993 23.9533 0.14193ZM29.3482 2.06378C36.8709 2.8737 43.5561 6.99194 47.6607 13.3752C50.6533 17.9877 52.0535 23.8356 51.4632 29.203C51.1063 32.4701 50.4336 34.7764 48.9236 37.8101C47.7293 40.2262 46.5487 41.9421 44.7779 43.7953C38.024 50.9062 27.9068 53.3908 18.682 50.2061C13.8911 48.5588 9.52572 45.3053 6.54686 41.1596C5.44866 39.6359 3.74645 36.2727 3.1699 34.4744C1.34414 28.9285 1.57751 22.7923 3.78764 17.3699C5.87421 12.2633 9.80027 7.84305 14.6598 5.11128C17.7348 3.38161 20.6175 2.4756 24.6397 2.00887C25.5731 1.89905 28.099 1.92651 29.3482 2.06378ZM10.1297 47.6665C13.0262 49.9864 16.7052 51.8259 20.1233 52.6495C20.9882 52.8692 21.6883 53.0751 21.6883 53.13C21.6883 53.2261 15.6756 63.6864 15.5246 63.8649C15.4697 63.9198 14.7833 62.0666 14.0009 59.7604C12.7791 56.1226 12.5458 55.546 12.2438 55.4088C11.9692 55.2852 11.1318 55.4088 7.64506 56.1089C5.29766 56.5756 3.36208 56.9462 3.34836 56.9188C3.3209 56.8913 4.99565 53.9674 8.4138 48.0646C8.77071 47.4468 9.10017 46.9389 9.14135 46.9389C9.18254 46.9389 9.62181 47.2684 10.1297 47.6665ZM47.5234 52.2103C49.1707 55.0656 50.516 57.413 50.516 57.4404C50.516 57.4542 48.5941 57.0835 46.233 56.6031C41.9775 55.752 41.5107 55.7108 41.2499 56.1501C41.1813 56.2324 40.5086 58.1543 39.7536 60.4056L38.3534 64.4964L35.1412 58.923C33.3704 55.8618 31.9015 53.281 31.8741 53.1986C31.8603 53.1163 32.5055 52.8829 33.3841 52.6633C36.8983 51.7984 40.7557 49.8629 43.4463 47.639C43.8993 47.2684 44.3249 46.9664 44.3935 46.9938C44.4622 47.0076 45.8624 49.355 47.5234 52.2103Z" fill="white"/>
<path d="M24.4329 7.00562C13.7255 8.33719 5.87336 18.0974 6.99901 28.6813C8.38549 41.7362 21.4952 49.904 33.7401 45.3465C40.2607 42.9167 45.0653 37.1374 46.342 30.1776C46.6577 28.4479 46.6714 25.0847 46.3557 23.3688C44.8731 15.2147 38.6958 8.91374 30.5828 7.26645C28.963 6.93699 25.9978 6.79971 24.4329 7.00562ZM30.1435 9.11966C32.4635 9.58639 34.8246 10.5748 36.8563 11.9063C38.1329 12.7574 40.7 15.3107 41.5511 16.6011C42.9376 18.6877 43.8436 20.8155 44.3515 23.2315C44.777 25.2083 44.777 28.3107 44.3515 30.2874C42.8415 37.4257 37.4328 42.8343 30.2945 44.3444C28.4688 44.7425 25.3527 44.7699 23.5681 44.4267C19.8342 43.6855 16.773 42.0519 14.1236 39.4025C11.4879 36.7668 9.95042 33.9252 9.18168 30.2874C8.75613 28.2969 8.75613 25.1945 9.16796 23.2315C9.96415 19.5525 11.4193 16.8482 14.0687 14.1851C16.6494 11.5769 19.5322 9.97076 23.0053 9.18829C24.9957 8.74901 28.1119 8.70783 30.1435 9.11966Z" fill="white"/>
<path d="M26.1779 14.5695C26.0543 14.6656 25.2719 16.5051 24.4208 18.6603C23.5834 20.8155 22.8833 22.5864 22.8696 22.5864C22.8696 22.6001 21.0301 22.7099 18.8062 22.8335C16.5824 22.9707 14.5919 23.1355 14.3723 23.2178C13.9879 23.3688 13.8094 23.7532 13.8918 24.3023C13.9193 24.5631 16.8981 27.1576 20.0829 29.6972L20.4673 30.0129L19.4377 33.9939C18.8611 36.1903 18.3944 38.1122 18.3944 38.2769C18.3944 38.675 18.8749 39.1143 19.3004 39.1143C19.5338 39.1143 20.9477 38.3043 23.2128 36.8492L26.7682 34.5842L30.3236 36.8492C32.6161 38.3181 33.9888 39.1143 34.2359 39.1143C34.6615 39.1143 35.1419 38.675 35.1419 38.2769C35.1419 38.1122 34.6752 36.1903 34.0987 33.9939L33.0691 30.0129L33.4535 29.6972C36.6382 27.1576 39.6171 24.5631 39.6446 24.3023C39.7269 23.7532 39.5485 23.3688 39.1641 23.2178C38.9445 23.1355 36.954 22.9707 34.7301 22.8335C32.5063 22.7099 30.6668 22.6001 30.6668 22.5864C30.6531 22.5864 29.953 20.8155 29.1156 18.6603C28.2645 16.5051 27.482 14.6656 27.3585 14.5695C27.2349 14.4872 26.9604 14.4048 26.7682 14.4048C26.576 14.4048 26.3014 14.4872 26.1779 14.5695ZM27.9899 21.0626C28.6214 22.6825 29.2529 24.1101 29.3901 24.2337C29.5823 24.4121 30.255 24.4945 32.6984 24.6455C34.3869 24.7553 35.8695 24.8514 36.0068 24.8651C36.1715 24.8926 35.4028 25.5927 33.7692 26.9517C32.3964 28.0636 31.2159 29.1344 31.1335 29.3128C31.01 29.5737 31.1335 30.2189 31.8062 32.7584C32.2592 34.4744 32.6024 35.9158 32.5886 35.9432C32.5612 35.9707 31.3257 35.2019 29.8294 34.2547C28.2096 33.2252 26.9741 32.5251 26.7682 32.5251C26.5623 32.5251 25.3268 33.2252 23.7069 34.2547C22.2107 35.2019 20.9752 35.9707 20.9477 35.9432C20.934 35.9158 21.2772 34.5018 21.7165 32.8133C22.1969 31.0013 22.4989 29.6011 22.444 29.4089C22.4028 29.2167 21.387 28.2833 19.8358 26.9929C18.2297 25.6751 17.3923 24.8926 17.5433 24.8651C17.6669 24.8514 19.1494 24.7553 20.8379 24.6455C23.2677 24.4945 23.954 24.4121 24.1462 24.2337C24.2835 24.1101 24.9012 22.6825 25.5464 21.0626C26.1779 19.4428 26.727 18.1112 26.7682 18.1112C26.8094 18.1112 27.3585 19.4428 27.9899 21.0626Z" fill="white"/>
</svg>
