<svg width="82" height="93" viewBox="0 0 82 93" fill="none" xmlns="http://www.w3.org/2000/svg">
<path d="M39.6295 1.35608C39.1201 1.84508 39.1201 1.88583 39.1201 5.73671C39.1201 9.58758 39.1201 9.62833 39.6295 10.1173C39.9351 10.4433 40.363 10.6267 40.7501 10.6267C41.1372 10.6267 41.5651 10.4433 41.8707 10.1173C42.3801 9.62833 42.3801 9.58758 42.3801 5.73671C42.3801 1.88583 42.3801 1.84508 41.8707 1.35608C41.5651 1.03008 41.1372 0.846709 40.7501 0.846709C40.363 0.846709 39.9351 1.03008 39.6295 1.35608Z" fill="white"/>
<path d="M12.0008 12.8477C10.9413 13.9072 11.1655 14.3555 14.3236 17.4932C16.6871 19.8567 17.1353 20.2031 17.7058 20.2031C18.582 20.2031 19.3562 19.4289 19.3562 18.5527C19.3562 17.9822 19.0098 17.534 16.6667 15.1705C13.5086 12.0124 13.0603 11.7882 12.0008 12.8477Z" fill="white"/>
<path d="M67.7472 12.4606C67.523 12.5421 66.1783 13.8054 64.752 15.252C62.5108 17.534 62.144 17.9822 62.144 18.5527C62.144 19.4289 62.9183 20.2031 63.7944 20.2031C64.3649 20.2031 64.8132 19.8567 67.1767 17.4932C70.3144 14.3759 70.5589 13.9072 69.5198 12.8681C68.8882 12.2365 68.4807 12.155 67.7472 12.4606Z" fill="white"/>
<path d="M37.7955 14.009C35.4728 14.3758 33.5371 14.8037 31.9275 15.3538C17.5224 20.1623 9.678 35.8307 14.4661 50.1747C16.4425 56.1445 19.784 60.627 24.8981 64.2538C25.7539 64.8447 26.7115 65.4967 27.0579 65.68L27.6895 66.0264L27.7506 74.7877C27.8118 83.2637 27.8321 83.5489 28.2396 84.099C29.1361 85.3215 29.6048 85.5049 31.9886 85.566L34.1891 85.6475L34.2706 87.848C34.3318 90.2319 34.5151 90.7005 35.7376 91.597C36.2674 92.0045 36.573 92.0249 40.7499 92.0249C44.9268 92.0249 45.2324 92.0045 45.7621 91.597C46.9846 90.7005 47.168 90.2319 47.2291 87.848L47.3106 85.6475L49.5111 85.566C51.895 85.5049 52.3636 85.3215 53.2601 84.099C53.6676 83.5693 53.688 83.2229 53.7899 74.7673L53.8918 65.9857L55.155 65.2114C60.5951 61.9107 64.935 56.4909 66.9114 50.5618C68.0931 47.0165 68.358 45.3865 68.3376 41.5968C68.3376 37.7867 68.032 35.8714 66.891 32.5503C64.5886 25.908 59.8413 20.366 53.688 17.1264C49.5926 14.9667 46.2511 14.0905 41.5649 13.9887C39.833 13.9479 38.1419 13.9683 37.7955 14.009ZM44.56 17.4524C54.6456 19.0824 62.3881 26.4989 64.7313 36.7475C64.9757 37.8274 65.0573 39.1722 65.0573 41.6987C65.0573 44.9179 65.0165 45.3458 64.4256 47.5667C62.6937 54.2089 58.3742 59.7509 52.4451 63.0109C51.6097 63.4795 50.8355 64.0093 50.7336 64.213C50.6114 64.4168 50.5299 65.6597 50.5299 66.9433V69.3068H46.4549H42.3799V65.5782V61.8699L44.7026 59.5472C45.9863 58.2635 47.0865 56.9799 47.168 56.715C47.4329 55.6555 46.5568 54.6368 45.3954 54.6368C45.1305 54.6368 44.1729 55.411 42.8689 56.715L40.7499 58.7933L38.6309 56.715C37.3269 55.411 36.3693 54.6368 36.1044 54.6368C35.0449 54.6368 34.2299 55.4518 34.2299 56.5113C34.2299 56.7965 35.106 57.8357 36.6749 59.4249L39.1199 61.8903V65.5985V69.3068H35.0449H30.9699V66.9433C30.9699 65.6597 30.8884 64.4168 30.7661 64.213C30.6643 64.0093 29.89 63.4795 29.075 63.0313C17.502 56.6743 13.0195 42.4525 18.8875 30.6962C22.5754 23.3 29.6251 18.3693 37.9993 17.2894C39.507 17.0857 42.8485 17.1672 44.56 17.4524ZM50.5299 74.1968V75.8268H40.7499H30.9699V74.1968V72.5668H40.7499H50.5299V74.1968ZM50.5299 80.7168V82.3468H40.7499H30.9699V80.7168V79.0868H40.7499H50.5299V80.7168ZM44.0099 87.2368V88.8668H40.7499H37.4899V87.2368V85.6068H40.7499H44.0099V87.2368Z" fill="white"/>
<path d="M0.509375 40.4764C0.183375 40.7821 0 41.2099 0 41.5971C0 41.9842 0.183375 42.4121 0.509375 42.7177C0.998375 43.2271 1.03912 43.2271 4.89 43.2271C8.74088 43.2271 8.78162 43.2271 9.27063 42.7177C9.59663 42.4121 9.78 41.9842 9.78 41.5971C9.78 41.2099 9.59663 40.7821 9.27063 40.4764C8.78162 39.9671 8.74088 39.9671 4.89 39.9671C1.03912 39.9671 0.998375 39.9671 0.509375 40.4764Z" fill="white"/>
<path d="M72.2291 40.4764C71.9031 40.7821 71.7197 41.2099 71.7197 41.5971C71.7197 41.9842 71.9031 42.4121 72.2291 42.7177C72.7181 43.2271 72.7589 43.2271 76.6097 43.2271C80.4606 43.2271 80.5014 43.2271 80.9904 42.7177C81.3164 42.4121 81.4997 41.9842 81.4997 41.5971C81.4997 41.2099 81.3164 40.7821 80.9904 40.4764C80.5014 39.9671 80.4606 39.9671 76.6097 39.9671C72.7589 39.9671 72.7181 39.9671 72.2291 40.4764Z" fill="white"/>
<path d="M17.0133 63.1944C16.7892 63.2759 15.4852 64.4984 14.1201 65.8839C11.1861 68.8179 10.9619 69.3069 12.0011 70.346C13.0402 71.3647 13.5292 71.1406 16.3613 68.3289C19.5806 65.1504 19.8251 64.6614 18.7656 63.5815C18.1543 62.9702 17.7264 62.8887 17.0133 63.1944Z" fill="white"/>
<path d="M62.7343 63.5817C61.6952 64.6208 61.9193 65.1098 64.8329 68.0235C66.1981 69.3886 67.5632 70.6111 67.8688 70.7333C69.0506 71.2223 70.3749 69.898 69.8859 68.7162C69.7637 68.4106 68.5412 67.0455 67.1761 65.6803C64.2624 62.7667 63.7734 62.5426 62.7343 63.5817Z" fill="white"/>
</svg>
