<svg width="68" height="68" viewBox="0 0 68 68" fill="none" xmlns="http://www.w3.org/2000/svg">
<path d="M25.1409 0.261978C23.8087 0.395195 22.7296 0.621674 21.6106 1.02133C16.9079 2.71324 13.4708 6.4301 12.1252 11.266C11.7789 12.4917 11.7522 12.7581 11.7655 15.0495C11.7655 17.2876 11.8055 17.634 12.1119 18.8063C13.1777 22.723 15.962 26.2933 19.3458 28.0519C19.7455 28.265 20.0785 28.4782 20.0785 28.5181C20.0785 28.5581 19.7588 28.6647 19.3858 28.7579C17.4008 29.2509 14.1502 30.7296 12.0853 32.0618C6.4367 35.7254 2.30685 41.4939 0.708194 47.9417C0.1087 50.3397 -0.14442 52.5245 0.0820561 53.3505C0.268565 54.0566 0.947992 54.8559 1.6141 55.1623C2.13366 55.4021 2.91966 55.4154 19.3058 55.4154H36.4514L36.6778 55.8417C37.4239 57.3072 39.3423 59.5053 40.861 60.651C42.5662 61.9299 50.9458 67.8982 51.159 67.9782C51.2789 68.0181 51.5453 68.0048 51.7318 67.9249C52.0782 67.805 59.2188 62.7293 61.7767 60.7976C65.2271 58.1998 67.1854 54.9358 67.7583 50.8193C67.8515 50.2065 67.9048 47.0891 67.9048 42.9859C67.9048 37.2441 67.8782 36.1117 67.7183 35.8853C67.4785 35.5522 65.5601 34.3932 63.322 33.2208C57.3404 30.1168 52.318 29.2375 47.0158 30.3832C45.7235 30.663 43.3122 31.4623 42.0333 32.0218L41.3406 32.3283L40.1416 31.5955C39.4755 31.1826 38.3698 30.5964 37.677 30.2633C36.3848 29.6638 33.5205 28.638 33.1075 28.638C32.6812 28.638 32.8544 28.4382 33.707 28.0119C34.866 27.3991 36.1316 26.4132 37.2241 25.2675C42.0466 20.1918 42.6861 12.6382 38.7961 6.7898C36.8111 3.79233 33.747 1.60751 30.2033 0.674957C29.3907 0.448486 26.4731 0.0754623 26.2067 0.142075C26.1667 0.155396 25.6871 0.208687 25.1409 0.261978ZM29.0576 2.60667C33.7203 3.49924 37.5704 7.17614 38.8094 11.9188C39.3023 13.7972 39.3023 16.2751 38.8227 18.1136C37.9834 21.3242 36.145 23.9087 33.4406 25.6672C31.2691 27.0927 29.1109 27.7188 26.4731 27.7188C23.036 27.7188 20.1851 26.5731 17.6939 24.1885C15.7222 22.2834 14.4166 19.8854 13.9637 17.261C13.7772 16.2352 13.7772 13.8638 13.9637 12.838C14.723 8.4817 17.8804 4.69823 22.0102 3.15287C24.3816 2.27361 26.4332 2.11375 29.0576 2.60667ZM30.0035 30.1701C31.7354 30.4365 33.6937 30.9428 35.1858 31.5156C37.1574 32.275 39.4888 33.5672 38.8893 33.5672C38.7161 33.5672 35.6254 35.4323 35.3057 35.7387L34.9993 36.0052V43.2124C35.0126 50.353 35.0259 50.806 35.4655 52.8443L35.5721 53.2839H19.0527C-0.290962 53.2839 1.96047 53.537 2.21359 51.3922C2.86637 46.0367 5.38425 40.921 9.24766 37.1509C10.9929 35.4323 11.2593 35.2058 13.0311 34.0202C16.1219 31.9552 19.892 30.5431 23.6089 30.0635C24.7146 29.917 28.7778 29.9836 30.0035 30.1701ZM54.9424 32.3815C57.5802 32.8878 61.2971 34.4065 64.4811 36.2849L65.7733 37.0443V43.3589C65.7733 47.1691 65.72 50.0866 65.6268 50.7127C65.2004 53.7502 63.6151 56.6011 61.3104 58.4662C60.4977 59.119 51.7451 65.447 51.492 65.5669C51.4387 65.5935 49.2273 64.0482 46.5628 62.1431C41.7136 58.666 40.1949 57.3871 39.289 56.0682C38.6229 55.0824 37.9701 53.6969 37.5704 52.4046L37.2107 51.219L37.1974 44.0917V36.9777L38.3964 36.2716C42.3664 33.9402 46.3364 32.4615 49.5203 32.1151C51.0257 31.9419 53.2639 32.0618 54.9424 32.3815Z" fill="white"/>
<path d="M56.2483 41.6803C55.3957 41.8935 54.8495 42.3464 52.3449 44.9043C50.9194 46.3697 49.6805 47.5553 49.6006 47.5553C49.5073 47.5553 49.121 47.2223 48.7213 46.8093C47.8287 45.9034 47.3624 45.6103 46.5631 45.4371C45.2576 45.144 43.8854 45.7702 43.166 46.9825C42.8596 47.5154 42.793 47.7685 42.793 48.5545C42.793 49.8734 43.1127 50.3397 45.6572 52.7776C48.0019 55.0157 48.5081 55.3354 49.6672 55.3354C50.9594 55.3221 51.2525 55.0957 55.5289 50.7926C60.1517 46.1565 60.3915 45.7835 60.0318 44.1049C59.6854 42.453 57.8336 41.2673 56.2483 41.6803ZM57.7137 44.0916C57.8736 44.2515 57.9668 44.5312 57.9668 44.8243C57.9668 45.2773 57.7137 45.5437 54.0501 49.2206C51.9053 51.3655 50.0002 53.1639 49.827 53.2172C49.3208 53.3371 48.8945 53.0041 46.8296 50.9258C44.7513 48.8343 44.6314 48.6078 45.071 47.9817C45.3641 47.5553 45.8437 47.3955 46.27 47.5553C46.4699 47.6353 47.2026 48.2614 47.922 48.9542C48.9345 49.94 49.3075 50.2198 49.6006 50.2198C49.907 50.2198 50.5198 49.6736 53.1842 47.0358C54.9427 45.2906 56.4748 43.8252 56.5813 43.7852C56.8877 43.6653 57.4206 43.8118 57.7137 44.0916Z" fill="white"/>
</svg>
