<svg width="23" height="24" viewBox="0 0 23 24" fill="none" xmlns="http://www.w3.org/2000/svg">
<path d="M13.7437 2.86288C13.2053 2.6515 12.5791 3.03836 12.5273 3.61666C12.4914 4.06734 12.3398 3.89983 16.1007 7.66077L19.5426 11.1026H10.2739C0.187554 11.1066 0.837641 11.0787 0.530544 11.5294C0.371014 11.7607 0.371014 12.2393 0.530544 12.4706C0.837641 12.9213 0.187554 12.8934 10.2699 12.8934L19.5426 12.8974L16.0529 16.403C12.603 19.8768 12.5671 19.9127 12.5432 20.1042C12.4874 20.4711 12.5512 20.6625 12.8024 20.9138C13.0537 21.165 13.2451 21.2289 13.6121 21.173C13.8035 21.1491 13.8314 21.1212 18.1746 16.8019L22.5418 12.4507L22.5857 12.2233C22.6096 12.1037 22.6096 11.8963 22.5857 11.7767L22.5418 11.5493L18.2305 7.23801C14.7328 3.74828 13.8833 2.91473 13.7437 2.86288Z" fill="white"/>
</svg>
