<svg width="62" height="58" viewBox="0 0 62 58" fill="none" xmlns="http://www.w3.org/2000/svg">
<path d="M29.6486 54.2479C28.0952 53.2858 23.7893 48.9702 26.5554 44.9844C27.9998 50.0285 30.5752 49.9322 29.6486 54.2479Z" fill="#8E94C8"/>
<path d="M29.6486 54.2338C28.6266 55.7594 24.1572 59.9101 20.3418 56.9552C25.3836 55.7182 25.4108 53.1206 29.6486 54.2338Z" fill="#8E94C8"/>
<path d="M23.7348 54.3169C22.4267 53.1624 19.0746 48.4069 22.2904 45.1221C22.8491 50.0837 25.2746 50.4135 23.7348 54.3169Z" fill="#8E94C8"/>
<path d="M23.7349 54.3033C22.5222 55.5677 17.6439 58.7289 14.5371 55.3203C19.4835 54.9905 19.9332 52.544 23.7349 54.3033Z" fill="#8E94C8"/>
<path d="M18.5433 53.2719C17.5622 51.925 15.4365 46.826 19.102 44.4482C18.5978 49.1625 20.7781 49.9734 18.5433 53.2719Z" fill="#8E94C8"/>
<path d="M18.5567 53.2584C17.1532 54.1793 11.9615 56.0622 9.79492 52.2276C14.4551 52.9835 15.3817 50.812 18.5567 53.2584Z" fill="#8E94C8"/>
<path d="M13.502 50.8806C12.9297 49.41 12.2075 44.2147 16.1319 42.9365C14.5376 47.1285 16.35 48.4067 13.502 50.8806Z" fill="#8E94C8"/>
<path d="M13.515 50.8808C12.0025 51.3618 6.76993 51.8016 5.7207 47.7334C9.82224 49.6026 11.2121 47.8434 13.515 50.8808Z" fill="#8E94C8"/>
<path d="M9.12751 47.0458C8.95037 45.5614 9.49542 40.6273 13.3926 40.3799C10.9534 43.8434 12.3161 45.4514 9.12751 47.0458Z" fill="#8E94C8"/>
<path d="M9.14093 47.0458C7.64203 47.1145 2.73653 46.2349 2.76378 42.2354C6.06137 44.9567 7.76466 43.6922 9.14093 47.0458Z" fill="#8E94C8"/>
<path d="M5.97949 42.3732C6.10213 40.9714 7.56015 36.5183 11.212 37.0543C8.28235 39.7894 9.22257 41.5349 5.97949 42.3732Z" fill="#8E94C8"/>
<path d="M5.99326 42.3729C4.58974 42.1392 0.242927 40.325 1.06051 36.6416C3.56776 39.8302 5.3937 38.9918 5.99326 42.3729Z" fill="#8E94C8"/>
<path d="M4.09961 37.5075C4.41302 36.2155 6.37521 32.2847 9.70005 33.2881C6.60686 35.4184 7.23368 37.1776 4.09961 37.5075Z" fill="#8E94C8"/>
<path d="M4.11272 37.5212C2.83184 37.0952 -0.956288 34.7449 0.351844 31.4326C2.21866 34.7724 4.04459 34.2776 4.11272 37.5212Z" fill="#8E94C8"/>
<path d="M3.30859 31.6942C3.70376 30.5122 5.8976 26.9937 8.92266 28.2445C5.82947 29.9625 6.27914 31.653 3.30859 31.6942Z" fill="#8E94C8"/>
<path d="M3.32315 31.6941C2.16491 31.1718 -1.1463 28.5742 0.407107 25.6055C1.82425 28.9453 3.58205 28.6567 3.32315 31.6941Z" fill="#8E94C8"/>
<path d="M3.26855 26.6775C3.78636 25.6329 6.25273 22.6505 8.89625 24.176C5.83031 25.3855 6.03471 27.0211 3.26855 26.6775Z" fill="#8E94C8"/>
<path d="M3.26773 26.6909C2.27301 26.045 -0.465892 23.1862 1.37367 20.6436C2.24576 23.9284 3.9218 23.9009 3.26773 26.6909Z" fill="#8E94C8"/>
<path d="M4.27637 21.5924C4.8623 20.6715 7.45131 18.1426 9.7678 19.8469C6.78362 20.6578 6.81087 22.1971 4.27637 21.5924Z" fill="#8E94C8"/>
<path d="M4.27653 21.6059C3.41807 20.8912 1.19697 17.9225 3.20004 15.7646C3.63609 18.9258 5.1895 19.0907 4.27653 21.6059Z" fill="#8E94C8"/>
<path d="M6.18457 16.5893C6.81138 15.7784 9.42765 13.648 11.4444 15.4348C8.59644 15.9295 8.48743 17.3727 6.18457 16.5893Z" fill="#8E94C8"/>
<path d="M6.18395 16.6032C5.46175 15.8473 3.69032 12.8649 5.76153 11.0781C5.85692 14.0468 7.28769 14.363 6.18395 16.6032Z" fill="#8E94C8"/>
<path d="M8.85547 11.9432C9.49591 11.2422 12.1258 9.483 13.8427 11.311C11.1583 11.5309 10.9403 12.8503 8.85547 11.9432Z" fill="#8E94C8"/>
<path d="M8.84154 11.9441C8.25561 11.1744 6.92022 8.23317 9.01868 6.79004C8.81429 9.5526 10.0952 9.97866 8.84154 11.9441Z" fill="#8E94C8"/>
<path d="M12.1797 7.87505C12.8474 7.28406 15.4636 5.90965 16.8944 7.77885C14.3599 7.72387 14.0329 8.93335 12.1797 7.87505Z" fill="#8E94C8"/>
<path d="M12.1657 7.88917C11.7161 7.10576 10.8167 4.23324 12.9288 3.14746C12.411 5.66263 13.5556 6.21239 12.1657 7.88917Z" fill="#8E94C8"/>
<path d="M16.0908 4.63127C16.7858 4.16397 19.3884 3.21563 20.4785 5.1398C18.1348 4.75496 17.6715 5.85449 16.0908 4.63127Z" fill="#8E94C8"/>
<path d="M16.0774 4.63161C15.7639 3.8482 15.3688 1.08564 17.4536 0.398438C16.6088 2.63872 17.5763 3.31218 16.0774 4.63161Z" fill="#8E94C8"/>
<path d="M32.1973 54.2616C33.7507 53.2858 38.0566 48.9702 35.2905 44.9844C33.8461 50.0285 31.2707 49.9322 32.1973 54.2616Z" fill="#8E94C8"/>
<path d="M32.1973 54.2338C33.2192 55.7594 37.6887 59.9101 41.5041 56.9552C36.4623 55.7182 36.4351 53.1206 32.1973 54.2338Z" fill="#8E94C8"/>
<path d="M38.1654 54.3169C39.4735 53.1487 42.812 48.3932 39.5961 45.1084C39.0511 50.07 36.612 50.4136 38.1654 54.3169Z" fill="#8E94C8"/>
<path d="M38.165 54.2889C39.3778 55.5533 44.256 58.7145 47.3765 55.2922C42.4165 54.9761 41.9668 52.5296 38.165 54.2889Z" fill="#8E94C8"/>
<path d="M43.398 53.2446C44.3655 51.8977 46.4639 46.7711 42.7985 44.4209C43.3299 49.1351 41.1497 49.9598 43.398 53.2446Z" fill="#8E94C8"/>
<path d="M43.3975 53.2304C44.801 54.1375 50.0063 55.993 52.1456 52.1446C47.4854 52.928 46.5452 50.7702 43.3975 53.2304Z" fill="#8E94C8"/>
<path d="M48.4939 50.7986C49.0526 49.3142 49.7339 44.1052 45.7959 42.8545C47.4311 47.0464 45.6324 48.3384 48.4939 50.7986Z" fill="#8E94C8"/>
<path d="M48.4805 50.7845C49.993 51.2518 55.2392 51.6366 56.2475 47.5684C52.1596 49.465 50.7561 47.7195 48.4805 50.7845Z" fill="#8E94C8"/>
<path d="M52.882 46.8531C53.0455 45.3687 52.4459 40.4483 48.5352 40.2422C51.0288 43.6782 49.6798 45.3 52.882 46.8531Z" fill="#8E94C8"/>
<path d="M52.8682 46.8537C54.3671 46.9224 59.2589 45.9741 59.2044 41.9883C55.9205 44.7371 54.2172 43.4864 52.8682 46.8537Z" fill="#8E94C8"/>
<path d="M56.0019 42.1534C55.8656 40.7515 54.3667 36.3259 50.7148 36.9032C53.6718 39.597 52.7452 41.3425 56.0019 42.1534Z" fill="#8E94C8"/>
<path d="M55.9883 42.1534C57.3918 41.9061 61.725 40.0369 60.8665 36.3672C58.3865 39.5833 56.5606 38.7724 55.9883 42.1534Z" fill="#8E94C8"/>
<path d="M57.8415 37.1919C57.5145 35.8999 55.5114 31.9691 52.2002 33.0274C55.3206 35.1165 54.6938 36.8895 57.8415 37.1919Z" fill="#8E94C8"/>
<path d="M57.8281 37.1914C59.0954 36.7516 62.8699 34.3601 61.5209 31.0615C59.6949 34.4288 57.8554 33.9478 57.8281 37.1914Z" fill="#8E94C8"/>
<path d="M58.5778 31.2403C58.1691 30.0583 55.948 26.5673 52.9365 27.8455C56.0297 29.5223 55.6073 31.2403 58.5778 31.2403Z" fill="#8E94C8"/>
<path d="M58.5641 31.2401C59.7087 30.704 63.0063 28.0927 61.4257 25.1377C60.0358 28.4775 58.278 28.2026 58.5641 31.2401Z" fill="#8E94C8"/>
<path d="M58.5504 26.2649C58.019 25.2204 55.5117 22.2791 52.8818 23.846C55.975 25.0142 55.7979 26.6498 58.5504 26.2649Z" fill="#8E94C8"/>
<path d="M58.5506 26.279C59.5317 25.6193 62.2297 22.7193 60.3493 20.2041C59.5317 23.5027 57.8557 23.4889 58.5506 26.279Z" fill="#8E94C8"/>
<path d="M57.4464 21.111C56.8469 20.2039 54.217 17.7162 51.9277 19.448C54.9255 20.2039 54.9255 21.757 57.4464 21.111Z" fill="#8E94C8"/>
<path d="M57.4466 21.1245C58.2915 20.3961 60.4581 17.3999 58.4277 15.2695C58.0462 18.4307 56.4928 18.6231 57.4466 21.1245Z" fill="#8E94C8"/>
<path d="M55.4297 16.0804C54.7892 15.2833 52.1321 13.1942 50.1562 15.0084C53.0042 15.4482 53.1404 16.8913 55.4297 16.0804Z" fill="#8E94C8"/>
<path d="M55.4302 16.0945C56.1388 15.3249 57.8557 12.3149 55.7572 10.5557C55.7163 13.5244 54.2856 13.868 55.4302 16.0945Z" fill="#8E94C8"/>
<path d="M52.6502 11.4211C51.9826 10.7339 49.3254 9.02965 47.6357 10.8988C50.3338 11.05 50.579 12.3832 52.6502 11.4211Z" fill="#8E94C8"/>
<path d="M52.6503 11.4354C53.2362 10.6519 54.5035 7.68322 52.3777 6.26758C52.6503 9.03014 51.3694 9.49744 52.6503 11.4354Z" fill="#8E94C8"/>
<path d="M49.2031 7.39388C48.5217 6.83037 45.8646 5.52469 44.502 7.43511C47.0228 7.29767 47.3907 8.50715 49.2031 7.39388Z" fill="#8E94C8"/>
<path d="M49.2168 7.40758C49.6528 6.61042 50.4568 3.72417 48.3311 2.69336C48.917 5.19478 47.786 5.78578 49.2168 7.40758Z" fill="#8E94C8"/>
<path d="M45.169 4.21929C44.4468 3.79322 41.8169 2.94109 40.7949 4.90649C43.125 4.43919 43.6292 5.51123 45.169 4.21929Z" fill="#8E94C8"/>
<path d="M45.1833 4.23289C45.4559 3.43573 45.7556 0.659427 43.6436 0.0546875C44.5701 2.25374 43.6299 2.96843 45.1833 4.23289Z" fill="#8E94C8"/>
<path d="M23.8807 15H25.5407C26.1074 15 26.5207 15.1333 26.7807 15.4C27.0407 15.66 27.1707 16.0633 27.1707 16.61V16.89C27.1707 17.25 27.1107 17.5433 26.9907 17.77C26.8774 17.9967 26.7007 18.16 26.4607 18.26V18.28C27.0074 18.4667 27.2807 18.9533 27.2807 19.74V20.34C27.2807 20.88 27.1374 21.2933 26.8507 21.58C26.5707 21.86 26.1574 22 25.6107 22H23.8807V15ZM25.4107 17.85C25.6307 17.85 25.794 17.7933 25.9007 17.68C26.014 17.5667 26.0707 17.3767 26.0707 17.11V16.72C26.0707 16.4667 26.024 16.2833 25.9307 16.17C25.844 16.0567 25.704 16 25.5107 16H24.9807V17.85H25.4107ZM25.6107 21C25.804 21 25.9474 20.95 26.0407 20.85C26.134 20.7433 26.1807 20.5633 26.1807 20.31V19.7C26.1807 19.38 26.124 19.16 26.0107 19.04C25.904 18.9133 25.724 18.85 25.4707 18.85H24.9807V21H25.6107ZM27.9237 15H30.9237V16H29.0237V17.85H30.5337V18.85H29.0237V21H30.9237V22H27.9237V15ZM33.006 22.1C32.4727 22.1 32.0693 21.95 31.796 21.65C31.5227 21.3433 31.386 20.9067 31.386 20.34V19.94H32.426V20.42C32.426 20.8733 32.616 21.1 32.996 21.1C33.1827 21.1 33.3227 21.0467 33.416 20.94C33.516 20.8267 33.566 20.6467 33.566 20.4C33.566 20.1067 33.4993 19.85 33.366 19.63C33.2327 19.4033 32.986 19.1333 32.626 18.82C32.1727 18.42 31.856 18.06 31.676 17.74C31.496 17.4133 31.406 17.0467 31.406 16.64C31.406 16.0867 31.546 15.66 31.826 15.36C32.106 15.0533 32.5127 14.9 33.046 14.9C33.5727 14.9 33.9693 15.0533 34.236 15.36C34.5093 15.66 34.646 16.0933 34.646 16.66V16.95H33.606V16.59C33.606 16.35 33.5593 16.1767 33.466 16.07C33.3727 15.9567 33.236 15.9 33.056 15.9C32.6893 15.9 32.506 16.1233 32.506 16.57C32.506 16.8233 32.5727 17.06 32.706 17.28C32.846 17.5 33.096 17.7667 33.456 18.08C33.916 18.48 34.2327 18.8433 34.406 19.17C34.5793 19.4967 34.666 19.88 34.666 20.32C34.666 20.8933 34.5227 21.3333 34.236 21.64C33.956 21.9467 33.546 22.1 33.006 22.1ZM36.1567 16H35.0067V15H38.4067V16H37.2567V22H36.1567V16Z" fill="#8E94C8"/>
<path d="M15.6683 26.2H17.7543L19.3503 36H17.8103L17.5303 34.054V34.082H15.7803L15.5003 36H14.0723L15.6683 26.2ZM17.3483 32.752L16.6623 27.908H16.6343L15.9623 32.752H17.3483ZM19.542 26.2H21.026L21.712 33.732H21.74L22.468 26.2H24.148L24.876 33.732H24.904L25.59 26.2H26.92L25.926 36H24.008L23.308 29.392H23.28L22.58 36H20.536L19.542 26.2ZM28.6976 26.2H30.7836L32.3796 36H30.8396L30.5596 34.054V34.082H28.8096L28.5296 36H27.1016L28.6976 26.2ZM30.3776 32.752L29.6916 27.908H29.6636L28.9916 32.752H30.3776ZM33.1267 26.2H35.4087C36.2021 26.2 36.7807 26.3867 37.1447 26.76C37.5087 27.124 37.6907 27.6887 37.6907 28.454V29.056C37.6907 30.0733 37.3547 30.7173 36.6827 30.988V31.016C37.0561 31.128 37.3174 31.3567 37.4667 31.702C37.6254 32.0473 37.7047 32.5093 37.7047 33.088V34.81C37.7047 35.09 37.7141 35.3187 37.7327 35.496C37.7514 35.664 37.7981 35.832 37.8727 36H36.3047C36.2487 35.8413 36.2114 35.692 36.1927 35.552C36.1741 35.412 36.1647 35.16 36.1647 34.796V33.004C36.1647 32.556 36.0901 32.2433 35.9407 32.066C35.8007 31.8887 35.5534 31.8 35.1987 31.8H34.6667V36H33.1267V26.2ZM35.2267 30.4C35.5347 30.4 35.7634 30.3207 35.9127 30.162C36.0714 30.0033 36.1507 29.7373 36.1507 29.364V28.608C36.1507 28.2533 36.0854 27.9967 35.9547 27.838C35.8334 27.6793 35.6374 27.6 35.3667 27.6H34.6667V30.4H35.2267ZM38.7732 26.2H41.1252C41.8906 26.2 42.4646 26.4053 42.8472 26.816C43.2299 27.2267 43.4212 27.8287 43.4212 28.622V33.578C43.4212 34.3713 43.2299 34.9733 42.8472 35.384C42.4646 35.7947 41.8906 36 41.1252 36H38.7732V26.2ZM41.0972 34.6C41.3492 34.6 41.5406 34.5253 41.6712 34.376C41.8112 34.2267 41.8812 33.984 41.8812 33.648V28.552C41.8812 28.216 41.8112 27.9733 41.6712 27.824C41.5406 27.6747 41.3492 27.6 41.0972 27.6H40.3132V34.6H41.0972ZM46.4627 36.14C45.7161 36.14 45.1514 35.93 44.7687 35.51C44.3861 35.0807 44.1947 34.4693 44.1947 33.676V33.116H45.6507V33.788C45.6507 34.4227 45.9167 34.74 46.4487 34.74C46.7101 34.74 46.9061 34.6653 47.0367 34.516C47.1767 34.3573 47.2467 34.1053 47.2467 33.76C47.2467 33.3493 47.1534 32.99 46.9667 32.682C46.7801 32.3647 46.4347 31.9867 45.9307 31.548C45.2961 30.988 44.8527 30.484 44.6007 30.036C44.3487 29.5787 44.2227 29.0653 44.2227 28.496C44.2227 27.7213 44.4187 27.124 44.8107 26.704C45.2027 26.2747 45.7721 26.06 46.5187 26.06C47.2561 26.06 47.8114 26.2747 48.1847 26.704C48.5674 27.124 48.7587 27.7307 48.7587 28.524V28.93H47.3027V28.426C47.3027 28.09 47.2374 27.8473 47.1067 27.698C46.9761 27.5393 46.7847 27.46 46.5327 27.46C46.0194 27.46 45.7627 27.7727 45.7627 28.398C45.7627 28.7527 45.8561 29.084 46.0427 29.392C46.2387 29.7 46.5887 30.0733 47.0927 30.512C47.7367 31.072 48.1801 31.5807 48.4227 32.038C48.6654 32.4953 48.7867 33.032 48.7867 33.648C48.7867 34.4507 48.5861 35.0667 48.1847 35.496C47.7927 35.9253 47.2187 36.14 46.4627 36.14Z" fill="#8E94C8"/>
<circle cx="44.5" cy="19.5" r="1.5" fill="#8E94C8"/>
<circle cx="17.5" cy="19.5" r="1.5" fill="#8E94C8"/>
<rect x="24" y="1" width="14" height="1" fill="#8E94C8"/>
</svg>
