<svg width="59" height="60" viewBox="0 0 59 60" fill="none" xmlns="http://www.w3.org/2000/svg">
<path d="M30.6548 17.3658C30.6548 15.8434 31.6127 15.1668 31.6127 15.1668L29.415 13.1934V21.4818H32.9652V19.6775C31.6691 19.6775 30.6548 18.6626 30.6548 17.3658Z" fill="#8E94C8"/>
<path d="M35.3321 17.3658C35.3321 15.8434 34.3178 15.1668 34.3178 15.1668L36.5155 13.1934V21.4818H32.9653V19.6775C34.2614 19.6775 35.3321 18.6626 35.3321 17.3658Z" fill="#8E94C8"/>
<path d="M23.555 17.3658C23.555 15.8434 24.5693 15.1668 24.5693 15.1668L22.3716 13.1934V21.4818H25.9217V19.6775C24.6256 19.6775 23.555 18.6626 23.555 17.3658Z" fill="#8E94C8"/>
<path d="M28.2313 17.3658C28.2313 15.8434 27.2733 15.1668 27.2733 15.1668L29.4147 13.1934V21.4818H25.9209V19.6775C27.217 19.6775 28.2313 18.6626 28.2313 17.3658Z" fill="#8E94C8"/>
<path d="M36.5158 23.5688H22.3716V22.3848H36.5158V23.5688Z" fill="#8E94C8"/>
<path d="M30.3733 11.9539C30.3733 12.405 29.9225 12.856 29.4153 12.856C28.9081 12.856 28.5137 12.405 28.5137 11.9539C28.5137 11.4464 28.9081 10.9954 29.4153 10.9954C29.9225 10.9954 30.3733 11.4464 30.3733 11.9539Z" fill="#8E94C8"/>
<path d="M37.1923 12.1783C37.1923 12.573 36.9105 12.8549 36.5161 12.8549C36.178 12.8549 35.8398 12.573 35.8398 12.1783C35.8398 11.84 36.178 11.5017 36.5161 11.5017C36.9105 11.5017 37.1923 11.84 37.1923 12.1783Z" fill="#8E94C8"/>
<path d="M21.6953 12.1783C21.6953 12.573 21.9771 12.8549 22.3715 12.8549C22.7096 12.8549 22.9914 12.573 22.9914 12.1783C22.9914 11.84 22.7096 11.5017 22.3715 11.5017C21.9771 11.5017 21.6953 11.84 21.6953 12.1783Z" fill="#8E94C8"/>
<path fill-rule="evenodd" clip-rule="evenodd" d="M29.5282 59.0901C26.9924 59.0901 24.851 57.5678 22.8224 56.1018C21.639 55.256 20.5119 54.4667 19.3849 54.0156C18.2015 53.5081 16.7927 53.2826 15.3276 53.0007C12.9045 52.5496 10.3687 52.0985 8.67813 50.407C6.93123 48.7155 6.48042 46.1782 6.08596 43.7537C5.8042 42.2878 5.5788 40.8782 5.07163 39.6941C4.56447 38.5665 3.77555 37.4388 2.98663 36.2547C1.52149 34.2249 0 32.0823 0 29.5451C0 27.0078 1.52149 24.8652 2.98663 22.8354C3.77555 21.6513 4.56447 20.5237 5.07163 19.396C5.5788 18.2119 5.8042 16.8023 6.08596 15.3364C6.48042 12.9119 6.93123 10.3746 8.67813 8.68309C10.3687 6.93519 12.9045 6.48413 15.3276 6.08944C16.7927 5.80752 18.2015 5.58199 19.3849 5.07453C20.5119 4.62346 21.639 3.83409 22.8224 2.98834C24.851 1.52236 26.9924 0 29.5282 0C32.064 0 34.2053 1.52236 36.234 2.98834C37.4174 3.83409 38.5444 4.62346 39.6714 5.07453C40.8548 5.58199 42.2636 5.80752 43.7287 6.08944C46.1519 6.48413 48.6877 6.93519 50.3782 8.68309C52.0688 10.3746 52.5196 12.9119 52.9704 15.3364C53.2522 16.8023 53.4776 18.2119 53.9847 19.396C54.4355 20.5237 55.2245 21.6513 56.0697 22.8354C57.5349 24.8652 59 27.0078 59 29.5451C59 32.0823 57.5349 34.2249 56.0697 36.2547C55.2245 37.4388 54.4355 38.5665 53.9847 39.6941C53.4776 40.8782 53.2522 42.2878 52.9704 43.7537C52.5196 46.1782 52.0688 48.7155 50.3782 50.407C48.6877 52.0985 46.1519 52.5496 43.7287 53.0007C42.2636 53.2826 40.8548 53.5081 39.6714 54.0156C38.5444 54.4667 37.4174 55.256 36.234 56.1018C34.2053 57.5678 32.064 59.0901 29.5282 59.0901ZM29.5282 1.40959C27.4432 1.40959 25.4709 2.81919 23.6113 4.11601C22.4279 4.96177 21.1882 5.8639 19.9484 6.37136C18.596 6.93519 17.0745 7.21711 15.553 7.44265C13.2426 7.89372 11.0449 8.2884 9.6361 9.64161C8.28367 11.0512 7.88921 13.2502 7.4384 15.6183C7.21299 17.0843 6.93123 18.6066 6.36772 19.9598C5.8042 21.2003 4.95893 22.4407 4.11366 23.6248C2.81757 25.5418 1.40879 27.4589 1.40879 29.5451C1.40879 31.6313 2.81757 33.5483 4.11366 35.4653C4.95893 36.6494 5.8042 37.8898 6.36772 39.1303C6.93123 40.4835 7.21299 42.0059 7.4384 43.4718C7.88921 45.8399 8.22732 48.0389 9.6361 49.3921C11.0449 50.8017 13.2426 51.1964 15.553 51.6475C17.0745 51.873 18.596 52.1549 19.9484 52.7188C21.1882 53.2262 22.4279 54.1283 23.6113 54.9741C25.4709 56.2709 27.4432 57.6805 29.5282 57.6805C31.6132 57.6805 33.5291 56.2709 35.4451 54.9741C36.6285 54.1283 37.8118 53.2262 39.1079 52.7188C40.4604 52.1549 41.9819 51.873 43.447 51.6475C45.8138 51.1964 48.0115 50.8017 49.3639 49.4485C50.7727 48.0389 51.1671 45.8399 51.5616 43.4718C51.8434 42.0059 52.1251 40.4835 52.6886 39.1303C53.1958 37.8898 54.0974 36.6494 54.9427 35.4653C56.2388 33.5483 57.5912 31.6313 57.5912 29.5451C57.5912 27.4589 56.2388 25.5418 54.9427 23.6248C54.0974 22.4407 53.1958 21.2003 52.6886 19.9598C52.1251 18.6066 51.8434 17.0843 51.618 15.6183C51.1671 13.2502 50.7727 11.0512 49.3639 9.64161C48.0115 8.2884 45.8138 7.89372 43.447 7.44265C41.9819 7.21711 40.4604 6.93519 39.1079 6.37136C37.8118 5.8639 36.6285 4.96177 35.4451 4.11601C33.5291 2.81919 31.6132 1.40959 29.5282 1.40959Z" fill="#8E94C8"/>
<path fill-rule="evenodd" clip-rule="evenodd" d="M29.5281 56.102C27.9502 56.102 26.316 54.9743 24.5691 53.7339C23.2731 52.8317 21.977 51.8732 20.5118 51.3094C18.9903 50.6891 17.4125 50.3508 15.8347 50.0689C13.7497 49.7306 11.7774 49.3923 10.763 48.321C9.69235 47.3061 9.35424 45.3327 8.95978 43.2465C8.67803 41.6677 8.39627 40.089 7.7764 38.5666C7.15654 37.1007 6.25491 35.8038 5.35329 34.5634C4.11356 32.7591 2.93018 31.124 2.93018 29.5452C2.93018 27.9665 4.11356 26.3314 5.35329 24.5835C6.25491 23.2867 7.15654 21.9898 7.7764 20.5239C8.39627 19.0015 8.67803 17.4228 8.95978 15.844C9.35424 13.7578 9.69235 11.7844 10.763 10.7695C11.7774 9.69819 13.7497 9.35988 15.8347 8.9652C17.4125 8.68328 18.9903 8.40136 20.5118 7.78114C21.977 7.2173 23.2731 6.25878 24.5128 5.35664C26.316 4.1162 27.9502 2.98853 29.5281 2.98853C31.1059 2.98853 32.7401 4.1162 34.487 5.35664C35.7831 6.25878 37.0792 7.2173 38.5443 7.78114C40.0094 8.40136 41.6436 8.73966 43.2215 8.9652C45.3065 9.35988 47.2788 9.69819 48.2931 10.7695C49.3638 11.7844 49.7019 13.7578 50.04 15.844C50.3218 17.4228 50.6035 19.0015 51.2797 20.5239C51.8433 21.9898 52.8012 23.2867 53.6465 24.5271C54.8862 26.3314 56.0696 27.9665 56.0696 29.5452C56.0696 31.124 54.8862 32.7591 53.7029 34.507C52.8012 35.8038 51.8433 37.1007 51.2797 38.5666C50.6035 40.089 50.3218 41.6677 50.04 43.2465C49.7019 45.3327 49.3638 47.3061 48.2931 48.321C47.2788 49.3923 45.3065 49.7306 43.2215 50.0689C41.6436 50.3508 40.0094 50.6891 38.5443 51.3094C37.0792 51.8732 35.7831 52.8317 34.487 53.7339C32.7401 54.9743 31.1059 56.102 29.5281 56.102ZM29.5281 4.39812C28.401 4.39812 26.9359 5.41302 25.3581 6.48431C24.0056 7.44284 22.6532 8.45774 21.0754 9.07796C19.3848 9.75457 17.6943 10.0929 16.0601 10.3748C14.3132 10.7131 12.4536 10.995 11.721 11.728C10.9884 12.461 10.6503 14.3216 10.3686 16.0695C10.0868 17.7047 9.7487 19.3962 9.07249 21.0877C8.39627 22.6664 7.43829 24.0196 6.53667 25.3729C5.46599 26.8952 4.33896 28.4176 4.33896 29.5452C4.33896 30.6729 5.46599 32.1953 6.53667 33.7176C7.43829 35.0709 8.39627 36.4241 9.07249 38.0028C9.7487 39.6943 10.0868 41.3858 10.3686 43.021C10.6503 44.7688 10.9884 46.6295 11.721 47.3625C12.4536 48.0955 14.3132 48.3774 16.0601 48.7157C17.6943 48.9976 19.3848 49.2795 21.0754 50.0125C22.6532 50.6327 24.0056 51.6477 25.3581 52.5498C26.9359 53.6775 28.401 54.6924 29.5281 54.6924C30.6551 54.6924 32.1202 53.6775 33.6981 52.5498C34.9942 51.6477 36.403 50.6327 37.9808 50.0125C39.615 49.2795 41.3619 48.9976 42.9961 48.7157C44.743 48.3774 46.6026 48.0955 47.2788 47.3625C48.0114 46.6295 48.3495 44.7688 48.6876 43.021C48.9693 41.3858 49.2511 39.6943 49.9837 38.0028C50.6035 36.4241 51.5615 35.0709 52.5195 33.7176C53.5902 32.1953 54.6608 30.6729 54.6608 29.5452C54.6608 28.4176 53.5902 26.8952 52.5195 25.3729C51.5615 24.0196 50.6035 22.6664 49.9837 21.0877C49.2511 19.3962 48.9693 17.7047 48.6876 16.0695C48.3495 14.3216 48.0114 12.461 47.2788 11.728C46.6026 10.995 44.743 10.7131 42.9961 10.3748C41.3619 10.0929 39.615 9.75457 37.9808 9.07796C36.403 8.45774 34.9942 7.44284 33.6981 6.5407C32.1202 5.41302 30.6551 4.39812 29.5281 4.39812Z" fill="#8E94C8"/>
<path d="M14.9045 29.6191L15.2989 30.4085L16.2006 30.5213L15.5807 31.1979L15.6934 32.1L14.9045 31.649L14.1156 32.1L14.2283 31.1979L13.6084 30.5213L14.51 30.4085L14.9045 29.6191Z" fill="#8E94C8"/>
<path d="M45.1522 29.6191L44.7014 30.4085L43.7998 30.5213L44.476 31.1979L44.307 32.1L45.1522 31.649L45.9412 32.1L45.7721 31.1979L46.4483 30.5213L45.5467 30.4085L45.1522 29.6191Z" fill="#8E94C8"/>
<path d="M15.93 36.6H17.718L19.086 45H17.766L17.526 43.332V43.356H16.026L15.786 45H14.562L15.93 36.6ZM17.37 42.216L16.782 38.064H16.758L16.182 42.216H17.37ZM19.2503 36.6H20.5223L21.1103 43.056H21.1343L21.7583 36.6H23.1983L23.8223 43.056H23.8463L24.4343 36.6H25.5743L24.7223 45H23.0783L22.4783 39.336H22.4543L21.8543 45H20.1023L19.2503 36.6ZM27.0979 36.6H28.8859L30.2539 45H28.9339L28.6939 43.332V43.356H27.1939L26.9539 45H25.7299L27.0979 36.6ZM28.5379 42.216L27.9499 38.064H27.9259L27.3499 42.216H28.5379ZM30.8943 36.6H32.8503C33.5303 36.6 34.0263 36.76 34.3383 37.08C34.6503 37.392 34.8063 37.876 34.8063 38.532V39.048C34.8063 39.92 34.5183 40.472 33.9423 40.704V40.728C34.2623 40.824 34.4863 41.02 34.6143 41.316C34.7503 41.612 34.8183 42.008 34.8183 42.504V43.98C34.8183 44.22 34.8263 44.416 34.8423 44.568C34.8583 44.712 34.8983 44.856 34.9623 45H33.6183C33.5703 44.864 33.5383 44.736 33.5223 44.616C33.5063 44.496 33.4983 44.28 33.4983 43.968V42.432C33.4983 42.048 33.4343 41.78 33.3063 41.628C33.1863 41.476 32.9743 41.4 32.6703 41.4H32.2143V45H30.8943V36.6ZM32.6943 40.2C32.9583 40.2 33.1543 40.132 33.2823 39.996C33.4183 39.86 33.4863 39.632 33.4863 39.312V38.664C33.4863 38.36 33.4303 38.14 33.3183 38.004C33.2143 37.868 33.0463 37.8 32.8143 37.8H32.2143V40.2H32.6943ZM35.7342 36.6H37.7502C38.4062 36.6 38.8982 36.776 39.2262 37.128C39.5542 37.48 39.7182 37.996 39.7182 38.676V42.924C39.7182 43.604 39.5542 44.12 39.2262 44.472C38.8982 44.824 38.4062 45 37.7502 45H35.7342V36.6ZM37.7262 43.8C37.9422 43.8 38.1062 43.736 38.2182 43.608C38.3382 43.48 38.3982 43.272 38.3982 42.984V38.616C38.3982 38.328 38.3382 38.12 38.2182 37.992C38.1062 37.864 37.9422 37.8 37.7262 37.8H37.0542V43.8H37.7262ZM42.3252 45.12C41.6852 45.12 41.2012 44.94 40.8732 44.58C40.5452 44.212 40.3812 43.688 40.3812 43.008V42.528H41.6292V43.104C41.6292 43.648 41.8572 43.92 42.3132 43.92C42.5372 43.92 42.7052 43.856 42.8172 43.728C42.9372 43.592 42.9972 43.376 42.9972 43.08C42.9972 42.728 42.9172 42.42 42.7572 42.156C42.5972 41.884 42.3012 41.56 41.8692 41.184C41.3252 40.704 40.9452 40.272 40.7292 39.888C40.5132 39.496 40.4052 39.056 40.4052 38.568C40.4052 37.904 40.5732 37.392 40.9092 37.032C41.2452 36.664 41.7332 36.48 42.3732 36.48C43.0052 36.48 43.4812 36.664 43.8012 37.032C44.1292 37.392 44.2932 37.912 44.2932 38.592V38.94H43.0452V38.508C43.0452 38.22 42.9892 38.012 42.8772 37.884C42.7652 37.748 42.6012 37.68 42.3852 37.68C41.9452 37.68 41.7252 37.948 41.7252 38.484C41.7252 38.788 41.8052 39.072 41.9652 39.336C42.1332 39.6 42.4332 39.92 42.8652 40.296C43.4172 40.776 43.7972 41.212 44.0052 41.604C44.2132 41.996 44.3172 42.456 44.3172 42.984C44.3172 43.672 44.1452 44.2 43.8012 44.568C43.4652 44.936 42.9732 45.12 42.3252 45.12Z" fill="#8E94C8"/>
<path d="M19.6434 27H21.3234C21.8701 27 22.2801 27.1467 22.5534 27.44C22.8267 27.7333 22.9634 28.1633 22.9634 28.73V32.27C22.9634 32.8367 22.8267 33.2667 22.5534 33.56C22.2801 33.8533 21.8701 34 21.3234 34H19.6434V27ZM21.3034 33C21.4834 33 21.6201 32.9467 21.7134 32.84C21.8134 32.7333 21.8634 32.56 21.8634 32.32V28.68C21.8634 28.44 21.8134 28.2667 21.7134 28.16C21.6201 28.0533 21.4834 28 21.3034 28H20.7434V33H21.3034ZM23.7059 27H26.7059V28H24.8059V29.85H26.3159V30.85H24.8059V33H26.7059V34H23.7059V27ZM28.7882 34.1C28.2549 34.1 27.8516 33.95 27.5782 33.65C27.3049 33.3433 27.1682 32.9067 27.1682 32.34V31.94H28.2082V32.42C28.2082 32.8733 28.3982 33.1 28.7782 33.1C28.9649 33.1 29.1049 33.0467 29.1982 32.94C29.2982 32.8267 29.3482 32.6467 29.3482 32.4C29.3482 32.1067 29.2816 31.85 29.1482 31.63C29.0149 31.4033 28.7682 31.1333 28.4082 30.82C27.9549 30.42 27.6382 30.06 27.4582 29.74C27.2782 29.4133 27.1882 29.0467 27.1882 28.64C27.1882 28.0867 27.3282 27.66 27.6082 27.36C27.8882 27.0533 28.2949 26.9 28.8282 26.9C29.3549 26.9 29.7516 27.0533 30.0182 27.36C30.2916 27.66 30.4282 28.0933 30.4282 28.66V28.95H29.3882V28.59C29.3882 28.35 29.3416 28.1767 29.2482 28.07C29.1549 27.9567 29.0182 27.9 28.8382 27.9C28.4716 27.9 28.2882 28.1233 28.2882 28.57C28.2882 28.8233 28.3549 29.06 28.4882 29.28C28.6282 29.5 28.8782 29.7667 29.2382 30.08C29.6982 30.48 30.0149 30.8433 30.1882 31.17C30.3616 31.4967 30.4482 31.88 30.4482 32.32C30.4482 32.8933 30.3049 33.3333 30.0182 33.64C29.7382 33.9467 29.3282 34.1 28.7882 34.1ZM31.0789 27H32.1789V34H31.0789V27ZM34.5628 34.1C34.0294 34.1 33.6228 33.95 33.3428 33.65C33.0628 33.3433 32.9228 32.9067 32.9228 32.34V28.66C32.9228 28.0933 33.0628 27.66 33.3428 27.36C33.6228 27.0533 34.0294 26.9 34.5628 26.9C35.0961 26.9 35.5028 27.0533 35.7828 27.36C36.0628 27.66 36.2028 28.0933 36.2028 28.66V29.26H35.1628V28.59C35.1628 28.13 34.9728 27.9 34.5928 27.9C34.2128 27.9 34.0228 28.13 34.0228 28.59V32.42C34.0228 32.8733 34.2128 33.1 34.5928 33.1C34.9728 33.1 35.1628 32.8733 35.1628 32.42V31.05H34.6128V30.05H36.2028V32.34C36.2028 32.9067 36.0628 33.3433 35.7828 33.65C35.5028 33.95 35.0961 34.1 34.5628 34.1ZM36.909 27H38.289L39.359 31.19H39.379V27H40.359V34H39.229L37.909 28.89H37.889V34H36.909V27Z" fill="#8E94C8"/>
</svg>
