<svg width="55" height="58" viewBox="0 0 55 58" fill="none" xmlns="http://www.w3.org/2000/svg">
<path d="M54.3946 23.857H39.7646V22.7627H54.3946V23.857Z" fill="#8E94C8"/>
<path d="M27.06 54.2797L10.835 46.1268V37.4268H11.935V45.4155L27.06 53.0212L42.185 45.4155V37.2627H43.285V46.1268L27.06 54.2797Z" fill="#8E94C8"/>
<path d="M43.285 20.6283H42.185V12.4754L27.06 4.86979L11.935 12.4754V20.4641H10.835V11.8188L27.06 3.66602L43.285 11.8188V20.6283Z" fill="#8E94C8"/>
<path d="M54.3946 35.2926H39.7646V34.1982H54.3946V35.2926Z" fill="#8E94C8"/>
<path d="M42.02 23.857H0V22.7627H42.02V23.857Z" fill="#8E94C8"/>
<path fill-rule="evenodd" clip-rule="evenodd" d="M7.25977 21.5036V10.5602L7.86477 10.2866L26.5648 0.656397L27.0598 0.382812L27.5548 0.656397L46.2548 10.2866L46.8598 10.5602V21.5036H7.25977ZM8.35977 20.4092H45.7048V11.2168L27.0048 1.6413L8.35977 11.2168V20.4092Z" fill="#8E94C8"/>
<path fill-rule="evenodd" clip-rule="evenodd" d="M46.8598 35.3473V47.002V47.6586L46.2548 47.9322L27.5548 57.5624L27.0598 57.836L26.5648 57.5624L7.86477 47.9322L7.25977 47.6586V34.1982H8.35977L45.7598 34.253H46.8598V35.3473ZM45.7598 47.002V35.3473L8.35977 35.2926V47.002L27.0598 56.5775L45.7598 47.002Z" fill="#8E94C8"/>
<path d="M14.63 35.2926H0V34.1982H14.63V35.2926Z" fill="#8E94C8"/>
<path d="M21.0565 11H22.7365C23.2832 11 23.6932 11.1467 23.9665 11.44C24.2398 11.7333 24.3765 12.1633 24.3765 12.73V16.27C24.3765 16.8367 24.2398 17.2667 23.9665 17.56C23.6932 17.8533 23.2832 18 22.7365 18H21.0565V11ZM22.7165 17C22.8965 17 23.0332 16.9467 23.1265 16.84C23.2265 16.7333 23.2765 16.56 23.2765 16.32V12.68C23.2765 12.44 23.2265 12.2667 23.1265 12.16C23.0332 12.0533 22.8965 12 22.7165 12H22.1565V17H22.7165ZM25.119 11H26.779C27.3457 11 27.759 11.1333 28.019 11.4C28.279 11.66 28.409 12.0633 28.409 12.61V12.89C28.409 13.25 28.349 13.5433 28.229 13.77C28.1157 13.9967 27.939 14.16 27.699 14.26V14.28C28.2457 14.4667 28.519 14.9533 28.519 15.74V16.34C28.519 16.88 28.3757 17.2933 28.089 17.58C27.809 17.86 27.3957 18 26.849 18H25.119V11ZM26.649 13.85C26.869 13.85 27.0323 13.7933 27.139 13.68C27.2523 13.5667 27.309 13.3767 27.309 13.11V12.72C27.309 12.4667 27.2623 12.2833 27.169 12.17C27.0823 12.0567 26.9423 12 26.749 12H26.219V13.85H26.649ZM26.849 17C27.0423 17 27.1857 16.95 27.279 16.85C27.3723 16.7433 27.419 16.5633 27.419 16.31V15.7C27.419 15.38 27.3623 15.16 27.249 15.04C27.1423 14.9133 26.9623 14.85 26.709 14.85H26.219V17H26.849ZM30.592 18.1C30.0586 18.1 29.6553 17.95 29.382 17.65C29.1086 17.3433 28.972 16.9067 28.972 16.34V15.94H30.012V16.42C30.012 16.8733 30.202 17.1 30.582 17.1C30.7686 17.1 30.9086 17.0467 31.002 16.94C31.102 16.8267 31.152 16.6467 31.152 16.4C31.152 16.1067 31.0853 15.85 30.952 15.63C30.8186 15.4033 30.572 15.1333 30.212 14.82C29.7586 14.42 29.442 14.06 29.262 13.74C29.082 13.4133 28.992 13.0467 28.992 12.64C28.992 12.0867 29.132 11.66 29.412 11.36C29.692 11.0533 30.0986 10.9 30.632 10.9C31.1586 10.9 31.5553 11.0533 31.822 11.36C32.0953 11.66 32.232 12.0933 32.232 12.66V12.95H31.192V12.59C31.192 12.35 31.1453 12.1767 31.052 12.07C30.9586 11.9567 30.822 11.9 30.642 11.9C30.2753 11.9 30.092 12.1233 30.092 12.57C30.092 12.8233 30.1586 13.06 30.292 13.28C30.432 13.5 30.682 13.7667 31.042 14.08C31.502 14.48 31.8186 14.8433 31.992 15.17C32.1653 15.4967 32.252 15.88 32.252 16.32C32.252 16.8933 32.1086 17.3333 31.822 17.64C31.542 17.9467 31.132 18.1 30.592 18.1Z" fill="#8E94C8"/>
<path d="M16.203 26H17.883C18.4296 26 18.8396 26.1467 19.113 26.44C19.3863 26.7333 19.523 27.1633 19.523 27.73V31.27C19.523 31.8367 19.3863 32.2667 19.113 32.56C18.8396 32.8533 18.4296 33 17.883 33H16.203V26ZM17.863 32C18.043 32 18.1796 31.9467 18.273 31.84C18.373 31.7333 18.423 31.56 18.423 31.32V27.68C18.423 27.44 18.373 27.2667 18.273 27.16C18.1796 27.0533 18.043 27 17.863 27H17.303V32H17.863ZM20.2655 26H23.2655V27H21.3655V28.85H22.8755V29.85H21.3655V32H23.2655V33H20.2655V26ZM25.3478 33.1C24.8145 33.1 24.4111 32.95 24.1378 32.65C23.8645 32.3433 23.7278 31.9067 23.7278 31.34V30.94H24.7678V31.42C24.7678 31.8733 24.9578 32.1 25.3378 32.1C25.5245 32.1 25.6645 32.0467 25.7578 31.94C25.8578 31.8267 25.9078 31.6467 25.9078 31.4C25.9078 31.1067 25.8411 30.85 25.7078 30.63C25.5745 30.4033 25.3278 30.1333 24.9678 29.82C24.5145 29.42 24.1978 29.06 24.0178 28.74C23.8378 28.4133 23.7478 28.0467 23.7478 27.64C23.7478 27.0867 23.8878 26.66 24.1678 26.36C24.4478 26.0533 24.8545 25.9 25.3878 25.9C25.9145 25.9 26.3111 26.0533 26.5778 26.36C26.8511 26.66 26.9878 27.0933 26.9878 27.66V27.95H25.9478V27.59C25.9478 27.35 25.9011 27.1767 25.8078 27.07C25.7145 26.9567 25.5778 26.9 25.3978 26.9C25.0311 26.9 24.8478 27.1233 24.8478 27.57C24.8478 27.8233 24.9145 28.06 25.0478 28.28C25.1878 28.5 25.4378 28.7667 25.7978 29.08C26.2578 29.48 26.5745 29.8433 26.7478 30.17C26.9211 30.4967 27.0078 30.88 27.0078 31.32C27.0078 31.8933 26.8645 32.3333 26.5778 32.64C26.2978 32.9467 25.8878 33.1 25.3478 33.1ZM27.6385 26H28.7385V33H27.6385V26ZM31.1223 33.1C30.589 33.1 30.1823 32.95 29.9023 32.65C29.6223 32.3433 29.4823 31.9067 29.4823 31.34V27.66C29.4823 27.0933 29.6223 26.66 29.9023 26.36C30.1823 26.0533 30.589 25.9 31.1223 25.9C31.6557 25.9 32.0623 26.0533 32.3423 26.36C32.6223 26.66 32.7623 27.0933 32.7623 27.66V28.26H31.7223V27.59C31.7223 27.13 31.5323 26.9 31.1523 26.9C30.7723 26.9 30.5823 27.13 30.5823 27.59V31.42C30.5823 31.8733 30.7723 32.1 31.1523 32.1C31.5323 32.1 31.7223 31.8733 31.7223 31.42V30.05H31.1723V29.05H32.7623V31.34C32.7623 31.9067 32.6223 32.3433 32.3423 32.65C32.0623 32.95 31.6557 33.1 31.1223 33.1ZM33.4686 26H34.8486L35.9186 30.19H35.9386V26H36.9186V33H35.7886L34.4686 27.89H34.4486V33H33.4686V26Z" fill="#8E94C8"/>
<path d="M17.382 38.7H18.723L19.749 45H18.759L18.579 43.749V43.767H17.454L17.274 45H16.356L17.382 38.7ZM18.462 42.912L18.021 39.798H18.003L17.571 42.912H18.462ZM19.8723 38.7H20.8263L21.2673 43.542H21.2853L21.7533 38.7H22.8333L23.3013 43.542H23.3193L23.7603 38.7H24.6153L23.9763 45H22.7433L22.2933 40.752H22.2753L21.8253 45H20.5113L19.8723 38.7ZM25.758 38.7H27.099L28.125 45H27.135L26.955 43.749V43.767H25.83L25.65 45H24.732L25.758 38.7ZM26.838 42.912L26.397 39.798H26.379L25.947 42.912H26.838ZM28.6053 38.7H30.0723C30.5823 38.7 30.9543 38.82 31.1883 39.06C31.4223 39.294 31.5393 39.657 31.5393 40.149V40.536C31.5393 41.19 31.3233 41.604 30.8913 41.778V41.796C31.1313 41.868 31.2993 42.015 31.3953 42.237C31.4973 42.459 31.5483 42.756 31.5483 43.128V44.235C31.5483 44.415 31.5543 44.562 31.5663 44.676C31.5783 44.784 31.6083 44.892 31.6563 45H30.6483C30.6123 44.898 30.5883 44.802 30.5763 44.712C30.5643 44.622 30.5583 44.46 30.5583 44.226V43.074C30.5583 42.786 30.5103 42.585 30.4143 42.471C30.3243 42.357 30.1653 42.3 29.9373 42.3H29.5953V45H28.6053V38.7ZM29.9553 41.4C30.1533 41.4 30.3003 41.349 30.3963 41.247C30.4983 41.145 30.5493 40.974 30.5493 40.734V40.248C30.5493 40.02 30.5073 39.855 30.4233 39.753C30.3453 39.651 30.2193 39.6 30.0453 39.6H29.5953V41.4H29.9553ZM32.2352 38.7H33.7472C34.2392 38.7 34.6082 38.832 34.8542 39.096C35.1002 39.36 35.2232 39.747 35.2232 40.257V43.443C35.2232 43.953 35.1002 44.34 34.8542 44.604C34.6082 44.868 34.2392 45 33.7472 45H32.2352V38.7ZM33.7292 44.1C33.8912 44.1 34.0142 44.052 34.0982 43.956C34.1882 43.86 34.2332 43.704 34.2332 43.488V40.212C34.2332 39.996 34.1882 39.84 34.0982 39.744C34.0142 39.648 33.8912 39.6 33.7292 39.6H33.2252V44.1H33.7292ZM37.1785 45.09C36.6985 45.09 36.3355 44.955 36.0895 44.685C35.8435 44.409 35.7205 44.016 35.7205 43.506V43.146H36.6565V43.578C36.6565 43.986 36.8275 44.19 37.1695 44.19C37.3375 44.19 37.4635 44.142 37.5475 44.046C37.6375 43.944 37.6825 43.782 37.6825 43.56C37.6825 43.296 37.6225 43.065 37.5025 42.867C37.3825 42.663 37.1605 42.42 36.8365 42.138C36.4285 41.778 36.1435 41.454 35.9815 41.166C35.8195 40.872 35.7385 40.542 35.7385 40.176C35.7385 39.678 35.8645 39.294 36.1165 39.024C36.3685 38.748 36.7345 38.61 37.2145 38.61C37.6885 38.61 38.0455 38.748 38.2855 39.024C38.5315 39.294 38.6545 39.684 38.6545 40.194V40.455H37.7185V40.131C37.7185 39.915 37.6765 39.759 37.5925 39.663C37.5085 39.561 37.3855 39.51 37.2235 39.51C36.8935 39.51 36.7285 39.711 36.7285 40.113C36.7285 40.341 36.7885 40.554 36.9085 40.752C37.0345 40.95 37.2595 41.19 37.5835 41.472C37.9975 41.832 38.2825 42.159 38.4385 42.453C38.5945 42.747 38.6725 43.092 38.6725 43.488C38.6725 44.004 38.5435 44.4 38.2855 44.676C38.0335 44.952 37.6645 45.09 37.1785 45.09Z" fill="#8E94C8"/>
</svg>
