<svg width="17" height="17" viewBox="0 0 17 17" fill="none" xmlns="http://www.w3.org/2000/svg">
<path d="M2.70654 0.0497875C2.4165 0.155255 2.13174 0.387287 1.55693 0.988459C0.649903 1.92186 0.264942 2.61795 0.0698252 3.65154C-0.146386 4.77479 0.133106 5.9824 0.99795 7.70154C2.70127 11.0818 6.10264 14.2195 9.44072 15.4851C10.7591 15.9808 11.529 16.1285 12.3253 16.023C13.5646 15.8648 14.4716 15.3638 15.5368 14.2564C16.0642 13.708 16.196 13.4443 16.2013 12.9592C16.2013 12.3422 16.1433 12.2578 14.4769 10.6019C12.8474 8.98299 12.7683 8.92498 12.1724 8.92498C11.6239 8.92498 11.4446 9.03572 10.4532 10.0166C9.90479 10.5545 9.50928 10.9025 9.446 10.9025C9.03467 10.9025 6.87783 8.9619 5.81787 7.63299C5.26416 6.94217 5.20088 6.8367 5.24307 6.69959C5.26416 6.64686 5.66494 6.21444 6.13955 5.73455C7.12041 4.73787 7.23643 4.55858 7.23643 3.98904C7.23643 3.3826 7.14678 3.26131 5.51729 1.64236C4.61553 0.751154 3.99854 0.17635 3.8667 0.118341C3.61885 -0.00294685 2.94385 -0.0398617 2.70654 0.0497875ZM3.51338 0.956818C3.59248 0.999005 4.25166 1.63182 4.9794 2.3701C6.37686 3.77811 6.44014 3.86248 6.31358 4.19471C6.28193 4.27381 5.87061 4.72733 5.396 5.20721C4.92666 5.68709 4.49424 6.1617 4.4415 6.2619C4.29385 6.54139 4.3044 7.07401 4.46787 7.34295C5.19561 8.57694 8.02217 11.3244 8.97666 11.7199C9.25088 11.8359 9.7044 11.8201 9.97334 11.6883C10.1052 11.6197 10.5271 11.2347 11.0386 10.7127L11.8876 9.84783H12.146H12.4097L13.844 11.2875L15.2837 12.7219V12.9697C15.2837 13.1859 15.2573 13.2439 15.0306 13.4918C14.5665 14.0138 13.9126 14.5412 13.4696 14.7521C12.8474 15.0527 12.4308 15.1371 11.6978 15.1055C11.1493 15.0844 11.0175 15.058 10.3372 14.8312C8.96084 14.3724 7.3999 13.4971 6.05518 12.4318C5.35908 11.8781 4.09873 10.623 3.53447 9.91639C2.4376 8.55057 1.61494 7.10037 1.12451 5.66072C0.781739 4.6535 0.897755 3.47752 1.4251 2.58104C1.52002 2.41229 1.91025 1.96404 2.28467 1.57908C2.92803 0.93045 2.98604 0.88299 3.17061 0.88299C3.28135 0.88299 3.43428 0.914631 3.51338 0.956818Z" fill="white"/>
</svg>
