<svg width="24" height="24" viewBox="0 0 24 24" fill="none" xmlns="http://www.w3.org/2000/svg">
<circle cx="12" cy="12" r="12" fill="url(#paint0_linear_2005_41)"/>
<path d="M8.32652 6.05019C8.24694 6.07586 8.12371 6.12977 8.05697 6.16828C7.89267 6.26326 6.4987 7.65723 6.35751 7.87031C6.1316 8.2066 6.02378 8.5275 6.00324 8.92797C5.97757 9.41573 6.09823 9.79567 6.58342 10.7378C7.81822 13.1432 9.67171 15.1071 12.0027 16.4883C12.6676 16.881 13.5892 17.3226 13.9281 17.4099C14.3183 17.51 14.7521 17.4894 15.1423 17.3482C15.5146 17.2122 15.607 17.1352 16.4644 16.2854C17.1909 15.5641 17.2782 15.4691 17.3603 15.3022C17.5323 14.9557 17.5349 14.5732 17.3655 14.2112C17.2962 14.07 17.1806 13.9442 16.4233 13.1818C15.5916 12.3474 15.5505 12.3089 15.3426 12.2062L15.1269 12.0984H14.8163C14.5159 12.0984 14.498 12.101 14.3131 12.1883C14.1437 12.2653 14.0718 12.3243 13.6893 12.6991L13.2606 13.1227L13.0655 13.0406C12.5495 12.8249 11.9436 12.409 11.5021 11.9701C11.0631 11.5285 10.6447 10.9201 10.4316 10.4092L10.3494 10.2116L10.7473 9.80594C10.9681 9.58517 11.1761 9.35155 11.212 9.28738C11.4276 8.90487 11.4276 8.43765 11.2146 8.05514C11.1401 7.92422 9.56389 6.32488 9.38676 6.20165C9.11207 6.00912 8.66025 5.94494 8.32652 6.05019ZM8.87846 6.83061C8.97344 6.87168 10.4855 8.40684 10.5317 8.51209C10.5702 8.59938 10.5728 8.74827 10.5368 8.84326C10.5214 8.88177 10.2801 9.14618 10.0003 9.42857C9.39446 10.0396 9.40729 10.0139 9.53565 10.3887C9.92843 11.5388 10.7987 12.6401 11.8666 13.3383C12.3364 13.6438 13.1425 14.0109 13.3479 14.0109C13.3967 14.0109 13.4685 13.9981 13.5096 13.9827C13.5481 13.9673 13.8125 13.726 14.0949 13.4462C14.8548 12.694 14.729 12.6709 15.8072 13.7491C16.6955 14.6373 16.7032 14.6502 16.6467 14.8709C16.6236 14.9582 16.5055 15.0892 15.8971 15.7001C15.2681 16.3291 15.15 16.4369 15.0011 16.5139C14.7804 16.6243 14.5801 16.6654 14.3516 16.6474C14.1078 16.6294 13.9974 16.5884 13.3992 16.2983C11.9899 15.6103 10.8808 14.8222 9.7821 13.7183C9.07356 13.0098 8.5704 12.3962 8.0621 11.6235C7.48963 10.7532 6.89661 9.56976 6.8427 9.18726C6.80676 8.92541 6.86838 8.61478 7.00187 8.39144C7.07888 8.26308 8.45488 6.87682 8.54986 6.83317C8.64998 6.78953 8.77321 6.78953 8.87846 6.83061Z" fill="white"/>
<defs>
<linearGradient id="paint0_linear_2005_41" x1="2.5" y1="-4.17233e-07" x2="22.5" y2="26" gradientUnits="userSpaceOnUse">
<stop stop-color="#F94B65"/>
<stop offset="1" stop-color="#B561EF"/>
</linearGradient>
</defs>
</svg>
