<svg width="12" height="12" viewBox="0 0 12 12" fill="none" xmlns="http://www.w3.org/2000/svg">
<path d="M0.400051 0.0509682C0.250032 0.118477 0.132517 0.235991 0.0600076 0.386011L0 0.511027V5.97422C0 9.66219 0.00750096 11.4674 0.0250032 11.5299C0.0650083 11.6724 0.200025 11.83 0.350045 11.9125L0.487562 11.9875L3.44544 11.995L6.40082 12V9.67469V7.3494H5.62572H4.85062V6.43678V5.52417H5.62572H6.40082V4.77907C6.40082 3.72644 6.44832 3.4189 6.67335 2.96134C7.0284 2.24625 7.65848 1.8687 8.5961 1.80869C8.82613 1.79369 9.83125 1.8337 10.0338 1.8662L10.1263 1.8812V2.6888V3.49641L9.48371 3.50391C8.94864 3.51391 8.81862 3.52141 8.72361 3.55892C8.54609 3.62392 8.41357 3.75144 8.34856 3.91896C8.29356 4.05398 8.29106 4.10148 8.28106 4.79157L8.27105 5.52417H9.17367C9.67123 5.52417 10.0763 5.53167 10.0763 5.54417C10.0763 5.55417 10.0263 5.94922 9.96377 6.42428C9.90126 6.89934 9.85126 7.30189 9.85126 7.31689C9.85126 7.3419 9.67623 7.3494 9.06365 7.3494H8.27606V9.67469V12H9.83375C11.6365 12 11.5765 12.005 11.794 11.79C12.0215 11.5624 12.004 12.12 11.9965 5.93672L11.989 0.486024L11.914 0.348506C11.8315 0.198487 11.674 0.0634699 11.5315 0.0234652C11.469 0.00596237 9.66373 -0.00153828 5.97576 -0.00153828C0.535068 -0.00153828 0.512565 0.000962257 0.400051 0.0509682Z" fill="#AEB2D7"/>
</svg>
