<svg width="14" height="18" viewBox="0 0 14 18" fill="none" xmlns="http://www.w3.org/2000/svg">
<path fill-rule="evenodd" clip-rule="evenodd" d="M1.97983 1.98249C3.04858 0.917259 4.43022 0.24226 5.93139 0.0489006C6.66616 -0.0425053 7.66811 0.0207748 8.41694 0.214134C9.39077 0.463745 10.347 0.959448 11.1345 1.62742C12.8185 3.05124 13.722 5.35749 13.4443 7.51257C13.1384 9.86101 11.574 12.7122 8.83881 15.8903C8.31499 16.4985 7.29546 17.5954 7.01772 17.8485C6.73999 18.1051 6.71538 18.0946 6.09311 17.4618C3.73413 15.0501 1.7478 12.2833 0.809128 10.1001C0.0145965 8.25788 -0.178763 6.83054 0.158737 5.31179C0.447018 4.02507 1.06225 2.90007 1.97983 1.98249ZM11.908 3.34304C10.8744 1.79265 9.24663 0.80476 7.39741 0.597338C6.27241 0.474291 5.03842 0.692261 4.02241 1.20203C2.23999 2.09499 1.02358 3.70163 0.657956 5.65281C0.556003 6.20476 0.548971 7.19265 0.643893 7.71648C1.09038 10.1528 2.89741 13.1481 5.88921 16.4176C6.16342 16.7165 6.46928 17.0399 6.56772 17.1384L6.74702 17.3106L6.92631 17.1384C7.02475 17.0399 7.33061 16.7165 7.60483 16.4176C10.5861 13.1622 12.4283 10.1106 12.8431 7.73406C13.1033 6.25749 12.7517 4.60515 11.908 3.34304ZM5.50217 3.91968C5.70608 3.82828 6.13147 3.70875 6.3424 3.68062C6.59553 3.64898 7.00686 3.65953 7.29162 3.70875C8.47287 3.91617 9.42209 4.79859 9.74553 5.9939C9.84748 6.37008 9.851 7.10484 9.75607 7.46695C9.60139 8.04351 9.32365 8.53922 8.9299 8.93297C7.93147 9.9314 6.37404 10.1248 5.15764 9.40054C4.77795 9.17203 4.32443 8.71851 4.09592 8.33883C3.1467 6.74625 3.80764 4.66851 5.50217 3.91968ZM8.12483 4.63687C7.826 4.44 7.56936 4.33804 7.21076 4.26773C6.60959 4.15172 5.99084 4.2607 5.45647 4.57359C5.18225 4.73531 4.7217 5.20289 4.55647 5.48414C4.18381 6.1275 4.12053 6.95367 4.39123 7.67086C4.58811 8.19468 5.08733 8.74312 5.59709 8.99625C6.03303 9.2107 6.26506 9.26343 6.78186 9.25992C7.15803 9.2564 7.2635 9.24234 7.50256 9.165C7.90686 9.0314 8.19865 8.84859 8.52209 8.52515C8.84553 8.20172 9.02834 7.90992 9.16193 7.50562C9.23928 7.26656 9.25334 7.16109 9.25686 6.78492C9.26037 6.26812 9.20764 6.03609 8.99319 5.60015C8.81389 5.24156 8.4799 4.8689 8.12483 4.63687Z" fill="url(#paint0_linear_141_2883)"/>
<defs>
<linearGradient id="paint0_linear_141_2883" x1="16" y1="19.5" x2="-2.5" y2="-1.5" gradientUnits="userSpaceOnUse">
<stop stop-color="#F04674"/>
<stop offset="1" stop-color="#B068E9"/>
</linearGradient>
</defs>
</svg>
