<svg width="18" height="18" viewBox="0 0 18 18" fill="none" xmlns="http://www.w3.org/2000/svg">
<path d="M3.26831 0.0751877C2.80425 0.152533 2.24526 0.525188 1.58081 1.19667C0.800342 1.98769 0.294092 2.89823 0.0796392 3.9037C-0.011767 4.34667 -0.00473578 5.27831 0.0972173 5.74238C0.262452 6.48769 0.487452 7.02206 1.07105 8.03456C3.29995 11.9193 6.41128 14.883 10.3347 16.8553C11.8042 17.5971 12.5144 17.8467 13.3722 17.9275C14.6835 18.0541 15.7558 17.5127 17.0777 16.0572C17.6789 15.3928 17.7492 15.3049 17.8722 15.0482C17.9707 14.8373 17.9812 14.7916 17.9777 14.4682C17.9742 13.8424 17.8617 13.6631 16.7121 12.4853C15.5097 11.2549 14.891 10.6853 14.5921 10.5377C14.0964 10.2881 13.65 10.2881 13.1472 10.5377C12.9222 10.6467 12.7957 10.7521 12.2683 11.2725C11.4597 12.067 11.4843 12.06 10.8621 11.61C9.99722 10.9877 9.02339 10.1545 8.24644 9.3705C7.31128 8.4248 6.18276 7.01503 6.13003 6.72675C6.09487 6.54042 6.19331 6.37519 6.62925 5.90409C7.76831 4.67362 7.91245 4.08652 7.30425 3.17949C7.07925 2.84199 6.15464 1.86464 5.28276 1.03495C4.68511 0.468939 4.56206 0.370501 4.31245 0.247454C4.14019 0.166595 3.93276 0.0927658 3.79565 0.0716724C3.53901 0.0330009 3.5355 0.0330009 3.26831 0.0751877ZM3.99956 0.834564C4.22105 0.940033 5.07534 1.73105 5.95073 2.64511C6.81206 3.54159 6.96323 3.76659 6.96323 4.1287C6.96323 4.4662 6.85073 4.65253 6.20386 5.36269C5.68003 5.94277 5.50425 6.19238 5.45151 6.43495C5.37065 6.81464 5.49722 7.1205 6.02105 7.81308C6.97026 9.07519 8.02847 10.1861 9.26245 11.2162C9.84605 11.7049 10.7531 12.3764 10.95 12.4678C11.2277 12.5943 11.4738 12.6119 11.7796 12.517C12.0363 12.4396 12.0398 12.4396 12.6761 11.8103C13.3898 11.1037 13.5128 11.0228 13.8679 11.0264C14.1562 11.0299 14.3777 11.1494 14.7574 11.508C15.8894 12.5697 17.0777 13.8107 17.2148 14.0709C17.3343 14.3029 17.3449 14.6123 17.2464 14.8021C17.0847 15.108 15.9773 16.2682 15.5097 16.6232C15.1617 16.8834 14.7433 17.0978 14.3917 17.1963C14.0437 17.2947 13.4109 17.3018 13.0066 17.2139C11.6953 16.9221 9.2519 15.6424 7.473 14.3135C5.42339 12.7807 3.78159 11.0158 2.30855 8.77284C1.65464 7.77441 1.09214 6.73378 0.912842 6.18886C0.459327 4.83183 0.666749 3.48534 1.49995 2.31113C1.92183 1.71699 2.8148 0.915422 3.18745 0.799408C3.53198 0.686907 3.70776 0.697454 3.99956 0.834564Z" fill="url(#paint0_linear_141_2876)"/>
<defs>
<linearGradient id="paint0_linear_141_2876" x1="8.99693" y1="0.0430927" x2="8.99693" y2="17.9453" gradientUnits="userSpaceOnUse">
<stop stop-color="#F04674"/>
<stop offset="1" stop-color="#B068E9"/>
</linearGradient>
</defs>
</svg>
