<svg width="18" height="12" viewBox="0 0 18 12" fill="none" xmlns="http://www.w3.org/2000/svg">
<path d="M0.718284 0.0206728C0.437652 0.107535 0.223837 0.291283 0.0768396 0.568573L0 0.708889V6.00414V11.2994L0.0768396 11.4397C0.190429 11.6535 0.344108 11.8105 0.531196 11.9108L0.701579 12.001H8.53588H16.3702L16.5406 11.9108C16.7377 11.8072 16.9014 11.6301 17.0016 11.4197L17.0718 11.266V5.98744V0.708889L16.9949 0.568573C16.8813 0.354758 16.7277 0.197739 16.5406 0.0975122L16.3702 0.00730991L8.586 0.000627518C4.30302 -0.0027132 0.765056 0.00730991 0.718284 0.0206728ZM16.2566 0.692184C16.3368 0.735616 16.4203 0.895977 16.4203 1.00622C16.4203 1.053 16.3802 1.13652 16.3268 1.18997C16.2332 1.29354 8.75972 5.76694 8.59936 5.81706C8.53588 5.8371 8.47909 5.83042 8.41227 5.79701C8.02807 5.59656 0.815168 1.26347 0.74501 1.18997C0.691557 1.13652 0.651467 1.053 0.651467 1.00622C0.651467 0.899318 0.734988 0.738956 0.808487 0.695525C0.892008 0.648753 16.1664 0.645412 16.2566 0.692184ZM4.40993 4.1934C6.3944 5.3794 8.08487 6.37832 8.16839 6.41507C8.38889 6.51529 8.69958 6.50861 8.93679 6.39836C9.03701 6.35159 10.7576 5.33263 12.7621 4.13661L16.4036 1.96171L16.4136 6.49525C16.417 8.99087 16.4136 11.0689 16.4036 11.109C16.3936 11.1524 16.3435 11.2259 16.2967 11.2693L16.2098 11.3495H8.53922C1.32298 11.3495 0.865281 11.3462 0.798464 11.2894C0.758374 11.2593 0.708261 11.1992 0.688216 11.1591C0.661489 11.1056 0.651467 9.8194 0.651467 6.52198V1.95837L0.728306 1.99846C0.768396 2.02184 2.42546 3.0074 4.40993 4.1934Z" fill="url(#paint0_linear_141_2872)"/>
<defs>
<linearGradient id="paint0_linear_141_2872" x1="-2" y1="-0.999999" x2="18.5" y2="12.5" gradientUnits="userSpaceOnUse">
<stop stop-color="#F04675"/>
<stop offset="1" stop-color="#B068E9"/>
</linearGradient>
</defs>
</svg>
