<svg width="35" height="23" viewBox="0 0 35 23" fill="none" xmlns="http://www.w3.org/2000/svg">
<path d="M2.28942 0.0960808C1.16656 0.351582 0.279033 1.25256 0.0705988 2.34852C-0.0235329 2.84607 -0.0235329 20.1528 0.0705988 20.6504C0.285757 21.8002 1.26069 22.7347 2.43734 22.9297C3.02902 23.0239 31.4097 23.0239 32.0014 22.923C33.1781 22.7347 34.1463 21.8002 34.3614 20.6504C34.4556 20.1528 34.4556 2.84607 34.3614 2.34852C34.1463 1.21894 33.2049 0.291069 32.0485 0.0759106C31.4366 -0.038393 2.79369 -0.0182209 2.28942 0.0960808ZM32.3174 1.36013C32.7477 1.58874 33.057 1.95182 33.1848 2.38214C33.3327 2.87969 33.3327 20.1192 33.1848 20.6168C33.057 21.0471 32.7814 21.3766 32.3376 21.6186L31.9745 21.8203H17.216H2.45751L2.09443 21.6186C1.65067 21.3766 1.37499 21.0471 1.24724 20.6168C1.09932 20.1192 1.09932 2.87969 1.24724 2.38214C1.42206 1.79717 1.93306 1.33324 2.55836 1.20549C2.68611 1.17859 9.35602 1.16515 17.3841 1.17187L31.9745 1.17859L32.3174 1.36013Z" fill="white"/>
<path d="M3.65427 3.59916C3.47945 3.72691 3.39205 4.10344 3.4929 4.2917C3.58703 4.46652 14.6677 12.0508 15.1585 12.2794C16.2208 12.7636 17.6597 12.7501 18.7221 12.2526C18.9507 12.145 21.7679 10.343 24.9885 8.25196C31.3088 4.14378 31.1206 4.28498 30.9323 3.83449C30.8314 3.59244 30.6835 3.49831 30.4011 3.49831C30.2397 3.49831 28.8412 4.37911 24.3296 7.31064C21.1022 9.40843 18.2783 11.1969 18.0564 11.2843C17.2697 11.6071 16.1267 11.5398 15.4342 11.1364C15.2863 11.0423 12.7514 9.32102 9.79972 7.30392C6.85475 5.28681 4.38043 3.60589 4.31319 3.56555C4.12493 3.46469 3.82236 3.48486 3.65427 3.59916Z" fill="white"/>
</svg>
