<svg width="19" height="18" viewBox="0 0 19 18" fill="none" xmlns="http://www.w3.org/2000/svg">
<path fill-rule="evenodd" clip-rule="evenodd" d="M1.94359e-05 8.47546C1.94359e-05 4.58987 1.94381e-05 4.58267 0.0756426 4.48544C0.169271 4.3666 0.352927 4.3558 0.453758 4.46743C0.518578 4.53945 0.522179 4.67269 0.540185 8.52947L0.55819 12.5123L0.637414 12.7248C0.738245 12.9876 0.839076 13.1533 1.02633 13.3549C1.31802 13.6754 1.84738 13.9347 2.2111 13.9347C2.564 13.9347 2.83769 14.1076 2.91331 14.3849C2.93852 14.4785 2.95292 15.0439 2.95292 15.9946C2.95292 16.8048 2.96373 17.4638 2.98173 17.4638C2.99614 17.4638 3.79198 16.7112 4.75347 15.7893C5.90222 14.6874 6.55402 14.086 6.66206 14.032L6.82411 13.9527L11.6676 13.9347C16.205 13.9167 16.5219 13.9131 16.6731 13.8519C17.2061 13.6394 17.5842 13.2613 17.7931 12.7284C17.8723 12.5231 17.8759 12.4583 17.8975 11.3851L17.9155 10.2544L18.0019 10.186C18.1172 10.0924 18.2432 10.0996 18.3476 10.2076L18.4377 10.294V11.3311C18.4377 12.5267 18.4124 12.7067 18.182 13.1785C17.9803 13.589 17.541 14.0356 17.1413 14.23C17.1148 14.243 17.0904 14.2552 17.0674 14.2669C17.0241 14.2887 16.9853 14.3082 16.9457 14.3257C16.6064 14.4753 16.2012 14.4753 12.3282 14.4749L11.7216 14.4749C8.18892 14.4785 7.01136 14.4893 6.92494 14.5217C6.85291 14.5469 6.1399 15.2059 5.06317 16.2358C4.10527 17.1541 3.28422 17.9283 3.23741 17.9536C3.11857 18.0184 2.86289 18.0148 2.71525 17.9464C2.64683 17.9139 2.5568 17.8347 2.50999 17.7735C2.43097 17.6622 2.43076 17.644 2.4129 16.0898L2.41276 16.0774L2.39475 14.4929L2.12107 14.4677C1.5593 14.4173 1.13077 14.2084 0.698633 13.7727C0.471764 13.5458 0.374534 13.4126 0.255698 13.1749L0.226743 13.1163C0.198204 13.0588 0.173255 13.0085 0.151443 12.9569C-0.000162721 12.5982 -0.000143499 12.1755 9.3135e-06 8.81423L1.94359e-05 8.47546ZM1.80055 0.0559044C1.14875 0.225157 0.536564 0.718508 0.255678 1.30189C0.0432132 1.74122 0 1.97889 0 2.79274C0 3.41573 0.0072022 3.49135 0.0684209 3.56698C0.16205 3.68221 0.378116 3.68221 0.471744 3.56698C0.532963 3.49135 0.540165 3.41573 0.540165 2.84316C0.540165 2.09773 0.568974 1.91047 0.738226 1.55036C0.885871 1.24427 1.20637 0.905764 1.49806 0.747316C1.52068 0.735014 1.5406 0.723434 1.55935 0.712534C1.57783 0.701788 1.59518 0.691704 1.61286 0.682238C1.88296 0.537626 2.2305 0.537668 7.88724 0.538349H7.88725H7.88727L9.21882 0.538452L10.5504 0.538349H10.5504H10.5504C16.2071 0.537668 16.5547 0.537626 16.8248 0.682238C16.8425 0.691704 16.8598 0.70179 16.8783 0.712536L16.8783 0.712547C16.8971 0.723448 16.917 0.735022 16.9396 0.747316C17.2313 0.905764 17.5518 1.24427 17.6994 1.55036C17.7678 1.69801 17.8399 1.90327 17.8615 2.0113C17.8831 2.13374 17.8975 3.49135 17.8975 5.71323V9.22071L17.9875 9.30713C18.0991 9.42237 18.236 9.42237 18.3512 9.30713L18.4412 9.21711L18.4304 5.55479L18.4196 1.88886L18.3368 1.65479C18.1856 1.24427 18.0343 0.999393 17.7354 0.696901C17.505 0.46283 17.3861 0.376402 17.1412 0.257566C17.1001 0.237398 17.0654 0.218788 17.0333 0.201618L17.0333 0.201584C17.0042 0.185999 16.9773 0.171602 16.9499 0.158304C16.6176 -0.0029068 16.2069 -0.00263405 10.8181 0.00094223H10.8181H10.818L9.20081 0.00188828C3.05373 0.00188828 1.9698 0.00909042 1.80055 0.0559044ZM5.8201 3.81941C5.70127 3.91304 5.69046 4.10389 5.7985 4.21193C5.87052 4.28395 5.91733 4.28395 10.7248 4.28395H15.5827L15.6583 4.20112C15.7555 4.09669 15.7591 3.95985 15.6691 3.84822L15.6007 3.76179L10.7572 3.75099L5.91733 3.74378L5.8201 3.81941ZM2.78147 6.70728C2.67704 6.81892 2.68064 6.96656 2.79227 7.07459L2.8787 7.16462H9.22024H15.5618L15.6482 7.07459C15.7634 6.96296 15.767 6.80811 15.6554 6.70368L15.5726 6.62446H9.21664H2.85709L2.78147 6.70728ZM2.77439 9.93769C2.64835 9.81166 2.69156 9.60639 2.86442 9.51276C2.91483 9.48396 4.74059 9.47315 9.21316 9.46955C15.3037 9.46955 15.6417 9.4636 15.7017 9.58977C15.7077 9.60235 15.7109 9.61625 15.7167 9.6316C15.76 9.74324 15.7384 9.86567 15.6663 9.93769C15.5943 10.0097 15.5475 10.0097 9.22036 10.0097C2.89323 10.0097 2.84641 10.0097 2.77439 9.93769Z" fill="url(#paint0_linear_141_2890)"/>
<defs>
<linearGradient id="paint0_linear_141_2890" x1="-0.499999" y1="-1.5" x2="18" y2="17.5" gradientUnits="userSpaceOnUse">
<stop stop-color="#F04675"/>
<stop offset="0.87353" stop-color="#B167E9"/>
</linearGradient>
</defs>
</svg>
