<svg width="28" height="20" viewBox="0 0 28 20" fill="none" xmlns="http://www.w3.org/2000/svg">
<path d="M1.82918 0.43014C1.38007 0.569147 1.0379 0.863203 0.802656 1.30696L0.679688 1.53151V10.0056V18.4798L0.802656 18.7043C0.984436 19.0465 1.23037 19.2978 1.52977 19.4582L1.80244 19.6025H14.3399H26.8773L27.15 19.4582C27.4654 19.2924 27.7274 19.0091 27.8878 18.6723L28.0001 18.4263V9.97891V1.53151L27.8771 1.30696C27.6953 0.964785 27.4494 0.713501 27.15 0.553108L26.8773 0.408752L14.4201 0.39806C7.56593 0.392714 1.90403 0.408752 1.82918 0.43014ZM26.6956 1.50478C26.8239 1.57428 26.9575 1.83091 26.9575 2.00735C26.9575 2.0822 26.8934 2.21586 26.8078 2.3014C26.6581 2.46714 14.6981 9.62605 14.4415 9.70624C14.3399 9.73832 14.249 9.72763 14.1421 9.67417C13.5272 9.35338 1.98422 2.41902 1.87195 2.3014C1.7864 2.21586 1.72225 2.0822 1.72225 2.00735C1.72225 1.83626 1.85591 1.57963 1.97353 1.51012C2.10719 1.43527 26.5512 1.42993 26.6956 1.50478ZM7.73701 7.10787C10.9128 9.00586 13.6181 10.6044 13.7518 10.6633C14.1046 10.8237 14.6019 10.813 14.9815 10.6365C15.1419 10.5617 17.8953 8.93101 21.1032 7.01698L26.9308 3.53643L26.9468 10.7916C26.9522 14.7854 26.9468 18.1109 26.9308 18.175C26.9148 18.2445 26.8346 18.3622 26.7597 18.4317L26.6207 18.56H14.3452C2.79688 18.56 2.06442 18.5546 1.95749 18.4637C1.89333 18.4156 1.81314 18.3194 1.78106 18.2552C1.73829 18.1697 1.72225 16.1113 1.72225 10.8343V3.53109L1.84522 3.59524C1.90937 3.63267 4.56122 5.20987 7.73701 7.10787Z" fill="url(#paint0_linear_141_2970)"/>
<defs>
<linearGradient id="paint0_linear_141_2970" x1="-0.5" y1="-0.499999" x2="27.5" y2="19" gradientUnits="userSpaceOnUse">
<stop stop-color="#F04675"/>
<stop offset="1" stop-color="#B168E9"/>
</linearGradient>
</defs>
</svg>
