<svg width="12" height="12" viewBox="0 0 12 12" fill="none" xmlns="http://www.w3.org/2000/svg">
<path d="M0.176563 0.0632811C0.2 0.10078 1.22656 1.59375 2.45703 3.38672C3.6875 5.17969 4.69531 6.65625 4.69531 6.66797C4.69531 6.68203 3.68516 7.86797 2.44766 9.30703C1.2125 10.7437 0.185938 11.9391 0.167188 11.9602C0.136719 11.9977 0.169531 12 0.65 12H1.16563L3.15547 9.68672C4.25 8.41641 5.15703 7.37109 5.16875 7.36875C5.18281 7.36406 5.90938 8.40469 6.78359 9.67969L8.375 12H10.1188C11.7711 12 11.8602 11.9977 11.8391 11.9578C11.8273 11.9367 10.7609 10.3828 9.47188 8.50781C8.18281 6.63281 7.12578 5.09297 7.12578 5.08594C7.12578 5.07656 8.10547 3.93281 9.30313 2.54297L11.4781 0.0117188L10.9742 0.00468731C10.5594 0 10.4633 0.00468731 10.4328 0.0328121C10.4117 0.0515623 9.55625 1.04297 8.53203 2.23359C7.50781 3.42656 6.66172 4.39687 6.65234 4.39219C6.64297 4.38516 5.95859 3.39609 5.13125 2.19141L3.62656 0H1.88047H0.136719L0.176563 0.0632811ZM6.77422 5.99062C8.77813 8.85937 10.4234 11.2148 10.4258 11.2289C10.4328 11.243 10.1492 11.2477 9.64297 11.2453L8.85078 11.2383L5.19922 6.01641C3.19063 3.14297 1.54766 0.787499 1.54766 0.782812C1.54766 0.778125 1.90391 0.773438 2.33984 0.773438L3.12969 0.775781L6.77422 5.99062Z" fill="#AEB2D7"/>
</svg>
