<svg width="12" height="12" viewBox="0 0 12 12" fill="none" xmlns="http://www.w3.org/2000/svg">
<path d="M0.914185 0.0376225C0.843872 0.0563726 0.729029 0.100904 0.656372 0.13606C0.489966 0.218091 0.218091 0.489966 0.13606 0.656372C-0.00925255 0.951685 0.000122449 0.593091 0.000122449 6.00012C0.000122449 11.4072 -0.00925255 11.0486 0.13606 11.3439C0.218091 11.5103 0.489966 11.7822 0.656372 11.8642C0.951685 12.0095 0.593091 12.0001 6.00012 12.0001C11.4072 12.0001 11.0486 12.0095 11.3439 11.8642C11.5103 11.7822 11.7822 11.5103 11.8642 11.3439C12.0095 11.0486 12.0001 11.4072 12.0001 6.00012C12.0001 0.593091 12.0095 0.951685 11.8642 0.656372C11.7822 0.489966 11.5103 0.218091 11.3439 0.13606C11.0486 -0.00925255 11.4095 0.00012207 5.9884 0.0024662C1.7134 0.0024662 1.02668 0.00715351 0.914185 0.0376225ZM3.03059 1.67825C3.57434 1.85637 3.88372 2.41887 3.7384 2.97668C3.5884 3.55793 2.96262 3.90481 2.3884 3.72668C1.74387 3.52981 1.44387 2.822 1.74387 2.21262C1.8845 1.92903 2.19153 1.697 2.5009 1.64075C2.64622 1.61497 2.88762 1.63137 3.03059 1.67825ZM8.64856 4.75793C9.23215 4.92668 9.71497 5.33684 9.9845 5.89231C10.1954 6.3259 10.1814 6.16418 10.1884 8.30168L10.1978 10.1954H9.29309H8.39075V8.53606C8.39075 7.05012 8.38606 6.86262 8.3509 6.7595C8.24075 6.43372 7.97356 6.20168 7.63606 6.14075C7.30793 6.07981 6.93059 6.25559 6.74309 6.55559C6.60715 6.77356 6.6095 6.72903 6.6095 8.53606V10.1954H5.70715H4.80481V7.50012V4.80481H5.70715H6.6095V5.14231V5.47981L6.82747 5.26418C7.09934 4.98997 7.40403 4.81418 7.76965 4.72043C7.94778 4.67356 8.42825 4.69465 8.64856 4.75793ZM3.6095 7.50012V10.1954H2.70715H1.80481V7.50012V4.80481H2.70715H3.6095V7.50012Z" fill="#AEB2D7"/>
</svg>
