<svg width="25" height="33" viewBox="0 0 25 33" fill="none" xmlns="http://www.w3.org/2000/svg">
<path d="M11.1417 0.0885086C9.61989 0.275517 8.53009 0.61084 7.11142 1.32018C4.64163 2.55185 2.8038 4.38323 1.56569 6.85946C0.849901 8.29748 0.469438 9.58718 0.308225 11.1477C-0.220554 16.2356 2.63614 22.5036 8.48495 29.1069C9.41354 30.158 11.9478 32.6922 12.2444 32.8728C12.5217 33.0469 12.7281 33.0405 13.0118 32.8728C13.3084 32.6922 15.8169 30.1709 16.7649 29.1069C22.6137 22.5036 25.4575 16.2614 24.9416 11.1413C24.7868 9.64522 24.387 8.27814 23.6777 6.85946C22.691 4.87976 21.3175 3.30632 19.4926 2.08755C17.0421 0.449627 14.0436 -0.272606 11.1417 0.0885086ZM13.5212 1.41046C18.4092 1.84251 22.4009 5.3763 23.3939 10.1418C24.3354 14.6428 22.2783 20.1047 17.3259 26.2695C15.8492 28.1073 12.8571 31.3316 12.6249 31.3316C12.5088 31.3316 10.7226 29.5131 9.58765 28.2363C4.08061 22.0457 1.26906 16.126 1.65597 11.5604C2.14605 5.8148 6.71161 1.52008 12.4959 1.35242C12.6571 1.35242 13.115 1.37821 13.5212 1.41046Z" fill="white"/>
<path d="M11.8382 5.53783C9.45865 5.83446 7.43381 7.31117 6.40205 9.49077C5.16393 12.1153 5.7443 15.2558 7.84007 17.287C9.91005 19.2861 12.9473 19.8149 15.4945 18.6025C17.0292 17.8803 18.1319 16.7776 18.8477 15.2558C20.5179 11.722 18.8606 7.52397 15.1849 5.99567C14.237 5.60231 12.8377 5.40886 11.8382 5.53783ZM13.7211 6.9823C15.1462 7.28538 16.3779 8.12369 17.1969 9.34246C17.8224 10.2775 18.1061 11.2383 18.1061 12.3991C18.0997 14.2627 17.2227 15.8877 15.6492 16.9453C15.0495 17.3515 14.2499 17.6739 13.5535 17.7965C13.302 17.8416 12.799 17.861 12.3411 17.8416C11.3997 17.8029 10.6387 17.5772 9.81977 17.0936C9.20716 16.7325 8.3753 15.9328 7.99484 15.3396C7.67886 14.8559 7.36288 14.0757 7.23391 13.4695C7.11784 12.9278 7.11784 11.8187 7.23391 11.277C7.69176 9.12966 9.34903 7.45949 11.4964 6.98875C12.0123 6.87267 13.1988 6.87267 13.7211 6.9823Z" fill="white"/>
</svg>
