<svg width="29" height="28" viewBox="0 0 29 28" fill="none" xmlns="http://www.w3.org/2000/svg">
<path d="M6.03166 0.065773C5.3071 0.186533 4.43434 0.768373 3.39691 1.81679C2.17833 3.05183 1.38791 4.4735 1.05307 6.04337C0.910357 6.73499 0.921335 8.1896 1.08052 8.91416C1.3385 10.0778 1.68981 10.9122 2.60099 12.493C6.08106 18.5585 10.9389 23.1857 17.0647 26.2651C19.3591 27.4233 20.4679 27.813 21.8073 27.9393C23.8547 28.1369 25.5288 27.2916 27.5927 25.0191C28.5314 23.9817 28.6411 23.8444 28.8333 23.4437C28.987 23.1144 29.0034 23.043 28.9979 22.538C28.9924 21.561 28.8168 21.281 27.0219 19.4422C25.1446 17.521 24.1785 16.6318 23.712 16.4012C22.938 16.0115 22.2409 16.0115 21.456 16.4012C21.1047 16.5714 20.907 16.7361 20.0837 17.5485C18.8212 18.789 18.8596 18.778 17.8881 18.0754C16.5377 17.1039 15.0173 15.8029 13.8042 14.5789C12.3441 13.1023 10.5821 10.9012 10.4998 10.4511C10.4449 10.1602 10.5986 9.90219 11.2792 9.16665C13.0577 7.24548 13.2827 6.3288 12.3331 4.91262C11.9818 4.38567 10.5382 2.85971 9.1769 1.56429C8.24376 0.68055 8.05164 0.526855 7.66192 0.334738C7.39295 0.208488 7.0691 0.0932178 6.85502 0.0602837C6.45432 -9.53674e-05 6.44883 -9.53674e-05 6.03166 0.065773ZM7.17339 1.25141C7.5192 1.41608 8.85304 2.65112 10.2198 4.07828C11.5646 5.478 11.8007 5.8293 11.8007 6.39467C11.8007 6.92162 11.625 7.21254 10.615 8.32133C9.79716 9.22703 9.52271 9.61676 9.44037 9.9955C9.31413 10.5883 9.51173 11.0659 10.3296 12.1472C11.8117 14.1178 13.4639 15.8523 15.3905 17.4606C16.3017 18.2236 17.7179 19.272 18.0253 19.4148C18.4589 19.6124 18.8432 19.6398 19.3207 19.4916C19.7214 19.3708 19.7269 19.3708 20.7204 18.3883C21.8347 17.285 22.0268 17.1587 22.5812 17.1642C23.0313 17.1697 23.3771 17.3563 23.9699 17.9162C25.7374 19.5739 27.5927 21.5116 27.8068 21.9178C27.9934 22.28 28.0099 22.7631 27.8562 23.0595C27.6037 23.537 25.8747 25.3484 25.1446 25.9028C24.6012 26.309 23.948 26.6439 23.3991 26.7976C22.8557 26.9512 21.8676 26.9622 21.2364 26.825C19.189 26.3694 15.3741 24.3714 12.5966 22.2965C9.39646 19.9033 6.83307 17.1478 4.53314 13.6457C3.51218 12.0868 2.63393 10.4621 2.35398 9.61127C1.64589 7.49249 1.96975 5.39017 3.27066 3.55682C3.92935 2.62917 5.32357 1.37766 5.90541 1.19652C6.44334 1.02087 6.71779 1.03734 7.17339 1.25141Z" fill="url(#paint0_linear_141_2961)"/>
<defs>
<linearGradient id="paint0_linear_141_2961" x1="0.998047" y1="2.49976" x2="27.498" y2="26.4998" gradientUnits="userSpaceOnUse">
<stop stop-color="#F04676"/>
<stop offset="1" stop-color="#B167E9"/>
</linearGradient>
</defs>
</svg>
