<svg width="18" height="18" viewBox="0 0 18 18" fill="none" xmlns="http://www.w3.org/2000/svg">
<path fill-rule="evenodd" clip-rule="evenodd" d="M0.0246094 16.8242C0.221484 12.8621 3.25664 9.67522 7.21055 9.27327C7.41563 9.25276 8.23594 9.24046 9.03574 9.24866C10.623 9.26096 10.9266 9.28967 11.7674 9.51526C14.9338 10.3602 17.2471 13.0754 17.6039 16.3731C17.6654 16.9309 17.6613 17.2508 17.5875 17.3903C17.571 17.4227 17.5665 17.4509 17.5545 17.4754C17.4676 17.6522 16.9887 17.6364 8.78555 17.6364H0.291211L0.143555 17.4887L0 17.3451L0.0246094 16.8242ZM16.0699 14.0188C15.0076 11.9024 13.0594 10.4996 10.7133 10.1551C10.3729 10.1018 9.94629 10.0895 8.78555 10.0936C7.96523 10.0977 7.24746 10.1059 7.19004 10.1182C6.22207 10.2658 5.83652 10.3684 5.16797 10.6514C3.32637 11.4266 1.85391 13.0098 1.22227 14.8965C1.0418 15.442 0.922852 15.9916 0.890039 16.4592L0.861328 16.816H8.83066H16.8L16.7713 16.4551C16.718 15.7004 16.4514 14.7776 16.0699 14.0188ZM5.21758 2.07523C5.87383 0.951401 6.98125 0.225424 8.33887 0.0244465C8.84746 -0.0493813 9.69648 0.049057 10.242 0.250032C11.3699 0.660189 12.2312 1.4805 12.7029 2.59613C12.949 3.17445 13.027 3.63382 13.0023 4.34749C12.9736 5.09398 12.8711 5.50003 12.5512 6.13167C12.0508 7.12425 11.1033 7.90355 10.0082 8.21937C8.03125 8.79359 5.97637 7.88714 5.07812 6.04964C4.7377 5.35648 4.66797 5.04476 4.66797 4.20394C4.66797 3.60101 4.68027 3.45745 4.7623 3.15804C4.88535 2.71507 4.98379 2.47718 5.21758 2.07523ZM12.0795 3.34261C11.735 2.14085 10.7998 1.2262 9.63086 0.947298C8.86387 0.762728 8.12969 0.832455 7.44473 1.15238C6.48496 1.59534 5.87793 2.31722 5.57852 3.35492C5.45547 3.78968 5.45957 4.59359 5.58262 5.04886C5.88203 6.15218 6.71055 7.02581 7.80566 7.39085C8.1707 7.5139 8.23223 7.5221 8.81055 7.5221C9.475 7.5262 9.70469 7.48109 10.2092 7.2596C10.7137 7.03402 11.2756 6.57464 11.5668 6.14808C11.7719 5.85277 11.9893 5.38519 12.0795 5.04886C12.2066 4.58538 12.2066 3.78968 12.0795 3.34261Z" fill="url(#paint0_linear_141_2864)"/>
<defs>
<linearGradient id="paint0_linear_141_2864" x1="4" y1="-2" x2="2.11163" y2="18.5392" gradientUnits="userSpaceOnUse">
<stop stop-color="#F04675"/>
<stop offset="1" stop-color="#B068E9"/>
</linearGradient>
</defs>
</svg>
