<svg width="14" height="14" viewBox="0 0 14 14" fill="none" xmlns="http://www.w3.org/2000/svg">
<path d="M3.26831 0.043726C2.05049 0.231874 0.938706 1.03578 0.391368 2.12703C0.00481084 2.90015 -0.097815 3.83746 0.107437 4.69268C0.189537 5.02792 0.353739 5.46237 0.463206 5.62657C0.511098 5.69841 0.511098 5.74288 0.473469 5.98918C0.39821 6.46126 0.384526 7.47042 0.449523 7.93565C0.603462 9.03717 1.03107 10.0771 1.69814 10.97C1.94102 11.2984 2.53283 11.9073 2.86465 12.1775C3.68566 12.8377 4.65034 13.2893 5.74844 13.5219C6.30946 13.6382 7.30151 13.6724 7.907 13.5903C8.29698 13.539 8.3175 13.539 8.44408 13.604C9.03246 13.9051 9.8261 14.0522 10.4795 13.9803C11.4168 13.8811 12.207 13.5014 12.8707 12.8343C13.9859 11.7157 14.304 10.1558 13.7019 8.72587L13.5959 8.47615L13.6609 8.1067C13.7396 7.65172 13.7498 6.48179 13.678 6.07812C13.4693 4.88767 12.9938 3.83062 12.272 2.94804C11.9744 2.58543 11.3347 1.98335 10.9789 1.73363C10.0929 1.11104 9.1043 0.710794 8.0541 0.546593C7.59912 0.478176 6.61049 0.467913 6.20341 0.529489L5.93316 0.570539L5.58766 0.399496C4.84191 0.0334635 4.07906 -0.0828457 3.26831 0.043726ZM8.03015 2.50333C8.45092 2.57516 8.99826 2.75989 9.34718 2.9412C9.67216 3.11224 10.2195 3.62879 10.3666 3.9093C10.4726 4.11113 10.5616 4.43269 10.5616 4.60715C10.5616 4.96292 10.3461 5.30159 10.0314 5.44869C9.83979 5.54105 9.48402 5.55815 9.24798 5.49316C9.06325 5.44184 8.83747 5.20238 8.61512 4.82267C8.40987 4.47032 8.17383 4.21376 7.93437 4.08376C7.33914 3.7622 6.24788 3.80667 5.71081 4.17613C5.35846 4.41901 5.23531 4.77136 5.40635 5.06213C5.62529 5.43158 6.03237 5.60263 7.56834 5.96182C8.48855 6.17733 9.0872 6.35864 9.46691 6.53994C10.2503 6.91966 10.7087 7.42937 10.8934 8.13064C10.9789 8.46589 10.9721 9.06454 10.8729 9.41346C10.4761 10.8297 8.90931 11.661 6.79864 11.5754C5.43714 11.5207 4.50324 11.1615 3.81565 10.426C3.36068 9.94028 3.16227 9.50925 3.15885 9.00296C3.15885 8.7464 3.17253 8.66772 3.23752 8.53088C3.38804 8.22643 3.68908 8.06222 4.10642 8.06222C4.58877 8.06222 4.78033 8.223 5.13952 8.91402C5.48503 9.58793 5.74502 9.82739 6.30262 9.99843C6.62418 10.0976 7.40756 10.0874 7.78043 9.98133C8.06778 9.89923 8.38592 9.73503 8.5467 9.58109C8.68354 9.45109 8.81695 9.18085 8.8409 8.98928C8.89905 8.48983 8.55696 8.13406 7.77359 7.8775C7.62307 7.82961 7.1852 7.72014 6.80206 7.63462C5.60476 7.36779 5.2011 7.24806 4.72902 7.01202C4.01748 6.65625 3.54198 6.11233 3.39488 5.48974C3.36752 5.37001 3.34357 5.13397 3.34357 4.96634C3.34357 3.56721 4.42456 2.68121 6.42235 2.43833C6.67891 2.40754 7.71885 2.44859 8.03015 2.50333Z" fill="#AEB2D7"/>
</svg>
