<svg width="20" height="14" viewBox="0 0 20 14" fill="none" xmlns="http://www.w3.org/2000/svg">
<path d="M0.79188 0.0742188C0.401255 0.207031 0.123912 0.519531 0.0379741 0.914062C0.00672406 1.05469 -0.00108844 2.8125 0.00672406 6.95312L0.0184428 12.793L0.127818 13.0156C0.252818 13.2656 0.440318 13.4492 0.69813 13.5703L0.877818 13.6523H9.99891H19.12L19.2997 13.5703C19.5575 13.4492 19.745 13.2656 19.87 13.0156L19.9794 12.793V6.83594V0.878906L19.87 0.65625C19.745 0.40625 19.5575 0.222656 19.2997 0.101562C19.12 0.0195312 19.0888 0.0195312 15.3114 0.0078125C12.4911 0 11.4755 0.0117188 11.3934 0.0429688C11.2763 0.09375 11.1708 0.257812 11.1708 0.390625C11.1708 0.503906 11.2723 0.6875 11.3544 0.726562C11.3934 0.746094 13.0145 0.769531 14.9598 0.78125L18.4989 0.800781L14.2763 4.27734C11.9559 6.19141 10.0302 7.75391 9.99501 7.75C9.96376 7.75 8.03797 6.1875 5.72157 4.27344L1.50282 0.800781L5.03797 0.78125C6.98329 0.769531 8.60438 0.746094 8.64344 0.726562C8.72547 0.6875 8.82704 0.503906 8.82704 0.394531C8.82704 0.351562 8.80751 0.269531 8.78016 0.214844C8.6786 -0.0078125 8.84266 0 4.75672 0C1.24891 0.00390625 0.983287 0.0078125 0.79188 0.0742188ZM4.19032 4.02734C6.04188 5.55469 7.55751 6.81641 7.55751 6.83594C7.55751 6.86719 0.838755 12.4219 0.799693 12.4219C0.787974 12.4219 0.780162 9.90625 0.780162 6.83594C0.780162 3.76172 0.787974 1.25 0.799693 1.25C0.811412 1.25 2.33485 2.5 4.19032 4.02734ZM19.2177 6.83594C19.2177 9.90625 19.2098 12.4219 19.1981 12.4219C19.163 12.4219 12.4403 6.86719 12.4403 6.83594C12.4403 6.80469 19.1395 1.25781 19.1903 1.25391C19.2059 1.25 19.2177 3.76172 19.2177 6.83594ZM8.91688 7.92578C9.23329 8.1875 9.55751 8.44141 9.63954 8.48828C9.81532 8.58984 10.1552 8.60156 10.3309 8.50781C10.3973 8.47266 10.7489 8.19922 11.1122 7.89844C11.6825 7.42578 11.7841 7.35547 11.8427 7.39453C11.8817 7.42188 13.3934 8.66406 15.2059 10.1562L18.4989 12.8711L14.2723 12.8828C11.9481 12.8867 8.12391 12.8867 5.77235 12.8828L1.50282 12.8711L4.85829 10.1055C7.80751 7.67578 8.22157 7.34766 8.27626 7.39453C8.31141 7.42578 8.60047 7.66406 8.91688 7.92578Z" fill="white"/>
<path d="M9.80815 0.0546875C9.46831 0.242188 9.61284 0.78125 9.99956 0.78125C10.1988 0.78125 10.3902 0.589844 10.3902 0.394531C10.3902 0.101562 10.066 -0.0898438 9.80815 0.0546875Z" fill="white"/>
</svg>
