<svg width="50" height="59" viewBox="0 0 50 59" fill="none" xmlns="http://www.w3.org/2000/svg">
<path d="M47.4032 37.764C43.3472 35.4376 36.0085 35.0499 26.9313 29.6218C36.0085 24.3875 43.3472 23.8059 47.4032 21.4796C49.5274 20.3165 50.8793 18.1839 49.3343 15.4699C47.7893 12.7557 45.0856 12.9497 42.9611 14.3067C39.0985 16.4392 35.0429 22.6428 25.9657 28.0709C25.9657 17.2147 29.2489 10.4294 29.2489 5.77675C29.2489 3.06267 28.0901 0.736328 25.0001 0.736328C21.91 0.736328 20.7512 3.06267 20.7512 5.77675C20.7512 10.4294 24.0344 17.2147 24.0344 28.0709C14.9573 22.6428 10.9016 16.4392 7.039 14.3067C4.91458 12.9497 2.40389 12.7557 0.66572 15.4699C-0.87932 18.1839 0.472592 20.3165 2.59702 21.4796C6.65275 23.8059 13.9917 24.3875 23.0687 29.6218C13.9917 35.0499 6.65275 35.4376 2.59702 37.764C0.472592 39.121 -0.87932 41.2535 0.66572 43.9676C2.40389 46.6817 4.91458 46.4879 7.039 45.1308C10.9016 42.8044 14.9573 36.6008 24.0344 31.1727C24.0344 42.0291 20.7512 49.008 20.7512 53.6608C20.7512 56.181 21.91 58.5074 25.0001 58.5074C28.0901 58.5074 29.2489 56.181 29.2489 53.6608C29.2489 49.008 25.9657 42.0291 25.9657 31.1727C35.0429 36.6008 39.0985 42.8044 42.9611 45.1308C45.0856 46.4879 47.7893 46.6817 49.3343 43.9676C50.8793 41.2535 49.5274 39.121 47.4032 37.764Z" fill="url(#paint0_linear_71_831)"/>
<defs>
<linearGradient id="paint0_linear_71_831" x1="6.42857" y1="3.49721" x2="46.4286" y2="56.3544" gradientUnits="userSpaceOnUse">
<stop stop-color="#E54E8E"/>
<stop offset="1" stop-color="#B462F0"/>
</linearGradient>
</defs>
</svg>
