<svg width="24" height="22" viewBox="0 0 24 22" fill="none" xmlns="http://www.w3.org/2000/svg">
<path d="M22.9697 0.852276C22.2524 0.936666 21.4413 1.20391 20.8365 1.56022C20.3536 1.84621 20.0066 2.12283 19.4253 2.68544C18.9236 3.17303 18.9002 3.19178 18.7736 3.1449C18.6189 3.08395 13.0022 2.84484 12.7209 2.88704C12.613 2.9011 12.4302 2.97612 12.3223 3.05113C12.2098 3.12615 9.5937 5.71414 6.50873 8.8038C1.14521 14.172 0.896723 14.4299 0.81702 14.6737C0.713876 14.9878 0.746694 15.316 0.9061 15.5879C0.971737 15.6911 2.36888 17.121 4.01451 18.7666C6.90725 21.65 7.01508 21.7531 7.25888 21.8235C7.573 21.9172 7.60582 21.9172 7.92463 21.8235C8.17311 21.7531 8.30908 21.6172 13.8648 16.0708C18.0563 11.8794 19.5753 10.3322 19.655 10.1775C19.7769 9.92432 19.7769 10.0509 19.6409 6.56743C19.5894 5.21248 19.5237 4.01225 19.4956 3.89504L19.4487 3.68407L19.9551 3.19178C20.513 2.64324 20.8412 2.39007 21.2959 2.1369C21.9148 1.79464 22.8056 1.55085 23.4245 1.55085C23.8605 1.55085 24.0808 1.34925 23.973 1.03981C23.8886 0.805391 23.6917 0.767883 22.9697 0.852276ZM15.6792 3.70751C16.8935 3.75908 17.9766 3.80128 18.0938 3.80128H18.3047L17.7421 4.36388L17.1795 4.9218L16.8654 4.76709C15.487 4.06852 13.8414 4.91711 13.5835 6.4596C13.3819 7.67389 14.2727 8.86943 15.5151 9.05697C16.9967 9.28201 18.3235 7.97395 18.1078 6.4971C18.0703 6.2158 17.9156 5.8126 17.7328 5.4891C17.714 5.45628 18.797 4.34513 18.8158 4.36857C18.8486 4.40608 19.0455 9.69928 19.0174 9.80711C18.9986 9.87275 16.6029 12.3013 13.3725 15.5316C8.06528 20.8389 7.74647 21.1483 7.59175 21.1483C7.43704 21.1483 7.2495 20.9702 4.46459 18.1806C1.52966 15.2503 1.49684 15.2128 1.49684 15.03C1.49684 14.8425 1.53434 14.8049 7.11354 9.23044L12.7255 3.61374H13.1006C13.3069 3.61374 14.4696 3.65594 15.6792 3.70751ZM16.3122 5.31094C16.6919 5.42815 16.7013 5.39533 16.059 6.04702C15.4214 6.69402 15.3792 6.77372 15.5667 7.00814C15.637 7.10191 15.7027 7.13004 15.834 7.13004C15.9934 7.13004 16.0543 7.08315 16.57 6.56743C16.8795 6.258 17.1467 6.00482 17.1655 6.00482C17.1795 6.00482 17.2405 6.12203 17.292 6.26268C17.5687 6.99876 17.2264 7.84267 16.5091 8.1943C16.2794 8.30683 16.1856 8.32558 15.8433 8.32558C15.5105 8.32558 15.4026 8.30683 15.187 8.20368C14.8822 8.05834 14.5681 7.75359 14.4227 7.45823C14.2727 7.14879 14.254 6.58618 14.3852 6.23455C14.6759 5.47035 15.5058 5.07183 16.3122 5.31094Z" fill="white"/>
<path d="M11.7423 8.53626L10.9453 9.33329L12.1174 10.5054L13.2895 11.6775L14.0865 10.8805L14.8836 10.0834L14.6491 9.84902L14.4194 9.6146L13.8662 10.1631L13.313 10.7164L13.0926 10.4913L12.8676 10.271L13.3364 9.80213L13.8052 9.33329L13.5567 9.0895L13.313 8.84101L12.8441 9.30985L12.3753 9.77869L12.1549 9.55365L11.9299 9.33329L12.4831 8.78006L13.0316 8.23152L12.7832 7.98303L12.5394 7.73924L11.7423 8.53626Z" fill="white"/>
<path d="M9.49976 10.7776L8.7168 11.5606L9.8889 12.7327L11.061 13.9048L11.858 13.1078L12.655 12.3107L12.4206 12.0763L12.1862 11.8419L11.633 12.3951L11.0844 12.9437L10.8594 12.7233L10.639 12.4983L11.0938 12.0435L11.5533 11.584L11.3048 11.3402L11.061 11.0917L10.6015 11.5512L10.1468 12.006L9.92171 11.7856L9.70136 11.5606L10.2499 11.012L10.7984 10.4588L10.5687 10.2244C10.4421 10.0978 10.3249 9.98997 10.3109 9.98997C10.2968 9.98997 9.93109 10.3416 9.49976 10.7776Z" fill="white"/>
<path d="M7.68659 12.714C7.57876 12.7468 7.32559 12.9624 6.91301 13.3656L6.29883 13.9704L7.47093 15.1472L8.64303 16.3193L8.88682 16.0755L9.13531 15.8317L8.68053 15.3723L8.22107 14.9128L8.32422 14.8144L8.42267 14.7159L9.13531 14.9128L9.84794 15.1144L10.148 14.8144L10.4481 14.5143L9.89952 14.369C9.59477 14.2893 9.26189 14.1955 9.15406 14.1674L8.96184 14.1158L9.00872 13.9376C9.07436 13.6938 9.0181 13.4594 8.83994 13.1922C8.56801 12.789 8.0898 12.5921 7.68659 12.714ZM8.18356 13.5157C8.36641 13.6891 8.3289 13.8486 8.02416 14.1674L7.75692 14.4487L7.5225 14.2142L7.28339 13.9751L7.5647 13.6938C7.87413 13.3844 8.00072 13.3469 8.18356 13.5157Z" fill="white"/>
<path d="M4.92007 15.3585L4.14648 16.1321L5.31858 17.3042L6.49068 18.4763L6.73448 18.2325L6.98296 17.9887L6.53757 17.5386L6.09217 17.0932L6.53757 16.6478L6.98296 16.2071L6.73917 15.9586L6.49537 15.7102L6.04528 16.1556L5.5952 16.601L5.36547 16.3665L5.13574 16.1321L5.67021 15.593L6.20469 15.0538L5.97496 14.8194C5.84837 14.6928 5.73116 14.5849 5.7171 14.5849C5.70303 14.5849 5.34671 14.9319 4.92007 15.3585Z" fill="white"/>
</svg>
