<svg width="25" height="25" viewBox="0 0 25 25" fill="none" xmlns="http://www.w3.org/2000/svg">
<path d="M5.64125 1.08212C4.88268 1.41299 4.64059 2.43787 5.1732 3.07539C5.59284 3.56766 5.27004 3.55152 12.88 3.55152H19.8443L10.4671 12.9288C0.266693 23.1372 0.896146 22.4513 1.0414 23.2179C1.11403 23.6133 1.59823 24.0975 1.99365 24.1701C2.7603 24.3154 2.07435 24.9449 12.2747 14.7445L21.66 5.36725L21.6762 12.4446C21.7004 19.4492 21.7004 19.5219 21.8698 19.7398C22.1846 20.1675 22.4428 20.2966 22.9512 20.2966C23.4596 20.2966 23.7179 20.1675 24.0326 19.7398C24.2021 19.5219 24.2021 19.4654 24.2263 10.7015L24.2424 1.88104L24.0568 1.60667C23.96 1.46141 23.7501 1.25159 23.6049 1.15475L23.3305 0.969144H14.6069C7.53768 0.977214 5.83493 0.993353 5.64125 1.08212Z" fill="url(#paint0_linear_1_257)"/>
<defs>
<linearGradient id="paint0_linear_1_257" x1="17" y1="27" x2="6.5" y2="-5" gradientUnits="userSpaceOnUse">
<stop stop-color="#FE4A58"/>
<stop offset="1" stop-color="#A76EFD"/>
</linearGradient>
</defs>
</svg>
