<svg width="61" height="68" viewBox="0 0 61 68" fill="none" xmlns="http://www.w3.org/2000/svg">
<path d="M6.36672 0.0841522C3.31051 0.450897 0.675374 2.89587 0.118464 5.857C0.00979834 6.44108 -0.017368 13.5451 0.00979835 31.1896L0.0505479 55.7072L0.349378 56.5222C0.974203 58.1658 2.22386 59.6328 3.718 60.4613C5.23932 61.3171 5.47023 61.3442 12.3569 61.3442H18.5644L19.4881 62.0642C20.6562 62.9742 22.5035 64.2103 24.0792 65.134C25.845 66.1799 29.5396 68 29.8792 68C30.2459 68 34.9185 65.6094 36.6164 64.5635C37.2956 64.1288 38.6132 63.2323 39.5368 62.5667L41.2076 61.3442H47.6324H54.0572L55.0895 61.0047C57.616 60.1489 59.409 58.1522 59.9523 55.5714C60.2511 54.1452 60.2511 7.28323 59.9523 5.857C59.3818 3.18111 57.4259 1.08931 54.7092 0.247154C54.0436 0.0434036 51.9518 0.0298233 30.6127 0.00265503C17.763 -0.0109253 6.85572 0.0298233 6.36672 0.0841522ZM55.1439 2.0673C56.6516 2.7872 57.6568 3.87386 58.2408 5.42234C58.4853 6.11508 58.5261 6.49541 58.5261 8.50572V10.8149H30.0014H1.47678V8.8453C1.47678 7.77223 1.5447 6.56332 1.6262 6.16941C2.06086 4.13194 3.56859 2.47479 5.55173 1.83638C6.25806 1.60547 7.64354 1.59189 30.2731 1.61905L54.2474 1.64622L55.1439 2.0673ZM58.4989 34.0013L58.4582 55.5714L58.0235 56.4815C57.2629 58.0979 55.9317 59.2117 54.261 59.6599C53.7312 59.8093 52.305 59.8501 48.135 59.8501H42.7153L43.3944 59.1302C46.342 56.074 48.2029 52.2028 49.0043 47.5437C49.4797 44.7184 49.6019 42.0154 49.5069 36.6908C49.2895 24.1128 49.2624 23.3929 49.0722 23.0669C48.882 22.7816 48.787 22.768 47.1434 22.768C42.919 22.768 39.0478 21.8036 34.8778 19.7118C33.3701 18.9512 31.482 17.8238 30.667 17.1854C30.3953 16.968 30.0422 16.7915 29.8928 16.7915C29.7434 16.7915 28.9419 17.2533 28.1134 17.8102C25.519 19.5624 22.1232 21.1245 19.2028 21.8987C17.0431 22.4692 15.7663 22.6458 13.2941 22.7273C11.5283 22.7816 10.8628 22.8495 10.6998 22.9854C10.4553 23.2027 10.3873 25.2266 10.2243 36.2154C10.0885 45.2074 10.496 48.7526 12.1667 52.7868C13.0632 54.9873 14.9241 57.8126 16.3368 59.1574C16.6084 59.4154 16.8258 59.6871 16.8258 59.7414C16.8258 59.9044 6.67913 59.8637 5.97281 59.7007C4.47866 59.3611 2.87585 58.1386 2.21027 56.8346C1.43603 55.3269 1.47678 56.4271 1.47678 33.5395V12.4448H30.0014H58.5261L58.4989 34.0013ZM31.1288 19.3858C32.8403 20.5132 36.3719 22.2247 38.3823 22.8903C39.2923 23.1891 40.7865 23.5966 41.7101 23.7868C43.3944 24.1264 47.0483 24.4659 47.4286 24.3165C47.7139 24.2079 47.7546 24.9414 47.9312 33.4308C48.1214 42.6946 47.9448 45.8458 47.0347 49.3503C46.0567 53.14 44.5083 55.8295 41.6965 58.6412C39.0207 61.3171 35.5298 63.667 31.1832 65.7724L29.8384 66.4244L28.2628 65.6365C18.6052 60.8281 13.7967 55.5171 12.3705 48.0327C11.7864 44.9901 11.7321 44.1344 11.7592 38.0491C11.8 29.1657 11.963 24.3165 12.1939 24.3709C12.5606 24.4524 16.2417 24.1264 17.3827 23.9226C21.1316 23.2163 25.4375 21.4776 28.5752 19.3723C29.2544 18.924 29.8113 18.5573 29.8384 18.5573C29.8656 18.5573 30.4497 18.924 31.1288 19.3858Z" fill="white"/>
<path d="M8.26621 5.55832C7.84513 5.77565 7.73647 6.38689 8.07604 6.75364C8.29338 6.99814 8.52429 7.01172 11.1051 7.01172C12.64 7.01172 13.9711 6.95739 14.0526 6.90305C14.6231 6.52272 14.5281 5.76207 13.8896 5.51757C13.3599 5.31382 8.6737 5.35457 8.26621 5.55832Z" fill="white"/>
<path d="M16.8285 5.55832C16.3531 5.80282 16.2852 6.49556 16.7198 6.79439C16.9779 6.97097 17.4805 7.01172 19.776 7.01172C22.3568 7.01172 22.547 6.99814 22.8051 6.74006C23.1447 6.40048 23.1447 6.18315 22.8187 5.77565C22.5606 5.44965 22.5063 5.44965 19.8575 5.4089C17.8744 5.38174 17.073 5.42249 16.8285 5.55832Z" fill="white"/>
<path d="M25.5205 5.47682C24.9364 5.68057 24.8006 6.46839 25.276 6.79439C25.5341 6.97097 26.0638 7.01172 28.3322 7.01172C30.913 7.01172 31.1032 6.99814 31.3613 6.74006C31.7959 6.30539 31.7009 5.84357 31.1304 5.53115C30.8315 5.38174 25.9416 5.32741 25.5205 5.47682Z" fill="white"/>
<path d="M28.4376 22.931C24.8109 24.9821 19.9074 26.6528 16.3078 27.0603C14.8409 27.2233 14.8952 27.0739 14.7729 30.9994C14.6235 35.9301 14.6235 42.0561 14.8001 44.0529C15.1669 48.5081 16.2943 51.836 18.3589 54.5798C19.269 55.7887 21.5509 58.0164 22.9364 59.0487C24.3219 60.081 26.4952 61.4121 28.3425 62.3494L29.8638 63.1372L31.7112 62.1728C37.0086 59.4154 40.7575 56.0875 42.7407 52.3793C44.8461 48.4402 45.3215 43.9578 44.9412 31.8008C44.8189 27.9704 44.7782 27.5765 44.5608 27.3863C44.4114 27.2641 43.7323 27.0875 43.0259 26.9924C39.2226 26.4762 34.9032 24.9821 31.3444 22.9718C30.6245 22.5643 29.9453 22.2247 29.8367 22.2247C29.7416 22.2247 29.1168 22.5371 28.4376 22.931ZM32.2273 25.1315C36.0442 27.0196 38.7744 27.9025 42.7814 28.5409L43.284 28.6088L43.3791 31.4341C43.5285 35.2917 43.5285 42.4365 43.3927 43.7133L43.284 44.7728H40.3772H37.4704V41.961C37.4704 38.5924 37.4976 38.6603 36.0849 38.6603H35.1613V36.3648C35.1613 34.5039 35.1069 33.9062 34.9168 33.2542C33.9524 30.1709 30.4887 28.7175 27.4596 30.1301C26.5767 30.5376 25.4493 31.6922 25.0011 32.643C24.6479 33.3901 24.6343 33.5666 24.5664 36.0116L24.4985 38.5924L23.5069 38.6603C22.8278 38.7011 22.4746 38.7962 22.3931 38.932C22.3252 39.0407 22.2573 40.399 22.2573 41.9475V44.7728H19.3505H16.4301L16.3214 43.9849C16.1856 43.0341 16.1992 33.0369 16.335 30.4833L16.4437 28.6224L17.4081 28.473C20.6952 27.9432 24.4713 26.6936 27.6226 25.0636C28.75 24.4931 29.7144 24.0177 29.7823 24.0041C29.8503 23.9905 30.9505 24.5067 32.2273 25.1315ZM31.3308 31.4069C32.1322 31.7329 32.825 32.3985 33.2189 33.1999C33.5856 33.947 33.5992 34.0692 33.64 36.3104L33.6943 38.6603H29.8638H26.0334L26.0877 36.2425C26.1285 34.0285 26.1556 33.784 26.4409 33.2271C26.8484 32.4528 27.2151 32.0589 27.9079 31.6514C28.913 31.0538 30.2578 30.9723 31.3308 31.4069ZM35.9763 45.5878V51.021H29.8638H23.7514V45.5878V40.1545H29.8638H35.9763V45.5878ZM22.2573 49.2416C22.2573 51.6458 22.2844 52.1213 22.4746 52.2978C22.6648 52.488 23.5205 52.5152 29.8231 52.5152C36.2887 52.5152 36.995 52.488 37.2259 52.2843C37.4432 52.0805 37.4704 51.8088 37.4704 49.228V46.4027H40.255C42.5234 46.4027 43.0395 46.4435 43.0395 46.5929C43.0395 46.9732 42.3739 49.3775 42.0208 50.2604C40.418 54.2674 36.8456 57.7039 31.1271 60.7466L29.8638 61.4121L28.5463 60.733C23.3575 58.0571 19.3233 54.2402 17.7748 50.532C17.3402 49.4997 16.6882 47.1498 16.6882 46.6608C16.6882 46.4163 16.8376 46.4027 19.4727 46.4027H22.2573V49.2416Z" fill="white"/>
<path d="M28.7106 42.3686C27.1621 43.2515 27.0399 45.3568 28.4933 46.362C29.0366 46.7423 29.0366 46.7423 29.0502 47.6524C29.0502 48.6304 29.3083 49.1194 29.838 49.1194C30.4085 49.1194 30.5987 48.7934 30.653 47.7067C30.7074 46.7287 30.7345 46.6608 31.0877 46.4707C32.6633 45.6557 32.5411 43.0613 30.8975 42.3142C30.1504 41.9746 29.3762 41.9882 28.7106 42.3686ZM30.5172 43.917C30.8839 44.4196 30.49 45.3161 29.8924 45.3161C29.1045 45.3161 28.7242 44.2023 29.3626 43.754C29.7022 43.5095 30.2591 43.591 30.5172 43.917Z" fill="white"/>
</svg>
