<svg width="42" height="42" viewBox="0 0 42 42" fill="none" xmlns="http://www.w3.org/2000/svg">
<path d="M28.1398 34.0002V26.2002M28.1398 11.9V8M13.8601 34V30.1M13.8601 15.8V8M15 41H27C37 41 41 37 41 27V15C41 5 37 1 27 1H15C5 1 1 5 1 15V27C1 37 5 41 15 41ZM28.14 22.3C31.0118 22.3 33.34 19.9718 33.34 17.1C33.34 14.228 31.0118 11.8999 28.14 11.8999C25.268 11.8999 22.94 14.228 22.94 17.1C22.94 19.9718 25.268 22.3 28.14 22.3ZM13.8599 30.1002C16.7318 30.1002 19.06 27.772 19.06 24.9002C19.06 22.0284 16.7318 19.7002 13.8599 19.7002C10.988 19.7002 8.65992 22.0284 8.65992 24.9002C8.65992 27.772 10.988 30.1002 13.8599 30.1002Z" stroke="white" stroke-width="2" stroke-miterlimit="10" stroke-linecap="round" stroke-linejoin="round"/>
</svg>
