<svg width="26" height="26" viewBox="0 0 26 26" fill="none" xmlns="http://www.w3.org/2000/svg">
<path d="M6.72929 13C6.72929 16.4632 9.53673 19.2706 12.9999 19.2706C16.463 19.2706 19.2705 16.4632 19.2705 13H16.2116C16.2116 14.7738 14.7737 16.2118 12.9999 16.2118C11.2261 16.2118 9.78811 14.7738 9.78811 13H6.72929Z" fill="url(#paint0_linear_29_516)"/>
<path d="M22.9411 13C22.9411 18.4904 18.4902 22.9412 12.9999 22.9412C7.50952 22.9412 3.0587 18.4904 3.0587 13C3.0587 7.50964 7.50952 3.05882 12.9999 3.05882C15.3773 3.05882 17.5598 3.89339 19.2705 5.28553V1.60955C17.4111 0.583747 15.2736 0 12.9999 0C5.82018 0 -0.00012207 5.8203 -0.00012207 13C-0.00012207 20.1797 5.82018 26 12.9999 26C20.1796 26 25.9999 20.1797 25.9999 13C25.9999 9.72388 24.788 6.7308 22.7881 4.44459V11.2533C22.8886 11.8204 22.9411 12.4041 22.9411 13Z" fill="url(#paint1_linear_29_516)"/>
<path d="M16.2116 2.29412H19.2705V13H16.2116V2.29412Z" fill="url(#paint2_linear_29_516)"/>
<defs>
<linearGradient id="paint0_linear_29_516" x1="3.49988" y1="2" x2="23.4999" y2="25" gradientUnits="userSpaceOnUse">
<stop stop-color="#F94B63"/>
<stop offset="1" stop-color="#BA5BE8"/>
</linearGradient>
<linearGradient id="paint1_linear_29_516" x1="3.49988" y1="2" x2="23.4999" y2="25" gradientUnits="userSpaceOnUse">
<stop stop-color="#F94B63"/>
<stop offset="1" stop-color="#BA5BE8"/>
</linearGradient>
<linearGradient id="paint2_linear_29_516" x1="3.49988" y1="2" x2="23.4999" y2="25" gradientUnits="userSpaceOnUse">
<stop stop-color="#F94B63"/>
<stop offset="1" stop-color="#BA5BE8"/>
</linearGradient>
</defs>
</svg>
