<svg width="17" height="17" viewBox="0 0 17 17" fill="none" xmlns="http://www.w3.org/2000/svg">
<path d="M1.62802 0.045279C1.06396 0.153113 0.45843 0.625924 0.201287 1.16509C0.0105039 1.57155 -0.0475606 2.01118 0.0395361 2.41348C0.134928 2.84067 0.288384 3.14758 0.549674 3.42961C1.8188 4.79413 4.05428 3.91486 4.05428 2.04851C4.05428 0.746201 2.90544 -0.199421 1.62802 0.045279Z" fill="white"/>
<path d="M11.893 5.47004C11.6981 5.51152 11.4492 5.57788 11.3331 5.6152C10.6405 5.85576 9.94369 6.38663 9.57041 6.97143L9.40452 7.22027L9.39622 6.44055L9.38378 5.65668L7.69576 5.64424L6.00359 5.63594V11.318V17H7.76627H9.52894V13.9599C9.52894 10.9323 9.54968 10.4387 9.67825 9.92857C9.8317 9.33133 10.1967 8.85437 10.6571 8.64285C11.1299 8.42719 11.8888 8.4023 12.3658 8.58064C12.8262 8.75484 13.1704 9.18203 13.3197 9.76682C13.4441 10.2521 13.469 10.924 13.469 13.9392V16.9585H15.2317H16.9944V13.6488C16.9944 10.2272 16.9695 9.47235 16.8243 8.66359C16.4842 6.73502 15.5054 5.71474 13.7303 5.44931C13.1704 5.36636 12.3368 5.37465 11.893 5.47004Z" fill="white"/>
<path d="M0.28009 11.318V17H2.04276H3.80544V11.318V5.63594H2.04276H0.28009V11.318Z" fill="white"/>
</svg>
