<svg width="15" height="20" viewBox="0 0 15 20" fill="none" xmlns="http://www.w3.org/2000/svg">
<path d="M6.59044 0.0458698C4.92247 0.260714 3.38731 1.01071 2.19981 2.19431C1.18028 3.21384 0.496687 4.46384 0.176375 5.89353C-0.198625 7.58103 0.0162183 9.16696 0.899031 11.2138C1.942 13.6396 4.14903 16.7138 6.77012 19.3935C7.46153 20.0967 7.48887 20.1084 7.79747 19.8232C8.10606 19.542 9.23887 18.3232 9.82091 17.6474C12.86 14.1162 14.5982 10.9482 14.9381 8.33884C15.2467 5.94431 14.2428 3.38181 12.3717 1.79978C11.4967 1.05759 10.4342 0.506807 9.35216 0.229464C8.52012 0.0146198 7.40684 -0.0556927 6.59044 0.0458698ZM8.21934 0.655245C10.274 0.885714 12.0826 1.98337 13.2311 3.70603C14.1686 5.10837 14.5592 6.94431 14.2701 8.58493C13.8092 11.2256 11.7623 14.6162 8.44981 18.2334C8.14512 18.5654 7.80528 18.9248 7.69591 19.0342L7.49669 19.2256L7.29747 19.0342C7.18809 18.9248 6.84825 18.5654 6.54356 18.2334C3.21934 14.6006 1.21153 11.2724 0.715437 8.5654C0.609968 7.98337 0.617781 6.88571 0.731062 6.27243C1.13731 4.10446 2.48887 2.31931 4.46934 1.32712C5.59825 0.760714 6.96934 0.518526 8.21934 0.655245Z" fill="white"/>
<path d="M7.04747 4.08112C6.81309 4.11237 6.34044 4.24518 6.11387 4.34674C4.23106 5.17877 3.49669 7.48737 4.55137 9.2569C4.80528 9.67877 5.30919 10.1827 5.73106 10.4366C7.08262 11.2413 8.81309 11.0264 9.92247 9.91705C10.36 9.47955 10.6686 8.92877 10.8404 8.28815C10.9459 7.8858 10.942 7.0694 10.8287 6.65143C10.4693 5.3233 9.41465 4.34284 8.10215 4.11237C7.78575 4.05768 7.32872 4.04596 7.04747 4.08112ZM8.01231 4.73346C8.41075 4.81159 8.6959 4.92487 9.02794 5.14362C9.42247 5.40143 9.79356 5.81549 9.99278 6.21393C10.2311 6.6983 10.2897 6.95612 10.2857 7.53034C10.2818 7.9483 10.2662 8.06549 10.1803 8.33112C10.0318 8.78034 9.82872 9.10455 9.46934 9.46393C9.10997 9.8233 8.78575 10.0264 8.33653 10.1749C8.0709 10.2608 7.95372 10.2764 7.53575 10.2803C6.96153 10.2842 6.70372 10.2256 6.21934 9.98737C5.65294 9.70612 5.09825 9.09674 4.8795 8.51471C4.57872 7.71784 4.64903 6.79987 5.06309 6.08502C5.24669 5.77252 5.7584 5.25299 6.06309 5.0733C6.65684 4.72565 7.34434 4.60455 8.01231 4.73346Z" fill="white"/>
</svg>
