<svg width="94" height="22" viewBox="0 0 94 22" fill="none" xmlns="http://www.w3.org/2000/svg">
<path d="M14.8089 13.1211C14.8089 14.8455 14.4821 16.3125 13.8284 17.5221C13.1798 18.7318 12.2945 19.6557 11.1723 20.294C10.0554 20.9271 8.7994 21.2437 7.40447 21.2437C5.99924 21.2437 4.73814 20.9245 3.62116 20.2863C2.50419 19.648 1.62142 18.724 0.97285 17.5144C0.324283 16.3048 0 14.8404 0 13.1211C0 11.3968 0.324283 9.92978 0.97285 8.72015C1.62142 7.51053 2.50419 6.58915 3.62116 5.95602C4.73814 5.31775 5.99924 4.99862 7.40447 4.99862C8.7994 4.99862 10.0554 5.31775 11.1723 5.95602C12.2945 6.58915 13.1798 7.51053 13.8284 8.72015C14.4821 9.92978 14.8089 11.3968 14.8089 13.1211ZM11.4194 13.1211C11.4194 12.0042 11.2521 11.0622 10.9175 10.2952C10.5881 9.52829 10.1223 8.94664 9.52003 8.55029C8.91779 8.15394 8.2126 7.95577 7.40447 7.95577C6.59633 7.95577 5.89115 8.15394 5.28891 8.55029C4.68667 8.94664 4.21826 9.52829 3.88368 10.2952C3.55425 11.0622 3.38953 12.0042 3.38953 13.1211C3.38953 14.2381 3.55425 15.1801 3.88368 15.947C4.21826 16.714 4.68667 17.2956 5.28891 17.692C5.89115 18.0883 6.59633 18.2865 7.40447 18.2865C8.2126 18.2865 8.91779 18.0883 9.52003 17.692C10.1223 17.2956 10.5881 16.714 10.9175 15.947C11.2521 15.1801 11.4194 14.2381 11.4194 13.1211ZM5.04955 3.59339C4.60688 3.59339 4.22598 3.43897 3.90684 3.13013C3.58771 2.81614 3.42814 2.44553 3.42814 2.0183C3.42814 1.58077 3.58771 1.21016 3.90684 0.906468C4.22598 0.602775 4.60688 0.450928 5.04955 0.450928C5.49737 0.450928 5.8757 0.602775 6.18455 0.906468C6.49853 1.21016 6.65553 1.58077 6.65553 2.0183C6.65553 2.44553 6.49853 2.81614 6.18455 3.13013C5.8757 3.43897 5.49737 3.59339 5.04955 3.59339ZM9.77483 3.59339C9.33215 3.59339 8.95125 3.43897 8.63211 3.13013C8.31298 2.81614 8.15341 2.44553 8.15341 2.0183C8.15341 1.58077 8.31298 1.21016 8.63211 0.906468C8.95125 0.602775 9.33215 0.450928 9.77483 0.450928C10.2226 0.450928 10.601 0.602775 10.9098 0.906468C11.2238 1.21016 11.3808 1.58077 11.3808 2.0183C11.3808 2.44553 11.2238 2.81614 10.9098 3.13013C10.601 3.43897 10.2226 3.59339 9.77483 3.59339Z" fill="#AEB2D7"/>
<path d="M17.2855 21.0275V5.2148H23.6167C24.78 5.2148 25.7503 5.38724 26.5275 5.73211C27.3048 6.07699 27.889 6.55569 28.2802 7.16823C28.6714 7.77561 28.867 8.47565 28.867 9.26835C28.867 9.88603 28.7435 10.4291 28.4964 10.8975C28.2493 11.3607 27.9096 11.7417 27.4772 12.0402C27.05 12.3336 26.561 12.5421 26.0102 12.6656V12.82C26.6125 12.8458 27.1761 13.0156 27.7011 13.3296C28.2313 13.6436 28.6611 14.0837 28.9905 14.6499C29.32 15.211 29.4847 15.8801 29.4847 16.6574C29.4847 17.4964 29.2762 18.2453 28.8593 18.9042C28.4475 19.5579 27.8375 20.0752 27.0294 20.4561C26.2213 20.837 25.2253 21.0275 24.0414 21.0275H17.2855ZM20.6287 18.2942H23.3542C24.2859 18.2942 24.9653 18.1166 25.3925 17.7615C25.8198 17.4012 26.0334 16.9225 26.0334 16.3254C26.0334 15.8878 25.9279 15.5018 25.7168 15.1672C25.5058 14.8326 25.2047 14.5701 24.8135 14.3797C24.4274 14.1892 23.9667 14.094 23.4314 14.094H20.6287V18.2942ZM20.6287 11.8317H23.1071C23.5652 11.8317 23.9719 11.7519 24.327 11.5924C24.6874 11.4277 24.9705 11.196 25.1764 10.8975C25.3874 10.5989 25.4929 10.2412 25.4929 9.82426C25.4929 9.2529 25.2896 8.79222 24.883 8.4422C24.4815 8.09218 23.9101 7.91717 23.1689 7.91717H20.6287V11.8317Z" fill="#AEB2D7"/>
<path d="M46.1911 13.1211C46.1911 14.8455 45.8642 16.3125 45.2105 17.5221C44.5619 18.7318 43.6766 19.6557 42.5545 20.294C41.4375 20.9271 40.1815 21.2437 38.7866 21.2437C37.3814 21.2437 36.1203 20.9245 35.0033 20.2863C33.8863 19.648 33.0036 18.724 32.355 17.5144C31.7064 16.3048 31.3821 14.8404 31.3821 13.1211C31.3821 11.3968 31.7064 9.92978 32.355 8.72015C33.0036 7.51053 33.8863 6.58915 35.0033 5.95602C36.1203 5.31775 37.3814 4.99862 38.7866 4.99862C40.1815 4.99862 41.4375 5.31775 42.5545 5.95602C43.6766 6.58915 44.5619 7.51053 45.2105 8.72015C45.8642 9.92978 46.1911 11.3968 46.1911 13.1211ZM42.8015 13.1211C42.8015 12.0042 42.6342 11.0622 42.2997 10.2952C41.9702 9.52829 41.5044 8.94664 40.9022 8.55029C40.2999 8.15394 39.5947 7.95577 38.7866 7.95577C37.9785 7.95577 37.2733 8.15394 36.671 8.55029C36.0688 8.94664 35.6004 9.52829 35.2658 10.2952C34.9364 11.0622 34.7717 12.0042 34.7717 13.1211C34.7717 14.2381 34.9364 15.1801 35.2658 15.947C35.6004 16.714 36.0688 17.2956 36.671 17.692C37.2733 18.0883 37.9785 18.2865 38.7866 18.2865C39.5947 18.2865 40.2999 18.0883 40.9022 17.692C41.5044 17.2956 41.9702 16.714 42.2997 15.947C42.6342 15.1801 42.8015 14.2381 42.8015 13.1211Z" fill="#AEB2D7"/>
<path d="M48.6676 21.0275V5.2148H54.9062C56.1004 5.2148 57.1195 5.42842 57.9637 5.85565C58.813 6.27773 59.459 6.8774 59.9017 7.65465C60.3495 8.42675 60.5734 9.33526 60.5734 10.3802C60.5734 11.4302 60.3469 12.3336 59.894 13.0903C59.441 13.8418 58.7847 14.4183 57.9251 14.8198C57.0706 15.2213 56.036 15.422 54.8213 15.422H50.6442V12.7351H54.2808C54.9191 12.7351 55.4492 12.6476 55.8713 12.4726C56.2934 12.2976 56.6074 12.0351 56.8133 11.685C57.0243 11.335 57.1298 10.9001 57.1298 10.3802C57.1298 9.85515 57.0243 9.41247 56.8133 9.05216C56.6074 8.69184 56.2908 8.41903 55.8636 8.23373C55.4415 8.04328 54.9088 7.94805 54.2653 7.94805H52.0108V21.0275H48.6676ZM57.2071 13.8315L61.1371 21.0275H57.4464L53.6013 13.8315H57.2071Z" fill="#AEB2D7"/>
<path d="M76.1622 5.2148V21.0275H73.2745L66.3951 11.0751H66.2793V21.0275H62.9361V5.2148H65.87L72.6954 15.1595H72.8344V5.2148H76.1622Z" fill="#AEB2D7"/>
<path d="M81.6499 21.0275H78.0674L83.5261 5.2148H87.8345L93.2855 21.0275H89.7029L85.7421 8.82825H85.6185L81.6499 21.0275ZM81.426 14.812H89.8883V17.4218H81.426V14.812Z" fill="#AEB2D7"/>
</svg>
