<svg width="79" height="22" viewBox="0 0 79 22" fill="none" xmlns="http://www.w3.org/2000/svg">
<path d="M1.15259 14.8853V4.33703C1.15259 2.64737 1.26065 1.89909 0.0480347 1.89909V1.65771H7.92402V1.89909C6.74743 1.89909 6.79545 2.34565 6.79545 4.33703V15.0784C6.79545 18.3491 8.50031 19.737 11.1176 19.737C14.0711 19.737 15.5599 17.6853 15.5599 15.0784V7.8853C15.5599 5.61634 14.8395 1.89909 12.2222 1.89909V1.65771H19.4379L19.4619 1.89909C16.3763 1.89909 15.8 5.61634 15.8 7.8853V15.0784C15.8 18.7353 13.3748 21.3905 8.53633 21.3905C4.79044 21.3905 1.15259 19.3991 1.15259 14.8853Z" fill="#AEB2D7"/>
<path d="M31.8281 12.3991C30.8917 13.4732 29.2948 13.5819 28.1903 12.6767C27.674 12.1698 27.3138 11.5905 27.3138 10.9508C27.3138 10.6008 26.4374 10.7939 25.3088 12.5077V18.0112C25.3088 19.5439 25.4409 20.6422 26.4374 20.9198V21.1491H19.5459V20.9198C20.5904 20.6181 20.6265 19.4232 20.6265 18.0112V11.2646C20.6265 10.287 20.2903 9.90082 19.1617 9.49047V9.26116L25.3088 8.10254V11.9767C27.2538 9.01978 28.0822 8.68185 28.9106 8.29564C29.679 7.93357 30.8436 8.10254 31.552 8.74219C32.6325 9.68357 32.7646 11.3491 31.8281 12.3991Z" fill="#AEB2D7"/>
<path fill-rule="evenodd" clip-rule="evenodd" d="M48.7447 14.5233C48.7447 20.0146 45.1068 21.3905 41.5771 21.3905C39.404 21.3905 38.1073 20.8715 37.3629 20.1715C36.4865 20.7509 33.533 21.4509 33.533 21.0043V3.64913C33.533 2.70775 33.2568 2.28534 32.1283 1.87499V1.65775L38.1913 0.487061V10.2026C38.9958 8.82672 40.3644 8.10258 42.9337 8.10258C46.7277 8.10258 48.7447 11.0957 48.7447 14.5233ZM43.2099 14.9095C43.2099 11.675 42.4295 8.93534 40.4485 8.93534C38.5995 8.93534 38.1913 11.2043 38.1913 13.3405V16.2733C38.1913 19.4233 38.8277 21.1491 40.4725 21.1491C42.0213 21.1491 43.2099 19.3388 43.2099 14.9095Z" fill="#AEB2D7"/>
<path fill-rule="evenodd" clip-rule="evenodd" d="M63.9924 19.375C63.6082 20.594 62.1795 21.3905 60.4386 21.3905C60.4386 21.3905 57.3891 21.3905 57.1369 18.9043C56.7768 20.3405 55.372 21.3905 53.4271 21.3905C52.3705 21.3905 49.9813 20.9198 49.9813 18.5664C49.9813 15.8026 52.2144 15.2716 57.1129 14.1129V12.3388C57.1129 9.46639 55.4921 7.9095 53.5831 8.91122C53.5831 8.91122 52.9828 9.26122 53.9193 9.59915C54.3875 9.76812 54.6877 10.1543 54.9038 10.6492C55.324 11.675 54.8558 12.7854 53.8353 13.2319C52.8388 13.6181 51.7102 13.1474 51.302 12.1457C51.0258 11.4216 51.1579 10.6009 51.6262 10.094C51.9623 9.73191 52.4546 9.23708 53.4751 8.68191C54.7117 8.01812 56.0684 8.1026 56.0684 8.1026C59.6702 8.1026 61.6872 10.3716 61.6872 13.6423V17.7698C61.6872 17.7698 61.6872 19.7612 63.0079 19.7009C63.0079 19.7009 63.6923 19.7009 63.8363 19.2302L63.9924 19.375ZM57.1009 14.3905C54.8438 14.8974 54.8678 16.5871 54.8678 17.8785C54.8678 17.8785 54.8438 19.7129 55.9483 19.7129C56.4166 19.7129 56.8008 19.3267 57.1009 18.6629V14.3905Z" fill="#AEB2D7"/>
<path d="M78.952 20.9198V21.1491H72.0605V20.9198C73.117 20.6181 73.1651 19.3991 73.1651 17.987V12.4232C73.1651 10.8422 72.5888 10.0939 71.2681 10.0939C70.6558 10.0939 70.0315 10.6008 69.6473 11.1801V18.0112C69.6473 19.5439 69.7793 20.6422 70.7758 20.9198V21.1491H63.8844V20.9198C64.9289 20.6181 64.9649 19.4594 64.9649 18.0112V11.2646C64.9649 10.287 64.6527 9.90082 63.5242 9.49047V9.26116L69.6473 8.10254V10.7939C70.3556 9.3215 71.8204 8.10254 73.3091 8.10254C75.5062 8.10254 77.8234 8.99564 77.8234 12.3146V17.987C77.8234 19.5077 77.9915 20.6784 78.952 20.9198Z" fill="#AEB2D7"/>
</svg>
