<svg width="136" height="26" viewBox="0 0 136 26" fill="none" xmlns="http://www.w3.org/2000/svg">
<path d="M32.5741 19.4509H28V6.45093H32.6119C33.9098 6.45093 35.0271 6.71118 35.9637 7.23169C36.9004 7.74797 37.6207 8.49064 38.1248 9.45972C38.633 10.4288 38.8871 11.5883 38.8871 12.9382C38.8871 14.2924 38.633 15.4561 38.1248 16.4294C37.6207 17.4028 36.8962 18.1497 35.9511 18.6702C35.0103 19.1907 33.8846 19.4509 32.5741 19.4509ZM30.7281 17.0959H32.4607C33.2671 17.0959 33.9455 16.9521 34.4957 16.6643C35.0502 16.3723 35.466 15.9216 35.7432 15.3123C36.0246 14.6986 36.1653 13.9073 36.1653 12.9382C36.1653 11.9776 36.0246 11.1926 35.7432 10.5833C35.466 9.97388 35.0523 9.52531 34.502 9.23755C33.9518 8.94979 33.2734 8.80591 32.467 8.80591H30.7281V17.0959Z" fill="#AEB2D7"/>
<path d="M42.4043 19.4509H39.4809L43.9353 6.45093H47.4509L51.899 19.4509H48.9756L45.7435 9.42163H45.6427L42.4043 19.4509ZM42.2216 14.3411H49.1268V16.4866H42.2216V14.3411Z" fill="#AEB2D7"/>
<path d="M51.384 8.71704V6.45093H61.9812V8.71704H58.0309V19.4509H55.3343V8.71704H51.384Z" fill="#AEB2D7"/>
<path d="M64.3738 19.4509H61.4504L65.9048 6.45093H69.4205L73.8685 19.4509H70.9451L67.713 9.42163H67.6122L64.3738 19.4509ZM64.1911 14.3411H71.0964V16.4866H64.1911V14.3411Z" fill="#AEB2D7"/>
<path d="M75.4216 19.4509V6.45093H80.5879C81.5372 6.45093 82.3289 6.59269 82.9632 6.87622C83.5974 7.15975 84.0741 7.5533 84.3934 8.05688C84.7126 8.55623 84.8722 9.13176 84.8722 9.78345C84.8722 10.2913 84.7714 10.7377 84.5698 11.1228C84.3682 11.5037 84.091 11.8168 83.7381 12.0623C83.3895 12.3035 82.9905 12.4749 82.541 12.5764V12.7034C83.0325 12.7245 83.4924 12.8642 83.9208 13.1223C84.3535 13.3805 84.7042 13.7423 84.973 14.2078C85.2418 14.669 85.3762 15.2192 85.3762 15.8582C85.3762 16.5479 85.2061 17.1637 84.8659 17.7053C84.5299 18.2428 84.0321 18.6681 83.3727 18.9812C82.7133 19.2944 81.9005 19.4509 80.9344 19.4509H75.4216ZM78.1497 17.2039H80.3737C81.134 17.2039 81.6884 17.0579 82.037 16.7659C82.3856 16.4696 82.5599 16.0761 82.5599 15.5852C82.5599 15.2255 82.4738 14.9081 82.3016 14.6331C82.1294 14.358 81.8837 14.1422 81.5645 13.9856C81.2495 13.829 80.8735 13.7507 80.4367 13.7507H78.1497V17.2039ZM78.1497 11.8909H80.1721C80.5459 11.8909 80.8777 11.8253 81.1676 11.6941C81.4616 11.5587 81.6926 11.3682 81.8606 11.1228C82.0328 10.8774 82.1189 10.5833 82.1189 10.2405C82.1189 9.77075 81.953 9.39201 81.6212 9.10425C81.2936 8.81649 80.8273 8.67261 80.2225 8.67261H78.1497V11.8909Z" fill="#AEB2D7"/>
<path d="M87.1514 19.4509V6.45093H92.2421C93.2166 6.45093 94.0482 6.62655 94.7371 6.97778C95.4301 7.32479 95.9572 7.81779 96.3185 8.45679C96.6839 9.09155 96.8666 9.83846 96.8666 10.6975C96.8666 11.5608 96.6818 12.3035 96.3122 12.9255C95.9425 13.5434 95.407 14.0173 94.7056 14.3474C94.0083 14.6775 93.1641 14.8425 92.1728 14.8425H88.7643V12.6335H91.7318C92.2526 12.6335 92.6852 12.5616 93.0296 12.4177C93.3741 12.2738 93.6303 12.058 93.7983 11.7703C93.9705 11.4825 94.0566 11.1249 94.0566 10.6975C94.0566 10.2659 93.9705 9.90194 93.7983 9.60571C93.6303 9.30949 93.372 9.0852 93.0234 8.93286C92.6789 8.77629 92.2442 8.698 91.7192 8.698H89.8794V19.4509H87.1514ZM94.1196 13.5349L97.3265 19.4509H94.3149L91.1773 13.5349H94.1196Z" fill="#AEB2D7"/>
<path d="M101.019 19.4509H98.0952L102.55 6.45093H106.065L110.513 19.4509H107.59L104.358 9.42163H104.257L101.019 19.4509ZM100.836 14.3411H107.741V16.4866H100.836V14.3411Z" fill="#AEB2D7"/>
<path d="M122.859 6.45093V19.4509H120.503L114.889 11.2688H114.794V19.4509H112.066V6.45093H114.46L120.03 14.6267H120.143V6.45093H122.859Z" fill="#AEB2D7"/>
<path d="M129.687 19.4509H125.113V6.45093H129.725C131.023 6.45093 132.14 6.71118 133.077 7.23169C134.013 7.74797 134.734 8.49064 135.238 9.45972C135.746 10.4288 136 11.5883 136 12.9382C136 14.2924 135.746 15.4561 135.238 16.4294C134.734 17.4028 134.009 18.1497 133.064 18.6702C132.123 19.1907 130.997 19.4509 129.687 19.4509ZM127.841 17.0959H129.574C130.38 17.0959 131.058 16.9521 131.609 16.6643C132.163 16.3723 132.579 15.9216 132.856 15.3123C133.138 14.6986 133.278 13.9073 133.278 12.9382C133.278 11.9776 133.138 11.1926 132.856 10.5833C132.579 9.97388 132.165 9.52531 131.615 9.23755C131.065 8.94979 130.386 8.80591 129.58 8.80591H127.841V17.0959Z" fill="#AEB2D7"/>
<path d="M3.92863 21.5391C3.37146 22.0956 2.45288 21.9903 2.04629 21.3135C1.17289 19.8545 0.72113 18.1999 0.72113 16.5003C0.72113 11.4915 4.6665 7.38526 9.62081 7.11452L16.3822 0.36099C16.849 -0.12033 17.617 -0.12033 18.0838 0.36099C18.5506 0.82727 18.5506 1.59437 18.0838 2.06065L10.6297 9.50608H10.1328C6.26272 9.50608 3.13052 12.6347 3.13052 16.5003C3.13052 17.2222 3.23593 17.9292 3.46181 18.6211L17.9483 4.15139C18.4151 3.67007 19.1831 3.67007 19.6499 4.15139C20.1167 4.61767 20.1167 5.38477 19.6499 5.85105L3.92863 21.5391Z" fill="#AEB2D7"/>
<path d="M16.9243 9.9873L15.2226 11.687C16.593 13.1309 17.3007 15.1164 17.105 17.2071C16.7436 20.8621 13.4909 23.6448 9.81658 23.4793C9.154 23.4643 8.49142 23.3289 7.87401 23.1183L14.018 16.9815C14.4848 16.5002 14.4848 15.7481 14.018 15.2668C13.5511 14.8005 12.7831 14.8005 12.3163 15.2668L4.96769 22.622C4.41052 23.1635 4.51593 24.081 5.17851 24.5021C5.67544 24.803 6.2025 25.0587 6.75967 25.2692C7.78366 25.6753 8.88294 25.8859 9.99728 25.901C14.9516 25.9762 19.1831 22.1106 19.5144 17.162C19.7101 14.4395 18.7313 11.8675 16.9243 9.9873Z" fill="#AEB2D7"/>
</svg>
