<svg width="100" height="22" viewBox="0 0 100 22" fill="none" xmlns="http://www.w3.org/2000/svg">
<path d="M10.4271 0.402588H20.9012V10.8905H10.4271V0.402588Z" fill="#AEB2D7"/>
<path d="M0 21.3785H10.4271V10.8906H0V21.3785Z" fill="#AEB2D7"/>
<path d="M33 21.2112V1.57285H46.2043V4.99613H37.2164V9.67559H45.3279V13.0989H37.2164V21.2112H33Z" fill="#AEB2D7"/>
<path d="M48.9625 21.2112V6.48244H53.1107V21.2112H48.9625ZM51.0463 4.58381C50.4296 4.58381 49.9005 4.38243 49.4591 3.97969C49.0241 3.57056 48.8067 3.08152 48.8067 2.51257C48.8067 1.95001 49.0241 1.46737 49.4591 1.06463C49.9005 0.655494 50.4296 0.450928 51.0463 0.450928C51.663 0.450928 52.1889 0.655494 52.6238 1.06463C53.0653 1.46737 53.286 1.95001 53.286 2.51257C53.286 3.08152 53.0653 3.57056 52.6238 3.97969C52.1889 4.38243 51.663 4.58381 51.0463 4.58381Z" fill="#AEB2D7"/>
<path d="M60.5819 12.6961V21.2112H56.4337V6.48244H60.3872V9.08107H60.5625C60.8935 8.22444 61.4486 7.54682 62.2276 7.04819C63.0066 6.54317 63.9512 6.29065 65.0613 6.29065C66.0999 6.29065 67.0055 6.5144 67.7781 6.96189C68.5506 7.40938 69.1511 8.04864 69.5795 8.87969C70.008 9.70435 70.2222 10.6888 70.2222 11.8331V21.2112H66.074V12.5619C66.0805 11.6605 65.8468 10.9573 65.3729 10.4523C64.899 9.94088 64.2465 9.68517 63.4156 9.68517C62.8573 9.68517 62.3639 9.80344 61.9355 10.04C61.5135 10.2765 61.1824 10.6217 60.9422 11.0756C60.7085 11.5231 60.5884 12.0633 60.5819 12.6961Z" fill="#AEB2D7"/>
<path d="M79.0032 21.4509C77.8671 21.4509 76.8382 21.1633 75.9163 20.5879C75.001 20.0062 74.2739 19.1528 73.7351 18.0276C73.2028 16.8961 72.9366 15.5089 72.9366 13.866C72.9366 12.1783 73.2125 10.7751 73.7643 9.65641C74.3161 8.53129 75.0497 7.69065 75.965 7.13449C76.8868 6.57193 77.8963 6.29065 78.9934 6.29065C79.8309 6.29065 80.5287 6.43129 81.087 6.71257C81.6518 6.98746 82.1062 7.33266 82.4503 7.74819C82.8008 8.15732 83.067 8.56006 83.2488 8.95641H83.3754V1.57285H87.5139V21.2112H83.4241V18.8523H83.2488C83.054 19.2614 82.7781 19.6674 82.4211 20.0701C82.0705 20.4665 81.6129 20.7957 81.0481 21.0578C80.4898 21.3199 79.8081 21.4509 79.0032 21.4509ZM80.3177 18.2002C80.9864 18.2002 81.5512 18.0212 82.0121 17.6633C82.4795 17.2989 82.8366 16.7907 83.0832 16.1386C83.3364 15.4865 83.463 14.7226 83.463 13.8468C83.463 12.971 83.3397 12.2103 83.093 11.5646C82.8463 10.919 82.4892 10.4203 82.0218 10.0687C81.5544 9.71714 80.9864 9.54134 80.3177 9.54134C79.6361 9.54134 79.0616 9.72353 78.5942 10.0879C78.1268 10.4523 77.773 10.9573 77.5328 11.603C77.2926 12.2486 77.1725 12.9966 77.1725 13.8468C77.1725 14.7034 77.2926 15.461 77.5328 16.1194C77.7795 16.7715 78.1333 17.2829 78.5942 17.6537C79.0616 18.0181 79.6361 18.2002 80.3177 18.2002Z" fill="#AEB2D7"/>
<path d="M90.9245 21.2112V6.48244H94.9462V9.0523H95.102C95.3746 8.13814 95.8323 7.44773 96.475 6.98107C97.1176 6.50801 97.8577 6.27148 98.6952 6.27148C98.9029 6.27148 99.1269 6.28426 99.3671 6.30983C99.6072 6.3354 99.8182 6.37056 100 6.41531V10.04C99.8052 9.98243 99.5358 9.93129 99.1918 9.88654C98.8477 9.8418 98.5329 9.81942 98.2472 9.81942C97.637 9.81942 97.0917 9.95047 96.6113 10.2126C96.1374 10.4683 95.7609 10.8263 95.4817 11.2865C95.2091 11.7468 95.0727 12.2774 95.0727 12.8783V21.2112H90.9245Z" fill="#AEB2D7"/>
</svg>
