<svg width="103" height="22" viewBox="0 0 103 22" fill="none" xmlns="http://www.w3.org/2000/svg">
<path fill-rule="evenodd" clip-rule="evenodd" d="M8.83184 0.661621H12.1762L19.6185 21.1448H15.1437L13.7777 16.9304H5.79369L4.4748 21.1448H0L6.80641 2.02717C7.15968 1.10895 7.84267 0.661621 8.83184 0.661621ZM9.7739 4.7818L6.92416 13.4695H12.6472L9.7739 4.7818Z" fill="#AEB2D7"/>
<path fill-rule="evenodd" clip-rule="evenodd" d="M24.6114 2.63914V7.395C25.0589 6.6416 25.6948 6.02946 26.5426 5.53504C27.2492 5.13479 28.1206 4.94644 29.1569 4.94644C31.0253 4.94644 32.5561 5.72339 33.7494 7.27728C34.927 8.83118 35.5393 10.8324 35.5393 13.3045C35.5393 15.7531 34.927 17.7543 33.7494 19.3082C33.1606 20.0616 32.3363 20.6031 31.3236 20.9327C30.3187 21.278 29.3217 21.4507 28.3326 21.4507C26.4249 21.4507 24.6585 20.9563 23.0099 19.9674C21.3927 18.9629 20.5762 17.0558 20.5605 14.2463V0.59082H22.586C23.1512 0.59082 23.6458 0.802715 24.0226 1.17942C24.4151 1.58751 24.6114 2.07408 24.6114 2.63914ZM31.4178 13.1162C31.4178 11.68 31.1116 10.5734 30.5228 9.77293C29.9262 8.94105 29.1176 8.52511 28.097 8.52511C26.9666 8.52511 26.1187 8.92535 25.5299 9.72585C24.9176 10.5499 24.6114 11.68 24.6114 13.1162C24.6114 14.7878 24.894 15.9885 25.4593 16.7419C26.048 17.5895 26.8959 17.9897 27.9557 17.9897C29.0862 17.9897 29.9341 17.5895 30.5228 16.7419C31.1195 15.91 31.4178 14.7015 31.4178 13.1162Z" fill="#AEB2D7"/>
<path d="M35.8926 15.9182H39.9435C39.9749 16.7187 40.2732 17.3152 40.8384 17.7076C41.4272 18.1078 42.228 18.2962 43.2171 18.2962C43.9394 18.2962 44.5596 18.1549 45.0777 17.8724C45.5488 17.5898 45.7843 17.2131 45.7843 16.7423C45.7843 16.0124 44.9364 15.4944 43.2878 15.1413C42.5577 15.0236 42.0396 14.9058 41.6627 14.7881C39.5588 14.2545 38.1536 13.6345 37.447 12.9282C36.6463 12.2218 36.2459 11.2565 36.2459 10.0793C36.2459 8.55684 36.819 7.30901 37.9651 6.33587C39.1741 5.40981 40.7285 4.94678 42.6284 4.94678C44.7009 4.94678 46.3495 5.40981 47.5742 6.33587C48.7361 7.32471 49.3484 8.61177 49.4112 10.1971H46.8676C46.114 10.1971 45.5252 9.86745 45.1248 9.18468C44.9678 9.01202 44.8108 8.84721 44.6538 8.69025C44.1828 8.3371 43.5233 8.17229 42.699 8.17229C41.8747 8.17229 41.2859 8.29001 40.8855 8.52545C40.5323 8.76089 40.3674 9.11404 40.3674 9.58492C40.3674 10.2442 41.4037 10.7621 43.4762 11.2094C43.696 11.2879 43.9001 11.3429 44.0886 11.3743C44.277 11.4213 44.4418 11.4449 44.5831 11.4449C46.6086 11.9629 48.0217 12.575 48.8224 13.2342C49.5761 13.9405 49.9529 14.9058 49.9529 16.1066C49.9529 17.8488 49.317 19.1908 48.0452 20.1326C46.8676 21.0272 45.0777 21.451 42.699 21.451C40.4224 21.451 38.7266 20.9959 37.6119 20.0855C36.4814 19.1673 35.8926 17.8488 35.8926 16.1066V15.9182Z" fill="#AEB2D7"/>
<path d="M57.6543 21.1448C56.3354 21.239 54.9144 21.2233 53.3914 21.0977C51.8527 20.9878 51.0834 20.0147 51.0834 18.1783V0.661621H53.2266C53.7447 0.661621 54.2 0.85782 54.5926 1.25022C55.0008 1.65831 55.2049 2.13704 55.2049 2.68639V5.3704H57.6543V6.19443C57.6543 6.78303 57.4423 7.27745 57.0419 7.65415C56.6416 8.03086 56.1705 8.24275 55.6288 8.24275H55.2049V17.0482C55.2049 17.7231 55.6053 18.0605 56.406 18.0605H57.6543V21.1448Z" fill="#AEB2D7"/>
<path d="M58.0075 21.1446V13.4693C58.0075 11.9154 58.2352 10.6126 58.6905 9.561C59.1459 8.50938 59.7739 7.66964 60.5747 7.04181C61.3283 6.42967 62.1997 6.00588 63.2124 5.72335C64.2252 5.44082 65.285 5.29956 66.3448 5.29956C66.4233 5.29956 66.5254 5.29956 66.651 5.29956C66.7609 5.29956 66.8629 5.29956 66.9571 5.29956V9.53746H65.5911C64.4371 9.53746 63.5657 9.79644 63.0005 10.3615C62.4509 10.9265 62.1762 11.8055 62.1762 12.9984V21.1446H58.0075Z" fill="#AEB2D7"/>
<path fill-rule="evenodd" clip-rule="evenodd" d="M77.4847 20.5093C76.6604 20.9331 75.789 21.2156 74.8469 21.3098C73.9049 21.4039 73.0805 21.451 72.374 21.451C70.9374 21.451 69.6891 21.0508 68.6293 20.2738C67.5224 19.5204 67.0042 18.2255 67.0042 16.4597C67.0042 14.7881 67.4988 13.5874 68.4644 12.8575C69.4301 12.1512 70.6783 11.6803 72.1856 11.4449C72.374 11.4449 72.6331 11.4213 72.9157 11.3507C73.1826 11.2879 73.4966 11.2408 73.8577 11.2094C75.6006 10.9583 76.472 10.4403 76.472 9.65555C76.472 9.06696 76.1894 8.66671 75.5535 8.47836C74.9411 8.31355 74.3759 8.24292 73.8577 8.24292C73.2925 8.24292 72.7979 8.31355 72.374 8.45482C71.9265 8.61962 71.6203 8.92569 71.4084 9.34948H67.4282C67.5695 8.1252 68.1347 7.11281 69.1003 6.33587C70.1602 5.41765 71.691 4.94678 73.6693 4.94678C75.9067 4.94678 77.5553 5.32348 78.6858 6.07688C79.832 6.87738 80.4051 7.99179 80.4051 9.42011V14.8352C80.4051 16.4362 80.1225 17.6605 79.5572 18.5551C78.9684 19.4734 78.2854 20.109 77.4847 20.5093ZM76.5426 13.1636C75.9774 13.4461 75.2002 13.7051 74.211 13.9405L72.845 14.2466C72.1228 14.435 71.6046 14.6939 71.2906 15.0236C71.0316 15.4709 70.8667 15.8947 70.8667 16.342C70.8667 16.9228 71.0473 17.3936 71.4084 17.7546C71.7695 18.0686 72.2876 18.2255 72.9628 18.2255C74.0697 18.2255 74.9411 17.9195 75.6006 17.2838C76.2129 16.6481 76.5426 15.777 76.5426 14.6704V13.1636Z" fill="#AEB2D7"/>
<path d="M92.0396 16.2714H95.0306C94.591 17.9352 93.751 19.2065 92.5106 20.0855C91.2859 21.0037 89.7315 21.451 87.8709 21.451C85.5864 21.451 83.8436 20.7212 82.5483 19.2379C81.2765 17.8253 80.6642 15.777 80.6642 13.1165C80.6484 10.5738 81.2608 8.58823 82.5012 7.1599C83.7573 5.68449 85.5236 4.94678 87.8003 4.94678C90.1868 4.94678 92.0317 5.66094 93.3349 7.08927C94.065 7.96039 94.5831 8.97278 94.8893 10.1264H90.7207C90.5323 9.72618 90.3203 9.44366 90.1319 9.23176C89.6137 8.69025 88.8836 8.40773 87.918 8.40773C87.0466 8.40773 86.3401 8.69025 85.7748 9.23176C85.0683 10.0323 84.715 11.3429 84.715 13.1636C84.715 15 85.0683 16.2949 85.7748 17.0483C86.293 17.6762 87.0702 17.9901 88.1064 17.9901C88.7894 17.9901 89.3547 17.8488 89.8257 17.5898C89.9435 17.5428 90.0612 17.4721 90.1554 17.3779C90.2496 17.2602 90.3674 17.1661 90.4852 17.0483C90.5637 16.9228 90.7207 16.758 90.9562 16.5539C91.2074 16.3656 91.5685 16.2714 92.0396 16.2714Z" fill="#AEB2D7"/>
<path d="M102.708 21.1448C101.39 21.239 99.9765 21.2154 98.4456 21.0977C96.9069 20.9878 96.1375 20.0147 96.1375 18.1783V0.661621H98.3043C98.7989 0.661621 99.2699 0.849972 99.6703 1.25022C100.071 1.65046 100.259 2.12134 100.259 2.68639V5.3704H102.708V6.19443C102.708 6.79088 102.512 7.27745 102.12 7.65415C101.719 8.03086 101.248 8.24275 100.683 8.24275H100.259V17.0482C100.259 17.7309 100.659 18.0605 101.46 18.0605H102.708V21.1448Z" fill="#AEB2D7"/>
</svg>
