<svg width="106" height="22" viewBox="0 0 106 22" fill="none" xmlns="http://www.w3.org/2000/svg">
<path d="M31 4.62601V2.45093H44.1794V4.62601H38.8661V19.1974H36.305V4.62601H31Z" fill="#AEB2D7"/>
<path d="M50.5446 19.4509C49.2863 19.4509 48.2025 19.1865 47.2934 18.6578C46.3898 18.1235 45.6914 17.374 45.198 16.4091C44.7102 15.4387 44.4663 14.3021 44.4663 12.9993C44.4663 11.7128 44.7102 10.5789 45.198 9.59763C45.6914 8.61639 46.3788 7.85048 47.2602 7.29989C48.1471 6.74931 49.1837 6.47402 50.37 6.47402C51.0906 6.47402 51.7891 6.59122 52.4654 6.82563C53.1417 7.06003 53.7487 7.428 54.2864 7.92952C54.8241 8.43105 55.2482 9.08248 55.5586 9.88383C55.869 10.6797 56.0243 11.6473 56.0243 12.7867V13.6534H45.8715V11.8218H53.5879C53.5879 11.1785 53.4549 10.6089 53.1888 10.1128C52.9227 9.61126 52.5485 9.21604 52.0663 8.92712C51.5895 8.6382 51.0297 8.49374 50.3866 8.49374C49.6882 8.49374 49.0784 8.66273 48.5573 9.00071C48.0418 9.33324 47.6426 9.76935 47.3599 10.309C47.0828 10.8433 46.9442 11.4238 46.9442 12.0507V13.4817C46.9442 14.3212 47.0938 15.0353 47.3932 15.6241C47.6981 16.2128 48.1221 16.6626 48.6654 16.9733C49.2087 17.2786 49.8434 17.4312 50.5696 17.4312C51.0407 17.4312 51.4704 17.3658 51.8584 17.235C52.2464 17.0987 52.5818 16.897 52.8645 16.6299C53.1472 16.3627 53.3634 16.0329 53.5131 15.6404L55.8663 16.0575C55.6778 16.7389 55.3396 17.3358 54.8518 17.8482C54.3696 18.3552 53.7626 18.7504 53.0308 19.0339C52.3046 19.3119 51.4759 19.4509 50.5446 19.4509Z" fill="#AEB2D7"/>
<path d="M64.1626 19.4509C62.9265 19.4509 61.8621 19.1756 60.9697 18.6251C60.0827 18.069 59.4009 17.3031 58.9241 16.3273C58.4474 15.3515 58.209 14.234 58.209 12.9747C58.209 11.6991 58.4529 10.5734 58.9408 9.59763C59.4286 8.61639 60.116 7.85048 61.0029 7.29989C61.8899 6.74931 62.9348 6.47402 64.1377 6.47402C65.1078 6.47402 65.9726 6.65118 66.732 7.00552C67.4914 7.35441 68.104 7.84503 68.5696 8.47738C69.0408 9.10974 69.3208 9.84839 69.4095 10.6934H66.9898C66.8567 10.1046 66.5518 9.59763 66.0751 9.17243C65.6039 8.74722 64.972 8.53462 64.1793 8.53462C63.4864 8.53462 62.8793 8.71452 62.3583 9.0743C61.8427 9.42864 61.4408 9.93562 61.1526 10.5952C60.8643 11.2494 60.7202 12.0235 60.7202 12.9175C60.7202 13.8333 60.8616 14.6238 61.1443 15.2888C61.427 15.9539 61.8261 16.469 62.3416 16.8343C62.8627 17.1995 63.4753 17.3821 64.1793 17.3821C64.6505 17.3821 65.0773 17.2976 65.4598 17.1287C65.8478 16.9542 66.1721 16.7062 66.4327 16.3845C66.6987 16.0629 66.8844 15.6759 66.9898 15.2234H69.4095C69.3208 16.0357 69.0519 16.7607 68.6029 17.3985C68.1539 18.0363 67.5524 18.5378 66.7985 18.9031C66.0502 19.2683 65.1715 19.4509 64.1626 19.4509Z" fill="#AEB2D7"/>
<path d="M74.5544 11.74V19.1974H72.0682V6.63756H74.4546V8.68181H74.6126C74.9064 8.01675 75.3665 7.48251 75.9929 7.07911C76.6249 6.67572 77.4204 6.47402 78.3794 6.47402C79.2497 6.47402 80.0119 6.65391 80.666 7.0137C81.3201 7.36804 81.8274 7.89682 82.1877 8.60004C82.548 9.30326 82.7282 10.1727 82.7282 11.2085V19.1974H80.2419V11.5029C80.2419 10.5925 80.0008 9.8811 79.5185 9.36868C79.0363 8.8508 78.3738 8.59186 77.5312 8.59186C76.9547 8.59186 76.4419 8.71452 75.9929 8.95983C75.5495 9.20514 75.1975 9.56492 74.9369 10.0392C74.6819 10.508 74.5544 11.0749 74.5544 11.74Z" fill="#AEB2D7"/>
<path d="M91.5671 19.4509C90.3087 19.4509 89.225 19.1865 88.3159 18.6578C87.4123 18.1235 86.7139 17.374 86.2205 16.4091C85.7327 15.4387 85.4888 14.3021 85.4888 12.9993C85.4888 11.7128 85.7327 10.5789 86.2205 9.59763C86.7139 8.61639 87.4012 7.85048 88.2826 7.29989C89.1696 6.74931 90.2062 6.47402 91.3925 6.47402C92.1131 6.47402 92.8116 6.59122 93.4879 6.82563C94.1642 7.06003 94.7712 7.428 95.3089 7.92952C95.8466 8.43105 96.2707 9.08248 96.5811 9.88383C96.8915 10.6797 97.0467 11.6473 97.0467 12.7867V13.6534H86.894V11.8218H94.6104C94.6104 11.1785 94.4774 10.6089 94.2113 10.1128C93.9452 9.61126 93.571 9.21604 93.0887 8.92712C92.612 8.6382 92.0521 8.49374 91.4091 8.49374C90.7106 8.49374 90.1009 8.66273 89.5798 9.00071C89.0642 9.33324 88.6651 9.76935 88.3824 10.309C88.1052 10.8433 87.9667 11.4238 87.9667 12.0507V13.4817C87.9667 14.3212 88.1163 15.0353 88.4157 15.6241C88.7206 16.2128 89.1446 16.6626 89.6879 16.9733C90.2311 17.2786 90.8658 17.4312 91.592 17.4312C92.0632 17.4312 92.4928 17.3658 92.8809 17.235C93.2689 17.0987 93.6043 16.897 93.887 16.6299C94.1697 16.3627 94.3859 16.0329 94.5356 15.6404L96.8887 16.0575C96.7003 16.7389 96.3621 17.3358 95.8743 17.8482C95.392 18.3552 94.785 18.7504 94.0533 19.0339C93.3271 19.3119 92.4984 19.4509 91.5671 19.4509Z" fill="#AEB2D7"/>
<path d="M105.767 6.63756V8.60004H98.7908V6.63756H105.767ZM100.662 3.62842H103.148V15.5096C103.148 15.9839 103.22 16.3409 103.364 16.5808C103.508 16.8152 103.694 16.976 103.921 17.0632C104.154 17.145 104.406 17.1859 104.678 17.1859C104.877 17.1859 105.052 17.1723 105.202 17.145C105.351 17.1178 105.468 17.096 105.551 17.0796L106 19.0993C105.856 19.1538 105.651 19.2083 105.385 19.2629C105.119 19.3228 104.786 19.3555 104.387 19.361C103.733 19.3719 103.123 19.2574 102.558 19.0175C101.992 18.7777 101.535 18.407 101.186 17.9055C100.836 17.404 100.662 16.7743 100.662 16.0166V3.62842Z" fill="#AEB2D7"/>
<path d="M2.2337 9.27153C0.843843 8.53611 0 7.06529 0 5.49508V1.59937C0 0.953401 0.526161 0.416748 1.18138 0.416748H4.26885C7.10813 0.416748 9.30213 2.31491 9.47089 4.82923C9.71908 8.41686 5.97639 11.2293 2.2337 9.27153Z" fill="#AEB2D7"/>
<path d="M8.39867 21.5152H12.1016C14.0872 21.5152 15.8642 20.2928 16.579 18.4344L22.744 2.30497C23.0915 1.39067 22.4164 0.416748 21.4435 0.416748H17.7504C15.755 0.416748 13.978 1.64906 13.2632 3.50747L7.10808 19.627C6.76062 20.5413 7.42577 21.5152 8.39867 21.5152Z" fill="#AEB2D7"/>
</svg>
