<svg width="16" height="20" viewBox="0 0 16 20" fill="none" xmlns="http://www.w3.org/2000/svg">
<path d="M7.00125 0.0245705C5.93875 0.141758 5.27859 0.415195 4.71219 0.977695C3.95828 1.72379 3.6614 2.64176 3.5989 4.4152C3.55203 5.63785 3.72 6.52457 4.1614 7.40348C5.12234 9.33316 7.00125 10.2082 8.7825 9.55973C10.0637 9.09488 11.1106 7.80191 11.4739 6.2316C11.6067 5.65348 11.6419 5.18473 11.6145 4.42301C11.552 2.64176 11.2552 1.72379 10.5012 0.977695C10.0208 0.501133 9.48172 0.235508 8.71219 0.094883C8.37625 0.0362892 7.30984 -0.00667953 7.00125 0.0245705Z" fill="white"/>
<path d="M4.81376 10.2748C2.93094 10.681 1.95047 11.1146 1.24344 11.8568C0.759067 12.3646 0.462192 12.9857 0.278599 13.8685C0.14188 14.5365 0.0754736 15.2396 0.0246924 16.5326C-0.0221826 17.8724 -0.0456201 17.7748 0.372349 18.1732C1.43094 19.1849 3.50516 19.806 6.31766 19.9623C10.1927 20.1732 13.4622 19.4896 14.8411 18.1732C15.2552 17.7787 15.2356 17.8763 15.1888 16.5521C15.1458 15.431 15.1028 14.849 15.0247 14.3373C14.6419 11.8724 13.5247 10.9115 10.2903 10.2513L9.82157 10.1576L9.66922 10.2982C9.16532 10.7513 8.47391 10.9818 7.60672 10.9818C7.07938 10.9818 6.75126 10.9232 6.30594 10.7591C6.02079 10.6498 5.6536 10.4232 5.50126 10.2591C5.38797 10.138 5.44657 10.138 4.81376 10.2748Z" fill="white"/>
</svg>
