<svg width="20" height="20" viewBox="0 0 20 20" fill="none" xmlns="http://www.w3.org/2000/svg">
<path d="M8.43758 0.0852661C8.17977 0.264954 8.16414 0.304016 8.04305 1.31183C7.98055 1.82355 7.91414 2.25323 7.89852 2.26886C7.88289 2.28448 7.69539 2.35089 7.48055 2.4212C7.0743 2.55402 6.52742 2.78448 6.24227 2.94855C6.14852 3.00323 6.05086 3.0462 6.02352 3.0462C5.99227 3.0462 5.69539 2.83136 5.35945 2.56573C4.54695 1.92511 4.52742 1.91339 4.35945 1.87433C4.05867 1.80792 3.99617 1.85089 2.97664 2.86652C2.4532 3.38214 1.98836 3.86652 1.94539 3.94073C1.84774 4.09698 1.83992 4.35089 1.92586 4.51495C1.96102 4.57745 2.22664 4.92902 2.5157 5.30011C2.80867 5.6673 3.04695 5.99542 3.04695 6.02277C3.04695 6.05011 3.00399 6.14777 2.9493 6.24152C2.78524 6.52667 2.55477 7.07355 2.42195 7.4798C2.35164 7.69464 2.28133 7.88214 2.26961 7.90167C2.25399 7.9173 1.8243 7.9798 1.31258 8.0423C0.304767 8.16339 0.265704 8.17902 0.0899228 8.43683C7.90581e-05 8.56574 7.90561e-05 8.57745 7.90561e-05 9.99933C7.90561e-05 11.9173 -0.0858585 11.7884 1.29305 11.9564C1.79695 12.0189 2.22274 12.0735 2.24617 12.0853C2.26961 12.0931 2.32039 12.2025 2.35945 12.3275C2.48836 12.7532 2.62899 13.1009 2.83602 13.5267C2.9532 13.7571 3.04695 13.9642 3.04695 13.9876C3.04695 14.011 2.80867 14.3314 2.5157 14.6985C2.22664 15.0696 1.96102 15.4212 1.92586 15.4837C1.83211 15.6634 1.84774 15.9095 1.96492 16.0814C2.02352 16.1634 2.48836 16.6478 2.99617 17.1556C3.7657 17.9212 3.9532 18.0853 4.08211 18.1204C4.35945 18.1946 4.47274 18.136 5.25008 17.5228C5.64852 17.2103 5.99617 16.9525 6.02352 16.9525C6.05086 16.9525 6.15242 16.9993 6.25008 17.054C6.52742 17.2142 7.05867 17.4407 7.48445 17.5775C7.69539 17.6478 7.88289 17.7142 7.89852 17.7298C7.91414 17.7454 7.98055 18.1751 8.04305 18.6868C8.16414 19.6946 8.17977 19.7337 8.43758 19.9095C8.56649 19.9993 8.5782 19.9993 10.0001 19.9993C11.922 19.9993 11.7852 20.0892 11.9571 18.6868C12.0196 18.1751 12.086 17.7454 12.1016 17.7298C12.1173 17.7142 12.3048 17.6478 12.5196 17.5775C12.9259 17.4446 13.4727 17.2142 13.7579 17.0501C13.8516 16.9954 13.9493 16.9525 13.9766 16.9525C14.0079 16.9525 14.3048 17.1673 14.6407 17.4329C15.5704 18.1634 15.5157 18.1282 15.7345 18.1321C15.8673 18.136 15.9688 18.1126 16.0587 18.054C16.1329 18.011 16.6173 17.5462 17.1329 17.0228C18.129 16.0228 18.1759 15.9564 18.1329 15.6634C18.1095 15.4993 18.086 15.4642 17.4532 14.6634C17.1759 14.3157 16.9532 14.011 16.9532 13.9876C16.9532 13.9642 17.0391 13.7728 17.1446 13.5618C17.3477 13.1595 17.4962 12.7962 17.6251 12.3821C17.668 12.2415 17.7149 12.1165 17.7305 12.1009C17.7423 12.0853 18.1759 12.0189 18.6876 11.9564C19.6954 11.8353 19.7345 11.8196 19.9102 11.5618C20.0001 11.4329 20.0001 11.4212 20.0001 9.99933C20.0001 8.07745 20.0899 8.21417 18.6876 8.0423C18.1759 7.9798 17.7462 7.91339 17.7305 7.89777C17.7149 7.88214 17.6485 7.69464 17.5782 7.4798C17.4454 7.07355 17.2149 6.52667 17.0509 6.24152C16.9962 6.14777 16.9532 6.05011 16.9532 6.02277C16.9532 5.99152 17.1954 5.65949 17.4923 5.28058C17.793 4.89777 18.0587 4.5462 18.0821 4.49542C18.1602 4.35089 18.1485 4.08917 18.0548 3.94073C18.0118 3.86652 17.547 3.38214 17.0235 2.86261C16.2345 2.08136 16.047 1.91339 15.918 1.87823C15.6407 1.80402 15.5274 1.86261 14.7501 2.47589C14.3516 2.78839 14.0079 3.0462 13.9845 3.0462C13.9649 3.0462 13.7696 2.95636 13.5548 2.84698C13.1368 2.63995 12.8009 2.50323 12.3829 2.37433C12.2423 2.33136 12.1173 2.28448 12.1016 2.26886C12.086 2.25714 12.0196 1.82355 11.9571 1.31183C11.836 0.304016 11.8204 0.264954 11.5626 0.0852661C11.4337 -0.000671387 11.422 -0.000671387 10.0001 -0.000671387C8.5782 -0.000671387 8.56649 -0.000671387 8.43758 0.0852661ZM10.9571 5.09699C13.0587 5.53058 14.6212 7.17511 14.9415 9.2962C15.3516 11.9954 13.4259 14.5501 10.6837 14.9407C9.18758 15.1556 7.66805 14.6673 6.56649 13.6126C4.53133 11.6712 4.48445 8.48761 6.45711 6.49152C7.23445 5.69855 8.25008 5.19464 9.35945 5.0423C9.73055 4.98761 10.5821 5.01886 10.9571 5.09699Z" fill="white"/>
</svg>
