<svg width="16" height="16" viewBox="0 0 16 16" fill="none" xmlns="http://www.w3.org/2000/svg">
<path d="M7.53739 0.820443C6.96417 0.951288 6.43767 1.29398 6.11679 1.75194C5.94545 1.99182 0.428147 11.5435 0.284841 11.8457C0.119727 12.1977 0.0698813 12.422 0.0729966 12.8457C0.0729966 13.1386 0.0885734 13.2725 0.141534 13.4657C0.353379 14.2134 0.895451 14.8146 1.59018 15.0732C2.02009 15.2352 1.75841 15.229 8.0047 15.229C14.3008 15.229 14.0516 15.2352 14.4784 15.0639C14.7993 14.933 15.0142 14.7866 15.2884 14.5124C15.5875 14.2134 15.7277 13.9953 15.8523 13.6433C16.0766 13.0108 16.0454 12.4158 15.7588 11.8177C15.6249 11.5342 10.2571 2.22547 10.0172 1.85474C9.70257 1.37498 9.1823 0.994904 8.63711 0.848481C8.37854 0.779943 7.78662 0.764367 7.53739 0.820443ZM8.42215 5.11964C8.68384 5.24737 8.85207 5.48413 8.8988 5.79567C8.9175 5.89536 8.89257 6.47793 8.8365 7.42189C8.78665 8.22876 8.73369 9.17895 8.71811 9.53721C8.69319 10.1291 8.68696 10.1946 8.61531 10.3316C8.50938 10.5404 8.32869 10.6587 8.09193 10.6743C7.76793 10.6992 7.53428 10.5653 7.41901 10.2911C7.36916 10.1696 7.34424 9.82694 7.13863 6.22559C7.1137 5.8019 7.16043 5.59317 7.32243 5.37821C7.43147 5.23802 7.69939 5.05421 7.83958 5.02929C8.00781 5.00125 8.25704 5.03864 8.42215 5.11964ZM8.42215 11.4127C8.92373 11.6588 9.05769 12.3504 8.68696 12.7741C8.148 13.3847 7.1542 13.0046 7.1542 12.1915C7.1542 11.531 7.82401 11.1198 8.42215 11.4127Z" fill="white"/>
</svg>
