<svg width="20" height="16" viewBox="0 0 20 16" fill="none" xmlns="http://www.w3.org/2000/svg">
<path d="M4.18344 0.0107598C3.16217 0.155985 2.36109 0.849321 2.07064 1.82842C1.97226 2.15635 1.96289 2.80284 2.0519 3.11672C2.4782 4.66735 4.18812 5.43096 5.62164 4.70483C5.99173 4.51744 6.47894 4.03492 6.68038 3.65077C7.39246 2.29221 6.71318 0.610402 5.26092 0.127877C4.97047 0.0341835 4.43173 -0.0267177 4.18344 0.0107598Z" fill="white"/>
<path d="M9.35537 7.23492C7.93122 9.55385 6.75067 11.4418 6.73193 11.4277C6.71319 11.4184 6.31499 10.8703 5.84652 10.2144C5.37805 9.55853 4.97985 9.01979 4.9658 9.01979C4.93301 9.02448 0.0328076 15.8735 1.46589e-05 15.9625C-0.00935475 15.9813 4.47391 16 9.96438 16C15.4548 16 19.9475 15.9906 19.9475 15.9813C19.9475 15.9438 12.0678 3.14518 12.0069 3.07959C11.9601 3.02806 11.4401 3.84788 9.35537 7.23492Z" fill="white"/>
</svg>
