<svg width="17" height="17" viewBox="0 0 17 17" fill="none" xmlns="http://www.w3.org/2000/svg">
<path d="M2.56388 0.0584469C2.45562 0.0971107 2.2971 0.182175 2.21203 0.25177C1.87952 0.51469 0.997959 1.46971 0.773703 1.80996C-0.00345892 2.98537 -0.204516 4.39277 0.213064 5.71897C0.402521 6.31828 1.17582 7.74887 1.92205 8.88175C2.77267 10.1732 3.60783 11.1862 4.78711 12.3655C5.94705 13.5215 6.80928 14.233 8.05815 15.0681C8.96677 15.6713 10.1615 16.3557 10.7686 16.6108C11.9594 17.1174 13.2354 17.1174 14.4301 16.6147C14.7936 16.4601 15.1531 16.2397 15.5205 15.9458C15.9458 15.6017 16.7848 14.7356 16.8737 14.5461C16.9781 14.3258 16.9936 13.9275 16.9124 13.6685C16.8505 13.479 16.7307 13.3475 15.157 11.77C13.274 9.8793 13.2624 9.87157 12.7985 9.87157C12.3654 9.87157 12.2571 9.94503 11.3833 10.8111C10.958 11.2326 10.5482 11.6115 10.4747 11.6502C10.3896 11.6927 10.2582 11.7197 10.119 11.7197C9.91019 11.7159 9.87153 11.7004 9.50035 11.453C9.27996 11.3099 8.92038 11.0508 8.69612 10.8769C8.33267 10.5985 8.27081 10.5637 8.12388 10.5637C7.98469 10.5637 7.93829 10.583 7.86096 10.6719C7.7527 10.7995 7.73723 11.0238 7.82616 11.1475C7.93829 11.3099 9.1137 12.1605 9.49261 12.3539C9.73234 12.4776 10.1113 12.5317 10.378 12.4814C10.8381 12.3964 10.9696 12.3036 11.8241 11.453C12.3074 10.9774 12.6593 10.6565 12.7211 10.641C12.7869 10.6255 12.8681 10.6371 12.9338 10.6719C12.9956 10.7067 13.7535 11.4414 14.6234 12.3113C16.1739 13.8695 16.1971 13.8927 16.1971 14.0474C16.1971 14.1982 16.1739 14.2252 15.5669 14.8207C14.9096 15.4702 14.6776 15.6442 14.1981 15.8685C13.6761 16.1082 13.2392 16.201 12.6206 16.201C11.77 16.2049 11.364 16.0811 10.32 15.5205C7.47818 13.9855 5.25495 12.0832 3.33331 9.53905C2.36669 8.25925 1.23768 6.34921 0.967027 5.53725C0.688641 4.69436 0.715706 3.75867 1.05209 2.92737C1.27635 2.37833 1.46194 2.11928 2.11924 1.44651C2.47109 1.0908 2.79587 0.789211 2.84614 0.777611C2.8964 0.762146 2.98533 0.773745 3.04333 0.796944C3.10519 0.824009 3.87075 1.56251 4.74458 2.4402C6.29504 3.99066 6.33757 4.03705 6.33757 4.18398C6.33757 4.32704 6.30277 4.36957 5.54881 5.1274C4.85284 5.82723 4.74071 5.95869 4.63245 6.19068C4.53579 6.39947 4.50099 6.52707 4.48939 6.75519C4.46233 7.19983 4.53965 7.40089 4.95337 8.01566C5.42508 8.71936 5.51014 8.80442 5.71506 8.80442C5.84652 8.80442 5.90452 8.78122 5.99345 8.6923C6.18677 8.49897 6.15584 8.39071 5.75373 7.81847C5.34002 7.23463 5.25882 7.06837 5.25495 6.84025C5.25495 6.54253 5.34002 6.42654 6.17904 5.57978C7.06447 4.68276 7.11086 4.60929 7.11086 4.16465C7.11086 3.72774 7.0606 3.66587 5.22789 1.84089C4.09114 0.704149 3.5189 0.162842 3.39904 0.104845C3.16319 -0.0150166 2.81907 -0.0343494 2.56388 0.0584469Z" fill="white"/>
<path d="M6.60337 9.49257C6.39458 9.67816 6.45257 9.99521 6.71163 10.1035C6.81602 10.1499 6.87402 10.1537 6.97842 10.1189C7.24907 10.03 7.31867 9.70136 7.11374 9.49644C6.95908 9.34565 6.76963 9.34178 6.60337 9.49257Z" fill="white"/>
</svg>
