<svg width="24" height="30" viewBox="0 0 24 30" fill="none" xmlns="http://www.w3.org/2000/svg">
<path d="M5.80078 3.05273C2.74219 4.72852 0.181641 6.15234 0.117188 6.2168C0 6.32812 0 6.41016 0 10.9453C0 15.9199 0.00585938 16.0547 0.322266 17.6367C1.26562 22.3477 4.33008 26.4668 8.58398 28.7285C9.36328 29.1445 11.3145 30 11.4785 30C11.6719 29.9941 14.2148 28.875 14.9355 28.4707C16.4238 27.6387 17.5312 26.7891 18.7207 25.5703C21.1875 23.0449 22.6816 19.9922 23.209 16.4062C23.2969 15.8262 23.3145 15.0703 23.332 11.0625L23.3555 6.39844L23.1914 6.22266C22.9863 6.00586 11.7129 0 11.5078 0C11.4316 0 8.86523 1.37109 5.80078 3.05273ZM16.9043 4.06641L22.207 6.89648V11.2266C22.2012 15.4219 22.2012 15.5801 22.0723 16.4004C21.5625 19.6406 20.2031 22.418 18.0234 24.6797C16.4238 26.3379 14.9414 27.334 12.5039 28.3828L11.4727 28.8281L10.6289 28.4531C9.12305 27.791 8.2207 27.2871 7.22461 26.543C4.14844 24.252 2.01562 20.8184 1.35352 17.1094C1.13086 15.8438 1.11328 15.4629 1.11328 11.1445V6.90234L6.26953 4.07227C9.10547 2.51367 11.4668 1.23633 11.5137 1.23633C11.5605 1.23633 13.9863 2.50781 16.9043 4.06641Z" fill="white"/>
<path d="M16.0137 12.2051C15.6797 12.4746 14.1914 13.6875 12.6973 14.9004L9.98438 17.1093L8.74805 15.6621C7.26562 13.916 7.24219 13.8867 6.9668 13.8867C6.68555 13.8867 6.53906 13.9746 6.43945 14.2148C6.36914 14.3847 6.36914 14.4433 6.43945 14.6015C6.54492 14.8594 9.48633 18.2871 9.68555 18.3926C9.79102 18.4511 9.89062 18.457 10.0312 18.4218C10.2305 18.3691 17.2148 12.7207 17.3203 12.5332C17.502 12.1875 17.2148 11.7187 16.8223 11.7187C16.6465 11.7187 16.5117 11.8008 16.0137 12.2051Z" fill="white"/>
</svg>
