<svg width="27" height="31" viewBox="0 0 27 31" fill="none" xmlns="http://www.w3.org/2000/svg">
<path d="M12.2535 0.0570898C10.8272 0.31461 9.60893 0.97822 8.49961 2.08754C7.59829 2.98886 7.07335 3.82085 6.69697 4.95988C6.46917 5.66311 6.43945 5.91072 6.43945 7.08937C6.43945 8.26802 6.46917 8.51564 6.69697 9.21887C7.07335 10.3579 7.59829 11.1899 8.49961 12.0912C9.41084 13.0024 10.2428 13.5175 11.372 13.8938C12.0752 14.1217 12.3228 14.1514 13.5014 14.1514C14.6801 14.1514 14.9277 14.1217 15.6309 13.8938C16.77 13.5175 17.602 12.9925 18.5033 12.0912C19.4046 11.1899 19.9296 10.3579 20.3059 9.21887C20.5337 8.51564 20.5634 8.26802 20.5634 7.08937C20.5634 5.91072 20.5337 5.66311 20.3059 4.95988C19.9296 3.82085 19.4046 2.98886 18.5033 2.08754C17.1265 0.700891 15.6904 0.0768995 13.7986 0.00756645C13.2241 -0.0122423 12.5308 0.00756645 12.2535 0.0570898ZM14.5513 1.65173C15.522 1.82011 16.6313 2.42429 17.4039 3.18695C19.573 5.36597 19.573 8.82268 17.394 11.0017C15.2249 13.1708 11.7681 13.1609 9.58912 10.972C6.91488 8.30764 7.66763 3.82085 11.055 2.14697C12.2238 1.5725 13.2835 1.42393 14.5513 1.65173Z" fill="white"/>
<path d="M11.7766 15.9139C6.58657 16.6271 2.33749 20.163 0.683419 25.1351C0.316948 26.2543 0.12876 27.3736 0.0594277 28.7998L0 30.0676H13.5H27L26.9406 28.7998C26.8217 26.2345 26.1482 24.0654 24.8111 21.9954C22.8599 18.9447 19.6607 16.7756 16.0653 16.0526C15.1442 15.8644 12.6878 15.7852 11.7766 15.9139ZM16.0752 17.6769C18.8287 18.3009 21.2751 19.8857 22.9589 22.134C24.2861 23.897 24.9993 25.6898 25.3261 28.1065L25.3756 28.4829H13.4901H1.60455L1.66398 28.0075C2.11959 24.5706 3.82318 21.6388 6.53705 19.648C7.84446 18.6872 9.83529 17.8453 11.42 17.5878C11.8261 17.5284 12.2322 17.459 12.3114 17.4392C12.7274 17.3303 15.3026 17.4987 16.0752 17.6769Z" fill="white"/>
</svg>
