<svg width="30" height="30" viewBox="0 0 30 30" fill="none" xmlns="http://www.w3.org/2000/svg">
<path d="M8.40933 8.4171L0 16.8264L6.59067 23.4171L13.1736 30L21.5907 21.5829L30 13.1736V6.5829V0H23.4093H16.8264L8.40933 8.4171ZM28.7565 6.9715V12.7073L21.0078 20.456C16.7409 24.7228 13.2202 28.2124 13.1736 28.2124C13.0725 28.2124 1.78756 16.9275 1.78756 16.8264C1.78756 16.7876 5.2772 13.2591 9.53627 9L17.2927 1.24352H23.0207H28.7565V6.9715Z" fill="white"/>
<path d="M22.81 3.60622C22.1961 3.76166 21.8308 3.96374 21.3722 4.43006C20.1598 5.63472 20.1598 7.42229 21.3722 8.62695C22.0872 9.34975 23.0354 9.6684 23.9603 9.48187C25.9422 9.10104 26.9992 7.07255 26.1598 5.24612C25.7867 4.42229 24.9551 3.77721 24.0302 3.58291C23.5251 3.48187 23.3152 3.48187 22.81 3.60622ZM23.9214 4.8342C24.4577 4.96633 25.0562 5.58032 25.1727 6.12436C25.3126 6.78498 25.1727 7.24353 24.6831 7.73317C24.1935 8.23058 23.6883 8.38602 23.1054 8.24612C21.5821 7.85752 21.209 5.95337 22.4836 5.08291C22.9577 4.76426 23.3619 4.69431 23.9214 4.8342Z" fill="white"/>
<path d="M10.492 12.474L6.33398 16.6321L9.75367 20.0517L13.1734 23.4714L17.3469 19.2979L21.5283 15.1165L18.1319 11.7201C16.2589 9.84708 14.7122 8.31599 14.6889 8.31599C14.6656 8.31599 12.777 10.1891 10.492 12.474ZM17.2381 12.6139L19.7407 15.1165L16.4376 18.4196L13.1345 21.7227L10.6086 19.1968L8.08269 16.6709L11.3625 13.3911C13.1734 11.5802 14.6656 10.1036 14.6889 10.1036C14.7122 10.1036 15.8547 11.2305 17.2381 12.6139Z" fill="white"/>
</svg>
