<svg width="26" height="16" viewBox="0 0 26 16" fill="none" xmlns="http://www.w3.org/2000/svg">
<path d="M5.3458 0.480273C5.10322 0.606835 4.94501 0.765038 4.83955 0.99707C4.75517 1.18164 4.73935 1.35566 4.73935 2.40508V3.60742H2.804C1.03212 3.60742 0.842281 3.61797 0.647163 3.70762C0.357124 3.83945 0.114546 4.14531 0.0459915 4.47227C0.00380404 4.66211 -0.00674283 6.33906 0.00380404 9.99355L0.0196244 15.2459L0.177827 15.499C0.283296 15.6678 0.415132 15.7943 0.568062 15.8787L0.800093 16H10.3397C19.6104 16 19.8847 15.9947 20.0745 15.8998C20.3224 15.7732 20.4806 15.6045 20.586 15.3566C20.6493 15.1984 20.6651 14.9242 20.6651 13.9697V12.7832H22.6058C24.3724 12.7832 24.5622 12.7727 24.7573 12.683C25.0474 12.5512 25.2899 12.2453 25.3585 11.9184C25.4007 11.7285 25.4112 10.0516 25.4007 6.39707L25.3849 1.14473L25.2267 0.891602C25.1212 0.722852 24.9894 0.596289 24.8364 0.511914L24.6044 0.390625H15.0542C6.45322 0.395898 5.48818 0.401172 5.3458 0.480273ZM24.6466 1.10254L24.7784 1.2291V6.53418C24.7784 10.2361 24.7626 11.8709 24.7204 11.95C24.5938 12.182 24.4198 12.2031 22.4845 12.2031H20.6651V11.6494V11.0957H21.029C21.5089 11.0957 21.588 11.0271 21.6618 10.5525C21.6882 10.3521 21.762 10.0885 21.8253 9.96191C22.0995 9.39766 22.7112 8.94941 23.2913 8.89668C23.4548 8.88086 23.6446 8.8334 23.7079 8.79648L23.8292 8.72266V6.56055C23.8292 4.1084 23.8767 4.33516 23.3493 4.27187C22.7218 4.19277 22.0942 3.7498 21.8411 3.20137C21.7726 3.04844 21.6882 2.76367 21.6618 2.56855C21.6249 2.35234 21.5722 2.18359 21.5194 2.14141C21.4561 2.09395 20.0798 2.07812 15.0436 2.07812C9.27451 2.07812 8.64697 2.08867 8.58369 2.1625C8.54677 2.20996 8.49931 2.38926 8.47822 2.56855C8.45712 2.76367 8.37275 3.0168 8.26201 3.23301L8.08798 3.58105L6.70107 3.59688L5.31416 3.60742L5.32998 2.41562L5.3458 1.22383L5.49345 1.09727L5.64111 0.970703H15.0806H24.52L24.6466 1.10254ZM21.1186 2.95879C21.356 3.87637 22.0626 4.58301 22.9591 4.79395L23.2227 4.85723L23.2386 6.56582L23.2491 8.27969L22.8852 8.36934C22.031 8.59082 21.2294 9.4293 21.1081 10.2309C21.0765 10.4576 21.0712 10.4629 20.8708 10.4629H20.6651V7.46758C20.6651 4.68848 20.6546 4.46172 20.5649 4.2666C20.4436 3.99766 20.1483 3.73398 19.8899 3.66543C19.7581 3.62852 17.8755 3.60742 14.221 3.60742H8.75244L8.879 3.32793C8.94755 3.18027 9.02138 2.96406 9.0372 2.85332L9.07412 2.6582L15.0595 2.66875L21.0501 2.68457L21.1186 2.95879ZM19.8583 4.28769C19.9216 4.32988 19.9954 4.4248 20.027 4.48809C20.0692 4.57773 20.0851 6.24414 20.0851 9.86172V15.1141L19.9321 15.267L19.7792 15.4199H10.3292H0.884468L0.757906 15.2881L0.62607 15.1615V9.85645C0.62607 6.15977 0.64189 4.51973 0.684078 4.4459C0.82646 4.18223 0.409858 4.19277 10.4083 4.20332C18.4503 4.21387 19.7581 4.22441 19.8583 4.28769Z" fill="white"/>
<path d="M3.90091 5.38457C3.82181 5.45312 3.77962 5.57969 3.74271 5.83809C3.71634 6.0332 3.64251 6.29688 3.57923 6.42871C3.30501 6.99297 2.69329 7.44121 2.11321 7.49395C1.94974 7.50977 1.75989 7.55723 1.69661 7.59414L1.57532 7.66797V9.83008C1.57532 12.2822 1.52786 12.0555 2.05521 12.1187C2.68274 12.1979 3.31028 12.6408 3.56341 13.1893C3.63196 13.3422 3.71634 13.627 3.74271 13.8221C3.77962 14.0383 3.83235 14.207 3.88509 14.2439C3.94837 14.2967 5.33001 14.3125 10.3661 14.3125H16.7628L16.8367 14.1912C16.8736 14.1279 16.921 13.9434 16.9368 13.7799C17.0159 12.9414 17.7753 12.2084 18.656 12.1187C18.9038 12.0924 19.004 12.0555 19.0568 11.9711C19.1253 11.8814 19.1359 11.5229 19.1359 9.8248C19.1359 7.44648 19.1622 7.57305 18.6243 7.50977C17.7226 7.39902 17.0159 6.69238 16.9368 5.81699C16.9105 5.56387 16.8788 5.47949 16.7734 5.40039C16.6468 5.29492 16.5202 5.29492 10.3292 5.29492C4.39134 5.29492 4.00638 5.30019 3.90091 5.38457ZM16.3884 6.19668C16.6204 7.09316 17.3113 7.79453 18.213 8.04238L18.5294 8.12676L18.5452 9.81953L18.5558 11.5176L18.4134 11.5492C17.8228 11.6758 17.4431 11.8814 17.0529 12.277C16.7154 12.6197 16.4833 13.0258 16.3831 13.4688L16.3251 13.7324L10.3398 13.7219L4.35442 13.7061L4.2806 13.4213C4.05384 12.5354 3.31028 11.7918 2.45599 11.5967L2.18177 11.5334L2.16595 9.8248L2.1554 8.11094L2.51927 8.02129C3.37357 7.7998 4.17513 6.96133 4.29642 6.15977L4.32806 5.92773H10.324H16.3199L16.3884 6.19668Z" fill="white"/>
<path d="M9.81785 6.61852C8.32547 6.86637 7.2075 8.12672 7.1284 9.64547C7.08621 10.4734 7.29187 11.1431 7.8034 11.8234C8.69988 13.0046 10.4296 13.3791 11.8218 12.6935C12.2647 12.472 12.9134 11.8603 13.1454 11.4384C13.6886 10.4523 13.7149 9.36598 13.2192 8.36403C12.6022 7.10895 11.1995 6.38649 9.81785 6.61852ZM11.1204 7.29879C12.2173 7.62047 12.9714 8.63824 12.9766 9.81422C12.9766 10.563 12.7182 11.1853 12.1962 11.6968C11.3735 12.5089 10.1026 12.6988 9.09539 12.1609C8.7368 11.9711 8.16199 11.3963 7.98797 11.0588C7.15476 9.41344 8.16199 7.46227 9.98133 7.19332C10.3294 7.14059 10.6932 7.1775 11.1204 7.29879Z" fill="white"/>
<path d="M10.2193 7.26199C10.1086 7.32 10.0928 7.36746 10.077 7.64168C10.0611 7.95281 10.0611 7.95809 9.85547 8.04773C9.52324 8.18484 9.43359 8.39051 9.43359 9.00223C9.43359 9.59285 9.49688 9.77742 9.76582 9.93562C9.88711 10.0147 10.0295 10.0411 10.2826 10.0411C10.5568 10.0411 10.6412 10.0622 10.6676 10.1255C10.715 10.2468 10.7045 10.9534 10.6518 11.0325C10.6254 11.08 10.5199 11.0958 10.3248 11.0852L10.04 11.0694L10.0084 10.8374C9.96094 10.4946 9.70781 10.3522 9.52324 10.5579C9.39668 10.695 9.40723 11.1274 9.53906 11.3436C9.70254 11.6126 9.9082 11.6864 10.4145 11.6653C10.7889 11.6495 10.868 11.6337 10.9893 11.5177C11.216 11.312 11.2793 11.0958 11.2793 10.5684C11.2793 10.0411 11.216 9.82488 10.9945 9.61922C10.8785 9.51375 10.7836 9.48738 10.4461 9.46102L10.04 9.43465V9.01277V8.5909L10.2879 8.57508C10.5146 8.55926 10.541 8.5698 10.6148 8.71219C10.7256 8.9284 10.8363 9.00223 10.9893 8.96531C11.3531 8.87566 11.1896 8.19539 10.7678 8.03191C10.6623 7.995 10.6465 7.94754 10.6465 7.71023C10.6465 7.40438 10.6201 7.34109 10.4566 7.25672C10.3775 7.21453 10.3143 7.2198 10.2193 7.26199Z" fill="white"/>
</svg>
