<svg width="243" height="196" viewBox="0 0 243 196" fill="none" xmlns="http://www.w3.org/2000/svg">
<path d="M0 55.3766V110.718H31.6911H63.3822V120.982C63.3822 126.658 63.1457 132.192 62.9092 133.327C61.1118 140.943 54.5844 146.997 46.7799 148.085C45.1244 148.321 38.3604 148.558 31.833 148.558H19.8661V172.255V196L35.617 195.716C47.0164 195.527 52.4086 195.29 55.3412 194.723C82.9172 189.567 103.02 170.127 109.358 142.503L110.399 137.915L110.541 68.9517L110.73 0.0353546H55.3412H0V55.3766Z" fill="#161724"/>
<path d="M131.494 55.3766V110.718H163.185H194.876V120.982C194.876 126.658 194.64 132.192 194.403 133.327C192.606 140.943 186.079 146.997 178.274 148.085C176.619 148.321 169.855 148.558 163.327 148.558H151.36V172.255V196L167.111 195.716C178.511 195.527 183.903 195.29 186.835 194.723C214.411 189.567 234.514 170.127 240.852 142.503L241.893 137.915L242.035 68.9517L242.224 0.0353546H186.835H131.494V55.3766Z" fill="#161724"/>
</svg>
