<svg width="24" height="20" viewBox="0 0 24 20" fill="none" xmlns="http://www.w3.org/2000/svg">
<path d="M8.5541 0.0767384C4.4057 0.631966 0.952462 3.90464 0.185076 8.01693C0.00902808 8.94682 0 9.31697 0 14.6074V19.7715H4.94287H9.88574V14.8286V9.88574H6.58598H3.28171L3.3133 9.46594C3.49387 7.07801 4.84808 5.04669 6.9787 3.98138C7.76414 3.58866 8.58119 3.36296 9.42531 3.30879L9.88574 3.28171V1.6386V0L9.47045 0.00451279C9.24024 0.00902748 8.82946 0.0406265 8.5541 0.0767384Z" fill="white"/>
<path d="M21.8027 0.0677109C17.2977 0.690647 13.8174 4.23417 13.2712 8.75723C13.2441 8.99648 13.2261 11.1 13.2261 14.4539V19.7715H18.1689H23.1118V14.8286V9.88574H19.8075H16.5078L16.5349 9.4208C16.6251 7.85443 17.2932 6.39639 18.4578 5.23628C19.6225 4.07166 21.076 3.40358 22.6288 3.30879L23.1118 3.28171V1.6386V0L22.674 0.00451279C22.4302 0.00902748 22.0375 0.0361118 21.8027 0.0677109Z" fill="white"/>
</svg>
