<svg width="69" height="50" viewBox="0 0 69 50" fill="none" xmlns="http://www.w3.org/2000/svg">
<path d="M0 14.8242V29.6484H7.34473C11.3877 29.6484 14.6895 29.6754 14.6895 29.7158C14.6895 29.7563 12.5063 34.1496 9.83789 39.4863C7.16953 44.823 4.98633 49.2164 4.98633 49.2568C4.98633 49.2973 8.28809 49.3242 12.3311 49.3242H19.6758L24.5947 39.4863L29.5137 29.6484V14.8242V0H14.7568H0V14.8242Z" fill="#2F3253"/>
<path d="M39.4863 14.8242V29.6484H46.8311H54.1758L49.2568 39.4863L44.3379 49.3242H51.75H59.1621L64.0811 39.4863L69 29.6484V14.8242V0H54.2432H39.4863V14.8242Z" fill="#2F3253"/>
</svg>
