<svg width="140" height="20" viewBox="0 0 140 20" fill="none" xmlns="http://www.w3.org/2000/svg">
<path d="M10 0L12.9389 5.95492L19.5106 6.90983L14.7553 11.5451L15.8779 18.0902L10 15L4.12215 18.0902L5.24472 11.5451L0.489435 6.90983L7.06107 5.95492L10 0Z" fill="#FFD850"/>
<path d="M40 0L42.9389 5.95492L49.5106 6.90983L44.7553 11.5451L45.8779 18.0902L40 15L34.1221 18.0902L35.2447 11.5451L30.4894 6.90983L37.0611 5.95492L40 0Z" fill="#FFD850"/>
<path d="M70 0L72.9389 5.95492L79.5106 6.90983L74.7553 11.5451L75.8779 18.0902L70 15L64.1221 18.0902L65.2447 11.5451L60.4894 6.90983L67.0611 5.95492L70 0Z" fill="#FFD850"/>
<path d="M100 0L102.939 5.95492L109.511 6.90983L104.755 11.5451L105.878 18.0902L100 15L94.1221 18.0902L95.2447 11.5451L90.4894 6.90983L97.0611 5.95492L100 0Z" fill="#FFD850"/>
<path d="M130 0L132.939 5.95492L139.511 6.90983L134.755 11.5451L135.878 18.0902L130 15L124.122 18.0902L125.245 11.5451L120.489 6.90983L127.061 5.95492L130 0Z" fill="#FFD850"/>
</svg>
