<svg width="171" height="171" viewBox="0 0 171 171" fill="none" xmlns="http://www.w3.org/2000/svg">
<circle cx="85.5" cy="85.5" r="85" stroke="#444872"/>
<circle cx="85.5" cy="85.5" r="50" stroke="#444872"/>
<path d="M149.83 94.8268L148.644 94.7673L149.017 87.3313L150.055 87.3834L154.011 91.3133C154.498 91.7967 154.912 92.1721 155.253 92.4395C155.599 92.7124 155.91 92.9053 156.186 93.0183C156.467 93.1367 156.756 93.2033 157.052 93.2182C157.427 93.237 157.769 93.1759 158.079 93.035C158.393 92.8996 158.649 92.6882 158.846 92.4008C159.043 92.1135 159.152 91.7591 159.173 91.3378C159.198 90.8332 159.12 90.4069 158.94 90.0589C158.764 89.7163 158.506 89.453 158.166 89.2691C157.826 89.0851 157.429 88.9818 156.977 88.959L157.049 87.5155C157.689 87.5477 158.267 87.7175 158.784 88.025C159.3 88.3326 159.701 88.7699 159.985 89.3369C160.275 89.9042 160.399 90.591 160.359 91.3973C160.323 92.1152 160.165 92.7226 159.884 93.2196C159.609 93.7168 159.235 94.0892 158.764 94.3367C158.298 94.5897 157.76 94.7009 157.152 94.6703C156.819 94.6536 156.483 94.5794 156.146 94.4477C155.813 94.3215 155.483 94.1511 155.155 93.9364C154.826 93.727 154.505 93.484 154.19 93.2075C153.875 92.9361 153.566 92.6468 153.264 92.3396L150.116 89.1308L149.83 94.8268Z" fill="#AEB2D7"/>
<path d="M153.779 96.5831L154.249 95.4861L159.759 96.9186L158.864 102.685L157.543 102.48L158.251 97.9257L155.246 97.1114C155.333 97.3356 155.403 97.6127 155.457 97.9426C155.511 98.2777 155.505 98.6511 155.441 99.0629C155.361 99.5827 155.198 100.034 154.954 100.418C154.715 100.803 154.409 101.114 154.035 101.351C153.66 101.593 153.229 101.755 152.741 101.838C152.254 101.92 151.725 101.917 151.154 101.828C150.613 101.745 150.128 101.593 149.699 101.373C149.268 101.159 148.906 100.879 148.612 100.532C148.323 100.187 148.12 99.7763 148.004 99.2998C147.888 98.8284 147.876 98.2916 147.97 97.6894C148.04 97.2365 148.169 96.8164 148.355 96.429C148.546 96.0475 148.795 95.7172 149.102 95.4381C149.413 95.1649 149.777 94.9579 150.195 94.8171C150.616 94.6822 151.093 94.6298 151.626 94.6598L151.415 96.0186C150.984 96.0148 150.609 96.0832 150.293 96.2237C149.976 96.3643 149.719 96.5722 149.524 96.8475C149.332 97.1288 149.206 97.4702 149.143 97.8716C149.091 98.2113 149.103 98.5216 149.181 98.8024C149.258 99.0833 149.394 99.331 149.587 99.5455C149.78 99.7599 150.027 99.9379 150.326 100.079C150.625 100.226 150.97 100.329 151.361 100.39C151.716 100.445 152.053 100.448 152.372 100.397C152.691 100.346 152.979 100.241 153.236 100.08C153.492 99.925 153.703 99.718 153.87 99.4593C154.042 99.2013 154.155 98.8922 154.211 98.5319C154.286 98.0533 154.278 97.6805 154.187 97.4135C154.096 97.1516 153.96 96.8748 153.779 96.5831Z" fill="#AEB2D7"/>
<path d="M151.582 109.627L150.27 109.272L152.31 101.746L153.622 102.102L151.582 109.627ZM155.617 107.434L147.624 105.268L148.002 103.873L155.995 106.039L155.617 107.434Z" fill="#AEB2D7"/>
<path d="M154.336 117.059L147.91 117.267L151.791 122.397L151.055 123.942L146.311 117.336L142.474 115.507L143.123 114.146L146.959 115.975L155.079 115.5L154.336 117.059Z" fill="#AEB2D7"/>
<path d="M139.101 121.219C139.412 120.719 139.777 120.317 140.198 120.015C140.621 119.719 141.077 119.522 141.569 119.422C142.057 119.326 142.561 119.333 143.082 119.442C143.603 119.551 144.116 119.762 144.62 120.075L144.899 120.248C145.483 120.611 145.95 121.02 146.298 121.476C146.651 121.934 146.895 122.41 147.03 122.905C147.164 123.399 147.196 123.885 147.127 124.363C147.057 124.84 146.897 125.281 146.647 125.683C146.328 126.196 145.965 126.584 145.557 126.846C145.147 127.112 144.708 127.266 144.241 127.307C143.779 127.351 143.297 127.297 142.796 127.145C142.3 126.997 141.8 126.766 141.295 126.453L140.744 126.111L144.074 120.748L145.076 121.37L142.509 125.505L142.602 125.563C142.932 125.743 143.282 125.869 143.655 125.94C144.024 126.017 144.382 125.994 144.728 125.871C145.074 125.749 145.377 125.477 145.638 125.057C145.811 124.778 145.911 124.484 145.937 124.176C145.967 123.87 145.92 123.561 145.794 123.25C145.669 122.939 145.469 122.634 145.194 122.335C144.92 122.036 144.566 121.752 144.133 121.483L143.854 121.31C143.513 121.098 143.164 120.946 142.805 120.852C142.448 120.765 142.101 120.742 141.762 120.783C141.421 120.829 141.105 120.943 140.815 121.124C140.522 121.31 140.271 121.571 140.062 121.907C139.793 122.341 139.653 122.763 139.643 123.174C139.634 123.585 139.707 123.995 139.863 124.405L138.811 124.781C138.673 124.481 138.571 124.145 138.507 123.774C138.443 123.404 138.454 123.002 138.538 122.57C138.619 122.143 138.807 121.692 139.101 121.219Z" fill="#AEB2D7"/>
<path d="M135.733 128.669L139.176 131.331C139.439 131.535 139.709 131.658 139.986 131.7C140.263 131.75 140.537 131.712 140.806 131.584C141.076 131.457 141.33 131.239 141.569 130.93C141.792 130.641 141.939 130.35 142.009 130.055C142.075 129.764 142.076 129.495 142.011 129.247C141.943 129.003 141.816 128.81 141.63 128.666L142.514 127.523C142.753 127.708 142.942 127.952 143.082 128.258C143.221 128.563 143.296 128.904 143.307 129.281C143.32 129.666 143.255 130.064 143.115 130.476C142.976 130.894 142.75 131.306 142.438 131.71C142.062 132.196 141.648 132.561 141.196 132.804C140.742 133.052 140.266 133.152 139.77 133.104C139.275 133.063 138.778 132.85 138.279 132.465L135.164 130.056C134.941 129.884 134.69 129.72 134.41 129.563C134.127 129.409 133.864 129.302 133.623 129.24L133.524 129.164L134.446 127.971C134.622 128.015 134.833 128.105 135.076 128.241C135.324 128.38 135.543 128.523 135.733 128.669ZM138.491 131.118L137.678 130.509L138.572 129.353C138.823 129.027 139.021 128.716 139.165 128.419C139.313 128.126 139.402 127.852 139.433 127.6C139.464 127.347 139.436 127.115 139.35 126.903C139.267 126.695 139.123 126.511 138.917 126.351C138.707 126.189 138.478 126.088 138.232 126.049C137.986 126.01 137.738 126.046 137.488 126.156C137.24 126.273 137.007 126.472 136.791 126.752C136.52 127.102 136.355 127.468 136.296 127.851C136.238 128.233 136.255 128.586 136.348 128.908C136.438 129.234 136.579 129.482 136.772 129.65L135.844 129.713C135.693 129.551 135.562 129.324 135.451 129.034C135.339 128.744 135.27 128.417 135.242 128.053C135.215 127.696 135.25 127.322 135.349 126.931C135.448 126.547 135.638 126.173 135.918 125.811C136.269 125.357 136.665 125.028 137.106 124.823C137.545 124.622 137.985 124.542 138.429 124.582C138.873 124.629 139.28 124.796 139.651 125.082C140.01 125.359 140.271 125.673 140.434 126.024C140.602 126.377 140.675 126.756 140.652 127.16C140.634 127.567 140.529 127.992 140.337 128.436C140.145 128.881 139.872 129.331 139.518 129.789L138.491 131.118Z" fill="#AEB2D7"/>
<path d="M137.393 135.37L132.158 130.537L133.138 129.475L139.349 135.208L138.396 136.242L137.393 135.37ZM136.612 138.243L135.63 137.325C135.731 137.255 135.82 137.181 135.898 137.105C135.976 137.035 136.061 136.951 136.153 136.851C136.379 136.606 136.541 136.355 136.637 136.096C136.734 135.838 136.773 135.58 136.755 135.323C136.738 135.066 136.669 134.811 136.548 134.557C136.428 134.312 136.265 134.073 136.06 133.842L136.164 133.384C136.539 133.73 136.857 134.092 137.119 134.468C137.378 134.849 137.561 135.234 137.669 135.624C137.78 136.018 137.796 136.4 137.715 136.772C137.634 137.151 137.438 137.509 137.127 137.846C137.057 137.923 136.966 138.002 136.855 138.084C136.748 138.169 136.667 138.222 136.612 138.243Z" fill="#AEB2D7"/>
<path d="M128.196 137.5C128.336 137.654 128.5 137.765 128.689 137.833C128.877 137.908 129.124 137.905 129.43 137.823C129.736 137.749 130.132 137.565 130.618 137.271C131.031 137.029 131.424 136.83 131.797 136.674C132.165 136.522 132.512 136.428 132.839 136.392C133.161 136.359 133.462 136.392 133.741 136.49C134.02 136.588 134.277 136.766 134.512 137.024C134.736 137.271 134.894 137.553 134.986 137.87C135.074 138.192 135.095 138.528 135.049 138.88C134.999 139.235 134.876 139.591 134.678 139.946C134.481 140.302 134.207 140.639 133.856 140.958C133.355 141.414 132.847 141.714 132.331 141.86C131.816 142.005 131.328 142.015 130.87 141.89C130.415 141.769 130.024 141.529 129.698 141.171L130.767 140.198C130.925 140.372 131.129 140.492 131.381 140.559C131.631 140.634 131.904 140.636 132.199 140.565C132.49 140.497 132.776 140.336 133.057 140.08C133.353 139.81 133.552 139.545 133.653 139.284C133.753 139.031 133.783 138.796 133.742 138.58C133.696 138.368 133.604 138.185 133.463 138.031C133.358 137.915 133.244 137.829 133.122 137.771C132.999 137.721 132.85 137.705 132.676 137.722C132.505 137.744 132.296 137.808 132.048 137.914C131.799 138.02 131.499 138.174 131.146 138.375C130.529 138.725 129.981 138.97 129.502 139.11C129.024 139.249 128.597 139.275 128.221 139.188C127.846 139.1 127.505 138.888 127.2 138.553C126.952 138.28 126.782 137.977 126.69 137.644C126.595 137.315 126.58 136.97 126.645 136.608C126.71 136.253 126.849 135.895 127.061 135.532C127.273 135.177 127.562 134.833 127.928 134.501C128.479 133.999 129.035 133.673 129.595 133.523C130.155 133.373 130.675 133.364 131.156 133.497C131.636 133.631 132.034 133.871 132.35 134.217L131.275 135.195C130.993 134.916 130.696 134.76 130.384 134.727C130.076 134.698 129.777 134.748 129.487 134.878C129.2 135.012 128.947 135.179 128.728 135.379C128.435 135.645 128.225 135.906 128.099 136.162C127.968 136.421 127.913 136.666 127.931 136.895C127.95 137.125 128.038 137.326 128.196 137.5Z" fill="#AEB2D7"/>
<path d="M118.211 149.028L117.832 148.417C117.382 147.691 117.068 146.985 116.893 146.297C116.717 145.609 116.674 144.958 116.765 144.344C116.856 143.729 117.074 143.168 117.42 142.659C117.762 142.152 118.227 141.716 118.815 141.351C119.386 140.997 119.976 140.777 120.586 140.693C121.192 140.611 121.794 140.663 122.394 140.849C122.989 141.037 123.56 141.36 124.107 141.817C124.655 142.274 125.154 142.866 125.604 143.591L125.983 144.202C126.434 144.928 126.744 145.633 126.912 146.32C127.079 147.013 127.115 147.668 127.02 148.285C126.927 148.907 126.71 149.47 126.369 149.977C126.023 150.486 125.564 150.918 124.994 151.272C124.405 151.637 123.808 151.861 123.203 151.942C122.593 152.027 121.992 151.971 121.398 151.776C120.803 151.587 120.236 151.262 119.698 150.799C119.157 150.344 118.662 149.753 118.211 149.028ZM119.1 147.63L119.487 148.254C119.844 148.829 120.22 149.301 120.614 149.669C121.004 150.04 121.405 150.306 121.818 150.467C122.23 150.628 122.648 150.684 123.072 150.635C123.491 150.59 123.906 150.439 124.318 150.184C124.716 149.936 125.029 149.635 125.255 149.279C125.478 148.927 125.611 148.529 125.654 148.085C125.693 147.644 125.637 147.164 125.486 146.644C125.335 146.125 125.081 145.578 124.724 145.002L124.337 144.378C123.977 143.799 123.596 143.324 123.195 142.954C122.796 142.588 122.387 142.324 121.967 142.162C121.546 142.007 121.128 141.951 120.713 141.993C120.294 142.039 119.885 142.186 119.487 142.433C119.071 142.691 118.75 142.998 118.523 143.353C118.296 143.709 118.165 144.106 118.131 144.544C118.095 144.989 118.157 145.469 118.316 145.983C118.479 146.501 118.74 147.05 119.1 147.63Z" fill="#AEB2D7"/>
<path d="M112.637 144.89L113.937 144.258L118.02 152.662C118.287 153.211 118.412 153.72 118.398 154.19C118.381 154.668 118.231 155.093 117.95 155.467C117.671 155.846 117.274 156.161 116.758 156.411C116.608 156.484 116.454 156.548 116.295 156.602C116.131 156.658 115.968 156.703 115.804 156.736L115.359 155.641C115.469 155.616 115.589 155.578 115.72 155.526C115.846 155.476 115.971 155.422 116.092 155.362C116.369 155.228 116.58 155.056 116.727 154.846C116.872 154.642 116.944 154.41 116.945 154.149C116.945 153.888 116.871 153.603 116.72 153.294L112.637 144.89ZM114.715 153.278L114.23 152.28L118.348 150.28L118.833 151.278L114.715 153.278Z" fill="#AEB2D7"/>
<path d="M100.645 150.53L100.284 149.357L106.04 147.585L106.401 148.757L100.645 150.53ZM109.097 158.546L105.749 147.674L107.19 147.231L110.538 158.102L109.097 158.546ZM102.954 155.32L102.593 154.148L107.588 152.61L107.949 153.782L102.954 155.32ZM103.706 160.206L103.343 159.026L109.025 157.276L109.388 158.456L103.706 160.206Z" fill="#AEB2D7"/>
<path d="M101.117 157.716L98.7114 155.048L97.4592 158.428L95.7952 158.752L97.7125 154.128L94.0953 150.471L95.7364 150.151L98.2597 152.892L99.5706 149.405L101.219 149.084L99.2462 153.83L102.751 157.398L101.117 157.716Z" fill="#AEB2D7"/>
<path d="M93.9873 157.274L93.0559 147.239L94.5028 147.105L95.5844 158.758L94.2619 158.881L93.9873 157.274ZM88.0824 155.28L88.0673 155.117C88.0105 154.505 88.0304 153.93 88.127 153.393C88.224 152.861 88.3948 152.39 88.6392 151.98C88.8785 151.571 89.1905 151.241 89.5752 150.991C89.96 150.741 90.4143 150.592 90.9381 150.543C91.4723 150.494 91.9524 150.538 92.3784 150.676C92.8045 150.814 93.1758 151.039 93.4923 151.35C93.8088 151.66 94.0746 152.044 94.2895 152.5C94.4993 152.956 94.6627 153.477 94.7798 154.062L94.8607 154.934C94.8562 155.562 94.7912 156.13 94.6658 156.639C94.5404 157.147 94.3538 157.588 94.106 157.962C93.8535 158.341 93.5334 158.64 93.1458 158.859C92.7586 159.083 92.3005 159.22 91.7715 159.269C91.2425 159.318 90.7636 159.258 90.3346 159.089C89.9062 158.924 89.5343 158.666 89.2192 158.313C88.904 157.961 88.6518 157.526 88.4627 157.01C88.2689 156.5 88.1421 155.923 88.0824 155.28ZM89.5142 154.983L89.5293 155.146C89.5683 155.566 89.649 155.956 89.7713 156.316C89.8941 156.681 90.0619 156.995 90.2746 157.258C90.4826 157.527 90.7366 157.728 91.0368 157.862C91.3374 158.002 91.6848 158.053 92.079 158.017C92.442 157.983 92.7526 157.891 93.0107 157.742C93.2636 157.593 93.4736 157.403 93.6405 157.173C93.808 156.949 93.9388 156.696 94.0331 156.415C94.1226 156.14 94.1827 155.857 94.2132 155.567L94.0262 153.552C93.8888 153.198 93.7118 152.87 93.4953 152.565C93.2792 152.266 93.0065 152.033 92.677 151.865C92.3481 151.702 91.9476 151.642 91.4757 151.686C91.0867 151.722 90.7597 151.833 90.4946 152.02C90.2247 152.213 90.0123 152.46 89.8573 152.762C89.697 153.064 89.5899 153.404 89.536 153.78C89.4824 154.162 89.4752 154.563 89.5142 154.983Z" fill="#AEB2D7"/>
<path d="M84.1425 150.744C84.731 150.753 85.2633 150.86 85.7393 151.065C86.2101 151.276 86.6145 151.566 86.9526 151.936C87.2855 152.305 87.5392 152.742 87.7137 153.244C87.8883 153.747 87.971 154.295 87.9618 154.889L87.9567 155.217C87.9461 155.904 87.8351 156.515 87.6237 157.048C87.4123 157.587 87.1292 158.041 86.7745 158.41C86.4198 158.78 86.0196 159.057 85.574 159.243C85.1283 159.429 84.6686 159.518 84.1947 159.511C83.5906 159.502 83.0714 159.389 82.6372 159.174C82.1978 158.959 81.8403 158.662 81.5649 158.283C81.2894 157.909 81.0878 157.468 80.9602 156.961C80.8326 156.459 80.7733 155.911 80.7825 155.317L80.7925 154.669L87.1042 154.766L87.086 155.946L82.2194 155.871L82.2177 155.98C82.2328 156.355 82.3052 156.721 82.4352 157.077C82.5599 157.433 82.7637 157.728 83.0466 157.962C83.3295 158.195 83.7183 158.316 84.213 158.324C84.5411 158.329 84.8442 158.263 85.1224 158.127C85.4005 157.996 85.6406 157.796 85.8427 157.528C86.0448 157.261 86.2035 156.932 86.3189 156.543C86.4343 156.155 86.4959 155.705 86.5038 155.195L86.5089 154.867C86.515 154.466 86.4662 154.087 86.3623 153.731C86.2531 153.381 86.0938 153.071 85.8844 152.802C85.6698 152.533 85.41 152.321 85.1051 152.165C84.795 152.009 84.442 151.928 84.0462 151.922C83.5359 151.914 83.102 152.011 82.7447 152.214C82.3873 152.417 82.0732 152.691 81.8022 153.036L80.938 152.327C81.1246 152.054 81.3604 151.794 81.6454 151.549C81.9305 151.303 82.28 151.105 82.6938 150.956C83.1024 150.806 83.5853 150.735 84.1425 150.744Z" fill="#AEB2D7"/>
<path d="M78.3991 157.673L79.1394 150.586L80.5769 150.736L79.6986 159.144L78.3 158.998L78.3991 157.673ZM75.6299 158.766L75.7773 157.43C75.8937 157.468 76.0061 157.496 76.1143 157.512C76.2168 157.534 76.3354 157.551 76.4701 157.565C76.8017 157.6 77.0997 157.579 77.3644 157.502C77.629 157.424 77.8592 157.302 78.0548 157.134C78.2504 156.966 78.4135 156.758 78.5442 156.509C78.6691 156.266 78.7631 155.993 78.8261 155.691L79.2545 155.5C79.2015 156.007 79.1025 156.479 78.9575 156.914C78.8074 157.349 78.6083 157.726 78.3601 158.045C78.1115 158.37 77.814 158.612 77.4676 158.769C77.1155 158.931 76.7116 158.989 76.2557 158.941C76.1521 158.93 76.0343 158.905 75.9023 158.865C75.7698 158.83 75.679 158.797 75.6299 158.766Z" fill="#AEB2D7"/>
<path d="M73.2264 158.302L74.5872 149.959L76.0214 150.193L74.6606 158.536L73.2264 158.302ZM74.4076 160.766C74.3698 160.997 74.2686 161.181 74.1038 161.318C73.9339 161.454 73.7101 161.499 73.4325 161.454C73.1601 161.41 72.9649 161.296 72.847 161.113C72.7239 160.93 72.6812 160.722 72.7189 160.491C72.755 160.27 72.8605 160.092 73.0356 159.957C73.2047 159.826 73.4255 159.783 73.6979 159.827C73.9755 159.872 74.1737 159.984 74.2924 160.162C74.4052 160.344 74.4436 160.545 74.4076 160.766Z" fill="#AEB2D7"/>
<path d="M70.2737 148.878C70.8457 149.017 71.3411 149.239 71.7601 149.544C72.1728 149.853 72.5032 150.226 72.7513 150.661C72.9943 151.095 73.1455 151.577 73.2047 152.105C73.264 152.634 73.2236 153.187 73.0836 153.764L73.0062 154.083C72.8441 154.751 72.6011 155.322 72.2772 155.796C71.952 156.274 71.5757 156.654 71.1482 156.936C70.7206 157.219 70.269 157.401 69.7934 157.484C69.3177 157.567 68.8496 157.552 68.389 157.441C67.8018 157.298 67.3203 157.074 66.9442 156.769C66.5631 156.462 66.2801 156.093 66.0952 155.662C65.9091 155.236 65.8098 154.762 65.7973 154.239C65.7837 153.721 65.8468 153.174 65.9868 152.597L66.1397 151.967L72.2742 153.455L71.996 154.602L67.2661 153.454L67.2403 153.56C67.1721 153.93 67.1621 154.302 67.2102 154.679C67.2532 155.053 67.3869 155.386 67.6112 155.676C67.8356 155.967 68.1881 156.17 68.669 156.287C68.9879 156.364 69.298 156.367 69.5994 156.295C69.8996 156.229 70.1778 156.087 70.434 155.871C70.6902 155.654 70.9175 155.369 71.1159 155.015C71.3143 154.661 71.4737 154.237 71.594 153.741L71.6714 153.422C71.766 153.032 71.8019 152.652 71.7791 152.282C71.75 151.916 71.6631 151.579 71.5182 151.27C71.3682 150.96 71.1618 150.696 70.8987 150.477C70.6307 150.256 70.3043 150.099 69.9196 150.006C69.4236 149.886 68.9789 149.885 68.5856 150.004C68.1923 150.123 67.8255 150.321 67.4851 150.597L66.7987 149.715C67.0409 149.49 67.3282 149.289 67.6605 149.112C67.9927 148.936 68.3772 148.82 68.8139 148.765C69.2455 148.709 69.7322 148.747 70.2737 148.878Z" fill="#AEB2D7"/>
<path d="M63.7479 154.091L65.9898 147.832L67.3504 148.32L64.5 156.278L63.2129 155.817L63.7479 154.091ZM64.7802 152.229L65.3386 152.454C65.1388 152.996 64.8778 153.47 64.5558 153.875C64.2321 154.284 63.8666 154.61 63.4592 154.851C63.0519 155.092 62.6187 155.236 62.1597 155.282C61.6941 155.331 61.221 155.269 60.7405 155.097C60.3482 154.957 60.0145 154.776 59.7393 154.556C59.4624 154.341 59.2549 154.078 59.1167 153.769C58.9737 153.457 58.9093 153.097 58.9233 152.687C58.9356 152.282 59.0357 151.817 59.2236 151.293L61.0914 146.078L62.4594 146.568L60.5864 151.797C60.4371 152.214 60.3789 152.569 60.412 152.863C60.4432 153.162 60.5563 153.41 60.7513 153.607C60.9445 153.809 61.2127 153.972 61.5559 154.095C61.8943 154.216 62.2286 154.255 62.5591 154.213C62.8846 154.169 63.1926 154.058 63.4832 153.88C63.7689 153.701 64.0261 153.469 64.2548 153.186C64.4769 152.906 64.652 152.587 64.7802 152.229Z" fill="#AEB2D7"/>
<path d="M57.3822 145.423C57.0725 145.274 56.7557 145.199 56.4319 145.2C56.1081 145.2 55.8087 145.27 55.5336 145.409C55.2562 145.553 55.0369 145.762 54.8756 146.037L53.6367 145.441C53.877 145.002 54.2316 144.655 54.7007 144.401C55.1628 144.15 55.6767 144.012 56.2424 143.99C56.8059 143.972 57.3575 144.093 57.8972 144.353C58.4698 144.628 58.921 144.97 59.251 145.377C59.5762 145.782 59.7949 146.229 59.9071 146.716C60.0146 147.201 60.0292 147.705 59.9509 148.228C59.8657 148.754 59.6999 149.272 59.4537 149.784L59.3114 150.08C59.0653 150.591 58.7646 151.042 58.4094 151.431C58.0472 151.824 57.643 152.129 57.1967 152.348C56.7457 152.564 56.2605 152.672 55.741 152.67C55.2168 152.667 54.6684 152.527 54.0959 152.251C53.4998 151.964 53.0376 151.592 52.7092 151.133C52.3786 150.679 52.1871 150.182 52.1346 149.643C52.0753 149.106 52.1604 148.568 52.3899 148.032L53.6288 148.628C53.501 148.954 53.4535 149.28 53.4864 149.608C53.5146 149.934 53.624 150.235 53.8145 150.512C53.9981 150.791 54.2635 151.014 54.6108 151.181C55.0097 151.373 55.3837 151.455 55.7327 151.426C56.0747 151.4 56.3899 151.292 56.6782 151.101C56.9596 150.913 57.2134 150.674 57.4396 150.384C57.6589 150.096 57.8487 149.786 58.0091 149.453L58.1514 149.157C58.3118 148.824 58.437 148.48 58.5272 148.124C58.6173 147.769 58.6482 147.422 58.6198 147.085C58.5867 146.745 58.4748 146.431 58.2841 146.143C58.0865 145.857 57.7858 145.617 57.3822 145.423Z" fill="#AEB2D7"/>
<path d="M52.0401 141.083C52.5401 141.393 52.9415 141.759 53.2442 142.18C53.5397 142.603 53.7373 143.059 53.837 143.55C53.9323 144.039 53.9255 144.543 53.8166 145.064C53.7077 145.585 53.4967 146.098 53.1835 146.602L53.0104 146.881C52.6478 147.465 52.2387 147.932 51.7831 148.28C51.3248 148.633 50.8486 148.877 50.3543 149.012C49.86 149.146 49.374 149.178 48.8962 149.109C48.4185 149.039 47.9783 148.879 47.5756 148.629C47.0623 148.31 46.6748 147.947 46.413 147.539C46.1468 147.129 45.9931 146.69 45.952 146.223C45.9081 145.76 45.9619 145.279 46.1134 144.778C46.2621 144.282 46.493 143.782 46.8062 143.277L47.1483 142.726L52.5111 146.056L51.8888 147.058L47.7539 144.491L47.6962 144.584C47.5161 144.913 47.3901 145.264 47.3183 145.637C47.2421 146.006 47.2653 146.364 47.3878 146.71C47.5102 147.056 47.7817 147.359 48.202 147.62C48.4808 147.793 48.7745 147.893 49.0832 147.919C49.3891 147.949 49.6976 147.902 50.0086 147.776C50.3196 147.65 50.6246 147.451 50.9236 147.176C51.2226 146.902 51.5067 146.548 51.7759 146.115L51.949 145.836C52.1605 145.495 52.3133 145.146 52.4072 144.787C52.4939 144.43 52.5166 144.082 52.4753 143.744C52.4296 143.403 52.316 143.087 52.1346 142.797C51.9488 142.504 51.6878 142.253 51.3515 142.044C50.9178 141.775 50.4956 141.635 50.0849 141.625C49.6741 141.616 49.2638 141.689 48.8541 141.845L48.4775 140.793C48.778 140.655 49.1136 140.553 49.4844 140.489C49.8552 140.425 50.2566 140.435 50.6886 140.52C51.1162 140.601 51.5667 140.789 52.0401 141.083Z" fill="#AEB2D7"/>
<path d="M37.7159 144.882L46.2704 134.458L47.1702 135.197L38.6157 145.62L37.7159 144.882Z" fill="#AEB2D7"/>
<path d="M35.0869 142.571L44.1246 132.563L44.9885 133.344L35.9508 143.351L35.0869 142.571Z" fill="#AEB2D7"/>
<path d="M33.4818 125.805L34.4242 125.02L38.2793 129.649L37.3369 130.434L33.4818 125.805ZM29.3442 136.695L38.0843 129.415L39.0493 130.573L30.3092 137.853L29.3442 136.695ZM29.9519 129.783L30.8943 128.998L34.2394 133.014L33.2969 133.799L29.9519 129.783ZM25.7341 132.361L26.6825 131.571L30.4876 136.139L29.5392 136.929L25.7341 132.361Z" fill="#AEB2D7"/>
<path d="M27.0791 129.104L28.5991 125.85L24.9986 126.013L24.0521 124.606L29.0573 124.571L31.0172 119.816L31.9506 121.203L30.4095 124.594L34.1314 124.443L35.0692 125.837L29.9296 125.868L28.0081 130.485L27.0791 129.104Z" fill="#AEB2D7"/>
<path d="M24.7176 122.391L33.5955 117.621L34.2832 118.901L23.9738 124.44L23.3452 123.27L24.7176 122.391ZM24.2519 116.176L24.3964 116.098C24.9378 115.807 25.4747 115.601 26.0071 115.481C26.5349 115.363 27.0352 115.337 27.5078 115.402C27.978 115.463 28.4032 115.621 28.7836 115.878C29.164 116.135 29.4787 116.495 29.7276 116.959C29.9815 117.431 30.1279 117.89 30.1666 118.337C30.2053 118.783 30.1434 119.212 29.9807 119.625C29.8181 120.038 29.5687 120.432 29.2325 120.807C28.8939 121.179 28.4778 121.532 27.9844 121.868L27.2136 122.282C26.6334 122.523 26.0847 122.685 25.5675 122.768C25.0503 122.85 24.5715 122.851 24.1309 122.768C23.6834 122.683 23.2832 122.505 22.9303 122.233C22.5729 121.964 22.2684 121.596 22.017 121.128C21.7656 120.66 21.6342 120.195 21.623 119.734C21.6072 119.276 21.7002 118.832 21.9021 118.405C22.1039 117.977 22.4055 117.576 22.8069 117.2C23.2013 116.823 23.683 116.481 24.2519 116.176ZM25.0841 117.378L24.9396 117.456C24.568 117.655 24.2402 117.882 23.9564 118.135C23.668 118.39 23.4442 118.667 23.2852 118.965C23.1191 119.261 23.0328 119.574 23.0261 119.903C23.0149 120.234 23.1029 120.574 23.2903 120.923C23.4628 121.244 23.6683 121.494 23.9065 121.673C24.1424 121.848 24.3987 121.968 24.6756 122.032C24.9478 122.098 25.2316 122.12 25.5269 122.098C25.8151 122.073 26.0989 122.018 26.3784 121.933L28.1609 120.975C28.4327 120.711 28.6665 120.42 28.8622 120.102C29.0534 119.786 29.1622 119.444 29.1886 119.075C29.2105 118.709 29.1092 118.317 28.8849 117.899C28.7 117.555 28.4699 117.297 28.1946 117.126C27.9122 116.952 27.6017 116.853 27.2631 116.828C26.922 116.799 26.5676 116.832 26.2 116.929C25.8277 117.029 25.4558 117.178 25.0841 117.378Z" fill="#AEB2D7"/>
<path d="M16.4169 117.26L27.398 112.421L27.9839 113.75L17.0029 118.589L16.4169 117.26Z" fill="#AEB2D7"/>
<path d="M23.1543 113.258L22.9845 113.317C22.4085 113.516 21.8455 113.616 21.2954 113.619C20.7403 113.624 20.2263 113.531 19.7531 113.342C19.2751 113.154 18.8577 112.872 18.5011 112.493C18.1396 112.117 17.8627 111.65 17.6705 111.094C17.4766 110.533 17.4057 109.993 17.4577 109.473C17.503 108.951 17.6559 108.468 17.9162 108.025C18.17 107.58 18.5165 107.187 18.9559 106.848C19.3904 106.51 19.8956 106.242 20.4715 106.043L20.6414 105.984C21.2173 105.786 21.7804 105.685 22.3305 105.682C22.8806 105.679 23.3955 105.774 23.8753 105.967C24.3484 106.156 24.7658 106.439 25.1273 106.815C25.4822 107.188 25.7566 107.656 25.9505 108.217C26.1444 108.778 26.2178 109.318 26.1708 109.835C26.1188 110.355 25.9659 110.837 25.7122 111.283C25.4518 111.726 25.1044 112.116 24.67 112.453C24.2355 112.791 23.7303 113.059 23.1543 113.258ZM22.5125 111.951L22.6824 111.892C23.0811 111.754 23.4415 111.577 23.7637 111.361C24.0809 111.147 24.3425 110.899 24.5487 110.619C24.7531 110.333 24.8847 110.021 24.9436 109.681C24.9976 109.342 24.9591 108.984 24.8281 108.605C24.6988 108.231 24.5094 107.93 24.2599 107.702C24.0037 107.471 23.7079 107.308 23.3725 107.215C23.0372 107.121 22.6785 107.088 22.2967 107.115C21.9083 107.139 21.5146 107.22 21.1159 107.358L20.9461 107.417C20.5522 107.553 20.1976 107.73 19.8821 107.95C19.56 108.166 19.2967 108.416 19.0923 108.702C18.8812 108.984 18.7462 109.295 18.6874 109.635C18.6268 109.97 18.662 110.327 18.7929 110.706C18.9222 111.08 19.1149 111.383 19.3711 111.614C19.6256 111.84 19.9238 112.002 20.2658 112.099C20.6012 112.192 20.9623 112.224 21.349 112.195C21.7309 112.168 22.1187 112.087 22.5125 111.951Z" fill="#AEB2D7"/>
<path d="M17.2559 104.435L24.18 102.755L24.5208 104.159L16.306 106.152L15.9744 104.786L17.2559 104.435ZM15.297 102.193L16.6047 101.884C16.6076 102.006 16.6194 102.121 16.6402 102.229C16.6546 102.332 16.6778 102.45 16.7097 102.582C16.7883 102.906 16.9083 103.179 17.0698 103.403C17.2312 103.626 17.4239 103.802 17.6478 103.93C17.8718 104.058 18.1226 104.141 18.4002 104.181C18.6716 104.217 18.9602 104.214 19.2662 104.172L19.5898 104.512C19.0938 104.632 18.6165 104.697 18.1578 104.706C17.698 104.711 17.2759 104.65 16.8914 104.523C16.502 104.398 16.1749 104.199 15.9103 103.925C15.6393 103.648 15.4498 103.287 15.3417 102.841C15.3172 102.74 15.3016 102.62 15.295 102.483C15.2833 102.346 15.2839 102.25 15.297 102.193Z" fill="#AEB2D7"/>
<path d="M23.1775 96.7888C23.2655 97.3707 23.2476 97.9134 23.1236 98.4168C22.9936 98.9158 22.7742 99.3625 22.4651 99.7569C22.1553 100.146 21.7668 100.468 21.2997 100.723C20.8326 100.978 20.3055 101.15 19.7185 101.239L19.394 101.288C18.7143 101.391 18.094 101.382 17.5332 101.262C16.9672 101.142 16.4727 100.938 16.0498 100.649C15.6268 100.36 15.2869 100.011 15.0301 99.602C14.7733 99.1931 14.6095 98.7544 14.5386 98.2857C14.4482 97.6884 14.4732 97.1578 14.6138 96.6941C14.7535 96.2252 14.9877 95.8236 15.3164 95.4894C15.64 95.156 16.0414 94.8846 16.5206 94.6751C16.9948 94.4664 17.5253 94.3176 18.1124 94.2288L18.7535 94.1318L19.698 100.373L18.5316 100.55L17.8034 95.7373L17.6952 95.7537C17.3276 95.8304 16.9788 95.9622 16.6489 96.1491C16.3182 96.3308 16.061 96.5804 15.8772 96.8979C15.6935 97.2155 15.6387 97.6188 15.7127 98.1081C15.7618 98.4325 15.8765 98.7207 16.0569 98.9726C16.2321 99.2252 16.4683 99.4291 16.7657 99.5843C17.0631 99.7395 17.4131 99.8419 17.8157 99.8916C18.2183 99.9413 18.672 99.928 19.1766 99.8516L19.5011 99.8025C19.8976 99.7425 20.2628 99.6319 20.5966 99.4708C20.9245 99.3053 21.2037 99.0971 21.4344 98.8462C21.6643 98.5902 21.831 98.299 21.9343 97.9725C22.0369 97.6409 22.0586 97.2795 21.9994 96.8881C21.923 96.3834 21.7553 95.9716 21.4963 95.6526C21.2374 95.3336 20.9155 95.0688 20.5307 94.8584L21.0873 93.8892C21.3875 94.0282 21.6822 94.218 21.9715 94.4587C22.2608 94.6993 22.5134 95.0114 22.7295 95.3948C22.9448 95.7731 23.0941 96.2378 23.1775 96.7888Z" fill="#AEB2D7"/>
<path d="M16.5194 80.6199L17.2378 80.6449C18.0914 80.6745 18.8529 80.8078 19.5221 81.0448C20.1914 81.2817 20.7559 81.6088 21.2156 82.026C21.6754 82.4433 22.0204 82.9374 22.2507 83.5082C22.4812 84.0738 22.5844 84.7028 22.5604 85.3951C22.537 86.0666 22.3907 86.679 22.1213 87.2325C21.8521 87.7808 21.4735 88.2523 20.9856 88.6471C20.4978 89.0366 19.9117 89.3315 19.2272 89.5318C18.5428 89.7321 17.7737 89.8175 16.9201 89.7878L16.2017 89.7628C15.3481 89.7332 14.5893 89.5974 13.9254 89.3554C13.2566 89.1081 12.6923 88.7732 12.2328 88.3507C11.768 87.9281 11.4204 87.4339 11.1899 86.8683C10.9595 86.2974 10.8561 85.6763 10.8794 85.0048C10.9034 84.3125 11.0501 83.6923 11.3193 83.144C11.5887 82.5905 11.9698 82.1217 12.4626 81.7375C12.9503 81.348 13.5363 81.0583 14.2204 80.8684C14.8994 80.6731 15.6658 80.5903 16.5194 80.6199ZM17.1859 82.1362L16.452 82.1107C15.7753 82.0872 15.1743 82.1366 14.6489 82.2591C14.1237 82.3763 13.6795 82.5615 13.3163 82.8147C12.9531 83.0679 12.6737 83.3839 12.4782 83.7627C12.2828 84.1364 12.1767 84.5652 12.1599 85.0493C12.1436 85.5178 12.2199 85.9452 12.3889 86.3315C12.5581 86.7126 12.8149 87.0446 13.1595 87.3276C13.5042 87.6054 13.9343 87.8262 14.4497 87.99C14.9652 88.1538 15.5613 88.2475 16.2379 88.271L16.9719 88.2965C17.6538 88.3202 18.2601 88.2683 18.7909 88.1408C19.3165 88.0132 19.7635 87.8203 20.1321 87.5621C20.4956 87.2985 20.775 86.9825 20.9702 86.614C21.1656 86.2404 21.2714 85.8193 21.2877 85.3509C21.3047 84.8616 21.2287 84.4238 21.0597 84.0375C20.8908 83.6512 20.6338 83.3217 20.2889 83.0492C19.939 82.7712 19.5061 82.5555 18.9903 82.4021C18.4693 82.2485 17.8678 82.1599 17.1859 82.1362Z" fill="#AEB2D7"/>
<path d="M21.4688 75.7393L15.0457 74.7421L15.2687 73.3062L23.6217 74.603L23.4096 75.9695L21.4688 75.7393ZM19.7506 75.1958L19.8274 74.599C20.3833 74.6853 20.8888 74.8244 21.3439 75.0163C21.7946 75.2022 22.1725 75.4506 22.4773 75.7615C22.7822 76.0724 23.0001 76.4514 23.1309 76.8987C23.2566 77.3451 23.2731 77.8668 23.1805 78.4638C23.1173 78.8704 23.0002 79.2344 22.8291 79.5557C22.6588 79.8718 22.4314 80.1317 22.1468 80.3352C21.8622 80.5388 21.5113 80.6767 21.0943 80.749C20.678 80.8161 20.1919 80.8065 19.6361 80.7202L14.2475 79.8837L14.4693 78.4555L19.8733 79.2944C20.249 79.3528 20.5667 79.3599 20.8266 79.3159C21.082 79.266 21.293 79.1802 21.4595 79.0584C21.6216 78.9307 21.745 78.7812 21.8296 78.6099C21.9149 78.4334 21.9728 78.2474 22.0032 78.0518C22.0975 77.4445 22.0564 76.9453 21.8799 76.5542C21.6983 76.1623 21.4213 75.8584 21.049 75.6425C20.6723 75.4206 20.2395 75.2718 19.7506 75.1958Z" fill="#AEB2D7"/>
<path d="M17.2335 70.9332L24.1511 72.6396L23.805 74.0428L15.5978 72.0183L15.9346 70.653L17.2335 70.9332ZM16.5309 68.0401L17.8337 68.3695C17.7797 68.4796 17.7371 68.5871 17.7058 68.692C17.6708 68.7906 17.637 68.9057 17.6046 69.0372C17.5248 69.3608 17.5049 69.659 17.5449 69.9317C17.5849 70.2044 17.6747 70.4492 17.8143 70.6661C17.954 70.8829 18.1377 71.0731 18.3656 71.2366C18.5897 71.3938 18.8472 71.5243 19.138 71.6283L19.2683 72.0788C18.7727 71.9566 18.3194 71.7938 17.9082 71.5904C17.4983 71.382 17.152 71.133 16.8694 70.8433C16.5817 70.5524 16.3836 70.2246 16.2751 69.8599C16.1628 69.4889 16.1615 69.0808 16.2713 68.6359C16.2962 68.5347 16.3376 68.4215 16.3953 68.2963C16.4479 68.1698 16.4932 68.0844 16.5309 68.0401Z" fill="#AEB2D7"/>
<path d="M23.6938 62.6642L17.4 57.3266L17.8522 56.3307L20.4004 58.1828L26.9432 63.8223L26.4942 64.8111L23.6938 62.6642ZM15.5007 61.5094L23.3286 63.0905L26.8237 64.0855L26.3779 65.0672L14.8805 62.8751L15.5007 61.5094ZM26.1382 56.8843L19.7871 52.0698L20.4105 50.6969L29.6307 57.9039L29.1849 58.8855L26.1382 56.8843ZM17.92 56.1814L26.055 57.4643L29.5144 58.16L29.0654 59.1487L20.549 57.8556L17.4743 57.163L17.92 56.1814Z" fill="#AEB2D7"/>
<path d="M26.9006 54.3216L26.7497 54.2241C26.238 53.8932 25.8115 53.512 25.4703 53.0805C25.1247 52.6461 24.8806 52.1844 24.7379 51.6952C24.5909 51.2032 24.5564 50.7002 24.6345 50.1862C24.7081 49.6694 24.9047 49.1639 25.2243 48.6697C25.5467 48.1711 25.9284 47.7822 26.3695 47.503C26.809 47.2166 27.2833 47.0395 27.7923 46.9717C28.2998 46.8966 28.8224 46.9276 29.3603 47.0645C29.8938 47.1987 30.4165 47.4311 30.9282 47.762L31.0791 47.8596C31.5908 48.1905 32.0172 48.5717 32.3585 49.0032C32.6997 49.4347 32.9424 49.8987 33.0866 50.3951C33.2292 50.8843 33.2637 51.3872 33.19 51.904C33.1148 52.4136 32.916 52.9177 32.5936 53.4163C32.2712 53.9149 31.8917 54.3052 31.455 54.5872C31.014 54.8665 30.5397 55.0436 30.0322 55.1186C29.5232 55.1864 29.0019 55.1532 28.4684 55.0191C27.9349 54.885 27.4123 54.6525 26.9006 54.3216ZM27.5345 53.0104L27.6854 53.108C28.0396 53.337 28.4011 53.5118 28.7697 53.6324C29.134 53.7501 29.4901 53.8036 29.8381 53.7929C30.189 53.7779 30.5164 53.6888 30.8204 53.5256C31.12 53.3596 31.3787 53.1082 31.5964 52.7715C31.8114 52.4391 31.9316 52.1044 31.9573 51.7674C31.9813 51.4233 31.9268 51.0903 31.7937 50.7686C31.6607 50.4468 31.4657 50.144 31.2089 49.8601C30.9506 49.569 30.6443 49.3089 30.29 49.0798L30.1391 48.9823C29.7893 48.756 29.4308 48.5862 29.0637 48.4729C28.695 48.3524 28.3353 48.2997 27.9845 48.3147C27.6321 48.3225 27.3039 48.408 26.9999 48.5712C26.6987 48.73 26.4393 48.9778 26.2215 49.3145C26.0066 49.6469 25.8871 49.9852 25.863 50.3294C25.8417 50.6692 25.8984 51.0035 26.0331 51.3325C26.1661 51.6542 26.3633 51.9585 26.6244 52.2452C26.8812 52.5291 27.1846 52.7841 27.5345 53.0104Z" fill="#AEB2D7"/>
<path d="M30.0677 44.4131L35.6729 48.8118L34.7806 49.9488L28.1306 44.7302L28.9988 43.6239L30.0677 44.4131ZM30.6162 41.4869L31.6685 42.3226C31.5741 42.4008 31.4911 42.4813 31.4194 42.5641C31.3469 42.6396 31.2689 42.7307 31.1853 42.8372C30.9795 43.0994 30.8388 43.3631 30.7632 43.6282C30.6876 43.8932 30.6689 44.1533 30.7071 44.4084C30.7452 44.6634 30.8346 44.9123 30.9752 45.155C31.1148 45.3904 31.2959 45.6153 31.5184 45.8296L31.4519 46.2939C31.0504 45.9788 30.704 45.644 30.4127 45.2896C30.1246 44.9312 29.9113 44.5618 29.7727 44.1816C29.63 43.7982 29.5842 43.4179 29.6351 43.0408C29.6852 42.6564 29.8518 42.2839 30.1347 41.9234C30.199 41.8414 30.2832 41.7552 30.3873 41.6648C30.4873 41.5711 30.5636 41.5118 30.6162 41.4869Z" fill="#AEB2D7"/>
<path d="M29.5979 37.3562L38.3561 45.5595L37.3628 46.62L28.6046 38.4167L29.5979 37.3562ZM35.7168 36.0119L36.0755 41.4002L36.2279 44.3689L35.0245 43.4023L34.7452 41.1176L34.5098 37.3005L35.7168 36.0119ZM40.9837 42.7541L35.98 42.1993L35.5519 40.7707L42.148 41.5111L40.9837 42.7541Z" fill="#AEB2D7"/>
<path d="M44.1983 36.8562C44.0621 36.6986 43.9006 36.5834 43.7139 36.5108C43.5277 36.4307 43.2806 36.4275 42.9724 36.5011C42.6648 36.5673 42.2644 36.7412 41.7712 37.0229C41.3519 37.2545 40.9541 37.4434 40.5779 37.5896C40.2056 37.7323 39.856 37.8176 39.529 37.8455C39.206 37.87 38.9061 37.8297 38.6294 37.7246C38.3528 37.6196 38.1003 37.435 37.8721 37.171C37.6542 36.9188 37.5033 36.6327 37.4195 36.3127C37.3397 35.9894 37.3273 35.6524 37.3824 35.3019C37.4414 34.9481 37.5741 34.5958 37.7806 34.2453C37.987 33.8948 38.2696 33.5646 38.6281 33.2546C39.1404 32.8119 39.6562 32.5245 40.1754 32.3925C40.6946 32.2604 41.1818 32.2627 41.6371 32.3992C42.0891 32.5318 42.4734 32.7814 42.7901 33.1478L41.6966 34.0929C41.5433 33.9156 41.342 33.7901 41.0926 33.7166C40.8437 33.6357 40.571 33.6269 40.2747 33.6903C39.9823 33.7502 39.6923 33.9045 39.4046 34.1531C39.1012 34.4153 38.8958 34.6755 38.7884 34.9335C38.6815 35.1842 38.646 35.418 38.6819 35.6347C38.7218 35.8481 38.8098 36.0336 38.946 36.1913C39.0482 36.3095 39.1599 36.3988 39.281 36.4594C39.4027 36.5125 39.5508 36.5325 39.7253 36.5194C39.8964 36.5023 40.1074 36.4438 40.3584 36.344C40.6094 36.2441 40.9136 36.0982 41.271 35.9064C41.8972 35.5716 42.4513 35.3406 42.9333 35.2132C43.4152 35.0858 43.8428 35.0708 44.216 35.1681C44.5893 35.2655 44.924 35.4856 45.2203 35.8284C45.4621 36.1082 45.6244 36.4154 45.7071 36.7501C45.7938 37.0813 45.8 37.427 45.7257 37.7872C45.6521 38.14 45.5044 38.4948 45.2827 38.8516C45.0615 39.2011 44.7638 39.5376 44.3894 39.8611C43.8259 40.3481 43.2622 40.6597 42.6984 40.7959C42.1346 40.9321 41.6143 40.9275 41.1375 40.782C40.6606 40.6365 40.269 40.3864 39.9625 40.0317L41.0619 39.0816C41.3365 39.3674 41.6292 39.5309 41.9401 39.572C42.2476 39.6092 42.5479 39.5664 42.8412 39.4438C43.1311 39.3172 43.3883 39.1568 43.6129 38.9627C43.9124 38.7038 44.1286 38.4482 44.2614 38.1957C44.3982 37.9398 44.4602 37.6969 44.4474 37.467C44.4346 37.2371 44.3516 37.0335 44.1983 36.8562Z" fill="#AEB2D7"/>
<path d="M45.4026 24.747L52.766 36.0434L51.7908 36.6791L44.4274 25.3827L45.4026 24.747Z" fill="#AEB2D7"/>
<path d="M48.0751 23.1135L54.9336 34.7234L53.9313 35.3155L47.0729 23.7056L48.0751 23.1135Z" fill="#AEB2D7"/>
<path d="M59.5963 24.1567L56.9329 25.2598L56.4551 24.147L58.8731 23.1455C59.2725 22.9801 59.5934 22.7683 59.836 22.51C60.0785 22.2517 60.2298 21.9635 60.2897 21.6455C60.3525 21.3207 60.3112 20.9827 60.1657 20.6314C60.0062 20.2465 59.8021 19.9646 59.5533 19.7858C59.3073 19.6002 59.0098 19.5148 58.6608 19.5297C58.3146 19.5378 57.9106 19.6375 57.4486 19.8288L55.3987 20.6778L59.2791 30.0467L57.8861 30.6236L53.5333 20.1144L56.9763 18.6884C57.5152 18.4652 58.0193 18.3212 58.4886 18.2565C58.9559 18.187 59.3841 18.2069 59.7733 18.3163C60.1653 18.4189 60.5111 18.6139 60.8106 18.9014C61.11 19.1889 61.3614 19.5781 61.5647 20.0689C61.7441 20.502 61.7958 20.94 61.72 21.3829C61.6421 21.8211 61.4517 22.2325 61.1488 22.6173C60.8508 23.0001 60.4524 23.3314 59.9538 23.6112L59.5963 24.1567ZM61.5672 29.099L58.4202 30.4024L58.7376 28.9433L61.0979 27.9658C61.5405 27.7824 61.884 27.55 62.1282 27.2684C62.3772 26.9849 62.5257 26.6697 62.5737 26.3229C62.6197 25.9712 62.563 25.6029 62.4036 25.2179C62.2421 24.8282 62.0328 24.5202 61.7757 24.2941C61.5186 24.068 61.2089 23.9397 60.8468 23.9093C60.4847 23.8789 60.0679 23.9614 59.5963 24.1567L57.6114 24.9788L57.1624 23.8541L59.8764 22.73L60.3397 23.0116C60.8629 22.8457 61.351 22.8126 61.8039 22.9126C62.2548 23.0077 62.6494 23.205 62.9877 23.5046C63.3308 23.8022 63.5961 24.1772 63.7834 24.6295C64.0545 25.2839 64.1393 25.8971 64.0379 26.469C63.9394 27.0341 63.6791 27.5421 63.2571 27.9932C62.833 28.4394 62.2697 28.808 61.5672 29.099Z" fill="#AEB2D7"/>
<path d="M68.3967 26.9002C67.831 27.0627 67.2906 27.115 66.7754 27.0571C66.2638 26.9928 65.7924 26.8329 65.3614 26.5774C64.9353 26.3205 64.5656 25.9769 64.2523 25.5467C63.9391 25.1165 63.7004 24.6161 63.5365 24.0454L63.4459 23.73C63.256 23.0693 63.1846 22.453 63.2317 21.8814C63.2773 21.3047 63.416 20.7879 63.6479 20.3311C63.8797 19.8743 64.1817 19.4922 64.554 19.1847C64.9263 18.8773 65.3402 18.6581 65.7957 18.5272C66.3764 18.3603 66.9057 18.3166 67.3838 18.396C67.8668 18.474 68.2952 18.6544 68.6691 18.9371C69.0415 19.2149 69.3626 19.5778 69.6323 20.026C69.9005 20.4691 70.1166 20.976 70.2806 21.5467L70.4596 22.1699L64.3926 23.9132L64.0668 22.7794L68.7447 21.4353L68.7145 21.3301C68.591 20.9755 68.4152 20.6466 68.1872 20.3436C67.9643 20.0392 67.6835 19.8164 67.3449 19.6753C67.0063 19.5341 66.5992 19.5319 66.1237 19.6685C65.8083 19.7591 65.5374 19.9101 65.3109 20.1215C65.083 20.3279 64.9113 20.5886 64.7959 20.9035C64.6805 21.2185 64.6241 21.5788 64.6269 21.9844C64.6297 22.3901 64.7015 22.8382 64.8425 23.3287L64.9331 23.6441C65.0438 24.0295 65.2007 24.3774 65.4036 24.6876C65.6101 24.9913 65.8526 25.2413 66.1312 25.4377C66.4148 25.6325 66.7252 25.7601 67.0622 25.8204C67.4043 25.8793 67.7655 25.8541 68.146 25.7448C68.6365 25.6038 69.0232 25.3843 69.3061 25.0863C69.589 24.7882 69.8099 24.4348 69.9688 24.0261L71.0018 24.4527C70.9028 24.7684 70.7527 25.0852 70.5514 25.4031C70.3501 25.7211 70.0733 26.0119 69.721 26.2758C69.3737 26.5381 68.9323 26.7463 68.3967 26.9002Z" fill="#AEB2D7"/>
<path d="M76.0402 22.7913C76.0043 22.5861 75.9249 22.4043 75.802 22.246C75.6834 22.0817 75.473 21.952 75.1708 21.8568C74.8729 21.7556 74.44 21.6991 73.8722 21.6874C73.3934 21.6707 72.9551 21.6284 72.5573 21.5605C72.1645 21.4917 71.8207 21.3853 71.5259 21.2413C71.2362 21.0963 70.9996 20.9077 70.8162 20.6754C70.6328 20.4431 70.511 20.1551 70.4509 19.8114C70.3935 19.483 70.411 19.1601 70.5035 18.8425C70.6011 18.524 70.7636 18.2286 70.9909 17.9562C71.2233 17.6829 71.5181 17.4489 71.8754 17.2542C72.2326 17.0596 72.6446 16.9214 73.1115 16.8397C73.7784 16.7231 74.3686 16.7414 74.8818 16.8949C75.3951 17.0483 75.812 17.3006 76.1325 17.6516C76.4521 17.9976 76.6536 18.4091 76.7371 18.8862L75.3134 19.1353C75.273 18.9044 75.1647 18.6933 74.9885 18.5021C74.8165 18.3048 74.5871 18.1572 74.3004 18.0594C74.0187 17.9606 73.6906 17.9439 73.3161 18.0095C72.9211 18.0786 72.6112 18.1962 72.3865 18.3624C72.166 18.5226 72.0154 18.7049 71.9349 18.9094C71.8594 19.1129 71.8397 19.3173 71.8756 19.5225C71.9025 19.6764 71.9524 19.8104 72.0252 19.9246C72.1023 20.0327 72.2191 20.126 72.3755 20.2044C72.5311 20.2776 72.7422 20.3358 73.0089 20.3791C73.2755 20.4223 73.6114 20.4535 74.0166 20.4725C74.7259 20.507 75.32 20.5934 75.7989 20.7317C76.2778 20.87 76.6523 21.0768 76.9226 21.3521C77.1928 21.6274 77.3669 21.9882 77.445 22.4345C77.5087 22.7988 77.4901 23.1457 77.3892 23.4753C77.2933 23.804 77.121 24.1038 76.8723 24.3747C76.6279 24.6395 76.3189 24.8681 75.9454 25.0603C75.5761 25.2465 75.1477 25.3822 74.6604 25.4675C73.9267 25.5958 73.283 25.5736 72.7294 25.4008C72.1757 25.228 71.7317 24.9567 71.3973 24.5869C71.063 24.2171 70.8554 23.8013 70.7746 23.3396L72.206 23.0892C72.2948 23.4755 72.4619 23.7662 72.7075 23.9612C72.9522 24.151 73.2319 24.2686 73.5465 24.3141C73.8602 24.3543 74.1633 24.3489 74.4557 24.2978C74.8457 24.2296 75.1625 24.1213 75.4062 23.9729C75.655 23.8236 75.833 23.6471 75.9401 23.4433C76.0472 23.2395 76.0806 23.0222 76.0402 22.7913Z" fill="#AEB2D7"/>
<path d="M81.453 16.0008L81.547 17.1062L76.9931 17.4936L76.8991 16.3882L81.453 16.0008ZM78.2663 14.2098L79.7064 14.0873L80.4195 22.4711C80.4438 22.7565 80.5062 22.9681 80.6068 23.1059C80.7073 23.2437 80.8297 23.33 80.9738 23.3648C81.1179 23.3996 81.2704 23.4102 81.4312 23.3965C81.5506 23.3863 81.6743 23.3654 81.8022 23.3336C81.935 23.2961 82.0344 23.2668 82.1005 23.2455L82.2083 24.4203C82.0972 24.4663 81.9496 24.5128 81.7654 24.5599C81.5869 24.6116 81.3678 24.6485 81.1084 24.6706C80.7555 24.7006 80.4252 24.6582 80.1174 24.5432C79.8097 24.4282 79.5537 24.2148 79.3495 23.9029C79.15 23.5853 79.0264 23.1463 78.9787 22.5858L78.2663 14.2098Z" fill="#AEB2D7"/>
<path d="M89.347 24.4591L86.9784 24.2852L87.0838 23.0631L89.4368 23.2359C90.2471 23.2954 90.9348 23.1761 91.4998 22.8782C92.0652 22.575 92.5054 22.1269 92.8205 21.5338C93.1412 20.9359 93.3319 20.2239 93.3925 19.398L93.4435 18.7046C93.4911 18.0553 93.4555 17.473 93.3367 16.9577C93.2183 16.4372 93.0212 15.9919 92.7455 15.6218C92.4701 15.2464 92.121 14.9518 91.698 14.738C91.2802 14.5245 90.7908 14.3972 90.2298 14.356L87.6742 14.1684L87.7646 12.9373L90.3202 13.125C91.063 13.1795 91.7317 13.3539 92.3263 13.6483C92.9214 13.9374 93.4225 14.3319 93.8296 14.8319C94.2424 15.327 94.5441 15.9131 94.7346 16.5903C94.9254 17.2624 94.9908 18.0087 94.9305 18.8294L94.8807 19.5073C94.8205 20.328 94.6466 21.0594 94.3593 21.7016C94.0723 22.3385 93.6858 22.8716 93.2 23.3007C92.7193 23.7302 92.153 24.0463 91.501 24.2491C90.8545 24.4471 90.1365 24.5171 89.347 24.4591ZM88.6139 12.9997L87.7809 24.3441L86.2771 24.2337L87.1101 12.8893L88.6139 12.9997Z" fill="#AEB2D7"/>
<path d="M97.8986 16.9484L96.5378 25.2912L95.1036 25.0573L96.4644 16.7144L97.8986 16.9484ZM96.7174 14.4839C96.7552 14.2526 96.8564 14.0685 97.0212 13.9318C97.1911 13.796 97.4149 13.7507 97.6925 13.7959C97.9649 13.8404 98.1601 13.954 98.278 14.1368C98.4011 14.3205 98.4438 14.528 98.4061 14.7593C98.37 14.9803 98.2645 15.1584 98.0894 15.2934C97.9203 15.4242 97.6995 15.4673 97.4271 15.4229C97.1495 15.3776 96.9513 15.2661 96.8326 15.0884C96.7198 14.9064 96.6814 14.7049 96.7174 14.4839Z" fill="#AEB2D7"/>
<path d="M104.548 18.3975L105.823 18.707L103.872 26.7471C103.697 27.4709 103.4 28.0528 102.982 28.4928C102.565 28.9327 102.061 29.2205 101.471 29.3559C100.884 29.4977 100.249 29.4857 99.5661 29.3199C99.2827 29.2511 98.9597 29.1245 98.5971 28.94C98.2384 28.7619 97.9001 28.5217 97.5822 28.2195C97.2681 27.9235 97.03 27.5683 96.868 27.1538L97.8071 26.4974C98.0506 26.9959 98.3399 27.3716 98.6752 27.6245C99.0155 27.8785 99.3704 28.0504 99.7399 28.1401C100.185 28.2481 100.59 28.258 100.955 28.1695C101.319 28.0811 101.63 27.8939 101.887 27.6079C102.148 27.3282 102.336 26.9504 102.451 26.4746L103.98 20.1731L104.548 18.3975ZM97.8728 21.2235L97.9115 21.0641C98.0638 20.4365 98.2754 19.8849 98.5462 19.4093C98.8233 18.9298 99.1459 18.5392 99.5139 18.2372C99.887 17.9365 100.297 17.736 100.745 17.6356C101.194 17.5302 101.669 17.5382 102.17 17.6598C102.687 17.7851 103.115 17.9855 103.455 18.2611C103.802 18.5328 104.068 18.8733 104.253 19.2826C104.444 19.688 104.559 20.1502 104.6 20.6691C104.64 21.188 104.617 21.7585 104.53 22.3806L104.36 23.0791C104.159 23.6679 103.918 24.1831 103.64 24.6246C103.366 25.0674 103.052 25.4252 102.696 25.698C102.345 25.972 101.953 26.1528 101.519 26.2405C101.086 26.323 100.609 26.3011 100.088 26.1746C99.5972 26.0555 99.177 25.8436 98.8274 25.5391C98.483 25.2358 98.2145 24.8624 98.022 24.4191C97.8294 23.9758 97.7186 23.4826 97.6896 22.9396C97.6668 22.3928 97.7279 21.8208 97.8728 21.2235ZM99.3161 21.4049L99.2774 21.5643C99.1779 21.9743 99.1251 22.3688 99.1189 22.7478C99.1177 23.1281 99.17 23.4757 99.2758 23.7908C99.3866 24.1071 99.5597 24.3769 99.7949 24.6001C100.031 24.8183 100.339 24.9734 100.719 25.0655C101.185 25.1785 101.593 25.1731 101.945 25.0494C102.296 24.9257 102.6 24.7234 102.856 24.4425C103.117 24.1627 103.344 23.8453 103.537 23.4903L103.981 21.6606C103.993 21.3687 103.972 21.0796 103.918 20.7932C103.871 20.503 103.78 20.2345 103.647 19.9878C103.521 19.7373 103.34 19.5194 103.107 19.3341C102.873 19.1487 102.579 19.0131 102.225 18.9271C101.84 18.8338 101.489 18.8343 101.171 18.9287C100.86 19.0193 100.582 19.1823 100.337 19.4177C100.098 19.6493 99.8921 19.9368 99.7176 20.2804C99.5494 20.6201 99.4156 20.9949 99.3161 21.4049Z" fill="#AEB2D7"/>
<path d="M108.353 19.576L105.744 27.6163L104.362 27.1677L106.971 19.1274L108.353 19.576ZM107.559 16.961C107.631 16.738 107.759 16.5715 107.943 16.4613C108.132 16.3528 108.36 16.3419 108.627 16.4287C108.89 16.5139 109.065 16.6558 109.154 16.8544C109.248 17.0546 109.259 17.2662 109.187 17.4891C109.117 17.7021 108.986 17.8621 108.793 17.9691C108.606 18.0727 108.381 18.0819 108.118 17.9967C107.851 17.9098 107.672 17.7696 107.581 17.576C107.497 17.379 107.49 17.174 107.559 16.961Z" fill="#AEB2D7"/>
<path d="M113.659 21.5556L113.254 22.5883L108.999 20.9188L109.405 19.8861L113.659 21.5556ZM111.595 18.5385L112.941 19.0664L109.867 26.899C109.762 27.1656 109.724 27.383 109.754 27.5511C109.783 27.7192 109.854 27.8508 109.968 27.9458C110.082 28.0408 110.214 28.1178 110.364 28.1768C110.476 28.2205 110.596 28.2565 110.725 28.2847C110.86 28.3099 110.962 28.3276 111.031 28.3378L110.607 29.4388C110.487 29.4309 110.334 29.4072 110.148 29.3678C109.965 29.3352 109.753 29.2713 109.51 29.1761C109.181 29.0467 108.903 28.8624 108.678 28.623C108.453 28.3837 108.318 28.0789 108.273 27.7088C108.235 27.3357 108.319 26.8873 108.524 26.3637L111.595 18.5385Z" fill="#AEB2D7"/>
<path d="M115.676 30.2704L117.607 26.3706C117.755 26.0719 117.823 25.7828 117.81 25.5033C117.804 25.2215 117.712 24.961 117.534 24.7218C117.356 24.4826 117.092 24.2763 116.742 24.103C116.415 23.9413 116.101 23.8552 115.798 23.8447C115.5 23.8366 115.235 23.8889 115.005 24.0016C114.78 24.1166 114.615 24.2791 114.511 24.4892L113.216 23.8479C113.35 23.5772 113.553 23.3435 113.824 23.1468C114.096 22.95 114.416 22.809 114.784 22.7237C115.158 22.636 115.561 22.6205 115.992 22.677C116.43 22.7312 116.878 22.8715 117.336 23.0979C117.886 23.3706 118.326 23.7043 118.653 24.099C118.986 24.4959 119.177 24.9424 119.228 25.4383C119.286 25.9319 119.175 26.4611 118.895 27.0259L117.148 30.5546C117.024 30.8067 116.912 31.0855 116.813 31.391C116.719 31.6988 116.665 31.9774 116.652 32.2267L116.596 32.3387L115.245 31.6697C115.254 31.488 115.301 31.2642 115.386 30.9983C115.473 30.7278 115.57 30.4852 115.676 30.2704ZM117.533 27.0837L117.096 28.0008L115.787 27.3526C115.418 27.1701 115.074 27.0375 114.755 26.9549C114.438 26.8676 114.152 26.8338 113.898 26.8535C113.645 26.8731 113.423 26.9462 113.232 27.0727C113.044 27.1946 112.892 27.3722 112.776 27.6056C112.659 27.8436 112.605 28.0873 112.615 28.3365C112.625 28.5856 112.709 28.8217 112.866 29.0447C113.03 29.2654 113.271 29.4542 113.588 29.6114C113.985 29.8078 114.376 29.8971 114.763 29.8792C115.15 29.8614 115.492 29.775 115.789 29.6201C116.091 29.4675 116.306 29.2803 116.433 29.0586L116.678 29.9555C116.548 30.1354 116.352 30.3085 116.089 30.4749C115.827 30.6414 115.52 30.7742 115.169 30.8734C114.824 30.9703 114.451 31.009 114.048 30.9896C113.652 30.9679 113.248 30.8554 112.837 30.652C112.324 30.3978 111.923 30.0745 111.635 29.682C111.352 29.2918 111.186 28.8755 111.138 28.4331C111.096 27.9884 111.18 27.556 111.387 27.1359C111.589 26.7298 111.845 26.412 112.156 26.1825C112.469 25.9484 112.826 25.8026 113.227 25.7451C113.629 25.6829 114.067 25.7021 114.541 25.8028C115.014 25.9034 115.51 26.0819 116.028 26.3384L117.533 27.0837Z" fill="#AEB2D7"/>
<path d="M124.635 23.2305L118.494 33.5399L117.245 32.7962L123.387 22.4868L124.635 23.2305Z" fill="#AEB2D7"/>
<path d="M132.298 30.6547L122.831 36.3141L121.638 35.3421L132.184 29.2615L132.953 29.8881L132.298 30.6547ZM128.198 40.6859L131.82 30.2649L132.438 29.4687L133.207 30.0953L129.397 41.6629L128.198 40.6859ZM130.706 37.2977L129.926 38.2548L124.971 34.2186L125.751 33.2615L130.706 37.2977Z" fill="#AEB2D7"/>
<path d="M138.501 39.1059L139.415 40.0474L133.481 45.812C132.946 46.3309 132.385 46.6653 131.798 46.8151C131.21 46.965 130.63 46.94 130.058 46.7401C129.487 46.5476 128.956 46.1992 128.466 45.6949C128.263 45.4857 128.057 45.2064 127.848 44.8572C127.639 44.5153 127.481 44.1318 127.373 43.7066C127.265 43.2888 127.253 42.8614 127.337 42.4243L128.481 42.3691C128.421 42.9207 128.466 43.3929 128.615 43.7854C128.768 44.1818 128.976 44.5163 129.241 44.789C129.561 45.1178 129.898 45.3418 130.254 45.4612C130.609 45.5805 130.972 45.5877 131.342 45.4825C131.712 45.3848 132.072 45.1653 132.423 44.8242L137.074 40.3062L138.501 39.1059ZM131.346 37.9412L131.464 37.8269C131.927 37.3769 132.4 37.0228 132.883 36.7646C133.373 36.5065 133.854 36.3478 134.326 36.2883C134.802 36.2326 135.256 36.2816 135.689 36.4352C136.125 36.5852 136.523 36.8451 136.882 37.215C137.252 37.5961 137.508 37.9939 137.649 38.4085C137.798 38.8231 137.841 39.2529 137.779 39.6976C137.725 40.1425 137.577 40.5953 137.334 41.0558C137.092 41.5164 136.768 41.9868 136.364 42.4671L135.848 42.9679C135.363 43.3587 134.886 43.6666 134.415 43.8918C133.947 44.1208 133.49 44.2559 133.044 44.2973C132.601 44.3425 132.173 44.2865 131.759 44.1295C131.349 43.9688 130.957 43.6961 130.583 43.3113C130.231 42.9489 129.989 42.5457 129.855 42.1018C129.725 41.6616 129.697 41.2026 129.77 40.7249C129.843 40.2471 130.012 39.7708 130.277 39.2958C130.549 38.8209 130.906 38.3694 131.346 37.9412ZM132.471 38.8636L132.353 38.9779C132.051 39.2718 131.796 39.5775 131.589 39.895C131.385 40.2161 131.244 40.5382 131.166 40.8612C131.091 41.1879 131.094 41.5084 131.174 41.8226C131.258 42.1332 131.436 42.4287 131.708 42.7089C132.042 43.0526 132.391 43.2657 132.754 43.3484C133.117 43.431 133.482 43.4216 133.848 43.3201C134.218 43.2223 134.579 43.0747 134.932 42.8773L136.283 41.5654C136.448 41.3247 136.585 41.0689 136.692 40.7979C136.806 40.527 136.873 40.2517 136.891 39.972C136.918 39.6925 136.881 39.412 136.782 39.1307C136.683 38.8493 136.507 38.5779 136.253 38.3163C135.977 38.0324 135.679 37.8458 135.36 37.7564C135.048 37.6672 134.726 37.657 134.394 37.7258C134.069 37.7947 133.741 37.9281 133.41 38.1259C133.087 38.3237 132.774 38.5696 132.471 38.8636Z" fill="#AEB2D7"/>
<path d="M135.538 48.9685C135.175 48.5055 134.923 48.0244 134.783 47.5253C134.65 47.027 134.621 46.5301 134.695 46.0346C134.773 45.5432 134.953 45.0715 135.233 44.6194C135.514 44.1673 135.888 43.758 136.355 43.3914L136.613 43.1889C137.154 42.7644 137.698 42.4665 138.246 42.2951C138.797 42.1205 139.328 42.0547 139.839 42.0977C140.349 42.1408 140.817 42.2769 141.242 42.5062C141.667 42.7355 142.025 43.0366 142.318 43.4094C142.691 43.8847 142.931 44.3588 143.037 44.8316C143.146 45.3085 143.14 45.7733 143.019 46.226C142.902 46.6756 142.686 47.1096 142.372 47.528C142.062 47.9432 141.674 48.3341 141.207 48.7006L140.697 49.101L136.8 44.135L137.728 43.4067L140.733 47.2357L140.819 47.1681C141.101 46.9202 141.339 46.6337 141.534 46.3085C141.733 45.9875 141.833 45.6435 141.837 45.2767C141.84 44.9098 141.689 44.5318 141.384 44.1426C141.181 43.8844 140.939 43.6902 140.658 43.5598C140.381 43.4263 140.075 43.3653 139.74 43.3768C139.405 43.3883 139.05 43.4716 138.675 43.6267C138.3 43.7818 137.912 44.0169 137.51 44.332L137.252 44.5346C136.937 44.7822 136.673 45.0583 136.462 45.363C136.259 45.6686 136.118 45.9873 136.041 46.3193C135.967 46.6554 135.966 46.9909 136.036 47.3259C136.111 47.665 136.27 47.9902 136.514 48.3016C136.829 48.7032 137.178 48.9789 137.561 49.1289C137.943 49.2789 138.354 49.3507 138.792 49.3442L138.785 50.4618C138.456 50.4888 138.106 50.4689 137.735 50.402C137.365 50.3351 136.992 50.188 136.615 49.9608C136.241 49.7376 135.882 49.4069 135.538 48.9685Z" fill="#AEB2D7"/>
<path d="M143.753 48.6775L138.131 52.2258L137.36 51.0036L144.508 46.492L145.238 47.6482L143.753 48.6775ZM141.793 49.5084L141.491 48.9872C141.983 48.683 142.48 48.4708 142.983 48.3504C143.491 48.2273 143.979 48.1961 144.449 48.257C144.918 48.3179 145.348 48.4717 145.738 48.7184C146.135 48.9668 146.469 49.3068 146.742 49.7384C146.964 50.0908 147.116 50.4385 147.197 50.7815C147.282 51.1218 147.284 51.4563 147.202 51.7852C147.123 52.1184 146.952 52.4422 146.688 52.7564C146.429 53.0678 146.064 53.3722 145.592 53.6696L140.908 56.6259L140.132 55.3971L144.83 52.4324C145.204 52.1962 145.469 51.9521 145.624 51.7002C145.784 51.4455 145.847 51.1805 145.815 50.9052C145.788 50.6271 145.676 50.3338 145.482 50.0255C145.29 49.7216 145.051 49.4844 144.765 49.314C144.481 49.1479 144.17 49.0455 143.832 49.0067C143.496 48.9723 143.151 48.9962 142.796 49.0783C142.449 49.1621 142.114 49.3055 141.793 49.5084Z" fill="#AEB2D7"/>
<path d="M143.525 59.577C143.676 59.8857 143.879 60.1399 144.134 60.3399C144.389 60.5398 144.667 60.6701 144.97 60.7306C145.277 60.7889 145.579 60.7597 145.875 60.6432L146.481 61.8777C146.02 62.0745 145.527 62.1278 145.002 62.0376C144.483 61.9498 143.994 61.7399 143.535 61.4079C143.082 61.0737 142.723 60.6377 142.459 60.0999C142.179 59.5294 142.035 58.9821 142.028 58.458C142.022 57.9385 142.126 57.4525 142.339 56.9999C142.555 56.552 142.855 56.1466 143.24 55.7839C143.631 55.4235 144.082 55.1183 144.592 54.8684L144.886 54.7239C145.396 54.4739 145.911 54.3055 146.431 54.2186C146.958 54.1341 147.465 54.1438 147.951 54.2477C148.439 54.3563 148.887 54.5717 149.295 54.8939C149.704 55.2208 150.049 55.6695 150.329 56.24C150.62 56.8339 150.753 57.4126 150.728 57.9761C150.707 58.5373 150.551 59.0462 150.258 59.5029C149.973 59.9619 149.574 60.3315 149.062 60.6118L148.457 59.3772C148.758 59.2002 148.998 58.9726 149.175 58.6944C149.354 58.4209 149.454 58.1166 149.475 57.7813C149.503 57.4484 149.432 57.109 149.263 56.7629C149.068 56.3655 148.824 56.0701 148.532 55.8769C148.247 55.686 147.932 55.5764 147.588 55.5482C147.25 55.5223 146.903 55.5534 146.546 55.6415C146.196 55.732 145.855 55.8587 145.523 56.0215L145.228 56.166C144.896 56.3288 144.585 56.5221 144.294 56.7458C144.004 56.9695 143.766 57.2228 143.579 57.5055C143.395 57.7929 143.289 58.1089 143.261 58.4534C143.24 58.8003 143.328 59.1749 143.525 59.577Z" fill="#AEB2D7"/>
<path d="M145.692 65.0118L153.615 64.5809L154.153 66.0313L143.825 66.246C143.603 66.2452 143.357 66.2254 143.087 66.1866C142.814 66.1546 142.54 66.0838 142.266 65.9743C141.992 65.8649 141.743 65.7018 141.518 65.4852C141.29 65.2753 141.109 64.9897 140.975 64.6283C140.935 64.5209 140.899 64.3787 140.867 64.2018C140.835 64.0249 140.816 63.8987 140.81 63.8231L141.906 63.4082C141.916 63.4491 141.933 63.5119 141.959 63.5967C141.982 63.6883 142 63.7511 142.013 63.7853C142.127 64.0929 142.265 64.3388 142.428 64.5229C142.586 64.7087 142.787 64.8396 143.032 64.9155C143.273 64.998 143.578 65.0323 143.945 65.0184L145.692 65.0118ZM152.197 60.7574L146.807 65.098L145.51 65.9795L144.65 65.19L151.648 59.2778L152.197 60.7574Z" fill="#AEB2D7"/>
<path d="M158.513 71.3408L145.373 74.3707L145.112 73.2364L158.252 70.2065L158.513 71.3408Z" fill="#AEB2D7"/>
<path d="M159.175 74.6685L145.91 77.0935L145.701 75.9484L158.965 73.5234L159.175 74.6685Z" fill="#AEB2D7"/>
</svg>
