<svg width="23" height="26" viewBox="0 0 23 26" fill="none" xmlns="http://www.w3.org/2000/svg">
<path d="M0.219776 1.88622C8.7427 -1.5299 18.85 0.462833 22.8383 1.88622C23.1661 4.49854 22.9203 7.55184 22.7564 8.75195C18.4129 5.98891 13.9056 5.0679 11.529 4.90044C9.15246 4.73299 7.02173 5.73773 7.10368 7.41229C7.16924 8.75195 8.82465 9.31014 9.64417 9.42178C17.1837 10.3432 20.3251 13.4339 20.9534 14.8641C19.4455 19.8208 14.0422 24.3533 11.529 26C7.79207 23.7226 4.7271 19.525 3.66173 17.7109C5.71051 18.6319 9.64417 19.4692 10.9554 19.5529C12.2666 19.6366 13.7417 19.1343 13.9876 17.2922C14.1843 15.8186 12.0481 15.0595 10.9554 14.8641C4.33373 13.4575 1.36709 11.2638 0.711483 10.3428C-0.271931 7.46253 -0.0260775 3.50497 0.219776 1.88622Z" fill="url(#paint0_linear_29_544)"/>
<defs>
<linearGradient id="paint0_linear_29_544" x1="2.45841" y1="-0.502371" x2="19.3818" y2="21.336" gradientUnits="userSpaceOnUse">
<stop stop-color="#E14294"/>
<stop offset="1" stop-color="#C149D3"/>
</linearGradient>
</defs>
</svg>
