<svg width="24" height="45" viewBox="0 0 24 45" fill="none" xmlns="http://www.w3.org/2000/svg">
<path d="M7.0449 5.09215L7.04492 5.09217L7.04866 5.08816C8.63524 3.3862 10.9649 2.5 14.122 2.5C17.2375 2.5 19.5004 3.38537 21.0041 5.07918L21.004 5.07927L21.012 5.08777C22.5643 6.7565 23.378 9.2044 23.378 12.5111V13.7431H18.0366V12.0931C18.0366 10.6177 17.7481 9.43355 17.0608 8.66003C16.3745 7.84748 15.3865 7.47222 14.1829 7.47222C12.9625 7.47222 11.9641 7.84045 11.2845 8.6514C10.619 9.44543 10.3293 10.5822 10.3293 11.9736C10.3293 13.5816 10.7628 15.0858 11.6236 16.477L11.6235 16.477L11.6295 16.4863C12.5229 17.8613 14.0911 19.4912 16.2976 21.3722L16.2978 21.3723C19.0825 23.7441 20.9605 25.867 21.975 27.7396C22.9856 29.605 23.5 31.8095 23.5 34.3694C23.5 37.7112 22.6481 40.1979 21.0163 41.9076L21.0163 41.9075L21.0123 41.9118C19.4269 43.6126 17.0779 44.5 13.878 44.5C10.7183 44.5 8.41166 43.6322 6.86786 41.9738C5.31279 40.2637 4.5 37.7934 4.5 34.4889V32.6H9.84146V34.9667C9.84146 36.38 10.1422 37.5334 10.8305 38.3376C11.5315 39.1567 12.5594 39.5278 13.8171 39.5278C15.047 39.5278 16.0568 39.1812 16.7495 38.4069C17.4801 37.596 17.7927 36.372 17.7927 34.8472C17.7927 33.0164 17.3671 31.3908 16.5001 29.9883C15.6448 28.5655 14.0926 26.9124 11.8866 25.0317C9.14248 22.66 7.26019 20.554 6.20301 18.7141C5.15179 16.8448 4.62195 14.7412 4.62195 12.3917C4.62195 9.17134 5.45256 6.76316 7.0449 5.09215Z" stroke="#444872"/>
<path d="M9.87805 43C6.62602 43 4.16667 42.1042 2.5 40.3125C0.833333 38.481 0 35.8731 0 32.4889V30.1H6.34146V32.9667C6.34146 35.6741 7.5 37.0278 9.81707 37.0278C10.9553 37.0278 11.8089 36.7093 12.378 36.0722C12.9878 35.3954 13.2927 34.3204 13.2927 32.8472C13.2927 31.0954 12.8862 29.5625 12.0732 28.2486C11.2602 26.8949 9.7561 25.2824 7.56098 23.4111C4.79675 21.0222 2.86585 18.8722 1.76829 16.9611C0.670732 15.0102 0.121951 12.8204 0.121951 10.3917C0.121951 7.08704 0.97561 4.53889 2.68293 2.74722C4.39024 0.915741 6.86992 0 10.122 0C13.3333 0 15.752 0.915741 17.378 2.74722C19.0447 4.53889 19.878 7.12685 19.878 10.5111V12.2431H13.5366V10.0931C13.5366 8.65972 13.252 7.62454 12.6829 6.9875C12.1138 6.31065 11.2805 5.97222 10.1829 5.97222C7.94715 5.97222 6.82927 7.30602 6.82927 9.97361C6.82927 11.4866 7.23577 12.9 8.04878 14.2139C8.90244 15.5278 10.4268 17.1204 12.622 18.9917C15.4268 21.3806 17.3577 23.5505 18.4146 25.5014C19.4715 27.4523 20 29.7417 20 32.3694C20 35.7935 19.126 38.4213 17.378 40.2528C15.6707 42.0843 13.1707 43 9.87805 43Z" fill="url(#paint0_linear_306_157)"/>
<defs>
<linearGradient id="paint0_linear_306_157" x1="-2.0576" y1="-1.49305" x2="18.3833" y2="45.7923" gradientUnits="userSpaceOnUse">
<stop stop-color="#F74866"/>
<stop offset="1" stop-color="#A576FA"/>
</linearGradient>
</defs>
</svg>
