<svg width="20" height="21" viewBox="0 0 20 21" fill="none" xmlns="http://www.w3.org/2000/svg">
<path d="M4.18359 0.0973196C3.9375 0.220366 3.78984 0.43775 3.72832 0.774077C3.52734 1.8774 2.72344 2.79615 1.59961 3.2063C1.41504 3.27603 1.09512 3.35806 0.885938 3.39498C0.680859 3.43189 0.463477 3.48521 0.401953 3.51392C0.241992 3.60005 0.0451172 3.84205 0.0164063 3.99791C0 4.07173 -0.00410156 5.18326 0.00410156 6.46705C0.0164063 8.33326 0.0287109 8.82545 0.0738281 8.91568C0.147656 9.05923 0.31582 9.12896 0.459375 9.07564C0.639844 9.00591 0.65625 8.92388 0.611133 8.32505C0.590625 8.02564 0.570117 6.96334 0.570117 5.96666C0.570117 3.92818 0.549609 4.05123 0.890039 4.00611C1.43555 3.93228 2.24355 3.62877 2.69473 3.32525C3.53145 2.75513 4.13027 1.8733 4.29844 0.962749C4.32305 0.839703 4.36406 0.708452 4.38867 0.679742C4.4584 0.593609 14.5646 0.593609 14.6344 0.67564C14.659 0.708452 14.7 0.831499 14.7205 0.954546C14.8969 1.8815 15.4875 2.75513 16.3283 3.32525C16.7795 3.62877 17.5875 3.93228 18.133 4.00611C18.4734 4.05123 18.4529 3.92408 18.4529 5.98716C18.4529 6.99615 18.4324 8.05025 18.4119 8.33326C18.375 8.80494 18.375 8.85416 18.4488 8.94849C18.5596 9.10025 18.8016 9.09205 18.9205 8.93619C19.0066 8.82134 19.0066 8.78443 19.0189 6.45474C19.0313 4.83462 19.0189 4.04302 18.9902 3.94048C18.9656 3.85435 18.8713 3.7231 18.7811 3.64517C18.617 3.49341 18.5514 3.4688 17.9813 3.36216C16.599 3.09556 15.5326 2.07017 15.2947 0.774077C15.2332 0.43775 15.0855 0.216265 14.8354 0.0932178L14.6549 0.0070858H9.50742H4.36406L4.18359 0.0973196Z" fill="white"/>
<path d="M5.38952 1.48378C5.13112 1.60683 5.06139 1.68476 4.8194 2.11542C4.50768 2.66913 4.24518 3.00546 3.82272 3.41562C3.39206 3.82987 2.90397 4.1621 2.32155 4.4369C1.82936 4.67069 1.6694 4.78964 1.54225 5.02753C1.45612 5.19159 1.45202 5.22851 1.45612 6.61073C1.45612 8.05858 1.48893 8.53847 1.64069 9.3998C2.1944 12.5539 3.92936 15.4086 6.57897 17.5373C7.56335 18.3289 9.0071 19.2148 9.39264 19.2682C9.65514 19.3051 9.84382 19.2394 10.4139 18.9113C14.171 16.7703 16.6934 13.3332 17.3825 9.3998C17.5342 8.54667 17.5671 8.05858 17.5671 6.61073C17.5712 5.30644 17.5671 5.18339 17.4932 5.05214C17.3579 4.79374 17.2102 4.6789 16.7344 4.45331C16.1151 4.1621 15.6393 3.83808 15.2005 3.41562C14.778 3.00546 14.5155 2.66913 14.2038 2.11542C13.9618 1.68476 13.8921 1.60683 13.6337 1.48378C13.4737 1.40585 13.326 1.40175 9.51159 1.40175C5.69714 1.40175 5.54948 1.40585 5.38952 1.48378ZM13.4081 2.02929C13.4696 2.058 13.5803 2.20565 13.6747 2.38612C14.2981 3.54276 15.1717 4.36718 16.4104 4.9619C16.7878 5.14237 16.9026 5.2162 16.9395 5.30644C17.0133 5.4828 16.9641 8.21854 16.878 8.82558C16.6401 10.4703 16.0536 12.115 15.1923 13.5465C14.2694 15.0723 12.879 16.5447 11.3327 17.6234C10.5657 18.1607 9.67975 18.6693 9.51159 18.6693C9.30241 18.6693 8.14577 17.9721 7.29264 17.3281C4.24929 15.0394 2.41589 11.8361 2.08776 8.23085C2.03034 7.59921 2.03444 5.41308 2.09186 5.28183C2.12468 5.2121 2.24362 5.13417 2.47331 5.03163C3.72839 4.46972 4.71686 3.56327 5.3485 2.38612C5.44284 2.20565 5.55358 2.058 5.61511 2.02929C5.76686 1.95136 13.2563 1.95136 13.4081 2.02929Z" fill="white"/>
<path d="M8.91714 3.18579C8.0312 3.37856 7.32163 3.93227 6.91147 4.74849C6.66128 5.25298 6.63257 5.42114 6.61206 6.49575L6.59155 7.47192H6.28393C6.11167 7.47192 5.89839 7.49653 5.80405 7.52114C5.58257 7.58677 5.27905 7.89028 5.21343 8.11177C5.1478 8.33325 5.1437 12.7465 5.20933 12.9803C5.26265 13.1731 5.49233 13.4356 5.71382 13.5545L5.88198 13.6448H9.51186H13.1417L13.3345 13.5504C13.4412 13.4971 13.5847 13.3905 13.6503 13.3125C13.8964 13.0377 13.9005 12.968 13.9005 10.5727C13.9005 9.23149 13.8841 8.32505 13.8554 8.2102C13.798 7.95591 13.6339 7.73442 13.4125 7.60317C13.2525 7.50884 13.1623 7.48833 12.8341 7.47192L12.4445 7.45142L12.424 6.42602C12.3994 5.42935 12.3953 5.39243 12.2845 5.09302C11.8375 3.89536 10.7341 3.11606 9.50366 3.12837C9.31499 3.12837 9.05249 3.15708 8.91714 3.18579ZM10.3117 3.86255C10.8326 4.04302 11.3248 4.47778 11.5791 4.97817C11.8005 5.42114 11.8498 5.72056 11.8498 6.65981V7.47192H9.53237H7.21499V6.6106C7.21499 6.13892 7.2355 5.65493 7.26011 5.53599C7.40776 4.81821 8.01069 4.12915 8.72026 3.86255C9.17554 3.69438 9.82768 3.69028 10.3117 3.86255ZM13.1869 8.18149L13.2853 8.29634V10.5522V12.8122L13.1664 12.9311L13.0474 13.05H9.51186H5.98042L5.88198 12.9475L5.77944 12.8491V10.5563V8.26353L5.87378 8.18149C5.923 8.13638 5.99272 8.08716 6.02554 8.07485C6.05835 8.06255 7.66206 8.05435 9.58569 8.05845L13.0884 8.06665L13.1869 8.18149Z" fill="white"/>
<path d="M9.24479 9.59652C9.04792 9.69085 8.96179 9.78109 8.87155 9.99437C8.75671 10.2692 8.87976 10.667 9.12175 10.7942C9.22429 10.8475 9.22429 10.8557 9.22429 11.3356C9.22429 11.7991 9.22839 11.8278 9.32683 11.9221C9.43757 12.0369 9.49909 12.0451 9.65085 11.9795C9.7944 11.9139 9.83952 11.7457 9.83952 11.2782C9.83952 10.8762 9.83952 10.868 9.96257 10.7655C10.1348 10.6219 10.2087 10.4619 10.2087 10.2364C10.2087 9.73187 9.69186 9.38734 9.24479 9.59652Z" fill="white"/>
<path d="M0.394658 10.1708C0.288018 10.2857 0.308525 10.4826 0.493096 11.1265C1.22317 13.7187 2.67103 16.0607 4.7054 17.9433C5.83333 18.9851 6.94485 19.7562 8.48704 20.5724C9.28274 20.9908 9.4386 21.0441 9.6929 20.9744C9.92669 20.9128 11.3294 20.1623 11.9857 19.7439C14.8486 17.9228 17.0429 15.2691 18.1585 12.2708C18.4046 11.6105 18.6999 10.5933 18.6999 10.4005C18.6999 10.1257 18.3964 9.99448 18.2159 10.1873C18.1708 10.2406 18.1052 10.4005 18.0683 10.5482C17.7976 11.7171 17.207 13.1527 16.5302 14.2847C15.3038 16.3396 13.4622 18.1648 11.3171 19.4568C10.7388 19.8054 9.60677 20.3919 9.51653 20.3919C9.46321 20.3919 9.12278 20.232 8.76185 20.0392C7.02689 19.1164 5.88665 18.2919 4.67259 17.0738C2.872 15.265 1.60872 13.0789 0.985283 10.6712C0.911455 10.38 0.837627 10.1831 0.79251 10.1503C0.685869 10.0724 0.472588 10.0847 0.394658 10.1708Z" fill="white"/>
</svg>
