<svg width="18" height="18" viewBox="0 0 18 18" fill="none" xmlns="http://www.w3.org/2000/svg">
<path d="M8.97539 5.05557C4.03945 7.83291 0 10.1146 0 10.1251C0.00351563 10.1532 5.68477 12.245 5.72344 12.231C5.75508 12.2204 10.5996 7.68877 13.9359 4.55283C14.2629 4.24346 14.5195 4.01494 14.502 4.04307C14.4844 4.07119 12.9797 6.11025 11.1551 8.57119L7.83984 13.0431L7.84688 15.511L7.85742 17.979L9.43594 16.1368C10.3043 15.1208 11.025 14.2771 11.0391 14.263C11.0531 14.2489 11.9777 14.5759 13.0992 14.9907L15.1348 15.7431L15.1629 15.6517C15.1945 15.5427 17.9648 0.0247059 17.9543 0.0141602C17.9508 0.010643 13.9078 2.28174 8.97539 5.05557Z" fill="white"/>
</svg>
