<svg width="33" height="33" viewBox="0 0 33 33" fill="none" xmlns="http://www.w3.org/2000/svg">
<path d="M16.3236 1.0156C15.8219 1.15985 15.4582 1.33545 14.7746 1.76191C13.1942 2.74652 13.351 2.70262 11.4319 2.71517C10.0083 2.72144 9.8264 2.73398 9.45639 2.85941C8.69754 3.11027 8.09548 3.71233 7.54987 4.76593C6.74712 6.30244 6.47745 6.61601 5.52419 7.13654C4.226 7.83894 3.98768 7.98318 3.66157 8.27167C3.26019 8.62914 2.98425 9.04933 2.83374 9.51969C2.74594 9.80818 2.72085 10.128 2.71458 11.4325C2.70204 13.3515 2.74594 13.1948 1.75505 14.7877C1.52927 15.1515 1.2596 15.6594 1.15299 15.9166C0.98993 16.3242 0.964844 16.4622 0.964844 16.9827C0.964844 17.7478 1.10909 18.1241 1.8742 19.3784C2.73339 20.7832 2.70831 20.6766 2.71458 22.5329C2.72085 23.9628 2.73339 24.1384 2.85882 24.5085C3.12849 25.3112 3.6992 25.8631 4.95349 26.5216C6.45863 27.3055 6.65305 27.4999 7.41817 28.9549C8.10803 30.2719 8.64737 30.8363 9.45639 31.106C9.8264 31.2315 10.002 31.244 11.4319 31.2503C13.2945 31.2628 13.2381 31.244 14.5739 32.0781C15.0505 32.3791 15.6589 32.7052 15.916 32.8119C16.3236 32.9749 16.4616 33 16.9821 33C17.7472 33 18.1235 32.8558 19.3778 32.0906C20.7826 31.2315 20.676 31.2565 22.5324 31.2503C23.8368 31.244 24.1567 31.2189 24.4452 31.1311C24.9155 30.9806 25.3357 30.7046 25.6932 30.3033C25.9817 29.9772 26.1259 29.7388 26.8283 28.4407C27.3488 27.4874 27.6624 27.2177 29.1989 26.415C30.2525 25.8694 30.8295 25.2861 31.0992 24.5147C31.2309 24.1322 31.2434 23.9942 31.2497 22.5329C31.2622 20.6703 31.2434 20.7268 32.0775 19.391C32.3785 18.9143 32.7047 18.306 32.8113 18.0489C32.9743 17.6412 32.9994 17.5032 32.9994 16.9827C32.9994 16.2176 32.8552 15.8413 32.0901 14.587C31.2309 13.1822 31.2559 13.2888 31.2497 11.4325C31.2434 10.0026 31.2309 9.82699 31.1054 9.45698C30.8546 8.69813 30.2525 8.09607 29.1989 7.55046C27.468 6.64109 27.3237 6.49685 26.4144 4.76593C25.8688 3.71233 25.2667 3.11027 24.5079 2.85941C24.1379 2.73398 23.9623 2.72144 22.5324 2.71517C20.676 2.70889 20.7826 2.73398 19.3778 1.87479C18.8636 1.56122 18.249 1.2351 18.0106 1.14103C17.4776 0.940346 16.7752 0.890175 16.3236 1.0156ZM17.8288 2.08175C18.0295 2.16955 18.481 2.42668 18.8259 2.64618C20.3499 3.59944 20.5004 3.64334 22.4383 3.65588C23.3602 3.66216 24.0563 3.69351 24.1818 3.73741C24.7901 3.9381 25.1037 4.30184 25.7998 5.59376C26.59 7.07382 26.8847 7.36858 28.3335 8.14624C29.3432 8.68559 29.7257 8.95526 29.9703 9.28765C30.2713 9.70156 30.3027 9.92733 30.309 11.5579C30.3215 13.4582 30.3654 13.6149 31.3187 15.1389C31.9458 16.1361 32.065 16.4308 32.065 16.9827C32.065 17.5346 31.9458 17.8294 31.3187 18.8265C30.3654 20.3505 30.3215 20.5073 30.309 22.4075C30.309 23.411 30.2776 24.0005 30.2274 24.1761C30.0518 24.7719 29.6128 25.1481 28.2206 25.8819C26.8973 26.5843 26.6025 26.8916 25.7622 28.4281C25.0598 29.7138 24.7838 30.0273 24.1818 30.228C24.0563 30.2719 23.3602 30.3033 22.4383 30.3095C20.5004 30.3221 20.3499 30.366 18.8259 31.3193C17.8288 31.9464 17.534 32.0656 16.9821 32.0656C16.4302 32.0656 16.1355 31.9464 15.1383 31.3193C13.6144 30.366 13.4638 30.3221 11.526 30.3095C10.6041 30.3033 9.90793 30.2719 9.7825 30.228C9.17417 30.0273 8.88569 29.6949 8.19583 28.4156C7.34918 26.8665 7.08578 26.6031 5.59317 25.8004C4.16328 25.029 3.8309 24.7029 3.69292 23.9127C3.6553 23.7057 3.63021 22.9594 3.64275 22.2507C3.66157 20.5763 3.58631 20.3317 2.64559 18.8265C2.01845 17.8294 1.89929 17.5346 1.89929 16.9827C1.89929 16.4308 2.01845 16.1361 2.64559 15.1389C3.59885 13.6149 3.64275 13.4644 3.6553 11.5266C3.66157 10.6047 3.69292 9.90852 3.73682 9.78309C3.93751 9.17476 4.2699 8.88627 5.54927 8.19641C7.09832 7.34977 7.36172 7.08637 8.16447 5.59376C8.8606 4.30184 9.17417 3.9381 9.7825 3.73741C9.90793 3.69351 10.6041 3.66216 11.526 3.65588C13.4513 3.64334 13.6269 3.59317 15.0944 2.67127C16.1731 1.99395 16.5118 1.85598 17.0825 1.89361C17.3271 1.90615 17.603 1.97514 17.8288 2.08175Z" fill="white"/>
<path d="M15.2255 5.35545C10.1331 6.13311 6.09428 10.197 5.34798 15.2957C5.22255 16.1612 5.22255 17.8043 5.34798 18.6697C5.96885 22.8904 8.86626 26.4902 12.8612 27.9828C14.2472 28.5034 15.4325 28.7103 16.9815 28.7103C18.0539 28.7103 18.9696 28.6037 19.835 28.3905C23.1777 27.5438 26.0124 25.2485 27.5176 22.1567C27.9754 21.2222 28.2889 20.3191 28.4959 19.3408C28.7154 18.306 28.7718 16.4246 28.6213 15.3521C28.245 12.7683 27.1036 10.4918 25.2473 8.65423C23.416 6.83551 21.1583 5.70665 18.656 5.34917C17.8407 5.23002 16.0157 5.23629 15.2255 5.35545ZM19.1326 6.37769C23.4474 7.31841 26.6521 10.5231 27.5928 14.8504C27.7182 15.4337 27.7308 15.6845 27.7308 16.9827C27.7308 18.6258 27.6681 19.0899 27.2353 20.4069C26.188 23.6054 23.485 26.2707 20.2615 27.293C19.0636 27.6693 18.5745 27.732 16.9815 27.732C15.6833 27.732 15.4325 27.7194 14.8555 27.594C10.3777 26.6157 7.08517 23.204 6.31378 18.7513C6.15072 17.7666 6.15072 16.1988 6.31378 15.2142C6.69634 12.9941 7.6496 11.1126 9.19238 9.51342C10.8418 7.79504 12.8047 6.75398 15.1942 6.31498C16.0847 6.15192 18.2358 6.18328 19.1326 6.37769Z" fill="white"/>
<path d="M16.6567 10.3789C16.6002 10.4417 16.1048 11.2695 15.5466 12.2165C14.9822 13.1635 14.5056 13.9662 14.4742 13.9976C14.4428 14.0289 13.6903 13.7279 12.6492 13.2638C11.5642 12.7684 10.8054 12.4673 10.68 12.4673C10.4354 12.4673 10.2661 12.6367 10.2598 12.8812C10.2535 13.2074 11.8339 18.7576 11.9719 18.8956C12.091 19.021 12.1788 19.021 16.9828 19.021C21.7867 19.021 21.8745 19.021 21.9937 18.8956C22.1316 18.7513 23.6932 13.2262 23.6932 12.8812C23.6932 12.6241 23.5302 12.4673 23.273 12.4673C23.1602 12.4673 22.3449 12.7934 21.3352 13.2513C20.3756 13.684 19.5603 14.0289 19.5227 14.0101C19.4851 13.9976 18.9959 13.2011 18.4315 12.2416C17.8671 11.2758 17.3591 10.4417 17.3089 10.3789C17.2525 10.3162 17.127 10.2723 16.9828 10.2723C16.8385 10.2723 16.7131 10.3162 16.6567 10.3789ZM17.9611 13.2889C18.4691 14.1544 18.9332 14.9195 18.9896 14.9947C19.0524 15.07 19.1715 15.1202 19.2781 15.1202C19.3785 15.1202 20.1373 14.8191 20.9589 14.4491C21.7867 14.0854 22.4703 13.7906 22.4828 13.8094C22.4954 13.822 22.2445 14.7878 21.9184 15.9543L21.3289 18.0803H16.9828H12.6367L12.0471 15.9543C11.721 14.7878 11.4702 13.822 11.4827 13.8094C11.4953 13.7906 12.2039 14.0916 13.0569 14.4742C14.2422 15.0073 14.6435 15.1578 14.7627 15.1264C14.9508 15.0763 15.0261 14.9696 16.1361 13.0757C16.5751 12.3294 16.9577 11.7148 16.9828 11.7148C17.0079 11.7148 17.4469 12.4234 17.9611 13.2889Z" fill="white"/>
<path d="M11.9843 20.5574C11.8024 20.7205 11.7523 21.1093 11.7962 22.0375C11.8213 22.7273 11.8463 22.8465 11.9906 23.0973C12.0972 23.2729 12.2665 23.4423 12.4547 23.5489L12.7494 23.7245H16.9827H21.2159L21.4981 23.5677C21.6674 23.4674 21.843 23.298 21.9559 23.1162C22.1252 22.8465 22.1378 22.765 22.1691 22.0437C22.213 21.1093 22.1629 20.7267 21.981 20.5574C21.8556 20.432 21.749 20.432 16.9827 20.432C12.2164 20.432 12.1097 20.432 11.9843 20.5574ZM21.172 22.0124C21.1532 22.627 21.1469 22.6583 20.9964 22.7336C20.8772 22.7963 19.9616 22.8151 16.9827 22.8151C14.0037 22.8151 13.0881 22.7963 12.9689 22.7336C12.8184 22.6583 12.8121 22.627 12.7933 22.0124L12.7745 21.3727H16.9827H21.1908L21.172 22.0124Z" fill="white"/>
</svg>
