<svg width="65" height="91" viewBox="0 0 65 91" fill="none" xmlns="http://www.w3.org/2000/svg">
<path d="M4.91219 0.201347C3.06564 0.703323 1.34458 2.19132 0.484048 4.03788L0 5.05976V45.4868V85.9138L0.484048 86.9356C1.14737 88.3698 2.40231 89.6606 3.83653 90.3598L5.01976 90.9335L31.5528 90.9873C51.3988 91.0232 58.3368 90.9873 59.0718 90.8259C61.6893 90.2702 63.7151 88.2444 64.2709 85.6448C64.4143 84.9098 64.4501 76.1431 64.4143 51.636L64.3605 18.5952L55.0739 9.32655L45.8053 0.0400009L25.7621 0.00414276C10.3084 -0.0137863 5.55759 0.0220718 4.91219 0.201347ZM43.654 8.3226C43.654 11.3703 43.7436 14.3642 43.8333 14.9917C44.1918 17.1968 45.5902 19.0792 47.5622 19.9935L48.5841 20.4776L55.0919 20.5314L61.5817 20.5852V52.6937C61.5817 77.5774 61.5279 84.9636 61.3666 85.5373C61.0618 86.5412 59.8965 87.6707 58.8925 87.9396C58.2651 88.1189 52.1159 88.1547 31.7141 88.1189L5.36039 88.0651L4.60742 87.5631C4.19509 87.2942 3.63933 86.7384 3.37041 86.3261L2.86843 85.5731L2.81465 45.8812C2.79672 18.0753 2.83258 5.97407 2.976 5.47209C3.20906 4.59364 4.48193 3.26698 5.32453 3.016C5.68309 2.92636 13.3561 2.83672 24.794 2.83672L43.654 2.81879V8.3226ZM53.1019 11.2807C56.5799 14.7587 59.4304 17.6629 59.4304 17.7346C59.4304 17.9677 50.359 17.896 49.4805 17.6809C48.9964 17.5554 48.351 17.1789 47.867 16.7666C46.63 15.673 46.5224 15.1172 46.5224 9.59547C46.5224 7.04974 46.5762 4.97012 46.6479 4.97012C46.7376 4.97012 49.6418 7.82063 53.1019 11.2807Z" fill="white"/>
<path d="M23.8439 40.6284C18.6986 43.6044 15.7226 45.4151 15.5792 45.684C15.3999 46.0246 15.3461 48.1042 15.3282 55.3649C15.3282 63.9344 15.3461 64.6515 15.6509 64.9921C15.9198 65.3328 30.0469 73.5795 31.5707 74.3145C32.1444 74.5835 32.2341 74.5835 32.9512 74.2249C34.7619 73.3464 48.4407 65.3328 48.7276 65.0101C49.0144 64.6515 49.0323 63.9344 49.0323 55.3649C49.0144 48.0325 48.9785 46.0246 48.7813 45.684C48.5662 45.2896 46.4328 43.9988 35.8734 37.9392C33.991 36.8635 32.3416 35.9851 32.1803 35.9851C32.0189 35.9851 28.272 38.0826 23.8439 40.6284ZM38.455 42.7259C41.8075 44.6621 44.5504 46.2935 44.5504 46.3652C44.5504 46.5624 32.485 53.4646 32.1803 53.4467C31.7859 53.4467 19.7922 46.5086 19.8639 46.3294C19.9177 46.1501 31.8576 39.23 32.1444 39.23C32.2699 39.2121 35.1204 40.7897 38.455 42.7259ZM24.8299 52.6579C27.9314 54.4506 30.5309 55.9745 30.6206 56.0462C30.6923 56.1179 30.7281 59.4166 30.7102 63.3607L30.6564 70.5497L27.9673 68.99C26.4972 68.1474 23.6825 66.516 21.7463 65.3865L18.1967 63.3428V56.1179V48.8751L18.6986 49.144C18.9675 49.2874 21.7284 50.8651 24.8299 52.6579ZM46.1639 56.1358V63.3607L40.4987 66.6415C37.3793 68.4342 34.5467 70.0657 34.224 70.2629L33.6145 70.6214V63.3607V56.1L39.8533 52.4965C43.2775 50.5065 46.0922 48.893 46.128 48.893C46.146 48.893 46.1639 52.1559 46.1639 56.1358Z" fill="white"/>
</svg>
