<svg width="61" height="61" viewBox="0 0 61 61" fill="none" xmlns="http://www.w3.org/2000/svg">
<path d="M26.4519 7.23372C25.4486 7.80669 24.7324 8.60109 24.1154 9.77934C23.492 10.97 23.3173 11.7714 23.3836 13.0783C23.4576 14.6421 24.1175 16.0227 25.4322 17.3749C25.4659 17.4162 22.9331 18.2392 19.7962 19.22C15.5727 20.5405 14.0226 21.0563 13.7563 21.2329C13.3028 21.5406 12.8806 22.3468 12.886 22.8948C12.8925 23.2143 13.3516 24.7822 14.6721 29.0057C15.647 32.1237 16.4381 34.6872 16.4192 34.6931C16.4003 34.699 16.141 34.6659 15.8475 34.6229C14.4018 34.4111 12.8935 34.6959 11.7184 35.416C10.5528 36.1331 10.003 36.7302 9.37308 37.9333C8.94799 38.73 8.77974 39.1871 8.69302 39.8054C8.06935 43.8485 11.2104 47.3264 15.3065 47.1245C16.0807 47.0795 17.4791 46.6423 18.1411 46.2382C18.4263 46.0557 18.8869 45.7043 19.1608 45.4527L19.6704 44.9925L21.4488 50.6805C22.6127 54.4033 23.3033 56.4796 23.4433 56.6951C23.5621 56.8758 23.8544 57.1474 24.096 57.2897C24.9724 57.804 23.4837 58.2176 42.249 52.3194L59.068 47.0298L59.3567 46.6595C59.5108 46.4558 59.6992 46.0961 59.7694 45.8563L59.8963 45.4329L57.8332 38.7345C56.3957 34.0704 55.7115 31.9817 55.604 31.8701C55.5149 31.7839 55.3253 31.7083 55.1782 31.7025C54.8593 31.6777 54.6715 31.8401 54.2996 32.475C54.1573 32.7166 53.7735 33.1477 53.4611 33.4425C51.2309 35.4985 47.5829 35.0106 45.9839 32.4508C45.5858 31.8077 45.2638 30.7778 45.2336 30.0509C45.1311 27.8322 46.5659 25.7863 48.6635 25.1305C49.8351 24.7641 50.8892 24.8183 52.1295 25.3018C52.925 25.6236 53.1854 25.594 53.3874 25.1782L53.5273 24.8959L51.4594 18.282C49.5274 12.1026 49.3667 11.655 49.0968 11.3556C48.7288 10.9417 48.052 10.6347 47.5506 10.6566C47.2937 10.6643 45.1466 11.2942 41.4711 12.4433L35.7831 14.2217L35.871 13.5408C36.0084 12.5539 35.9357 11.7573 35.6344 10.7935C35.3065 9.74472 34.9178 9.09871 34.098 8.23484C33.0266 7.09698 31.3274 6.37319 29.6869 6.36751C28.8105 6.3511 27.2243 6.78479 26.4519 7.23372ZM29.5046 7.74177C30.4128 7.72747 31.108 7.89391 31.9141 8.31605C33.1544 8.96549 33.8862 9.8465 34.3145 11.2165C34.6897 12.4165 34.6338 13.5645 34.1373 14.6636C33.8332 15.3499 33.9006 15.7645 34.3294 15.9416C34.5875 16.0372 34.9306 15.9403 41.1099 14.0083C47.4971 12.0114 47.6199 11.973 47.868 12.1029C48.116 12.2328 48.1544 12.3556 49.9062 17.9586C50.8899 21.1049 51.6621 23.6743 51.6184 23.6672C50.4355 23.4666 49.2042 23.5093 48.316 23.787C44.8514 24.8806 42.9923 28.6876 44.2789 32.04C44.849 33.5317 45.8301 34.6459 47.2192 35.3733C48.6703 36.1331 50.0824 36.3036 51.6461 35.8977C52.8449 35.5851 53.5311 35.2254 54.3335 34.5077L54.9134 33.9738L56.7036 39.6996C58.3283 44.8963 58.4808 45.4502 58.3892 45.6551C58.2977 45.8601 57.6487 46.0733 41.6713 51.0687C25.1836 56.2236 25.0608 56.262 24.8128 56.1321C24.5647 56.0022 24.5263 55.8794 22.5293 49.4922C20.5974 43.3129 20.4816 42.9757 20.256 42.818C19.8662 42.5665 19.487 42.7473 19.0991 43.3975C17.8032 45.5556 14.9887 46.3733 12.7054 45.2409C11.4799 44.6387 10.6347 43.6272 10.2123 42.2761C9.39694 39.6683 10.8127 36.9645 13.43 36.1463C14.5921 35.7829 15.615 35.8365 16.8676 36.3265C17.2686 36.4812 17.6738 36.5827 17.7777 36.5502C17.8722 36.5207 18.0287 36.3576 18.1101 36.187L18.2755 35.8863L16.246 29.3952L14.2136 22.8946L14.3535 22.6123L14.484 22.333L20.994 20.2976L27.504 18.2622L27.6569 17.9551C27.7508 17.7909 27.7957 17.5695 27.7661 17.475C27.7366 17.3805 27.4224 17.1053 27.0668 16.8639C25.8608 16.0585 25.214 15.1509 24.876 13.8045C24.4021 11.8575 25.1707 9.77093 26.7982 8.63978C27.4707 8.1702 28.7215 7.75841 29.5046 7.74177Z" fill="white"/>
</svg>
