<svg width="34" height="31" viewBox="0 0 34 31" fill="none" xmlns="http://www.w3.org/2000/svg">
<path d="M2.98828 0.215551C1.55391 0.521019 0.325391 1.7761 0.0730469 3.19055C0.0199219 3.46282 0 7.22805 0 15.1437C0 24.8058 0.0199219 26.7781 0.0929688 27.1433C0.332031 28.2456 1.12227 29.2484 2.13828 29.7198C2.44375 29.8659 2.86875 30.012 3.08125 30.0519C3.63906 30.1515 30.3609 30.1515 30.9188 30.0519C32.3531 29.7929 33.6016 28.5777 33.907 27.1433C33.9801 26.7781 34 24.8058 34 15.1437C34 7.22805 33.9801 3.46282 33.927 3.19055C33.7344 2.12805 32.9109 1.02571 31.9348 0.547583C30.9852 0.0827389 31.9746 0.109301 16.9668 0.115942C5.61133 0.115942 3.34688 0.135864 2.98828 0.215551ZM30.6797 1.30461C31.543 1.47063 32.2469 2.01516 32.6254 2.81868L32.8379 3.2636L32.8578 5.6343L32.8777 8.01164H17H1.12227L1.14219 5.6343L1.16211 3.2636L1.37461 2.81868C1.73984 2.04172 2.45703 1.47063 3.26719 1.31125C3.68555 1.22493 30.248 1.22493 30.6797 1.30461ZM32.8711 17.8929C32.8711 27.555 32.891 27.0636 32.4527 27.7542C32.1605 28.2058 31.8152 28.5046 31.2773 28.757L30.8457 28.9628H17H3.1543L2.72266 28.757C2.18477 28.5046 1.83945 28.2058 1.54727 27.7542C1.10898 27.0636 1.12891 27.555 1.12891 17.8929V9.14055H17H32.8711V17.8929Z" fill="white"/>
<path d="M3.79331 2.905C2.67768 3.1175 2.0601 4.35266 2.55151 5.3886C3.07612 6.49758 4.5437 6.73664 5.40034 5.85344C5.67924 5.56789 5.91167 5.00344 5.91167 4.62493C5.91167 4.19328 5.67924 3.67532 5.34057 3.36321C4.88237 2.93821 4.38432 2.79211 3.79331 2.905ZM4.60346 4.23313C4.79604 4.43899 4.82924 4.65149 4.70971 4.91711C4.6101 5.13625 4.23823 5.30891 3.99253 5.25578C3.42807 5.12961 3.32846 4.33938 3.84643 4.08039C4.13862 3.9343 4.3644 3.98078 4.60346 4.23313Z" fill="white"/>
<path d="M8.89844 3.0378C8.24102 3.32999 7.83594 3.95421 7.83594 4.65811C7.84258 6.2253 9.72188 6.99561 10.8309 5.88663C11.9398 4.77764 11.1629 2.89835 9.5957 2.89835C9.33672 2.89835 9.09102 2.95147 8.89844 3.0378ZM10.0539 4.23311C10.293 4.51866 10.2863 4.83741 10.034 5.09639C9.88789 5.23585 9.775 5.28897 9.5957 5.28897C9.04453 5.28897 8.75234 4.59171 9.1375 4.19991C9.40313 3.94093 9.82148 3.95421 10.0539 4.23311Z" fill="white"/>
<path d="M14.4163 3.01121C14.2436 3.07097 13.9846 3.25027 13.812 3.42292C12.703 4.53191 13.4733 6.41121 15.0405 6.41785C16.0233 6.41785 16.8003 5.64089 16.8003 4.65808C16.8003 3.42957 15.585 2.59949 14.4163 3.01121ZM15.4788 4.2198C15.7378 4.48542 15.751 4.86394 15.4987 5.11628C15.1069 5.50144 14.4096 5.20925 14.4096 4.65808C14.4096 4.31941 14.7018 4.02722 15.0405 4.02722C15.2198 4.02722 15.3327 4.08035 15.4788 4.2198Z" fill="white"/>
<path d="M17.6311 12.5406C17.4717 12.6867 17.3854 13.0453 16.2963 18.2183C15.2405 23.232 15.1408 23.7633 15.2205 23.9293C15.4065 24.3144 15.8979 24.3609 16.1436 24.009C16.2233 23.9094 16.6549 21.9637 17.392 18.464C18.0162 15.5023 18.5276 13.032 18.5276 12.9722C18.5276 12.7797 18.3815 12.5406 18.2155 12.4676C17.9764 12.3613 17.8237 12.3812 17.6311 12.5406Z" fill="white"/>
<path d="M13.0825 14.7651C12.7173 15.0241 9.35712 17.9261 9.29735 18.0389C9.17118 18.2714 9.2243 18.4905 9.45009 18.7163C9.80868 19.0749 13.0161 21.7843 13.1954 21.8772C13.3946 21.9835 13.7798 21.8772 13.8794 21.6913C13.9989 21.4655 13.9524 21.1733 13.7665 20.9675C13.6602 20.8612 12.9364 20.2303 12.1528 19.5663C11.3692 18.8956 10.7184 18.3311 10.7052 18.3046C10.6985 18.278 11.3626 17.6803 12.186 16.9831C13.0095 16.2792 13.7466 15.6417 13.813 15.562C13.9989 15.3628 13.9856 15.0175 13.7798 14.8182C13.5872 14.6257 13.3149 14.6057 13.0825 14.7651Z" fill="white"/>
<path d="M20.2198 14.8182C20.0139 15.0175 20.0007 15.3628 20.1866 15.562C20.253 15.6417 20.9901 16.2792 21.8136 16.9831C22.637 17.6803 23.3011 18.278 23.2944 18.3046C23.2811 18.3311 22.6304 18.8956 21.8468 19.5663C21.0632 20.2303 20.3393 20.8612 20.2397 20.9675C20.0471 21.1733 20.0007 21.4655 20.1202 21.6913C20.2198 21.8772 20.605 21.9835 20.8042 21.8772C20.9835 21.7843 24.1909 19.0749 24.5495 18.7163C24.7753 18.4905 24.8284 18.2714 24.7022 18.0389C24.6425 17.9261 21.2823 15.0241 20.9171 14.7651C20.6846 14.6057 20.4124 14.6257 20.2198 14.8182Z" fill="white"/>
</svg>
