<svg width="114" height="91" viewBox="0 0 114 91" fill="none" xmlns="http://www.w3.org/2000/svg">
<path d="M65.3915 7.49191L45.4047 14.8434H31.7355C24.2233 14.8434 17.3772 14.9582 16.5272 15.0501C11.7028 15.6704 8.53248 19.3921 8.53248 24.4233V26.1003H6.97029C4.85674 26.1003 3.38645 26.6287 2.19183 27.8463C0.629647 29.3855 0.44586 30.3734 0.537754 36.4843C0.606674 41.2168 0.65262 41.6762 1.11209 42.5263C2.28373 44.7087 3.91483 45.6277 6.64866 45.6277H8.46356L8.57842 47.902C8.71626 50.6818 9.47438 52.4967 11.1974 54.2197C12.9204 55.9427 14.7353 56.7008 17.5151 56.8386L19.7894 56.9535V69.8416C19.7894 84.108 19.8124 84.3377 21.2367 86.727C22.1786 88.2891 23.4192 89.3689 25.303 90.2878C26.6814 90.9541 26.9801 91 29.2085 91C31.4369 91 31.7355 90.9541 33.1599 90.2649C35.7329 89.0473 37.5478 86.8648 38.26 84.108C38.5816 82.9593 38.6276 80.7539 38.6276 69.8186V56.8846H41.8208H45.0371L60.1536 62.4212C68.4699 65.4536 77.6593 68.8307 80.5539 69.8875C83.4715 70.9443 85.9526 71.8173 86.0905 71.8173C86.2283 71.8173 86.6189 71.6105 86.9635 71.3348L87.5608 70.8754V58.0333V45.2141L88.6175 44.8466C91.7879 43.7668 94.1771 41.1708 94.9122 38.0005C95.7622 34.3018 94.0852 30.1896 90.9149 28.122C90.1568 27.6166 89.077 27.1111 88.5486 26.9503L87.5608 26.6976V13.9244C87.5608 -0.250107 87.6067 0.11747 86.1134 0.163414C85.6999 0.163414 76.3957 3.47157 65.3915 7.49191ZM84.5742 35.864C84.5742 61.1117 84.5053 67.9118 84.2756 67.9118C84.1377 67.8888 82.9661 67.4983 81.7026 67.0158L79.4052 66.1428L79.3363 36.0937C79.3133 15.6015 79.3593 5.9527 79.5201 5.79189C79.7269 5.58512 83.908 3.90807 84.3904 3.83915C84.4823 3.81618 84.5742 18.2434 84.5742 35.864ZM76.2119 64.8563C76.166 64.9253 69.5497 62.559 61.509 59.6184L46.898 54.2656L46.9439 35.9099L47.0128 17.5313L50.344 16.3137C52.1818 15.6245 58.7522 13.2352 64.932 10.9609L76.189 6.84866L76.2579 35.818C76.2809 51.7386 76.2579 64.8104 76.2119 64.8563ZM43.6817 35.9789V53.8981L29.9666 53.8521L16.2285 53.7832L14.8961 53.1399C13.4947 52.4507 12.6907 51.5777 12.0704 50.0845C11.7258 49.2804 11.6798 47.7871 11.6798 35.864C11.6798 21.207 11.6339 21.7354 13.1271 20.0354C13.8853 19.1853 14.7812 18.611 15.8839 18.2664C16.2056 18.1745 22.5922 18.0826 30.0815 18.0826L43.6817 18.0596V35.9789ZM8.53248 36.0018V42.6871L6.7865 42.5952C5.1554 42.5263 4.99458 42.4573 4.3743 41.7681L3.70807 41.033V35.841V30.649L4.3743 29.9828C4.99458 29.3625 5.17837 29.3166 6.7865 29.3166H8.53248V36.0018ZM89.2378 30.718C93.1892 33.3139 92.9136 38.9424 88.7094 41.4695C88.2729 41.7222 87.8364 41.9519 87.7446 41.9519C87.6297 41.9519 87.5608 39.264 87.5608 35.9789C87.5608 31.1544 87.6297 30.0058 87.8594 30.0058C88.0432 30.0058 88.6405 30.3274 89.2378 30.718ZM35.4113 70.1632V83.4418L34.814 84.6364C34.1707 85.9229 33.3667 86.727 31.8734 87.5081C30.5409 88.2202 27.876 88.2202 26.5436 87.5081C25.0273 86.704 24.2233 85.8999 23.5341 84.4985L22.8908 83.1891L22.8219 70.0253L22.753 56.8846H29.0706H35.4113V70.1632Z" fill="white"/>
<path d="M100.725 21.3219C97.6461 24.4003 97.2096 24.9057 97.2096 25.5719C97.2096 26.0773 97.3704 26.4219 97.715 26.6517C98.8177 27.4328 99.1853 27.203 102.746 23.6192C106.491 19.8975 106.812 19.3691 105.848 18.4272C105.526 18.0826 105.044 17.8299 104.768 17.8299C104.4 17.8299 103.16 18.9326 100.725 21.3219Z" fill="white"/>
<path d="M101.804 34.8302C101.23 35.4046 101.207 36.4843 101.758 36.9668C102.126 37.3114 102.861 37.3573 107.157 37.3573C111.844 37.3573 112.165 37.3343 112.602 36.8978C113.199 36.3005 113.176 35.7262 112.579 34.9681L112.119 34.3708H107.18C102.562 34.3708 102.241 34.3937 101.804 34.8302Z" fill="white"/>
<path d="M97.3704 45.1223C97.1407 45.352 96.9799 45.8574 96.9799 46.225C96.9799 46.7993 97.5312 47.4655 100.495 50.4061C102.631 52.5197 104.193 53.8981 104.469 53.8981C105.319 53.8981 105.939 53.2548 105.939 52.3359C105.939 51.5778 105.687 51.2332 102.539 48.1088C99.6448 45.2141 99.0475 44.7087 98.4502 44.7087C98.0596 44.7087 97.5772 44.8925 97.3704 45.1223Z" fill="white"/>
</svg>
