<svg width="35" height="30" viewBox="0 0 35 30" fill="none" xmlns="http://www.w3.org/2000/svg">
<path d="M1.08543 0.180902C0.640704 0.38442 0.211055 0.859295 0.0904523 1.27387C0.0226131 1.48492 0 5.02764 0 15.0452V28.5302L0.180905 28.907C0.39196 29.3593 0.678392 29.6382 1.13065 29.8417C1.46985 29.9925 1.53769 30 17.4121 30H33.3543L33.7312 29.8191C34.1834 29.608 34.4623 29.3216 34.6658 28.8693C34.8166 28.5302 34.8241 28.4472 34.8241 15C34.8241 1.55276 34.8166 1.46985 34.6658 1.13065C34.4623 0.678391 34.1834 0.391958 33.7312 0.180902L33.3543 -1.90735e-06H17.4121H1.46985L1.08543 0.180902ZM33.2789 1.1608C33.7236 1.34924 33.7688 1.53769 33.7688 3.2412V4.74874H17.4121H1.05528V3.2412C1.05528 1.55276 1.1005 1.34924 1.53015 1.16834C1.8995 1.01005 32.8945 1.00251 33.2789 1.1608ZM33.7688 17.0729C33.7688 29.495 33.8065 28.6131 33.2789 28.8392C32.8945 28.9975 1.92965 28.9975 1.54523 28.8392C1.01759 28.6131 1.05528 29.495 1.05528 17.0729V5.87939H17.4121H33.7688V17.0729Z" fill="white"/>
<path d="M3.80578 2.25368C3.32337 2.45719 3.18769 3.11297 3.56457 3.43709C3.88116 3.70845 4.30327 3.68584 4.55201 3.38433C4.87613 2.99991 4.79322 2.5175 4.37111 2.2989C4.1299 2.17076 4.03191 2.16322 3.80578 2.25368Z" fill="white"/>
<path d="M6.74002 2.30648C6.2953 2.52508 6.20484 3.04518 6.55158 3.39945C6.71741 3.55774 6.84555 3.61804 7.04906 3.61804C7.38826 3.61804 7.76514 3.27885 7.76514 2.97734C7.76514 2.66829 7.56916 2.35925 7.30535 2.2688C7.00384 2.16327 7.02645 2.16327 6.74002 2.30648Z" fill="white"/>
<path d="M9.76041 2.29137C9.31569 2.48735 9.2177 3.05268 9.56443 3.39941C9.83579 3.66323 10.2127 3.69338 10.4991 3.46725C10.9137 3.14313 10.8006 2.44212 10.3182 2.26876C10.0242 2.17077 10.0393 2.17077 9.76041 2.29137Z" fill="white"/>
<path d="M17.2601 2.61553C17.0716 2.85673 17.1093 3.13563 17.3505 3.33161C17.4938 3.45975 17.946 3.46729 24.4586 3.46729C31.1068 3.46729 31.4234 3.45975 31.5892 3.33161C31.8003 3.15824 31.8154 2.78136 31.6194 2.56276C31.4837 2.41201 31.4008 2.41201 24.451 2.41201H17.4184L17.2601 2.61553Z" fill="white"/>
<path d="M3.24814 7.58288C3.08984 7.77886 3.08984 7.8467 3.08984 12.3316C3.08984 16.7412 3.09738 16.8919 3.23306 17.0276C3.31597 17.1105 3.49688 17.201 3.63256 17.2236C3.76824 17.2462 7.22803 17.2537 11.321 17.2462L18.7607 17.2236L18.9341 17.0502L19.1074 16.8769V12.2789V7.67333L18.9265 7.53012C18.7532 7.39444 18.5195 7.3869 11.0798 7.3869H3.39889L3.24814 7.58288ZM18.0145 12.2864V16.1306H11.0798H4.14512V12.3392C4.14512 10.2512 4.16773 8.51755 4.19788 8.49494C4.2205 8.46479 7.3411 8.44218 11.1326 8.44218H18.0145V12.2864Z" fill="white"/>
<path d="M21.3327 8.5176C21.1292 8.72111 21.1368 9.05277 21.3553 9.25629L21.5287 9.42212H26.4734H31.4257L31.5765 9.22614C31.78 8.96986 31.78 8.74373 31.584 8.53267L31.4257 8.36684H26.4584C21.5815 8.36684 21.4835 8.36684 21.3327 8.5176Z" fill="white"/>
<path d="M21.3383 11.9548C21.1423 12.2111 21.1348 12.4674 21.3308 12.6633C21.4815 12.8141 21.5795 12.8141 26.4564 12.8141C31.3333 12.8141 31.4313 12.8141 31.582 12.6633C31.7855 12.4598 31.7705 12.1658 31.5443 11.9473L31.3634 11.7588H26.4262H21.4891L21.3383 11.9548Z" fill="white"/>
<path d="M21.3692 15.3393C21.1431 15.5578 21.128 15.8217 21.324 16.0629L21.4672 16.2438H26.4572H31.4471L31.5903 16.0629C31.7863 15.8217 31.7712 15.5578 31.5451 15.3393L31.3642 15.1508H26.4572H21.5501L21.3692 15.3393Z" fill="white"/>
<path d="M3.27829 18.8065L3.08984 18.9874V23.0276V27.0678L3.27829 27.2487L3.45919 27.4371H8.74311H14.027L14.2079 27.2487L14.3964 27.0678V22.9974V18.9271L14.2004 18.7763C14.0044 18.618 13.9441 18.618 8.72803 18.618H3.45919L3.27829 18.8065ZM13.3411 23.0276V26.3065H8.74311H4.14512V23.0276V19.7487H8.74311H13.3411V23.0276Z" fill="white"/>
<path d="M16.2431 18.8065L16.0547 18.9874V23.0276V27.0678L16.2431 27.2487L16.424 27.4371H23.8939H31.3637L31.5446 27.2487L31.7331 27.0678V23.0276V18.9874L31.5446 18.8065L31.3637 18.618H23.8939H16.424L16.2431 18.8065ZM30.6778 23.0276V26.3065H23.8939H17.11V23.0276V19.7487H23.8939H30.6778V23.0276Z" fill="white"/>
</svg>
