<svg width="37" height="30" viewBox="0 0 37 30" fill="none" xmlns="http://www.w3.org/2000/svg">
<path fill-rule="evenodd" clip-rule="evenodd" d="M2.06167 0.119076C1.00777 0.512434 0.362064 1.20267 0.102299 2.21204C-0.00160761 2.61283 -0.00902949 3.82259 0.00581426 12.714L0.0280799 22.7706L0.302689 23.3347C0.636674 24.0101 1.06714 24.4257 1.75738 24.7523L2.25464 24.9898L7.09371 25.0269L11.9253 25.064L11.5765 25.9175L11.2203 26.771L9.89175 26.8081C8.45191 26.8452 8.31089 26.8824 7.92496 27.3054C7.61324 27.632 7.48706 27.9511 7.48706 28.3964C7.48706 28.8937 7.55386 29.0867 7.873 29.4429C7.90422 29.4791 7.93149 29.5129 7.95699 29.5446C7.9996 29.5975 8.03728 29.6442 8.08018 29.6856C8.408 30.0016 9.04056 30.0014 14.5068 29.9998L15.8367 29.9995L17.1665 29.9998C22.6328 30.0014 23.2654 30.0016 23.5932 29.6856C23.6361 29.6442 23.6737 29.5975 23.7164 29.5446L23.7164 29.5445C23.7419 29.5129 23.7692 29.4791 23.8003 29.4429C24.1121 29.0867 24.1863 28.8937 24.1863 28.4038C24.1863 27.914 24.1121 27.721 23.8078 27.3722C23.3847 26.8824 23.2586 26.8527 21.7816 26.8081L20.4605 26.771L20.1043 25.9175L19.7406 25.064L24.5871 25.0269L29.4261 24.9898L29.9902 24.7152C30.6656 24.3812 31.0812 23.9507 31.4078 23.2605L31.6453 22.7632L31.6675 17.0855C31.6824 13.9609 31.6675 11.3335 31.6453 11.2445C31.5562 10.8659 31.0886 10.7175 30.8437 10.9847C30.7324 11.1109 30.7175 11.5339 30.7175 15.5492V19.98H15.8367H0.955814L0.970658 11.1999C0.992924 3.09525 1.00035 2.40501 1.1191 2.16009C1.30464 1.75931 1.5941 1.44759 1.98745 1.21751L2.32886 1.01712L15.6511 0.994856C25.396 0.980013 29.055 0.994856 29.2777 1.06165C29.6414 1.15814 29.8714 1.06907 29.9753 0.787045C30.0644 0.556965 29.9457 0.282356 29.6859 0.156185C29.4039 0.00774765 2.46246 -0.0219402 2.06167 0.119076ZM30.7027 21.7761C30.6507 22.9191 30.3242 23.5054 29.53 23.8691L29.1961 24.0249H15.8367H2.4773L2.14331 23.8691C1.34917 23.5054 1.01519 22.9117 0.970658 21.7761L0.940971 21.0191H15.8367H30.7398L30.7027 21.7761ZM19.0132 25.8656C19.2062 26.3257 19.3621 26.7265 19.3621 26.7562C19.3621 26.7859 17.7738 26.8081 15.8367 26.8081C13.8996 26.8081 12.3113 26.7859 12.3113 26.7562C12.3113 26.7265 12.4671 26.3257 12.6601 25.8656L13.0089 25.0269H15.8367H18.6644L19.0132 25.8656ZM22.9171 27.8843C23.2808 28.0699 23.3402 28.5523 23.0359 28.8492L22.8578 29.0347H15.8367H8.81558L8.63746 28.8492C8.32574 28.5449 8.39996 28.0699 8.78589 27.862C8.8898 27.8027 10.9828 27.7804 15.8218 27.773C21.7222 27.773 22.739 27.7878 22.9171 27.8843ZM15.4435 22.1546C15.013 22.6147 15.5251 23.2827 16.0892 22.9933C16.4306 22.8151 16.49 22.496 16.2376 22.1768C16.0372 21.9245 15.6661 21.9097 15.4435 22.1546ZM32.5689 0.242035C32.6809 0.198996 32.7972 0.166967 32.9337 0.129347L32.9439 0.126549C33.5747 -0.0441532 34.3911 0.0226421 34.9849 0.297253C36.8329 1.16561 37.3599 3.5703 36.024 5.05467C35.8755 5.21795 33.6712 7.04374 31.1255 9.11444L26.5017 12.8699L26.4943 13.4117C26.472 14.8887 25.6259 16.1207 24.1415 16.848C23.0728 17.375 21.9521 17.6051 20.1708 17.657C18.9091 17.7015 18.8572 17.6941 18.7013 17.5383C18.4786 17.3156 18.5009 17.1672 18.8794 16.4398C19.2728 15.6531 19.5177 14.9109 19.6884 13.9906C19.963 12.484 20.5271 11.4301 21.4474 10.7027C21.9966 10.2648 22.5384 10.0867 23.3325 10.0793L23.9931 10.0719L27.8599 5.4035L28.0477 5.17655C31.4255 1.09537 31.9279 0.48835 32.5689 0.242035ZM35.5786 3.99335C36.0982 2.96913 35.6454 1.66288 34.5915 1.18788C33.9384 0.891003 33.0775 0.980064 32.506 1.40311C32.3427 1.52928 30.7693 3.3996 27.5482 7.31092L26.7615 8.26835L27.6075 9.11444C28.0677 9.58202 28.4759 9.96053 28.4982 9.96053C28.5279 9.96053 30.079 8.71366 31.9568 7.19217C35.1408 4.59452 35.3708 4.39413 35.5786 3.99335ZM26.1232 11.8902C26.1677 11.8902 27.4517 10.8734 27.6521 10.673C27.7263 10.6062 27.5779 10.4133 26.947 9.78983L26.1529 8.99569L25.5591 9.71561C25.2325 10.109 24.9357 10.4801 24.8986 10.5394C24.854 10.6137 25.0025 10.814 25.4552 11.2668C25.7966 11.6082 26.0935 11.8902 26.1232 11.8902ZM25.5368 12.7437L24.6908 11.9199C23.8892 11.1258 23.8372 11.0887 23.481 11.0515C22.7685 10.9699 22.249 11.2074 21.6329 11.8976C21.1579 12.4246 20.8908 13.0406 20.6607 14.1168C20.438 15.2004 20.3415 15.5418 20.0743 16.1875C19.9704 16.4473 19.8962 16.6848 19.9185 16.707C19.9927 16.7812 21.8408 16.5734 22.4642 16.4176C23.815 16.091 24.8169 15.4082 25.2622 14.5101C25.4404 14.1539 25.4775 13.9609 25.5072 13.4117L25.5368 12.7437ZM2.95898 3.1324C2.81797 3.27342 2.81055 3.37732 2.81055 5.94529V8.61717L3.01094 8.77303C3.20391 8.92146 3.24844 8.92888 6.50664 8.90662L9.80195 8.88435L9.94297 8.70623C10.0766 8.54295 10.084 8.37967 10.084 5.95271C10.084 3.45896 10.0766 3.3699 9.92813 3.17693L9.77969 2.98396H6.43984C3.20391 2.98396 3.1 2.99138 2.95898 3.1324ZM9.11914 5.9156V7.8824H6.44727H3.77539V5.9156V3.94881H6.44727H9.11914V5.9156ZM11.2867 5.99724C11.2645 3.4367 11.2719 3.37732 11.4203 3.18435L11.5762 2.98396H14.916C18.152 2.98396 18.2559 2.99138 18.3969 3.1324C18.5379 3.27342 18.5453 3.37732 18.5453 5.94529V8.61717L18.3449 8.77303C18.152 8.92146 18.1074 8.92888 14.8641 8.90662C11.8211 8.88435 11.5613 8.87693 11.4426 8.75076C11.3238 8.63201 11.309 8.40193 11.2867 5.99724ZM17.5805 7.8824V5.9156V3.94881H14.9457H12.311V5.9156V7.8824H14.9457H17.5805ZM2.95918 10.48C2.76621 10.6729 2.76621 10.955 2.95918 11.1479C3.1002 11.289 3.2041 11.2964 6.44004 11.2964C9.31231 11.2964 9.79473 11.2815 9.89121 11.1851C10.0842 10.9847 10.1064 10.7694 9.95059 10.5616L9.80957 10.3687L6.46231 10.3464C3.18926 10.3315 3.10762 10.3315 2.95918 10.48ZM11.2715 10.814C11.2715 10.762 11.3383 10.6358 11.4273 10.5245L11.5758 10.3315H14.9156C18.1516 10.3315 18.2555 10.339 18.3965 10.48C18.5746 10.6581 18.5895 10.9772 18.4188 11.1628C18.3074 11.289 18.0996 11.2964 14.9379 11.2964H11.5758L11.4273 11.1034C11.3383 10.9921 11.2715 10.8659 11.2715 10.814ZM2.9379 12.6917C2.75978 12.8847 2.78204 13.189 2.97501 13.3745C3.13087 13.5155 3.22735 13.5229 5.49103 13.5229C7.65079 13.5229 7.8586 13.5155 8.00704 13.3894C8.20743 13.2261 8.22228 12.9069 8.04415 12.7065C7.91798 12.5655 7.79923 12.5581 5.4836 12.5581C3.22735 12.5581 3.04923 12.5655 2.9379 12.6917ZM11.2715 13.0776C11.2715 12.9589 11.4273 12.6843 11.5238 12.6175C11.5684 12.5878 12.6965 12.5581 14.0324 12.5581C16.1979 12.5581 16.4312 12.5581 16.5354 12.6741C16.548 12.6881 16.5587 12.7038 16.5707 12.7214C16.7414 12.9663 16.7117 13.1964 16.4965 13.3671C16.3035 13.5155 16.2145 13.5229 13.9656 13.5229H11.6352L11.457 13.3374C11.3531 13.2409 11.2715 13.1222 11.2715 13.0776Z" fill="white"/>
</svg>
