<svg width="49" height="55" viewBox="0 0 49 55" fill="none" xmlns="http://www.w3.org/2000/svg">
<path d="M3.07508 0.124226C1.92469 0.489254 0.918099 1.37417 0.353966 2.5135L0 3.23249V27.5123V51.7922L0.353966 52.5112C0.807485 53.4293 1.57072 54.1925 2.48882 54.646L3.20782 55H16.7028H30.1977L30.9167 54.6571C32.3547 53.9823 33.2728 52.655 33.4719 50.9847C33.5383 50.498 33.5604 45.2438 33.5493 38.8724L33.5161 27.6008L33.2064 27.3354C32.8303 27.0146 32.587 27.0035 32.2109 27.3022L31.9122 27.5234L31.8901 39.3813L31.8569 51.2391L31.5472 51.8696C31.2375 52.5112 30.7729 52.9426 30.0539 53.2634C29.6778 53.4403 28.638 53.4514 16.7028 53.4514H3.76089L3.26312 53.2191C2.62156 52.9094 2.06849 52.3674 1.78089 51.7369L1.5486 51.2391V27.5123V3.78556L1.78089 3.2878C2.06849 2.6573 2.62156 2.11528 3.26312 1.80556L3.76089 1.57328H16.7028C29.5893 1.57328 29.6446 1.57328 30.1424 1.80556C30.784 2.10423 31.337 2.6573 31.6246 3.2878C31.8127 3.69707 31.8569 4.0621 31.8901 5.41159C31.9344 7.0155 31.9344 7.04868 32.2109 7.26991C32.7308 7.67919 33.2728 7.48008 33.4608 6.81639C33.5936 6.35181 33.5936 4.92489 33.4719 3.92936C33.2617 2.3697 32.2994 1.0202 30.9167 0.36758L30.1977 0.0246735L16.8687 0.00255203C6.06166 -0.00851059 3.45117 0.0136147 3.07508 0.124226Z" fill="white"/>
<path d="M29.0588 13.1657L17.3115 24.9129V28.707V32.49H21.1609H24.9992L36.7243 20.7649L48.4495 9.03975L44.6333 5.22356L40.8171 1.40736L29.0588 13.1657ZM35.231 19.9242L24.3355 30.8087L21.6587 30.8971L18.9707 30.9746V28.2756V25.5766L29.8884 14.659L40.8171 3.73026L43.4718 6.38501L46.1266 9.03975L35.231 19.9242Z" fill="white"/>
<path d="M9.8449 11.1969C9.69004 11.3407 9.56836 11.5951 9.56836 11.75C9.56836 11.9048 9.69004 12.1593 9.8449 12.3031L10.1104 12.5796H13.5505H16.9906L17.2561 12.3031C17.4109 12.1593 17.5326 11.9048 17.5326 11.75C17.5326 11.5951 17.4109 11.3407 17.2561 11.1969L16.9906 10.9204H13.5505H10.1104L9.8449 11.1969Z" fill="white"/>
<path d="M7.38969 36.6933C6.8698 36.9035 6.77025 37.5561 7.19059 37.9654L7.45606 38.2419H17.1238H26.7914L27.0237 37.9875C27.3224 37.6667 27.3335 37.2464 27.0569 36.9035L26.8468 36.638L17.2344 36.6159C11.8364 36.6049 7.52243 36.638 7.38969 36.6933Z" fill="white"/>
<path d="M7.18962 42.0582C7.03476 42.202 6.91309 42.4565 6.91309 42.6113C6.91309 42.7662 7.03476 43.0206 7.18962 43.1644L7.4551 43.4409H17.0896H26.7241L26.9896 43.1644C27.1444 43.0206 27.2661 42.7662 27.2661 42.6113C27.2661 42.4565 27.1444 42.202 26.9896 42.0582L26.7241 41.7817H17.0896H7.4551L7.18962 42.0582Z" fill="white"/>
<path d="M7.18962 47.257C7.03476 47.4008 6.91309 47.6552 6.91309 47.81C6.91309 47.9649 7.03476 48.2193 7.18962 48.3631L7.4551 48.6396H17.0896H26.7241L26.9896 48.3631C27.1444 48.2193 27.2661 47.9649 27.2661 47.81C27.2661 47.6552 27.1444 47.4008 26.9896 47.257L26.7241 46.9804H17.0896H7.4551L7.18962 47.257Z" fill="white"/>
</svg>
