<svg width="55" height="55" viewBox="0 0 55 55" fill="none" xmlns="http://www.w3.org/2000/svg">
<path d="M28.9385 0.107624C23.9309 0.591194 19.0951 2.78339 15.2051 6.35107C13.8941 7.54388 13.3783 8.22087 13.4642 8.5755C13.5717 9.00534 13.8403 9.231 14.2272 9.231C14.5388 9.231 14.7323 9.0913 15.6027 8.22087C18.2032 5.65258 20.9864 3.89023 24.2317 2.79413C32.3557 0.032402 41.2642 2.19235 47.196 8.37132C50.1189 11.4232 52.0532 15.0768 52.9021 19.2033C54.3958 26.4032 52.1499 33.9684 46.9488 39.1802C42.7042 43.4356 37.3204 45.66 31.2704 45.66C20.1375 45.66 10.8207 37.3641 9.4452 26.2097C9.27327 24.8987 9.30551 22.2229 9.48819 20.8045C9.88579 17.7741 10.9282 14.8189 12.5401 12.1324C12.8409 11.6274 13.0881 11.1116 13.0881 10.9719C13.0881 10.6602 12.6368 10.1981 12.3359 10.1981C11.949 10.1981 11.7234 10.3808 11.2505 11.133C9.57416 13.7981 8.30613 17.355 7.88703 20.6003C7.6936 22.1155 7.66136 24.9632 7.82255 26.3172C8.2524 29.8634 9.63863 33.7105 11.4655 36.4722L12.1102 37.4393L10.9604 38.5892C10.0255 39.5348 9.77833 39.739 9.59565 39.6745C8.94014 39.4381 8.95089 39.4273 4.87814 43.5001C2.51402 45.8642 0.848381 47.6158 0.644207 47.9489C-0.31219 49.5286 -0.193984 51.6563 0.923603 53.1285C2.2991 54.9339 4.62024 55.4927 6.72646 54.504C7.17779 54.2998 7.70435 53.8593 8.7682 52.8169C10.0577 51.5274 10.1867 51.3769 10.1867 51.0223C10.1867 50.5495 9.88579 50.2486 9.43446 50.2486C9.17655 50.2486 8.87567 50.485 7.73659 51.5918C6.57601 52.7202 6.25363 52.9781 5.71633 53.1823C4.22263 53.7411 2.67521 53.1285 1.88 51.6348C1.53613 50.9901 1.54687 49.6683 1.90149 48.9913C2.14865 48.5077 8.94014 41.5765 9.16581 41.5765C9.30551 41.5765 13.4105 45.6815 13.4105 45.8212C13.4105 45.8857 12.8517 46.4875 12.1747 47.1645C11.1001 48.2391 10.9389 48.4433 10.9389 48.7441C10.9389 49.1955 11.2613 49.5286 11.7126 49.5286C12.0028 49.5286 12.2714 49.3137 13.6899 47.906C14.5926 47.0033 15.3555 46.1651 15.3878 46.0254C15.42 45.8965 15.3985 45.6493 15.3448 45.4881C15.2373 45.2087 15.2803 45.1335 16.3764 44.0374L17.5155 42.8876L18.5041 43.5323C20.7178 44.983 23.7267 46.2188 26.3595 46.7669C28.4012 47.1967 29.6585 47.3042 31.9904 47.2397C34.1611 47.186 35.3861 47.0248 37.1592 46.5735C44.5202 44.7144 50.538 39.4059 53.3642 32.2812C55.7713 26.2097 55.4704 19.1281 52.5798 13.25C50.71 9.45667 47.83 6.18988 44.2516 3.8365C39.8672 0.945816 34.3438 -0.408184 28.9385 0.107624ZM14.6463 40.3622L16.2152 41.9419L15.1406 43.0165L14.0553 44.1019L12.4756 42.5222L10.8852 40.9318L11.9598 39.8572C12.5508 39.2662 13.0344 38.7826 13.0451 38.7826C13.0559 38.7826 13.7759 39.4918 14.6463 40.3622Z" fill="white"/>
<path d="M28.5087 4.78207C20.5674 6.01786 14.2917 11.9389 12.6583 19.762C11.9813 23.0181 12.1962 26.5858 13.2601 29.7558C14.8935 34.5808 18.4074 38.5676 22.996 40.8028C26.7571 42.6296 31.1092 43.1776 35.225 42.3287C36.5037 42.0708 36.7831 41.9526 36.9336 41.6195C37.1055 41.2433 37.084 41.1036 36.8261 40.7813C36.5575 40.4374 36.3425 40.4266 35.053 40.7168C32.0764 41.3723 28.8418 41.2004 25.8222 40.2225C24.5434 39.8141 22.3082 38.6643 21.1477 37.8476C19.8366 36.9127 18.0635 35.1289 17.1501 33.8393C13.8618 29.197 13.0022 23.4049 14.8075 18.0319C16.4946 12.9813 20.6641 8.82257 25.7147 7.1247C27.8854 6.40472 28.6699 6.28651 31.3027 6.28651C33.3551 6.28651 33.8172 6.31875 34.7951 6.52293C41.8123 8.04886 46.9381 13.1747 48.4641 20.1919C48.6682 21.1698 48.7005 21.6318 48.7005 23.6843C48.7005 25.7261 48.6682 26.1882 48.4641 27.1016C47.7011 30.5081 46.2181 33.3343 43.94 35.6876C42.6505 37.0202 41.2857 38.0948 39.8995 38.8685C38.7496 39.5025 38.4488 39.7604 38.4488 40.1043C38.4488 40.4804 38.8464 40.9317 39.158 40.9317C39.792 40.9317 42.0917 39.5347 43.7251 38.1592C47.2175 35.2256 49.5279 30.9809 50.2264 26.2741C50.4736 24.6407 50.3769 21.4599 50.0545 19.9232C48.8724 14.3675 45.5089 9.73599 40.6517 6.99575C38.7282 5.89966 35.9234 4.98624 33.7205 4.71759C32.4632 4.56715 29.6693 4.59939 28.5087 4.78207Z" fill="white"/>
</svg>
