<svg width="58" height="48" viewBox="0 0 58 48" fill="none" xmlns="http://www.w3.org/2000/svg">
<path d="M27.3957 0.440464C23.2619 1.22893 20.0743 4.24762 19.0605 8.34764C18.9254 8.89957 18.869 9.58666 18.8803 10.7018C18.8803 12.5378 19.0831 13.4952 19.8039 15.0045C20.5924 16.649 21.2344 17.415 23.4083 19.3298L23.8702 19.7353V21.5939C23.8702 23.7903 23.9941 24.2972 24.7149 25.0068C25.4921 25.784 25.8301 25.8516 29.1641 25.8516C32.5095 25.8516 32.8136 25.7952 33.6021 24.9955C34.3342 24.2634 34.4581 23.7903 34.4581 21.6614C34.4581 20.6477 34.5032 19.7691 34.5708 19.6452C34.6383 19.5326 34.9537 19.2397 35.2804 18.9919C37.1502 17.6177 38.5919 15.4776 39.2002 13.1798C39.5268 11.9971 39.5494 9.51907 39.2678 8.34764C38.8059 6.48912 37.9837 4.97977 36.6658 3.58306C35.2579 2.08498 33.6359 1.11629 31.6534 0.598156C30.5383 0.316563 28.4883 0.237715 27.3957 0.440464ZM30.5158 1.75833C31.5859 1.92728 32.8249 2.36657 33.726 2.89597C34.751 3.49295 36.3166 5.05861 36.9136 6.08362C38.9749 9.60918 38.4004 14.126 35.5057 16.9757C35.0889 17.4037 34.6158 17.8205 34.4581 17.9219C33.9625 18.2598 33.4669 18.7779 33.3205 19.1046L33.1966 19.4312H31.5183H29.84V16.3449V13.2587L30.4595 12.9095C31.3268 12.4251 31.7548 11.6705 31.7548 10.6455C31.7548 9.12484 30.6848 8.05478 29.1641 8.05478C27.6435 8.05478 26.5735 9.12484 26.5735 10.6455C26.5735 11.6705 27.0015 12.4251 27.8688 12.9095L28.4883 13.2587V16.3449V19.4312H26.81C25.2443 19.4312 25.1204 19.4199 25.0529 19.2172C24.9402 18.8568 24.5573 18.4287 23.9152 17.9556C21.8765 16.4576 20.5586 14.2048 20.2432 11.7042C19.7138 7.57044 22.2932 3.48169 26.2581 2.15256C27.7336 1.65695 29.1078 1.52179 30.5158 1.75833ZM30.054 9.75561C30.3468 10.0485 30.4032 10.1836 30.4032 10.6455C30.4032 11.1073 30.3468 11.2424 30.054 11.5353C29.7611 11.8281 29.626 11.8845 29.1641 11.8845C28.7023 11.8845 28.5672 11.8281 28.2743 11.5353C27.9814 11.2424 27.9251 11.1073 27.9251 10.6455C27.9251 10.1836 27.9814 10.0485 28.2743 9.75561C28.5672 9.46276 28.7023 9.40644 29.1641 9.40644C29.626 9.40644 29.7611 9.46276 30.054 9.75561ZM33.1065 22.0557C33.1065 23.5087 32.9488 23.948 32.3067 24.2972C31.9688 24.4774 31.6196 24.4999 29.1641 24.4999C26.7086 24.4999 26.3595 24.4774 26.0215 24.2972C25.3795 23.948 25.2218 23.5087 25.2218 22.0557V20.7829H29.1641H33.1065V22.0557Z" fill="white"/>
<path d="M0.554377 18.7141C0.340365 18.9281 0.329102 19.0858 0.329102 21.6764C0.329102 23.7264 0.362893 24.4699 0.475531 24.6163C0.576905 24.7627 1.44422 24.988 3.76456 25.4836C5.48791 25.844 6.94094 26.1819 6.97473 26.2383C7.01979 26.2833 7.21127 26.7677 7.41402 27.3309C7.62803 27.8828 7.96595 28.6938 8.17996 29.1105L8.56293 29.8765L8.30386 30.2932C8.1687 30.5185 7.38023 31.7463 6.55797 33.0078C5.64561 34.4158 5.05989 35.4295 5.05989 35.5985C5.05989 35.8237 5.85962 36.6798 8.74315 39.5746C11.8632 42.6947 12.4827 43.2691 12.7531 43.2691C12.9671 43.2691 13.6542 42.8974 14.8369 42.1202C15.8055 41.4894 17.0108 40.7122 17.5176 40.3856L18.43 39.7999L19.3198 40.2166C19.8042 40.4532 20.6152 40.7798 21.1108 40.96C21.6064 41.129 22.0569 41.3092 22.102 41.3543C22.1583 41.3993 22.4737 42.7284 22.8116 44.2941C23.1383 45.871 23.4424 47.2678 23.4762 47.4029C23.6226 48.0224 23.4536 47.9999 29.1644 47.9999C34.8751 47.9999 34.7062 48.0224 34.8526 47.4029C34.8864 47.2678 35.1792 45.871 35.5172 44.3054C35.8551 42.7284 36.1592 41.4218 36.2043 41.3768C36.238 41.343 36.7111 41.1515 37.2518 40.9488C37.7924 40.7573 38.6147 40.4194 39.0765 40.2054L39.9213 39.8111L42.5683 41.5345C44.4606 42.7622 45.3167 43.2578 45.5532 43.2691C45.8573 43.2691 46.3417 42.8186 49.5856 39.5746C52.4692 36.6798 53.2689 35.8237 53.2689 35.5985C53.2689 35.4295 52.6832 34.4158 51.7708 33.0078C50.9485 31.7463 50.1601 30.5185 50.0249 30.2932L49.7659 29.8765L50.1488 29.1105C50.3628 28.6938 50.7007 27.8828 50.9148 27.3309C51.1175 26.7677 51.309 26.2833 51.354 26.2383C51.3878 26.1932 52.8296 25.8553 54.5642 25.4836C56.8958 24.988 57.7519 24.7627 57.8532 24.6163C57.9659 24.4699 57.9997 23.7377 57.9997 21.6764C57.9997 19.0858 57.9884 18.9281 57.7744 18.7141C57.5491 18.4888 57.4027 18.4888 50.6219 18.4888C42.5908 18.4888 43.2441 18.3874 43.2441 19.649C43.2441 21.147 42.7147 23.3998 41.9938 24.9993C40.0903 29.2232 36.0466 32.332 31.5298 33.0754C25.391 34.0666 19.3987 31.0479 16.594 25.5512C15.7492 23.8841 15.0847 21.3047 15.0847 19.6377C15.0847 18.3874 15.738 18.4888 7.70688 18.4888C0.926082 18.4888 0.779653 18.4888 0.554377 18.7141ZM13.8794 21.2146C14.7805 27.7927 19.5789 32.929 26.1232 34.3369C27.4748 34.6185 30.854 34.6298 32.2056 34.3369C35.213 33.6949 37.8262 32.2982 39.9551 30.1806C42.5458 27.6124 44.0664 24.5262 44.4944 20.9555L44.6296 19.8404H50.6444H56.648V21.7553C56.648 22.8028 56.6255 23.6701 56.6142 23.6701C56.434 23.6701 50.6782 24.9317 50.498 25.0105C50.329 25.0781 50.1601 25.416 49.901 26.1707C49.6983 26.7451 49.259 27.7927 48.9211 28.5023C48.5832 29.2006 48.3128 29.8652 48.3128 29.9666C48.3128 30.068 49.0788 31.3295 50.0024 32.76C50.9373 34.2018 51.692 35.407 51.692 35.4633C51.692 35.5084 50.284 36.9614 48.5719 38.6735L45.4406 41.7823L43.1315 40.2729C41.8587 39.4394 40.6309 38.651 40.3831 38.5271L39.9438 38.2905L38.7386 38.865C38.074 39.1691 36.9927 39.6196 36.3169 39.8449C35.2356 40.2166 35.0891 40.2955 34.9652 40.6109C34.8977 40.8023 34.5597 42.2441 34.2331 43.7985L33.6361 46.6482H29.1644H24.6927L24.0957 43.8098C23.769 42.2441 23.4311 40.8023 23.3523 40.6109C23.2284 40.2955 23.1045 40.2166 22.271 39.9463C21.7641 39.7773 20.6602 39.338 19.8492 38.9663L18.3512 38.2905L17.8218 38.5946C17.5402 38.7749 16.3011 39.5633 15.0959 40.3518L12.8882 41.7936L9.76815 38.6735C8.04479 36.9614 6.63682 35.5084 6.63682 35.4633C6.63682 35.407 7.39149 34.2018 8.32639 32.76C9.25002 31.3295 10.016 30.068 10.016 29.9666C10.016 29.8652 9.74562 29.2006 9.40771 28.5023C9.0698 27.7927 8.63051 26.7451 8.42776 26.1707C8.1687 25.416 7.99974 25.0781 7.83078 25.0105C7.65056 24.9317 1.89477 23.6701 1.71455 23.6701C1.70328 23.6701 1.68076 22.8028 1.68076 21.7553V19.8404H7.68435H13.6879L13.8794 21.2146Z" fill="white"/>
</svg>
