<svg width="91" height="91" viewBox="0 0 91 91" fill="none" xmlns="http://www.w3.org/2000/svg">
<path d="M46.5131 0.248756C44.8424 0.853058 43.7049 2.45267 43.7049 4.21223C43.7049 4.78098 43.7938 5.47415 43.9004 5.75852C44.0959 6.29173 44.0781 6.3095 37.182 13.2056L30.2859 20.1017L29.3439 19.6396C26.6068 18.2533 23.2832 18.822 21.0438 21.0437C18.8221 23.2831 18.2533 26.6068 19.6396 29.3439L20.1018 30.2859L13.2057 37.182C7.41152 42.9761 6.25625 44.0603 5.9541 43.9359C5.75859 43.8648 4.99434 43.8115 4.24785 43.8115C3.05703 43.8115 2.8082 43.8825 2.02617 44.3447C1.49297 44.6824 0.959766 45.2156 0.62207 45.7488C0.159961 46.5308 0.0888672 46.7796 0.0888672 47.9704C0.0888672 49.1257 0.159961 49.4456 0.586523 50.1743C2.5416 53.4802 7.3582 52.8759 8.53125 49.1613C8.72676 48.5392 8.69121 47.4906 8.44238 46.3886C8.35352 45.9976 8.79785 45.4822 12.3703 41.9452C14.592 39.7413 16.3338 38.1062 16.2627 38.3017C16.1738 38.4972 15.6939 39.9013 15.1785 41.412C13.4723 46.3531 12.868 50.5476 13.0279 56.0574C13.259 64.0376 15.6051 71.4492 19.9951 78.0075L21.2748 79.9449L20.1373 81.0824C18.7865 82.3976 18.4133 83.0374 18.5732 83.695C18.7154 84.2638 24.9006 90.5378 25.6115 90.84C25.8959 90.9466 26.3047 90.9999 26.518 90.9466C26.749 90.8755 28.473 89.2937 30.357 87.3919C33.4674 84.2638 33.7695 83.9083 33.7695 83.3396C33.7695 82.7886 33.4674 82.4331 30.2504 79.2161C26.0559 75.0216 26.2158 75.0927 24.4563 76.7812L23.3365 77.8654L22.2879 76.3013C19.3908 71.9468 17.2936 66.6859 16.3338 61.3183C15.8006 58.3324 15.6762 53.0892 16.085 49.9433C16.7959 44.3269 18.8043 38.6394 21.7014 34.0538L22.6256 32.5609L23.4432 32.9341C24.1008 33.2363 24.6162 33.3074 26.127 33.3251C27.851 33.3251 28.082 33.2896 29.1662 32.7741C31.9211 31.4589 33.4141 29.095 33.4141 26.0558C33.3963 25.2738 33.2719 24.4206 33.0586 23.8163C32.8631 23.2831 32.7209 22.7855 32.7031 22.7322C32.7031 22.5366 34.6938 21.2925 36.7021 20.2439C45.4111 15.6761 55.8441 14.5919 65.3174 17.2579C69.0676 18.3243 73.1377 20.1906 76.3014 22.2878L77.8654 23.3364L76.7812 24.4562C75.0928 26.2158 75.0217 26.0736 79.234 30.2681C82.4332 33.4495 82.7887 33.7695 83.3574 33.7695C83.9084 33.7695 84.2639 33.4673 87.392 30.3392C89.2938 28.473 90.8756 26.749 90.9467 26.5179C91 26.3046 90.9467 25.8958 90.84 25.6115C90.5379 24.9005 84.2639 18.7154 83.6951 18.5732C83.0375 18.4132 82.3977 18.7865 81.0824 20.1372L79.9449 21.2747L77.9721 19.9595C74.3463 17.5423 69.4408 15.3384 65.3885 14.3075C61.0695 13.2056 58.208 12.9035 53.5514 13.0279C48.5215 13.1523 43.7938 14.0765 39.7236 15.7116C38.8527 16.0671 38.124 16.3337 38.1063 16.2982C38.0707 16.2626 39.8303 14.4675 42.0164 12.2814L45.9799 8.3179L46.993 8.54896C49.8189 9.17103 52.2895 7.16263 52.2717 4.23001C52.2717 1.88392 50.3699 0.0177078 47.9883 0.0177078C47.5439 0.0177078 46.8863 0.124344 46.5131 0.248756ZM48.9658 3.25247C49.9789 4.12337 49.3213 5.86517 47.9705 5.86517C47.2063 5.86517 46.5664 5.172 46.5664 4.35442C46.5664 3.03919 47.9883 2.39935 48.9658 3.25247ZM27.4777 21.9501C30.6236 22.8921 31.6367 26.98 29.3084 29.3083C28.4553 30.1614 27.4777 30.5702 26.2158 30.5702C24.1896 30.5702 22.5012 29.3439 21.9502 27.4777C21.6125 26.3579 21.6125 26.0558 21.968 24.8827C22.3412 23.6031 23.4254 22.4833 24.7051 22.039C25.8959 21.6302 26.3402 21.6124 27.4777 21.9501ZM85.4902 24.0829L87.5342 26.1269L85.4369 28.2241L83.3574 30.3036L81.2779 28.2241L79.1807 26.1269L81.2246 24.0829C82.3443 22.9632 83.3041 22.039 83.3574 22.039C83.4107 22.039 84.3705 22.9632 85.4902 24.0829ZM5.4209 47.0107C6.30957 47.8816 5.6875 49.4101 4.44336 49.4101C3.25254 49.4101 2.5416 47.7572 3.37695 46.9218C3.89238 46.4064 4.86992 46.4419 5.4209 47.0107ZM28.2598 85.4013L26.127 87.5341L24.0475 85.4368L21.9502 83.3574L24.083 81.2245L26.2158 79.0917L28.2953 81.1712L30.3926 83.2685L28.2598 85.4013Z" fill="white"/>
<path d="M36.4355 30.517C36.009 30.6769 30.7303 35.9557 30.5525 36.4178C30.4104 36.7732 31.5834 39.8303 37.8574 55.542C41.9809 65.8328 45.4289 74.3818 45.5533 74.524C45.6777 74.684 49.2857 76.1592 53.5869 77.8121L61.4072 80.8158L63.8955 85.6857C66.4904 90.7689 66.7926 91.1777 67.7346 90.9467C67.9834 90.8756 72.96 86.0234 79.5895 79.4117C91.7287 67.2369 91.4443 67.5924 90.6801 66.6504C90.5023 66.4371 88.2096 65.1752 85.5791 63.8422L80.8158 61.4072L77.8121 53.5869C76.1592 49.2857 74.684 45.6777 74.524 45.5533C74.2574 45.34 36.951 30.3748 36.791 30.4103C36.7377 30.4103 36.5777 30.4637 36.4355 30.517ZM55.0088 40.7012C64.5887 44.5224 72.4623 47.7394 72.5156 47.8283C72.5689 47.9172 73.8486 51.1875 75.3594 55.0976L78.0965 62.2248L70.1518 70.1517L62.2248 78.0965L55.0977 75.3594C51.1875 73.8486 47.9172 72.5689 47.8283 72.5156C47.7395 72.4623 44.4869 64.482 40.6123 54.7777L33.5385 37.1109L33.9295 36.7377L34.3027 36.3467L43.4738 45.5178L52.6449 54.6889L52.2006 55.4709C51.2586 57.0883 50.9209 59.701 51.4363 61.5849C52.5383 65.7439 56.6795 68.4633 60.8385 67.7523C64.3754 67.1303 67.1303 64.3754 67.7523 60.8385C68.4633 56.6795 65.7439 52.5383 61.6027 51.4363C59.701 50.9209 57.0883 51.2408 55.4709 52.2006L54.6889 52.6449L45.5355 43.4916L36.3645 34.3205L36.7021 33.9473C36.8977 33.734 37.1643 33.6096 37.3242 33.6451C37.4664 33.6806 45.4289 36.8621 55.0088 40.7012ZM61.3895 54.3156C62.527 54.7066 64.0021 56.093 64.5354 57.266C65.0863 58.5279 65.1041 60.5008 64.5709 61.6916C64.0377 62.8646 63.0424 63.8955 61.8871 64.4642C60.5363 65.1219 58.6523 65.1574 57.266 64.5353C56.093 64.0021 54.7066 62.5269 54.3156 61.3894C53.9957 60.4297 53.9424 58.8834 54.209 57.9058C54.6355 56.3773 56.324 54.6533 57.8348 54.2267C58.7234 53.9601 60.483 54.0135 61.3895 54.3156ZM84.2461 66.4549C85.668 67.1658 86.8766 67.8057 86.9477 67.8767C87.0187 67.9478 82.7709 72.3023 77.4922 77.581C72.2313 82.842 67.8768 87.1254 67.8412 87.0898C67.7879 87.0365 66.9881 85.4547 66.0283 83.5529L64.3043 80.1049L72.1779 72.2312L80.0338 64.3754L80.8514 64.7664C81.2957 64.9797 82.8242 65.7439 84.2461 66.4549Z" fill="white"/>
</svg>
