<svg width="14" height="16" viewBox="0 0 14 16" fill="none" xmlns="http://www.w3.org/2000/svg">
<path d="M10.8602 0.0467815C10.3352 0.143657 9.89766 0.381156 9.49766 0.778031C9.18828 1.08741 8.97578 1.42178 8.86016 1.78741C8.67578 2.37178 8.67578 2.73741 8.86641 3.51866C8.87891 3.57178 8.60391 3.75303 6.76328 4.89366C5.60078 5.61241 4.63516 6.20616 4.62266 6.21241C4.61016 6.21866 4.48828 6.13116 4.35391 6.01866C4.06641 5.77491 3.64766 5.55616 3.29766 5.46241C2.96328 5.37491 2.36641 5.36866 2.04766 5.44991C1.25703 5.65616 0.575781 6.21553 0.263281 6.92491C0.100781 7.29678 0.0507812 7.54678 0.0507812 7.99991C0.0507812 8.45303 0.100781 8.70303 0.263281 9.07491C0.572656 9.76866 1.24141 10.3312 2.00391 10.5343C2.36328 10.6312 2.93516 10.6312 3.29766 10.5374C3.64766 10.4437 4.06641 10.2249 4.35391 9.98116C4.48828 9.86866 4.61016 9.78116 4.62266 9.78741C4.63516 9.79366 5.60078 10.3874 6.76328 11.1062C8.60391 12.2468 8.87891 12.428 8.86641 12.4812C8.67578 13.2655 8.67578 13.6499 8.86328 14.2187C8.99141 14.5999 9.17266 14.8905 9.48516 15.2062C9.90703 15.6343 10.3664 15.8749 10.9445 15.9687C12.2539 16.1812 13.5383 15.3249 13.8789 14.0155C14.0227 13.4655 13.9477 12.7593 13.6883 12.2343C13.2383 11.3218 12.3352 10.7687 11.3133 10.7749C10.6383 10.778 10.0664 11.003 9.56016 11.4624L9.39141 11.6155L8.23516 10.8968C7.60078 10.503 6.63516 9.90616 6.09453 9.57178C5.55391 9.23428 5.10703 8.95928 5.10391 8.95616C5.10078 8.95303 5.12266 8.86241 5.15703 8.75303C5.29766 8.28116 5.29766 7.71866 5.15703 7.24678C5.12266 7.13741 5.10078 7.04678 5.10391 7.04366C5.10703 7.04053 5.55391 6.76553 6.09453 6.42803C6.63516 6.09366 7.60078 5.49678 8.23516 5.10303L9.39141 4.38428L9.58516 4.55928C10.382 5.27178 11.532 5.43428 12.4852 4.96866C13.1727 4.63116 13.7008 3.97491 13.8789 3.23428C13.9727 2.85616 13.9727 2.33741 13.8789 1.98428C13.5289 0.640532 12.2102 -0.206343 10.8602 0.0467815ZM11.7852 1.01866C12.6414 1.27178 13.157 2.13741 12.9539 2.99366C12.882 3.29366 12.7352 3.55303 12.5039 3.78428C12.1508 4.13741 11.7164 4.30303 11.2352 4.27178C10.8008 4.24053 10.457 4.08428 10.157 3.77803C9.50078 3.11241 9.53516 2.01241 10.2289 1.38741C10.407 1.22803 10.6164 1.11241 10.8758 1.02803C11.1008 0.956157 11.5539 0.949906 11.7852 1.01866ZM3.19766 6.43116C3.67578 6.60303 4.05703 6.98741 4.22266 7.46866C4.32578 7.75616 4.32578 8.24366 4.22266 8.53116C4.05391 9.00928 3.67266 9.39991 3.20391 9.56553C2.94141 9.65928 2.51641 9.67803 2.25078 9.60928C1.50391 9.41553 1.00078 8.76866 1.00078 8.00303C1.00078 7.24678 1.47266 6.61866 2.20391 6.39991C2.46016 6.32491 2.94141 6.34053 3.19766 6.43116ZM11.7133 11.7655C12.3164 11.9093 12.8102 12.3999 12.9539 13.003C13.157 13.8624 12.6445 14.728 11.7852 14.9812C11.5633 15.0468 11.1258 15.0468 10.9039 14.9812C10.3258 14.8093 9.91016 14.3937 9.73828 13.8155C9.67578 13.5999 9.67266 13.1937 9.73516 12.953C9.89453 12.3437 10.4414 11.8437 11.0633 11.7405C11.2383 11.7124 11.5289 11.7218 11.7133 11.7655Z" fill="white"/>
</svg>
