<svg width="17" height="17" viewBox="0 0 17 17" fill="none" xmlns="http://www.w3.org/2000/svg">
<path d="M3.9651 0.0501423C2.48587 0.278675 1.13545 1.25513 0.470629 2.58062C0.00109876 3.51968 -0.123555 4.65819 0.125753 5.69697C0.225476 6.10418 0.424923 6.63188 0.557887 6.83132C0.616059 6.91858 0.616059 6.9726 0.570352 7.27177C0.478939 7.84518 0.462319 9.07094 0.541266 9.63604C0.728247 10.974 1.24764 12.2372 2.05789 13.3216C2.35291 13.7205 3.07174 14.4602 3.47479 14.7884C4.47202 15.5903 5.64377 16.1388 6.97757 16.4214C7.65901 16.5627 8.864 16.6042 9.59946 16.5045C10.0731 16.4422 10.0981 16.4422 10.2518 16.5211C10.9665 16.8868 11.9305 17.0654 12.7241 16.9782C13.8626 16.8577 14.8225 16.3964 15.6286 15.5862C16.9831 14.2275 17.3696 12.3327 16.6383 10.5959L16.5095 10.2926L16.5884 9.8438C16.684 9.29116 16.6964 7.87011 16.6092 7.3798C16.3557 5.93382 15.7781 4.64988 14.9014 3.57785C14.5399 3.13741 13.7629 2.40611 13.3308 2.10278C12.2546 1.34655 11.0538 0.860395 9.77813 0.660948C9.2255 0.577845 8.02466 0.56538 7.5302 0.640173L7.20195 0.690035L6.78228 0.482277C5.87646 0.0376778 4.94986 -0.103598 3.9651 0.0501423ZM9.74905 3.03769C10.2601 3.12494 10.9249 3.34932 11.3488 3.56954C11.7435 3.7773 12.4083 4.40473 12.587 4.74545C12.7158 4.9906 12.8238 5.38118 12.8238 5.59309C12.8238 6.02523 12.5621 6.43659 12.1798 6.61526C11.9471 6.72745 11.515 6.74822 11.2283 6.66927C11.0039 6.60695 10.7297 6.31609 10.4596 5.85487C10.2103 5.42689 9.92356 5.11525 9.6327 4.95736C8.90971 4.56678 7.58422 4.62079 6.93186 5.06955C6.50389 5.36456 6.3543 5.79254 6.56206 6.14573C6.82799 6.59448 7.32245 6.80224 9.1881 7.23853C10.3058 7.5003 11.033 7.72052 11.4942 7.94075C12.4457 8.40197 13.0025 9.02108 13.2269 9.87288C13.3308 10.2801 13.3225 11.0072 13.202 11.4311C12.72 13.1513 10.8169 14.161 8.2532 14.0571C6.59945 13.9906 5.4651 13.5543 4.62992 12.661C4.07729 12.0709 3.83629 11.5474 3.83213 10.9324C3.83213 10.6208 3.84875 10.5252 3.9277 10.359C4.11053 9.98923 4.47618 9.78978 4.98311 9.78978C5.56898 9.78978 5.80167 9.98507 6.23796 10.8244C6.65763 11.643 6.97342 11.9338 7.6507 12.1416C8.04129 12.2621 8.99281 12.2496 9.44572 12.1208C9.79475 12.0211 10.1812 11.8216 10.3765 11.6347C10.5427 11.4768 10.7047 11.1485 10.7338 10.9158C10.8045 10.3092 10.3889 9.87704 9.43741 9.5654C9.25459 9.50723 8.72273 9.37427 8.25735 9.27039C6.80305 8.94629 6.31275 8.80086 5.73934 8.51415C4.87507 8.08202 4.29751 7.42135 4.11884 6.66512C4.0856 6.51969 4.05651 6.23298 4.05651 6.02938C4.05651 4.32993 5.36953 3.25375 7.79613 2.95874C8.10777 2.92134 9.37093 2.9712 9.74905 3.03769Z" fill="white"/>
</svg>
