<svg width="123" height="24" viewBox="0 0 123 24" fill="none" xmlns="http://www.w3.org/2000/svg">
<path fill-rule="evenodd" clip-rule="evenodd" d="M1.58914 5.66451C0.158224 8.30232 -0.274308 11.2138 0.162775 13.965L1.36302 11.7524C2.44444 13.2321 3.57996 14.5043 4.76959 15.5691C5.97618 16.6295 7.24526 17.5209 8.57684 18.2432C9.67145 18.837 10.5549 19.1065 11.2272 19.0518C11.9108 19.0032 12.4086 18.6914 12.7205 18.1164C12.9077 17.7714 12.9705 17.4266 12.9091 17.0821C12.8647 16.7333 12.6904 16.3411 12.3863 15.9055C12.0935 15.476 11.6709 14.9762 11.1185 14.4059C10.5718 13.8252 9.89823 13.1419 9.09777 12.3558C8.29164 11.5803 7.59009 10.7735 6.9931 9.93549C6.40739 9.10361 5.97143 8.25147 5.68519 7.37907C5.40463 6.49622 5.29641 5.59185 5.36052 4.66595C5.43591 3.74617 5.73164 2.81062 6.24771 1.85927C6.63744 1.14083 7.10244 0.52107 7.64271 0C5.15173 1.14156 2.99627 3.07055 1.58914 5.66451ZM18.2089 24C20.8595 22.8845 23.1629 20.8937 24.6409 18.1692C26.3196 15.0745 26.6242 11.6031 25.7625 8.45594L24.1999 11.0091C23.8393 10.5699 23.3997 10.0879 22.8812 9.56307C22.3795 9.03388 21.8327 8.50723 21.2407 7.98313C20.66 7.46515 20.051 6.97241 19.4137 6.50491C18.782 6.02696 18.1615 5.6227 17.5521 5.29215C16.4914 4.71673 15.5939 4.39225 14.8597 4.31872C14.1255 4.24518 13.5968 4.50636 13.2736 5.10226C13.1204 5.38452 13.0859 5.69052 13.1699 6.02024C13.2709 6.34564 13.4622 6.70649 13.7438 7.1028C14.0311 7.48865 14.3917 7.91429 14.8257 8.37972C15.2766 8.84082 15.7783 9.34298 16.3307 9.88621L17.3707 10.9172C18.2501 11.7731 18.9882 12.6335 19.5852 13.4986C20.1878 14.3532 20.6181 15.2158 20.8761 16.0864C21.151 16.9526 21.2452 17.8291 21.1586 18.7157C21.0719 19.6023 20.7791 20.5056 20.28 21.4256C19.7158 22.4658 19.0254 23.3239 18.2089 24ZM7.10781 23.5724C7.01171 23.5221 6.91511 23.4707 6.818 23.4184L6.86264 23.4427C6.94411 23.4869 7.02583 23.5302 7.10781 23.5724ZM40.2357 23.3353C38.5142 23.3353 37.2124 22.8512 36.3302 21.8829C35.4479 20.8931 35.0068 19.4836 35.0068 17.6546V16.3635H38.3636V17.9128C38.3636 19.376 38.9769 20.1077 40.2034 20.1077C40.8059 20.1077 41.2578 19.9355 41.559 19.5912C41.8818 19.2254 42.0432 18.6444 42.0432 17.8483C42.0432 16.9015 41.828 16.073 41.3977 15.363C40.9673 14.6313 40.1711 13.7599 39.0092 12.7485C37.5459 11.4574 36.5238 10.2955 35.9429 9.26262C35.3619 8.20824 35.0714 7.02475 35.0714 5.71216C35.0714 3.92617 35.5233 2.54902 36.427 1.58072C37.3308 0.590892 38.6434 0.0959796 40.3648 0.0959796C42.0647 0.0959796 43.345 0.590892 44.2057 1.58072C45.088 2.54902 45.5291 3.94769 45.5291 5.77671V6.71274H42.1723V5.55078C42.1723 4.77613 42.0217 4.21666 41.7204 3.87238C41.4192 3.50657 40.9781 3.32367 40.3971 3.32367C39.2136 3.32367 38.6218 4.04452 38.6218 5.48622C38.6218 6.3039 38.837 7.06779 39.2674 7.77788C39.7192 8.48797 40.5262 9.34869 41.6881 10.36C43.1729 11.6511 44.195 12.8238 44.7544 13.8782C45.3139 14.9326 45.5936 16.1699 45.5936 17.5901C45.5936 19.4406 45.131 20.8608 44.2057 21.8506C43.302 22.8404 41.9786 23.3353 40.2357 23.3353ZM50.4052 3.64644H46.6933V0.418748H57.6675V3.64644H53.9556V23.0126H50.4052V3.64644ZM64.6476 0.418748H59.3865V23.0126H62.9369V13.3295H64.1635C64.9811 13.3295 65.5514 13.5339 65.8741 13.9428C66.2184 14.3516 66.3906 15.0725 66.3906 16.1053V20.2368C66.3906 21.076 66.4121 21.6569 66.4551 21.9797C66.4982 22.3025 66.5842 22.6468 66.7133 23.0126H70.3283C70.1562 22.6253 70.0486 22.2379 70.0056 21.8506C69.9625 21.4418 69.941 20.9146 69.941 20.269V16.299C69.941 14.9649 69.7581 13.8997 69.3923 13.1036C69.048 12.3074 68.4455 11.7802 67.5848 11.522V11.4574C69.1341 10.8334 69.9087 9.34869 69.9087 7.00324V5.61533C69.9087 3.85086 69.4891 2.54902 68.6499 1.70982C67.8107 0.849107 66.4766 0.418748 64.6476 0.418748ZM65.8096 9.55311C65.4653 9.91892 64.9381 10.1018 64.228 10.1018H62.9369V3.64644H64.5508C65.1748 3.64644 65.6267 3.82934 65.9064 4.19515C66.2077 4.56095 66.3583 5.15269 66.3583 5.97038V7.71333C66.3583 8.57404 66.1754 9.18731 65.8096 9.55311ZM75.1479 0.418748H79.9572L83.6368 23.0126H80.0863L79.4408 18.5261V18.5906H75.4062L74.7606 23.0126H71.4684L75.1479 0.418748ZM79.0212 15.5243L77.4396 4.35653H77.375L75.8258 15.5243H79.0212ZM84.6477 0.418748L88.5532 11.4574L84.454 23.0126H87.8108L90.4575 15.137H90.5221L93.1042 23.0126H96.8484L92.7492 11.4574L96.6547 0.418748H93.2979L90.8448 7.71333H90.7803L88.3918 0.418748H84.6477ZM103.163 23.3353C101.42 23.3353 100.085 22.8404 99.1602 21.8506C98.2349 20.8608 97.7723 19.4621 97.7723 17.6546V5.77671C97.7723 3.96921 98.2349 2.57054 99.1602 1.58072C100.085 0.590892 101.42 0.0959796 103.163 0.0959796C104.905 0.0959796 106.24 0.590892 107.165 1.58072C108.09 2.57054 108.553 3.96921 108.553 5.77671V17.6546C108.553 19.4621 108.09 20.8608 107.165 21.8506C106.24 22.8404 104.905 23.3353 103.163 23.3353ZM103.163 20.1077C104.389 20.1077 105.002 19.3653 105.002 17.8805V5.55078C105.002 4.06604 104.389 3.32367 103.163 3.32367C101.936 3.32367 101.323 4.06604 101.323 5.55078V17.8805C101.323 19.3653 101.936 20.1077 103.163 20.1077ZM115.408 0.418748H110.954V23.0126H114.117V6.51908H114.182L118.442 23.0126H122.089V0.418748H118.926V13.9428H118.862L115.408 0.418748Z" fill="white"/>
</svg>
