<svg width="21" height="28" viewBox="0 0 21 28" fill="none" xmlns="http://www.w3.org/2000/svg">
<path fill-rule="evenodd" clip-rule="evenodd" d="M3.07974 3.07476C4.74224 1.41773 6.89146 0.367733 9.22661 0.0669518C10.3696 -0.0752354 11.9282 0.0232029 13.093 0.323984C14.6079 0.712265 16.0954 1.48336 17.3204 2.52242C19.9399 4.73726 21.3454 8.32476 20.9133 11.6771C20.4375 15.3302 18.004 19.7654 13.7493 24.7091C12.9344 25.6552 11.3485 27.3615 10.9165 27.7552C10.4844 28.1545 10.4461 28.138 9.47817 27.1537C5.80864 23.4021 2.7188 19.0982 1.25864 15.7021C0.0227056 12.8365 -0.278076 10.6162 0.246924 8.25367C0.695362 6.25211 1.65239 4.50211 3.07974 3.07476ZM18.5235 5.19117C16.9157 2.77945 14.3836 1.24273 11.5071 0.920078C9.75708 0.728672 7.83755 1.06773 6.25708 1.8607C3.48442 3.24977 1.59224 5.74898 1.02349 8.78414C0.864893 9.64273 0.853956 11.1795 1.00161 11.9943C1.69614 15.7841 4.50708 20.4435 9.16099 25.5295C9.58755 25.9943 10.0633 26.4974 10.2165 26.6505L10.4954 26.9185L10.7743 26.6505C10.9274 26.4974 11.4032 25.9943 11.8297 25.5295C16.4672 20.4654 19.3329 15.7185 19.9782 12.0216C20.3829 9.72476 19.836 7.15445 18.5235 5.19117ZM8.55871 6.08817C8.8759 5.94598 9.53762 5.76005 9.86574 5.7163C10.2595 5.66708 10.8993 5.68349 11.3423 5.76005C13.1798 6.0827 14.6564 7.45536 15.1595 9.31474C15.3181 9.89989 15.3236 11.0429 15.1759 11.6061C14.9353 12.503 14.5032 13.2741 13.8907 13.8866C12.3376 15.4397 9.91496 15.7405 8.02277 14.614C7.43215 14.2585 6.72668 13.553 6.37121 12.9624C4.89465 10.485 5.92278 7.25302 8.55871 6.08817ZM12.6384 7.2038C12.1736 6.89755 11.7743 6.73895 11.2165 6.62958C10.2814 6.44911 9.31887 6.61864 8.48762 7.10536C8.06106 7.35692 7.34465 8.08427 7.08762 8.52177C6.50793 9.52255 6.40949 10.8077 6.83059 11.9233C7.13684 12.7382 7.9134 13.5913 8.70637 13.985C9.38449 14.3186 9.74543 14.4007 10.5493 14.3952C11.1345 14.3897 11.2986 14.3679 11.6704 14.2475C12.2993 14.0397 12.7532 13.7554 13.2564 13.2522C13.7595 12.7491 14.0439 12.2952 14.2517 11.6663C14.372 11.2944 14.3939 11.1304 14.3993 10.5452C14.4048 9.7413 14.3228 9.38036 13.9892 8.70223C13.7103 8.14442 13.1907 7.56474 12.6384 7.2038Z" fill="url(#paint0_linear_141_2978)"/>
<defs>
<linearGradient id="paint0_linear_141_2978" x1="1.31464e-06" y1="1.26466e-06" x2="12.5616" y2="30.0298" gradientUnits="userSpaceOnUse">
<stop stop-color="#F04674"/>
<stop offset="1" stop-color="#B167E9"/>
</linearGradient>
</defs>
</svg>
