<svg width="647" height="416" viewBox="0 0 647 416" fill="none" xmlns="http://www.w3.org/2000/svg">
<path d="M122.542 168.158L122.538 168.166C114.046 185.135 98.5202 205.644 75.9278 229.698C52.9316 253.788 36.9553 275.867 28.0292 295.934C19.0992 315.639 14.6445 339.411 14.6445 367.233V409.446V409.946H15.1445H191.914H192.414V409.446V353.903V353.403H191.914H76.2352V345.571C76.2352 331.951 79.366 319.257 85.6267 307.481L85.6296 307.476C91.8964 295.321 104.086 279.625 122.236 260.379C150.045 231.11 169.539 205.149 180.688 182.498C192.208 159.847 197.973 136.628 197.973 112.846C197.973 81.2955 190.171 57.0874 174.493 40.3017C158.809 23.1383 136.052 14.5909 106.309 14.5909C76.5649 14.5909 53.8087 23.1382 38.1242 40.3013C22.446 57.087 14.6445 81.2953 14.6445 112.846V150.616V151.116H15.1445H72.9559H73.4559V150.616V108.958C73.4559 96.2399 76.0866 86.7941 81.2625 80.5336C86.4233 74.2913 94.184 71.1338 104.641 71.1338C114.902 71.1338 122.521 74.423 127.593 80.9387L127.603 80.9509L127.613 80.9625C133.042 87.1107 135.826 98.4244 135.826 115.068C135.826 133.499 131.4 151.193 122.542 168.158ZM453.111 236.707V237.207H453.611H527.598V312.801V313.301H528.098H571.457H571.957V312.801V237.207H645.945H646.445V236.707V193.384V192.884H645.945H571.957V118.401V117.901H571.457H528.098H527.598V118.401V192.884H453.611H453.111V193.384V236.707ZM257.915 389.792C273.97 406.953 297.095 415.5 327.209 415.5C357.323 415.5 380.448 406.953 396.503 389.792C412.551 372.639 420.541 348.432 420.541 317.244V112.846C420.541 81.6588 412.551 57.4522 396.503 40.299C380.448 23.1378 357.323 14.5909 327.209 14.5909C297.095 14.5909 273.97 23.1378 257.915 40.299C241.868 57.4522 233.878 81.6588 233.878 112.846V317.244C233.878 348.432 241.868 372.639 257.915 389.792ZM358.394 321.132C358.394 333.851 355.764 343.297 350.588 349.557C345.427 355.8 337.666 358.957 327.209 358.957C316.752 358.957 308.992 355.8 303.831 349.557C298.655 343.297 296.024 333.851 296.024 321.132V108.958C296.024 96.2399 298.655 86.7941 303.831 80.5336C308.992 74.2913 316.752 71.1338 327.209 71.1338C337.666 71.1338 345.427 74.2913 350.588 80.5336C355.764 86.7941 358.394 96.2399 358.394 108.958V321.132Z" stroke="url(#paint0_linear_311_71)"/>
<path d="M0.0546875 352.142C0.0546875 324.371 4.50171 300.672 13.3958 281.047C22.2898 261.052 38.225 239.02 61.2013 214.951C83.807 190.883 99.3716 170.332 107.895 153.298C116.789 136.265 121.236 118.492 121.236 99.9773C121.236 83.3144 118.457 71.8355 112.898 65.5407C107.71 58.8755 99.9275 55.5429 89.5511 55.5429C68.4277 55.5429 57.866 68.3178 57.866 93.8676V135.525H0.0546875V97.7555C0.0546875 66.2812 7.83698 42.2126 23.4016 25.5497C38.9662 8.51658 61.5719 0 91.2187 0C120.866 0 143.471 8.51658 159.036 25.5497C174.6 42.2126 182.383 66.2812 182.383 97.7555C182.383 121.454 176.639 144.597 165.15 167.184C154.033 189.772 134.577 215.692 106.783 244.944C88.6246 264.199 76.3953 279.936 70.0953 292.156C63.7954 304.005 60.6454 316.78 60.6454 330.48V338.812H176.824V394.355H0.0546875V352.142Z" fill="url(#paint1_linear_311_71)"/>
<path d="M312.119 399.909C282.102 399.909 259.126 391.392 243.191 374.359C227.255 357.326 219.288 333.258 219.288 302.154V97.7555C219.288 66.6515 227.255 42.5829 243.191 25.5497C259.126 8.51658 282.102 0 312.119 0C342.137 0 365.113 8.51658 381.048 25.5497C396.983 42.5829 404.951 66.6515 404.951 97.7555V302.154C404.951 333.258 396.983 357.326 381.048 374.359C365.113 391.392 342.137 399.909 312.119 399.909ZM312.119 344.366C333.243 344.366 343.804 331.591 343.804 306.042V93.8676C343.804 68.3178 333.243 55.5429 312.119 55.5429C290.996 55.5429 280.434 68.3178 280.434 93.8676V306.042C280.434 331.591 290.996 344.366 312.119 344.366Z" fill="url(#paint2_linear_311_71)"/>
<path d="M513.009 221.616H438.521V178.293H513.009V103.31H556.367V178.293H630.855V221.616H556.367V297.71H513.009V221.616Z" fill="url(#paint3_linear_311_71)"/>
<defs>
<linearGradient id="paint0_linear_311_71" x1="330.545" y1="15.0909" x2="330.545" y2="415" gradientUnits="userSpaceOnUse">
<stop stop-color="#5C618F"/>
<stop offset="1" stop-color="#5C618F" stop-opacity="0"/>
</linearGradient>
<linearGradient id="paint1_linear_311_71" x1="298.1" y1="-21.8818" x2="284.614" y2="453.747" gradientUnits="userSpaceOnUse">
<stop stop-color="#8B2D50"/>
<stop offset="0.391886" stop-color="#421E4A"/>
<stop offset="0.687744" stop-color="#0A0B16"/>
</linearGradient>
<linearGradient id="paint2_linear_311_71" x1="298.1" y1="-21.8818" x2="284.614" y2="453.747" gradientUnits="userSpaceOnUse">
<stop stop-color="#8B2D50"/>
<stop offset="0.391886" stop-color="#421E4A"/>
<stop offset="0.687744" stop-color="#0A0B16"/>
</linearGradient>
<linearGradient id="paint3_linear_311_71" x1="298.1" y1="-21.8818" x2="284.614" y2="453.747" gradientUnits="userSpaceOnUse">
<stop stop-color="#8B2D50"/>
<stop offset="0.391886" stop-color="#421E4A"/>
<stop offset="0.687744" stop-color="#0A0B16"/>
</linearGradient>
</defs>
</svg>
