<svg width="17" height="17" viewBox="0 0 17 17" fill="none" xmlns="http://www.w3.org/2000/svg">
<path d="M0.0564453 0.0896473C0.0896484 0.142773 1.54395 2.25781 3.28711 4.79785C5.03027 7.33789 6.45801 9.42969 6.45801 9.44629C6.45801 9.46621 5.02695 11.1463 3.27383 13.185C1.52402 15.2203 0.0697266 16.9137 0.0431641 16.9436C0 16.9967 0.0464844 17 0.727149 17H1.45762L4.27656 13.7229C5.82715 11.9232 7.11211 10.4424 7.12871 10.4391C7.14863 10.4324 8.17793 11.9066 9.41641 13.7129L11.6709 17H14.1412C16.482 17 16.6082 16.9967 16.5783 16.9402C16.5617 16.9104 15.051 14.709 13.2248 12.0527C11.3986 9.39648 9.90117 7.21504 9.90117 7.20508C9.90117 7.1918 11.2891 5.57148 12.9857 3.60254L16.067 0.0166016L15.3531 0.00663948C14.7654 0 14.6293 0.00663948 14.5861 0.046484C14.5563 0.0730457 13.3443 1.47754 11.8934 3.16426C10.4424 4.8543 9.24375 6.22891 9.23047 6.22227C9.21719 6.2123 8.24766 4.81113 7.07559 3.10449L4.94395 0H2.47031H0L0.0564453 0.0896473ZM9.40313 8.48672C12.242 12.5508 14.5729 15.8877 14.5762 15.9076C14.5861 15.9275 14.1844 15.9342 13.4672 15.9309L12.3449 15.9209L7.17188 8.52324C4.32637 4.45254 1.99883 1.11562 1.99883 1.10898C1.99883 1.10234 2.50352 1.0957 3.12109 1.0957L4.24004 1.09902L9.40313 8.48672Z" fill="white"/>
</svg>
